<?xml version="1.0" encoding="UTF-8" standalone="no"?>
<!-- Created with Inkscape (http://www.inkscape.org/) -->

<svg
   width="75"
   height="75"
   viewBox="0 0 19.84375 19.84375"
   version="1.1"
   id="svg739"
   inkscape:version="1.2.2 (b0a8486541, 2022-12-01)"
   sodipodi:docname="aquarius.svg"
   xml:space="preserve"
   xmlns:inkscape="http://www.inkscape.org/namespaces/inkscape"
   xmlns:sodipodi="http://sodipodi.sourceforge.net/DTD/sodipodi-0.dtd"
   xmlns="http://www.w3.org/2000/svg"
   xmlns:svg="http://www.w3.org/2000/svg"><sodipodi:namedview
     id="namedview741"
     pagecolor="#ffffff"
     bordercolor="#999999"
     borderopacity="1"
     inkscape:showpageshadow="0"
     inkscape:pageopacity="0"
     inkscape:pagecheckerboard="0"
     inkscape:deskcolor="#d1d1d1"
     inkscape:document-units="px"
     showgrid="false"
     inkscape:zoom="3.9509095"
     inkscape:cx="18.223652"
     inkscape:cy="40.243898"
     inkscape:window-width="1280"
     inkscape:window-height="955"
     inkscape:window-x="0"
     inkscape:window-y="0"
     inkscape:window-maximized="1"
     inkscape:current-layer="layer1" /><defs
     id="defs736" /><g
     inkscape:label="Warstwa 1"
     inkscape:groupmode="layer"
     id="layer1"><path
       style="fill:#000000;stroke-width:0.0302388"
       d="m 15.15088,14.536186 c -0.252059,-0.02777 -0.579507,-0.098 -0.663014,-0.142199 -0.08734,-0.04624 -0.434069,-0.152624 -0.498962,-0.153106 -0.02869,-2.12e-4 -0.09715,-0.0376 -0.152131,-0.08309 -0.236655,-0.195753 -0.586817,-0.35033 -1.110223,-0.490102 -0.283951,-0.07582 -0.33763,-0.07428 -0.696571,0.02013 -0.164885,0.04337 -0.347679,0.08914 -0.406211,0.101726 -0.248786,0.0535 -0.455534,0.12138 -0.678221,0.222689 -0.130533,0.05938 -0.26246,0.10797 -0.293173,0.10797 -0.03071,0 -0.252298,0.04746 -0.492415,0.105473 -0.4203438,0.10155 -0.773954,0.135191 -1.6984306,0.161581 -0.041804,0.0012 -0.1649533,-0.01797 -0.273655,-0.04259 -0.1087028,-0.0246 -0.3071023,-0.05838 -0.4408895,-0.07504 -0.1337873,-0.01667 -0.297946,-0.03704 -0.3647986,-0.04529 C 7.2095496,14.203057 6.9077184,14.119399 6.8277492,14.070669 6.6097654,13.937838 6.0968843,13.693022 5.8898898,13.622995 5.7573783,13.578167 5.6328114,13.528736 5.613073,13.513146 c -0.037021,-0.02923 -0.4113414,-0.0986 -0.7850792,-0.145483 -0.322162,-0.04041 -0.6768207,-0.03485 -0.8969808,0.01407 -0.1087018,0.02415 -0.2660536,0.05659 -0.3496709,0.07209 -0.1926862,0.03571 -0.4990511,0.163545 -0.6975817,0.291072 -0.084589,0.05433 -0.2085213,0.115155 -0.275415,0.135161 -0.066899,0.02001 -0.1626729,0.05414 -0.2128428,0.07584 -0.050169,0.02171 -0.1459493,0.05529 -0.2128429,0.07461 -0.066899,0.01933 -0.2242454,0.07317 -0.3496709,0.11964 -0.2570283,0.09523 -0.440062,0.112045 -0.83616871,0.07679 C 0.64617972,14.195746 0.6142773,14.182506 0.43257541,13.992702 0.25860098,13.810977 0.16065143,13.642784 0.16065143,13.525778 c 0,-0.04474 -0.0361509,-0.151998 -0.08032637,-0.238355 L -1.3050677e-6,13.13041 0.06833814,12.973299 c 0.07758479,-0.178372 0.21016032,-0.386784 0.24604104,-0.386784 0.0132176,0 0.0801162,-0.05659 0.14867682,-0.125768 0.0973062,-0.09818 0.15618917,-0.130843 0.26839394,-0.148895 0.36538396,-0.05879 1.06054926,-0.279727 1.43901176,-0.45735 0.206163,-0.09677 0.8823443,-0.260375 1.0760602,-0.260375 0.035701,0 0.1666892,-0.02557 0.291083,-0.05681 0.2262486,-0.05683 0.7681985,-0.10366 1.1687617,-0.100992 0.4403832,0.003 1.0920714,0.127623 1.4350234,0.274569 0.1203285,0.05156 0.2383766,0.09374 0.2623304,0.09374 0.023954,0 0.060705,0.02043 0.081657,0.04542 0.020962,0.02498 0.1149934,0.06639 0.2089646,0.09203 0.093974,0.02565 0.2392711,0.07354 0.3228884,0.10646 0.083618,0.03292 0.2120514,0.07316 0.2854088,0.08945 0.073362,0.01629 0.1675627,0.0562 0.2093428,0.08871 0.05248,0.04083 0.1240376,0.05939 0.2314947,0.06005 0.085539,5.23e-4 0.2923597,0.02056 0.4595933,0.04453 0.5728757,0.08209 0.6899272,0.06815 1.4290889,-0.170193 0.1505099,-0.04853 0.3831181,-0.107639 0.5169051,-0.131349 0.133787,-0.02371 0.400601,-0.09888 0.59292,-0.167036 0.514387,-0.182304 0.851038,-0.288061 1.041361,-0.327138 0.216716,-0.0445 1.156669,-0.02237 1.284709,0.03023 0.05017,0.02061 0.173315,0.04713 0.273655,0.05892 0.156212,0.01836 0.643318,0.200556 0.805763,0.301396 0.111507,0.06922 0.439243,0.209336 0.489646,0.209336 0.03055,0 0.101535,0.03993 0.157742,0.08874 0.09144,0.07941 0.130749,0.0908 0.373532,0.108299 0.400257,0.02885 1.010945,-0.09691 1.090752,-0.224624 0.01119,-0.01791 0.07769,-0.03292 0.147778,-0.03334 0.140229,-8.63e-4 0.548931,-0.124423 0.625987,-0.189251 0.08821,-0.07421 0.524535,-0.174126 0.778503,-0.178266 0.133787,-0.0022 0.462862,0.01177 0.731277,0.031 0.531195,0.03805 0.557281,0.04625 0.944543,0.296618 0.223831,0.144711 0.230054,0.153005 0.211237,0.281522 -0.0085,0.05803 0.0052,0.179822 0.03036,0.270651 0.07873,0.283828 0.132858,0.670504 0.109407,0.781625 -0.01864,0.08833 -0.04769,0.118037 -0.180692,0.184789 -0.08716,0.04375 -0.204627,0.119608 -0.261029,0.168587 l -0.102549,0.08905 -0.498028,0.01615 c -0.428998,0.01392 -0.531744,0.02716 -0.741277,0.09551 -0.133788,0.04364 -0.286254,0.102605 -0.338813,0.131021 -0.381342,0.20618 -0.989441,0.429355 -1.166492,0.42811 -0.04191,-3.01e-4 -0.124016,0.01363 -0.182438,0.03093 -0.128608,0.0381 -0.941424,0.0539 -1.216045,0.02365 z m -1.003402,-6.3428 C 14.072228,8.180709 13.934095,8.169333 13.840528,8.168107 13.711257,8.166417 13.657261,8.151514 13.615671,8.106063 13.585564,8.0731632 13.463723,8.0164219 13.344905,7.9799703 13.226087,7.9435178 13.087823,7.884533 13.037653,7.8488912 12.884832,7.740325 12.536383,7.536064 12.231891,7.3765522 11.924717,7.215636 11.660744,7.1434178 11.379732,7.1434178 c -0.231479,0 -0.664833,0.056273 -0.740083,0.096104 -0.03415,0.018075 -0.124292,0.050233 -0.200318,0.071465 C 10.218454,7.372667 9.6783918,7.6063119 9.4838275,7.7243619 9.1592091,7.9213213 8.1575889,8.1816325 7.7469839,8.1757501 7.343598,8.1699708 6.8506094,8.1130435 6.7739942,8.0633944 6.7333607,8.0370614 6.6629741,8.0155159 6.6175839,8.0155159 6.4311042,8.0155159 5.9659427,7.8387523 5.5252423,7.6004209 5.4404734,7.554578 5.3159625,7.500727 5.2485506,7.4807515 5.1811417,7.4607756 5.0657771,7.3990854 4.9921916,7.3436615 4.9186091,7.2882373 4.8072008,7.2262621 4.7446247,7.2059387 4.632658,7.1695751 4.5358502,7.1211682 4.204668,6.9359478 4.0226559,6.8341536 4.0014246,6.8332697 3.4749207,6.9055663 3.1124945,6.955332 2.3097571,7.2046249 1.7807827,7.4316859 1.4790915,7.5611862 1.4637517,7.5644497 1.2493649,7.5447433 1.0308128,7.5246536 1.0268505,7.5227258 0.85308016,7.3519275 0.68089176,7.1826833 0.67755583,7.1761958 0.67755583,7.0106411 c 0,-0.092819 -0.015569,-0.193425 -0.03461,-0.2235678 C 0.6213834,6.7529233 0.61612036,6.6809292 0.6289978,6.59605 0.64586754,6.4847784 0.67226277,6.4418583 0.773133,6.3616887 0.84105221,6.3077103 0.95336805,6.2510453 1.0227331,6.2357673 1.1346737,6.2111116 1.5861173,6.0043388 1.6657563,5.941246 1.682476,5.9279972 1.7987831,5.863356 1.9242085,5.7976001 2.2241407,5.6403556 2.5619857,5.5206843 2.8036142,5.4860972 c 0.107397,-0.015373 0.2110388,-0.040896 0.2303139,-0.056717 0.057403,-0.047115 0.4602467,-0.120191 0.741299,-0.134472 0.3078487,-0.015642 0.588983,0.025946 0.7218897,0.1067894 0.05214,0.031717 0.1369981,0.057669 0.1885658,0.057669 0.05157,0 0.2004618,0.046324 0.3308781,0.102943 0.1304162,0.056619 0.2781685,0.112525 0.3283385,0.1242361 0.050169,0.011711 0.1185845,0.044208 0.1520308,0.072216 0.033449,0.028007 0.1497504,0.088837 0.2584522,0.1351772 0.1087027,0.046341 0.2258874,0.1096109 0.2604123,0.1406014 0.03452,0.03099 0.077945,0.056347 0.096486,0.056347 0.018541,0 0.072392,0.031528 0.1196641,0.070063 0.1162561,0.094767 0.1688354,0.1112353 0.4443295,0.139169 0.1581793,0.016038 0.2567612,0.041915 0.2970405,0.077966 0.078565,0.070323 0.2851045,0.078793 0.5760295,0.023624 0.1254251,-0.023786 0.2964598,-0.054712 0.3800771,-0.068726 0.083618,-0.014014 0.2136023,-0.047741 0.2888577,-0.074952 0.075254,-0.02721 0.2162239,-0.061489 0.3132629,-0.076176 0.1657617,-0.025088 0.5521467,-0.1950013 0.6645116,-0.2922195 0.027716,-0.023977 0.1527932,-0.068904 0.2779565,-0.099839 0.1251642,-0.030935 0.2803658,-0.078215 0.3448941,-0.105066 0.402407,-0.1674528 1.802423,-0.3944951 1.956115,-0.3172256 0.02551,0.012827 0.176375,0.047427 0.335247,0.076888 0.158873,0.02946 0.364114,0.080452 0.456092,0.1133142 0.263136,0.094013 0.842592,0.3840029 1.12331,0.5621614 0.07912,0.050219 0.164475,0.091308 0.189658,0.091308 0.02519,0 0.126606,0.027515 0.225384,0.061143 0.149054,0.050746 0.27267,0.062731 0.726906,0.070477 0.568825,0.0097 1.039839,-0.020785 1.170637,-0.075768 0.0418,-0.017575 0.156188,-0.043279 0.254177,-0.05712 0.11457,-0.016182 0.222028,-0.055333 0.301059,-0.1096837 0.289519,-0.1991055 0.40595,-0.2484232 0.634511,-0.2687679 0.123276,-0.010973 0.306235,-0.045828 0.406575,-0.077454 0.10034,-0.031626 0.360081,-0.07724 0.577201,-0.1013624 0.375769,-0.041749 0.398446,-0.041171 0.471295,0.012002 0.04209,0.030723 0.179152,0.086838 0.304577,0.1246995 0.271457,0.081943 0.296414,0.099398 0.36603,0.256012 0.02952,0.066394 0.08921,0.1673254 0.132673,0.224293 0.04346,0.056968 0.07902,0.1284256 0.07902,0.1587953 0,0.03037 0.03651,0.1993191 0.08114,0.3754431 l 0.08114,0.3202254 -0.0716,0.047246 c -0.03938,0.025985 -0.127202,0.1026713 -0.195154,0.170414 -0.06795,0.067743 -0.151489,0.1377579 -0.185638,0.1555895 -0.0943,0.049243 -0.509904,0.095392 -0.850096,0.094396 -0.378237,-0.00111 -0.56461,0.034298 -0.798001,0.1515974 -0.100385,0.050453 -0.193428,0.091732 -0.20676,0.091732 -0.01334,0 -0.10742,0.039898 -0.209082,0.088664 -0.101662,0.048765 -0.246412,0.1019967 -0.321668,0.1182921 -0.07525,0.016295 -0.198399,0.044916 -0.273655,0.063603 -0.07525,0.018687 -0.247206,0.032272 -0.382114,0.03019 -0.134908,-0.00208 -0.367515,0.016533 -0.516905,0.041367 -0.289993,0.048207 -1.281286,0.058672 -1.533472,0.016187 z"
       id="path393" /></g></svg>
