<?xml version="1.0" encoding="UTF-8" standalone="no"?>
<!-- Created with Inkscape (http://www.inkscape.org/) -->

<svg
   width="75"
   height="75"
   viewBox="0 0 19.84375 19.84375"
   version="1.1"
   id="svg739"
   inkscape:version="1.2.2 (b0a8486541, 2022-12-01)"
   sodipodi:docname="cancer.svg"
   xml:space="preserve"
   xmlns:inkscape="http://www.inkscape.org/namespaces/inkscape"
   xmlns:sodipodi="http://sodipodi.sourceforge.net/DTD/sodipodi-0.dtd"
   xmlns="http://www.w3.org/2000/svg"
   xmlns:svg="http://www.w3.org/2000/svg"><sodipodi:namedview
     id="namedview741"
     pagecolor="#ffffff"
     bordercolor="#999999"
     borderopacity="1"
     inkscape:showpageshadow="0"
     inkscape:pageopacity="0"
     inkscape:pagecheckerboard="0"
     inkscape:deskcolor="#d1d1d1"
     inkscape:document-units="px"
     showgrid="false"
     inkscape:zoom="5.5874298"
     inkscape:cx="32.841576"
     inkscape:cy="39.374096"
     inkscape:window-width="1280"
     inkscape:window-height="955"
     inkscape:window-x="0"
     inkscape:window-y="0"
     inkscape:window-maximized="1"
     inkscape:current-layer="layer1" /><defs
     id="defs736" /><g
     inkscape:label="Warstwa 1"
     inkscape:groupmode="layer"
     id="layer1"><path
       style="fill:#000000;stroke-width:0.0289921"
       d="m 8.7030473,19.83604 c -0.0088,-0.0088 -0.179692,-0.04035 -0.379766,-0.07077 -0.200074,-0.03032 -0.449664,-0.07613 -0.554645,-0.1019 -0.104981,-0.02573 -0.250339,-0.0578 -0.323019,-0.07135 -0.27436,-0.05108 -0.481387,-0.121229 -0.59554,-0.201831 -0.06492,-0.04581 -0.155106,-0.08334 -0.200411,-0.08334 -0.0453,0 -0.165555,-0.03753 -0.267223,-0.08334 -0.203085,-0.09153 -0.569386,-0.202903 -0.667519,-0.202903 -0.03434,0 -0.06983,-0.01881 -0.07887,-0.04172 -0.009,-0.023 -0.07139,-0.07379 -0.138564,-0.112934 -0.06717,-0.03918 -0.197102,-0.139515 -0.288733,-0.223031 -0.198939,-0.181302 -0.315751,-0.270491 -0.480055,-0.366513 -0.06735,-0.03938 -0.166032,-0.09728 -0.219304,-0.128803 -0.05327,-0.03148 -0.183404,-0.144769 -0.289183,-0.251737 -0.105778,-0.106979 -0.233299,-0.21345 -0.283379,-0.23661 -0.05008,-0.0232 -0.113971,-0.07993 -0.14198,-0.126151 -0.02801,-0.0462 -0.08689,-0.109649 -0.130854,-0.140968 -0.18458,-0.131473 -0.47636,-0.427737 -0.47636,-0.483687 0,-0.03236 -0.03072,-0.09523 -0.06828,-0.139749 -0.03755,-0.04445 -0.112136,-0.158191 -0.165741,-0.252654 -0.0536,-0.09445 -0.147525,-0.223265 -0.20871,-0.286233 -0.06629,-0.06823 -0.188439,-0.270658 -0.302255,-0.500912 -0.148808,-0.301049 -0.211146,-0.397997 -0.282162,-0.43883 -0.05777,-0.03324 -0.0975,-0.08334 -0.108479,-0.136834 -0.01598,-0.07788 -0.07302,-0.138277 -0.199932,-0.211705 -0.04293,-0.02486 -0.04473,-0.03977 -0.01302,-0.107621 0.03254,-0.0696 0.02943,-0.08646 -0.02675,-0.14475 -0.03497,-0.03626 -0.06358,-0.08032 -0.06358,-0.09783 0,-0.01754 -0.03221,-0.05653 -0.07157,-0.08675 -0.03936,-0.03022 -0.11691,-0.145695 -0.172327,-0.256689 -0.05542,-0.110995 -0.140135,-0.251465 -0.188261,-0.312152 -0.09806,-0.123666 -0.213649,-0.399061 -0.235067,-0.560079 -0.0078,-0.05839 -0.03261,-0.12119 -0.0552,-0.139466 -0.02259,-0.01823 -0.04131,-0.06706 -0.04161,-0.108431 -3.33e-4,-0.04133 -0.0393,-0.130976 -0.08669,-0.19912 -0.09671,-0.139096 -0.177067,-0.378649 -0.177067,-0.527824 0,-0.05449 -0.02419,-0.129797 -0.05375,-0.167335 -0.09488,-0.120507 -0.175927,-0.399606 -0.192152,-0.661724 -0.0036,-0.05878 -0.03589,-0.145461 -0.07167,-0.192639 -0.05218,-0.06882 -0.06135,-0.108362 -0.04634,-0.199881 0.01497,-0.09124 0.003,-0.143375 -0.05963,-0.260159 -0.04465,-0.08324 -0.07098,-0.168679 -0.06122,-0.198663 0.02331,-0.07155 -0.03848,-0.30836 -0.111361,-0.426791 -0.04284,-0.0696 -0.05791,-0.138892 -0.05347,-0.245879 0.0043,-0.1033525 -0.0073,-0.159878 -0.03785,-0.1845877 -0.03458,-0.027975 -0.0403,-0.076517 -0.02666,-0.2264041 0.0096,-0.1049312 0.02665,-0.2036631 0.03799,-0.2194149 0.01134,-0.015791 0.04427,-0.1290854 0.07317,-0.2518836 0.0289,-0.1227983 0.08407,-0.268542 0.122601,-0.323888 0.0745,-0.1070172 0.190176,-0.3987873 0.167038,-0.4213429 -0.0076,-0.0078 0.01198,-0.075933 0.04351,-0.1522063 0.03152,-0.076322 0.0744,-0.1967033 0.09528,-0.2675477 0.02088,-0.070864 0.06119,-0.1545652 0.08958,-0.1860494 0.02839,-0.031484 0.07734,-0.1152148 0.108781,-0.1860592 0.03144,-0.070864 0.09073,-0.1590587 0.13176,-0.1960308 0.04102,-0.036943 0.09047,-0.1046095 0.109881,-0.1502763 0.029,-0.068232 0.0528,-0.083048 0.133524,-0.083048 0.09659,0 0.171055,-0.050979 0.500833,-0.3432268 0.05076,-0.044936 0.153019,-0.1018705 0.227232,-0.1264341 0.07421,-0.024564 0.158214,-0.056243 0.18667,-0.070377 0.102794,-0.051077 0.37689,-0.1469427 0.42022,-0.1469427 0.02438,0 0.136446,-0.038307 0.249037,-0.085095 0.24587,-0.1022019 0.281089,-0.1042098 0.447937,-0.025441 0.109349,0.051564 0.162474,0.058582 0.339631,0.044448 0.195547,-0.015596 0.477934,-0.095622 0.55734,-0.1579866 0.01893,-0.014913 0.09388,-0.036358 0.166559,-0.047665 0.08893,-0.013841 0.152002,-0.044351 0.192864,-0.093088 0.06518,-0.077882 0.157724,-0.088214 0.511904,-0.05751 0.164944,0.014329 0.247036,0.05673 0.954374,0.4934252 0.113056,0.069792 0.216026,0.1274575 0.228821,0.1281204 0.08762,0.00487 0.424154,0.3625073 0.661092,0.7031219 0.07627,0.1096392 0.174753,0.2161982 0.218849,0.2368043 0.04754,0.022224 0.08721,0.068914 0.09746,0.1146884 0.0095,0.042499 0.03105,0.1158873 0.04787,0.1631136 0.04078,0.1144935 0.07754,0.5254358 0.09858,1.1020067 0.0098,0.2686297 0.03344,0.5154934 0.05483,0.572477 0.04779,0.1273698 0.02815,0.7603886 -0.0262,0.8445086 -0.02039,0.03158 -0.04419,0.102397 -0.05289,0.157431 -0.0087,0.05507 -0.03696,0.190231 -0.06279,0.300426 -0.02583,0.110195 -0.04701,0.226121 -0.04707,0.257615 -5.9e-5,0.03148 -0.02979,0.100935 -0.06607,0.154321 -0.117359,0.172696 -0.194703,0.301489 -0.242519,0.403847 -0.02574,0.05507 -0.07996,0.133929 -0.12049,0.175181 -0.04053,0.04123 -0.09599,0.114201 -0.123244,0.162129 -0.02726,0.04796 -0.07933,0.13933 -0.115723,0.203127 -0.03639,0.06375 -0.09586,0.131366 -0.132144,0.150159 -0.08333,0.04318 -0.292022,0.208897 -0.429931,0.341472 -0.05824,0.05595 -0.178569,0.131211 -0.267399,0.167169 -0.08883,0.03597 -0.20114,0.0848 -0.249577,0.108489 -0.29112,0.142488 -0.601856,0.169459 -1.057205,0.09172 -0.113043,-0.0193 -0.265929,-0.03772 -0.339749,-0.04104 -0.07382,-0.0029 -0.199355,-0.03451 -0.27897,-0.0694 -0.197213,-0.08646 -0.640089,-0.228997 -0.657829,-0.211705 -0.0079,0.0078 0.0098,0.05507 0.03927,0.105185 0.02952,0.0501 0.07287,0.14627 0.09633,0.213635 0.04199,0.120536 0.09641,0.209443 0.249262,0.407218 0.04254,0.05507 0.08705,0.132273 0.09891,0.171633 0.01186,0.03938 0.0399,0.09202 0.06232,0.11694 0.02242,0.02495 0.07874,0.121834 0.125172,0.215253 0.04643,0.09348 0.150143,0.246893 0.230477,0.341034 0.08034,0.09416 0.162526,0.22038 0.182647,0.280512 0.02012,0.06014 0.05387,0.115809 0.07499,0.123714 0.02112,0.0078 0.05524,0.05527 0.07583,0.105331 0.02058,0.05 0.06474,0.124767 0.09813,0.166077 0.03339,0.04133 0.08713,0.118158 0.119434,0.170785 0.138852,0.226199 0.170096,0.265647 0.316096,0.399167 0.08456,0.0773 0.186786,0.171165 0.227163,0.208508 0.04038,0.03733 0.179129,0.187541 0.308336,0.333772 0.138026,0.156222 0.275402,0.282607 0.333062,0.30644 0.05398,0.02232 0.192727,0.111764 0.308336,0.198799 0.115608,0.08704 0.276269,0.207143 0.357024,0.266924 0.08075,0.05975 0.178861,0.142478 0.218017,0.183758 0.03915,0.04133 0.09201,0.07515 0.117461,0.07515 0.02545,5.9e-5 0.08591,0.02369 0.134366,0.05244 0.04845,0.02876 0.207026,0.10152 0.352384,0.161642 0.145358,0.06014 0.279914,0.121093 0.299012,0.135499 0.0191,0.01443 0.118207,0.03938 0.22024,0.05537 0.486113,0.07642 0.757094,0.13161 0.799275,0.162733 0.07845,0.0579 0.411383,0.103021 0.766411,0.103898 0.209962,5.17e-4 0.39819,0.01131 0.418285,0.02398 0.077,0.04854 0.8185797,0.05439 1.0564907,0.0088 0.125627,-0.02437 0.318025,-0.05078 0.427551,-0.05878 0.109527,-0.0078 0.221849,-0.02583 0.249606,-0.03977 0.02776,-0.01384 0.108015,-0.03382 0.178352,-0.04425 0.07034,-0.01053 0.165485,-0.03801 0.21144,-0.06121 0.04596,-0.0232 0.117415,-0.04211 0.158798,-0.04211 0.04138,0 0.170881,-0.027 0.287771,-0.06004 0.116889,-0.03304 0.357885,-0.08315 0.535545,-0.111462 0.17766,-0.02827 0.349447,-0.06043 0.38175,-0.07155 0.08431,-0.02885 0.247791,-0.09925 0.367848,-0.158338 0.113113,-0.05566 0.304398,-0.11076 0.444642,-0.128062 0.04914,-0.0058 0.111081,-0.02924 0.13764,-0.05147 0.0725,-0.06073 0.45094,-0.249077 0.502492,-0.2501 0.02475,-4.88e-4 0.09787,-0.03265 0.16247,-0.07145 0.0646,-0.03879 0.15836,-0.07057 0.208347,-0.07067 0.05198,-8.8e-5 0.112596,-0.02349 0.141605,-0.05478 0.04995,-0.05381 0.291806,-0.145734 0.38339,-0.145734 0.0258,0 0.07947,-0.02076 0.119278,-0.0462 0.0398,-0.02544 0.179303,-0.08237 0.309996,-0.126434 0.189825,-0.06404 0.263564,-0.106589 0.36658,-0.211383 0.07093,-0.07213 0.152304,-0.131425 0.180839,-0.131708 0.02854,-2.92e-4 0.109959,-0.03889 0.18094,-0.08578 0.07098,-0.04688 0.211697,-0.109406 0.312702,-0.13894 0.150529,-0.04406 0.212408,-0.08266 0.34313,-0.21421 0.09699,-0.09761 0.221853,-0.187463 0.318652,-0.229299 0.08754,-0.03782 0.185597,-0.09793 0.2179,-0.13354 0.0323,-0.03558 0.118195,-0.09036 0.190875,-0.121745 0.07268,-0.03139 0.166293,-0.08032 0.208032,-0.108908 0.04174,-0.02856 0.172487,-0.0772 0.290552,-0.108031 l 0.214664,-0.05615 0.16461,0.06014 c 0.09054,0.03304 0.201964,0.08987 0.247618,0.126249 0.04565,0.03636 0.0947,0.06619 0.108985,0.06619 0.01429,0 0.07831,0.05156 0.142271,0.114503 0.06396,0.06297 0.129213,0.114494 0.145004,0.114494 0.0297,0 0.05483,0.138491 0.08267,0.455663 0.01333,0.151865 0.0051,0.205242 -0.04738,0.307698 -0.03493,0.06813 -0.07889,0.123968 -0.09769,0.123968 -0.01879,0 -0.129676,0.09982 -0.246405,0.221832 -0.33992,0.355294 -0.413871,0.418458 -0.61277,0.52335 -0.08577,0.04523 -0.211335,0.140802 -0.279021,0.212377 -0.06769,0.07155 -0.141879,0.130138 -0.164871,0.130138 -0.02299,0 -0.08408,0.04347 -0.135746,0.0967 -0.05197,0.05351 -0.135315,0.104093 -0.186548,0.113226 -0.05093,0.0088 -0.17647,0.05361 -0.27897,0.09888 -0.1025,0.04533 -0.259042,0.113012 -0.347873,0.150491 -0.08883,0.03743 -0.207759,0.102465 -0.264288,0.144428 -0.13893,0.103108 -0.594082,0.32303 -0.792863,0.383094 -0.08883,0.0268 -0.181331,0.06472 -0.205557,0.08432 -0.02423,0.01949 -0.105745,0.0577 -0.181151,0.0848 -0.07541,0.0271 -0.158302,0.08081 -0.184211,0.119347 -0.02955,0.04396 -0.07495,0.07008 -0.121802,0.07008 -0.04108,0 -0.116761,0.03051 -0.168174,0.06774 -0.05245,0.03802 -0.211798,0.09572 -0.363076,0.131513 -0.161462,0.03821 -0.289905,0.08568 -0.320228,0.118304 -0.03504,0.03772 -0.09005,0.05449 -0.178622,0.05449 -0.0704,0 -0.150937,0.01189 -0.178983,0.02632 -0.23419,0.120995 -0.451795,0.19296 -0.601945,0.199081 -0.09306,0.0039 -0.245028,0.03363 -0.337701,0.06628 -0.09267,0.03265 -0.234568,0.06882 -0.315322,0.08032 -0.538406,0.07662 -0.679788,0.113645 -0.804002,0.210623 -0.02228,0.01735 -0.127992,0.03275 -0.234922,0.03421 -0.261257,0.0039 -0.438923,0.03168 -0.517878,0.08207 -0.06636,0.0424 -0.175387,0.05507 -0.776857,0.09075 -0.18525,0.01102 -0.382514,0.0386 -0.438367,0.06131 -0.07566,0.0308 -0.2822517,0.04445 -0.8104117,0.05361 -0.389875,0.0068 -0.716062,0.0049 -0.724861,-0.0029 z m -3.496758,-8.396894 c 0.245563,-0.23427 0.291543,-0.320525 0.345351,-0.647815 0.01035,-0.06297 0.0299,-0.140256 0.04344,-0.17174 0.07903,-0.183749 0.127145,-0.667836 0.09673,-0.9732041 -0.01254,-0.1259467 -0.01058,-0.350245 0.0044,-0.4984354 0.03529,-0.3500403 -0.0032,-0.580655 -0.123975,-0.7432034 C 5.4646583,8.2599889 5.0623243,7.9371537 4.8091633,7.7924529 4.5287323,7.632166 4.4703473,7.6452275 3.6952593,8.0417534 c -0.28116,0.143843 -0.625047,0.4129406 -0.625047,0.4891169 0,0.016376 -0.04043,0.053026 -0.08985,0.081489 -0.103745,0.059752 -0.145075,0.1468939 -0.145075,0.3059429 0,0.063651 -0.03138,0.1717304 -0.07219,0.248589 -0.0397,0.074763 -0.09301,0.2519031 -0.118453,0.3935919 -0.04431,0.2467665 -0.04373,0.2672556 0.01384,0.4866019 0.103883,0.395775 0.141591,0.482771 0.235734,0.543849 0.04853,0.03148 0.09551,0.07934 0.104407,0.106364 0.03545,0.107651 0.479018,0.467994 0.732362,0.594945 0.13969,0.06999 0.262895,0.140499 0.273788,0.156651 0.0711,0.105457 0.446802,0.206996 0.786292,0.212513 l 0.179182,0.0029 z m 11.0489247,1.669786 c -0.08883,-0.02125 -0.235324,-0.05117 -0.325543,-0.06648 -0.09022,-0.0153 -0.278254,-0.08051 -0.417857,-0.144827 -0.139604,-0.06433 -0.284817,-0.116989 -0.322698,-0.116989 -0.03788,0 -0.09016,-0.02252 -0.116168,-0.0501 -0.160328,-0.16981 -0.233495,-0.231044 -0.36767,-0.307707 -0.08266,-0.04728 -0.166199,-0.114464 -0.185631,-0.149409 -0.01943,-0.03499 -0.08617,-0.09788 -0.148304,-0.139856 -0.06213,-0.04201 -0.112971,-0.08783 -0.112971,-0.102007 0,-0.01413 -0.105479,-0.134856 -0.234398,-0.26826 -0.128918,-0.133413 -0.257758,-0.27788 -0.286311,-0.321041 -0.07516,-0.113616 -0.123185,-0.171536 -0.279496,-0.337057 -0.07672,-0.0812 -0.139485,-0.168621 -0.139485,-0.194179 0,-0.02554 -0.03964,-0.122506 -0.0881,-0.215448 -0.04845,-0.09289 -0.0881,-0.183729 -0.0881,-0.201752 0,-0.01803 -0.03498,-0.09798 -0.07774,-0.177686 -0.05653,-0.10537 -0.08402,-0.212095 -0.100757,-0.3910675 -0.04015,-0.4293555 0.01822,-0.6969423 0.240063,-1.1005741 0.03212,-0.058387 0.07732,-0.1683675 0.100449,-0.2442806 0.02313,-0.075933 0.06882,-0.1660379 0.101528,-0.2002612 0.03271,-0.034214 0.05947,-0.082366 0.05947,-0.1069001 0,-0.024564 0.09746,-0.1514558 0.216583,-0.2819643 0.11912,-0.1304987 0.237218,-0.2761742 0.262442,-0.3237222 0.06306,-0.1188701 0.512099,-0.5777016 0.617234,-0.6306887 0.04714,-0.023784 0.1446,-0.1022701 0.216583,-0.1744694 0.143123,-0.1435408 0.288518,-0.2401185 0.623386,-0.4140616 0.120627,-0.062676 0.255526,-0.1472253 0.299775,-0.1879404 0.04425,-0.040744 0.148071,-0.1088789 0.230717,-0.151485 0.08265,-0.042596 0.172611,-0.096695 0.199919,-0.1201956 0.02731,-0.023491 0.105054,-0.051564 0.172766,-0.062384 0.141242,-0.022614 0.169641,-0.049225 0.195805,-0.1835053 0.01404,-0.072131 0.0026,-0.1231687 -0.04498,-0.2003684 C 16.368145,5.40008 15.82978,4.8947044 15.667891,4.8026983 15.595211,4.7613692 15.449854,4.655512 15.344873,4.5673951 15.073095,4.3392952 14.658932,4.0521356 14.599988,4.050927 14.585998,4.0506053 14.49071,3.986204 14.388235,3.9076883 14.278148,3.823373 14.152247,3.7540881 14.080516,3.7383753 c -0.06677,-0.014621 -0.149877,-0.052344 -0.18468,-0.083731 -0.0348,-0.031484 -0.10464,-0.074373 -0.155194,-0.095427 -0.05055,-0.021054 -0.159635,-0.114435 -0.2424,-0.2074938 -0.08277,-0.093088 -0.199976,-0.2011189 -0.260467,-0.2401379 -0.06049,-0.03899 -0.14302,-0.099794 -0.183397,-0.1350411 -0.04038,-0.035286 -0.121445,-0.072424 -0.18015,-0.082561 -0.05871,-0.010137 -0.164422,-0.05673 -0.234924,-0.103625 C 12.568804,2.7434735 12.423252,2.6792571 12.315857,2.6475682 12.208463,2.6158892 12.04406,2.5450154 11.950518,2.490108 11.856978,2.43523 11.756946,2.390285 11.728229,2.390285 c -0.02872,0 -0.106416,-0.027488 -0.172666,-0.061214 C 11.452427,2.27663 11.402173,2.270099 11.206012,2.28316 11.080008,2.29193 10.94775,2.313669 10.912105,2.332287 10.826275,2.377028 10.440984,2.343497 10.264672,2.275849 10.191992,2.247971 10.03342,2.195823 9.9122893,2.159991 9.7911573,2.12412 9.6193703,2.072654 9.5305393,2.0456632 c -0.130053,-0.039575 -0.198684,-0.044058 -0.352384,-0.023101 -0.104981,0.014329 -0.281142,0.024953 -0.39147,0.023589 -0.120171,-0.00195 -0.218192,0.011697 -0.244485,0.032946 -0.02744,0.022224 -0.161368,0.03821 -0.357346,0.042694 -0.489363,0.011307 -0.686353,0.030802 -0.803708,0.079637 -0.079,0.032849 -0.156003,0.040257 -0.283184,0.027293 -0.135927,-0.013841 -0.189853,-0.0078 -0.243073,0.02895 -0.03762,0.025733 -0.110091,0.04669 -0.161056,0.04669 -0.0624,0 -0.106429,0.020177 -0.134807,0.061896 -0.04771,0.070084 -0.28247,0.1164624 -0.613531,0.1213361 -0.123873,0.00195 -0.212349,0.01813 -0.246224,0.045326 -0.03053,0.024564 -0.146751,0.050004 -0.275058,0.060239 -0.129759,0.010332 -0.226989,0.031777 -0.233732,0.051467 -0.0064,0.01852 -0.09537,0.070766 -0.197815,0.116092 -0.102449,0.045228 -0.247388,0.1233051 -0.322088,0.173407 -0.0747,0.050102 -0.219555,0.1280911 -0.3219,0.173329 -0.102345,0.045228 -0.212075,0.1144544 -0.243843,0.1538146 -0.06303,0.078077 -0.235478,0.1289879 -0.440996,0.1301381 -0.13758,7.31e-4 -0.368167,0.1002719 -0.458737,0.1979705 -0.03077,0.033141 -0.06772,0.060337 -0.08211,0.060337 -0.0144,0 -0.12202,0.043766 -0.239168,0.097182 -0.234027,0.1068027 -0.388208,0.2192785 -0.415505,0.3031065 -0.03412,0.1047947 -0.486442,0.3935334 -0.872509,0.5569687 -0.05988,0.025343 -0.116821,0.058582 -0.126536,0.073983 -0.0097,0.015303 -0.06777,0.027878 -0.129009,0.027878 -0.06124,0 -0.153195,0.014231 -0.204343,0.031582 -0.133315,0.045326 -0.23417502,0.012867 -0.25530602,-0.082171 -0.02845,-0.1278865 -0.07235,-0.1965962 -0.208847,-0.3269 -0.168403,-0.160745 -0.212103,-0.2440369 -0.233378,-0.4447854 -0.01579,-0.1489409 -0.01031,-0.1728417 0.05536,-0.2415514 0.04008,-0.041914 0.08134,-0.1192307 0.09167,-0.1717499 0.02574,-0.1308301 0.402282,-0.5122182 0.58240202,-0.5898761 0.09274,-0.039964 0.184974,-0.1179343 0.298998,-0.2526829 0.165824,-0.1959528 0.202441,-0.2195026 0.615103,-0.3955024 0.09443,-0.040257 0.233176,-0.122886 0.308336,-0.1835931 0.08369,-0.06755 0.193562,-0.1238607 0.28348,-0.1451881 0.08075,-0.019203 0.193369,-0.070961 0.250255,-0.115088 0.05689,-0.044156 0.149386,-0.08685 0.205556,-0.09494 0.138877,-0.019982 0.482215,-0.1495745 0.584533,-0.2205944 0.04591,-0.031874 0.141154,-0.08412 0.211651,-0.1161992 0.0705,-0.032069 0.273534,-0.1348948 0.451194,-0.228558 0.17766,-0.093673 0.394003,-0.19080614 0.480764,-0.21587656 0.08676,-0.0250509 0.205494,-0.070474 0.263852,-0.10099324 0.05836,-0.0305095 0.118667,-0.0554629 0.134016,-0.0554629 0.01535,0 0.05771,-0.0272928 0.09414,-0.0606291 0.06844,-0.062676 0.257165,-0.0950376 0.502758,-0.0863623 0.142369,0.004874 0.532842,-0.0680371 0.6769,-0.1266485 0.05327,-0.0217368 0.211845,-0.0542933 0.352385,-0.072521 0.140538,-0.0182277 0.279723,-0.049517 0.309299,-0.0695967 0.04031,-0.0273903 0.170157,-0.0331413 0.518536,-0.023004 0.313494,0.008773 0.501483,0.002924 0.57758,-0.0204696 0.06205,-0.0187151 0.271391,-0.0450332 0.465202,-0.0585821 0.472372,-0.0329463 0.647796,-0.0630659 0.715634,-0.12287624 0.123207,-0.10868396 0.389719,-0.13910572 0.9141407,-0.10434635 0.266491,0.01764287 0.5506,0.04591045 0.631355,0.06277352 0.347147,0.07242349 0.574444,0.11381112 0.822229,0.14973044 0.257659,0.0373327 0.516899,0.12431886 0.556439,0.18668299 0.01081,0.017058 0.042,0.0310943 0.06931,0.0310943 0.103837,2.4369e-4 0.396951,0.14049961 0.501289,0.23980654 0.05983,0.0569251 0.121442,0.10390772 0.136912,0.10434636 0.01547,3.9964e-4 0.08004,0.0390872 0.143479,0.085875 0.06344,0.0467877 0.143389,0.0850952 0.177659,0.0850952 0.03427,0 0.07486,0.0107222 0.09021,0.0238812 0.08107,0.0694018 0.308606,0.11827544 0.543047,0.11655014 0.197424,-9.747e-4 0.297007,0.013841 0.467477,0.071936 0.119137,0.040549 0.2375,0.091236 0.26303,0.1125342 0.06753,0.056438 0.587186,0.310456 0.927376,0.4533729 0.23826,0.1001062 0.32412,0.1537074 0.455163,0.2841867 0.115025,0.1145324 0.191517,0.1660866 0.265772,0.1791287 0.0793,0.013939 0.130122,0.051369 0.212269,0.1563587 0.100339,0.1282471 0.218324,0.2659492 0.286003,0.3337816 0.01571,0.015791 0.05835,0.059752 0.09476,0.097825 0.03641,0.038015 0.107089,0.1093566 0.157061,0.1584447 0.04997,0.049127 0.128499,0.1467672 0.174509,0.2170462 0.04601,0.070279 0.145645,0.1921903 0.221415,0.2709009 0.07577,0.078759 0.191571,0.1988088 0.257337,0.2668752 0.06577,0.068037 0.127332,0.147586 0.136814,0.1767114 0.02491,0.076517 0.193279,0.2290746 0.252806,0.2290746 0.11483,0 0.143653,0.032459 0.143653,0.1617295 0,0.1157119 0.01303,0.1386671 0.146827,0.258814 0.08076,0.072521 0.147199,0.15245 0.147656,0.1776569 4.17e-4,0.025246 0.05331,0.1228373 0.117462,0.2169585 0.06415,0.09416 0.116631,0.191625 0.116631,0.2166759 0,0.025051 0.03964,0.088799 0.0881,0.1417375 0.06266,0.068427 0.08822,0.1256738 0.08854,0.1983605 2.5e-4,0.056243 0.01949,0.1537074 0.04276,0.2166758 0.02327,0.062969 0.0429,0.1636596 0.04361,0.2237428 8.41e-4,0.070961 0.02701,0.1421274 0.0747,0.2030684 0.04038,0.051564 0.07341,0.1047948 0.07341,0.1182072 0,0.013451 0.03598,0.074958 0.07994,0.1368249 0.04397,0.061799 0.11622,0.2356833 0.160554,0.3863008 0.0444,0.1508514 0.10125,0.2851126 0.126568,0.2989248 0.03385,0.018423 0.04115,0.050102 0.02768,0.12003 -0.01091,0.056633 -0.0054,0.102738 0.01373,0.11424 0.01815,0.010917 0.032,0.1057499 0.032,0.2189665 0,0.1385891 0.01505,0.2220759 0.04921,0.2728796 0.03984,0.059264 0.04819,0.1366981 0.04385,0.4068777 -0.0029,0.1835248 -0.0137,0.3916424 -0.0239,0.4624868 -0.02814,0.1954752 -0.141336,0.4235165 -0.229699,0.4627597 -0.04392,0.019495 -0.0821,0.064723 -0.09079,0.1074656 -0.0082,0.040647 -0.02775,0.1133627 -0.04334,0.16171 -0.01559,0.048347 -0.02835,0.1118422 -0.02835,0.141104 0,0.029242 -0.02566,0.1313857 -0.05703,0.2269597 -0.0579,0.1764189 -0.221652,0.7298592 -0.26414,0.8927292 -0.01281,0.04913 -0.0581,0.160989 -0.100663,0.248686 -0.04256,0.08773 -0.07738,0.168758 -0.07738,0.180152 0,0.0114 -0.07268,0.160482 -0.161509,0.331316 -0.08883,0.170834 -0.161509,0.329473 -0.161509,0.352536 0,0.0231 -0.120175,0.161359 -0.267055,0.307327 -0.146881,0.145968 -0.282371,0.284722 -0.30109,0.308331 -0.09553,0.120517 -0.38089,0.316109 -0.606468,0.415689 -0.114423,0.05049 -0.2226,0.108811 -0.393939,0.212329 -0.194132,0.117291 -0.530434,0.160793 -0.780674,0.100973 z m 0.551227,-1.827977 c 0.141738,-0.07203 0.406664,-0.350167 0.517287,-0.542981 0.05914,-0.103089 0.119658,-0.194735 0.134483,-0.203663 0.01482,-0.0088 0.03525,-0.0771 0.0454,-0.151534 0.01015,-0.07437 0.05015,-0.20687 0.0889,-0.294363 0.03875,-0.08753 0.07651,-0.2305561 0.08392,-0.3179419 0.0076,-0.089384 0.04002,-0.2013337 0.0742,-0.2559778 0.0334,-0.053416 0.06078,-0.1277792 0.06084,-0.1652776 5.9e-5,-0.037528 0.02549,-0.1083428 0.05652,-0.1574309 0.0867,-0.1371855 0.115049,-0.6462359 0.04709,-0.8456685 -0.07308,-0.2144827 -0.182638,-0.3626536 -0.341701,-0.4621457 -0.07647,-0.04786 -0.154878,-0.1055745 -0.174248,-0.128325 -0.01937,-0.022712 -0.07275,-0.041329 -0.118631,-0.041329 -0.04588,0 -0.150464,-0.025733 -0.232414,-0.057217 -0.187516,-0.072034 -0.345915,-0.071936 -0.582582,3.997e-4 -0.110657,0.033824 -0.268619,0.056925 -0.389502,0.056925 -0.313184,0 -0.350771,0.032167 -0.826542,0.7068065 -0.07672,0.1087814 -0.139486,0.2078251 -0.139486,0.2200874 0,0.012282 -0.04466,0.088897 -0.09925,0.1702586 -0.05458,0.081391 -0.114434,0.1943834 -0.132996,0.2511038 -0.01856,0.05673 -0.06602,0.1326822 -0.10546,0.1687964 -0.10367,0.09494 -0.146375,0.2404889 -0.108121,0.3685313 0.01705,0.057022 0.04713,0.1681631 0.06683,0.2468737 0.05099,0.203654 0.121193,0.326715 0.261253,0.457984 0.06719,0.06297 0.139263,0.153132 0.160162,0.200358 0.04199,0.09494 0.22848,0.288447 0.393863,0.408779 0.05883,0.04279 0.164095,0.129348 0.233918,0.192317 0.212139,0.191332 0.355223,0.239436 0.673882,0.22654 0.156707,-0.0068 0.306264,-0.02837 0.352384,-0.05176 z"
       id="path249" /></g></svg>
