<?xml version="1.0" encoding="UTF-8" standalone="no"?>
<!-- Created with Inkscape (http://www.inkscape.org/) -->

<svg
   width="75"
   height="75"
   viewBox="0 0 19.84375 19.84375"
   version="1.1"
   id="svg739"
   inkscape:version="1.2.2 (b0a8486541, 2022-12-01)"
   sodipodi:docname="capricorn.svg"
   xml:space="preserve"
   xmlns:inkscape="http://www.inkscape.org/namespaces/inkscape"
   xmlns:sodipodi="http://sodipodi.sourceforge.net/DTD/sodipodi-0.dtd"
   xmlns="http://www.w3.org/2000/svg"
   xmlns:svg="http://www.w3.org/2000/svg"><sodipodi:namedview
     id="namedview741"
     pagecolor="#ffffff"
     bordercolor="#999999"
     borderopacity="1"
     inkscape:showpageshadow="0"
     inkscape:pageopacity="0"
     inkscape:pagecheckerboard="0"
     inkscape:deskcolor="#d1d1d1"
     inkscape:document-units="px"
     showgrid="false"
     inkscape:zoom="5.5874298"
     inkscape:cx="25.503676"
     inkscape:cy="41.700748"
     inkscape:window-width="1280"
     inkscape:window-height="955"
     inkscape:window-x="0"
     inkscape:window-y="0"
     inkscape:window-maximized="1"
     inkscape:current-layer="layer1" /><defs
     id="defs736" /><g
     inkscape:label="Warstwa 1"
     inkscape:groupmode="layer"
     id="layer1"><path
       style="fill:#000000;stroke-width:0.0304837"
       d="M 6.0627919,19.823153 C 5.8552053,19.808102 5.8033382,19.793072 5.7354353,19.728286 5.5311386,19.53337 5.5194696,19.495315 5.4521753,18.804498 5.4214043,18.488619 5.3917233,18.341613 5.3470845,18.284006 c -0.018412,-0.02377 -0.04298,-0.1554 -0.054597,-0.292533 -0.021521,-0.254051 -0.060636,-0.564593 -0.1128546,-0.895985 -0.036962,-0.234571 -0.041923,-0.469248 -0.015312,-0.724442 0.019558,-0.187561 0.015676,-0.207366 -0.058221,-0.296978 -0.058741,-0.07123 -0.079261,-0.130633 -0.079503,-0.230139 -1.796e-4,-0.07376 -0.02055,-0.202145 -0.045266,-0.285283 -0.024717,-0.08314 -0.044939,-0.231198 -0.044939,-0.32902 0,-0.09783 -0.01431,-0.216265 -0.031799,-0.263203 C 4.8871042,14.919485 4.8386294,14.748836 4.7968721,14.587205 4.7551145,14.425573 4.7029239,14.237903 4.6808933,14.170157 4.6588623,14.102413 4.6183884,13.90149 4.5909512,13.723661 4.5474352,13.441622 4.4504681,13.101019 4.2096055,12.384166 4.1754623,12.282551 4.1207655,12.102411 4.0880566,11.983858 4.0553479,11.865306 3.9926187,11.692267 3.9486581,11.599328 3.9025576,11.501865 3.8511638,11.312895 3.827225,11.152829 3.7482235,10.62459 3.735606,10.561365 3.6913949,10.472195 3.6383912,10.365291 3.5297905,10.033168 3.4563159,9.7532762 3.3448948,9.3288321 3.3065227,9.2077308 3.2361793,9.0585275 3.1962556,8.9738468 3.1537442,8.8560642 3.1417089,8.7967874 3.1296739,8.7375108 3.0997632,8.6567227 3.0752411,8.6172574 3.025798,8.5376857 2.9709584,8.3335186 2.9148988,8.0203049 2.8945401,7.9065576 2.8623594,7.800726 2.8433861,7.7851231 2.7996788,7.7491798 2.631057,7.7254593 2.1751649,7.6911224 1.9759945,7.676121 1.6500791,7.6343842 1.4509086,7.5983734 1.231576,7.5587174 1.0397725,7.5403814 0.96449676,7.5518732 0.83158867,7.5721637 0.86876012,7.5924799 0.4117192,7.249751 0.15748385,7.0591029 0.12234487,7.0095059 0.05145272,6.7412494 -0.00562951,6.5252522 -0.01110592,6.461675 0.01496988,6.3177379 0.03184476,6.2245892 0.06187602,6.1172477 0.08170468,6.0792008 0.15061567,5.9469775 0.35482601,5.7227878 0.42203386,5.7055758 0.45921986,5.6960555 0.53618208,5.6561956 0.59305987,5.6170051 0.82291188,5.458631 1.2400638,5.433812 1.7074161,5.5507044 c 0.107884,0.026984 0.2776315,0.051973 0.3772168,0.055531 0.099585,0.00356 0.217989,0.017585 0.2631195,0.031169 0.062155,0.018709 0.1087078,0.00789 0.191955,-0.044608 0.1046113,-0.065972 0.113956,-0.066863 0.1941969,-0.018496 0.046363,0.027947 0.1093616,0.051122 0.1399957,0.051502 0.1165013,0.00145 0.4064007,0.1791173 0.6095359,0.3735739 0.1161889,0.1112244 0.2667536,0.2317453 0.3345886,0.2678242 0.1493849,0.079452 0.4356212,0.3743556 0.5274693,0.5434406 0.036799,0.067744 0.088441,0.1855275 0.1147599,0.26174 0.026319,0.076213 0.089481,0.2562581 0.1403597,0.400101 0.050879,0.1438428 0.1069995,0.3304844 0.1247118,0.4147592 0.017712,0.084275 0.070644,0.2160079 0.117625,0.2927405 0.046981,0.076733 0.1029252,0.2295834 0.1243201,0.3396682 0.021394,0.1100848 0.1035442,0.3387229 0.1825548,0.5080835 0.07901,0.1693614 0.153393,0.356429 0.1652943,0.4157048 0.011902,0.059277 0.060565,0.17818 0.1081408,0.2642303 0.047576,0.08605 0.086502,0.1998561 0.086502,0.2529022 0,0.053046 0.028327,0.1697082 0.062948,0.2592502 0.067882,0.175564 0.12639,0.353086 0.251556,0.763265 0.043928,0.143957 0.091864,0.289454 0.1065234,0.323327 0.01466,0.03388 0.062158,0.200155 0.1055525,0.369515 0.043395,0.169362 0.103973,0.391071 0.134619,0.492687 0.030646,0.101611 0.079463,0.267764 0.1084824,0.369218 0.029019,0.101448 0.078199,0.232886 0.1092891,0.292075 0.03109,0.05919 0.056527,0.125834 0.056527,0.148096 0,0.02226 0.021628,0.08315 0.048063,0.135315 0.046855,0.09246 0.049431,0.09339 0.1024938,0.03696 0.033617,-0.03575 0.072575,-0.163854 0.1018778,-0.335014 0.026095,-0.152424 0.069037,-0.38799 0.095425,-0.523479 0.026388,-0.135488 0.065466,-0.371055 0.086839,-0.52348 0.021373,-0.152425 0.066643,-0.367206 0.1005999,-0.477291 0.033956,-0.110085 0.1194561,-0.387221 0.1899993,-0.61586 C 7.2411004,10.446518 7.329868,10.162452 7.3678188,10.0439 7.5442594,9.4927255 7.5919991,9.3054432 7.5919991,9.1644413 c 0,-0.2094463 0.1682834,-0.7117403 0.406959,-1.214697 C 8.1070811,7.7219009 8.1957642,7.5178892 8.1960313,7.4963877 8.196305,7.4748863 8.2585763,7.3187256 8.334427,7.1493645 8.4102775,6.9800032 8.4917626,6.7766508 8.5155047,6.6974705 8.5662853,6.5281148 8.7822757,6.2852017 8.9279513,6.2336133 8.9815605,6.2146286 9.0846456,6.1387883 9.1570287,6.0650795 9.2625013,5.9576758 9.301452,5.935739 9.353181,5.9546074 9.4799107,6.0008314 9.6023942,5.9761324 9.721982,5.8802374 9.787009,5.8280944 9.9015357,5.7528247 9.9764894,5.712971 10.122637,5.635261 10.17159,5.634889 11.111629,5.704321 c 0.186908,0.013806 0.311624,0.00821 0.387646,-0.017391 0.06477,-0.021812 0.317855,-0.041098 0.599578,-0.045688 0.36102,-0.00589 0.5149,-0.020327 0.593118,-0.055676 0.05809,-0.026253 0.150807,-0.064863 0.206034,-0.085799 0.206267,-0.078196 0.222141,-0.2002429 0.111862,-0.8600294 -0.05525,-0.3305633 -0.06542,-0.7237332 -0.03384,-1.3087005 0.02804,-0.5193929 0.0843,-0.8529726 0.213546,-1.266124 0.05766,-0.1843103 0.105082,-0.3668811 0.105387,-0.405713 3.42e-4,-0.041185 0.06008,-0.1355353 0.143408,-0.226439 0.130787,-0.1426751 0.2431,-0.2168496 0.638468,-0.4216619 0.0765,-0.0396283 0.166249,-0.0962235 0.199443,-0.1257676 0.0332,-0.0295432 0.141834,-0.0824628 0.241419,-0.11759929 0.392376,-0.13844085 0.606859,-0.22717169 0.67899,-0.28089604 0.119788,-0.0892205 0.263397,-0.15811187 0.329592,-0.15811187 0.03355,0 0.139463,-0.0355415 0.235373,-0.0789809 0.38399,-0.17391696 0.791705,-0.27578626 0.976371,-0.24395091 0.06628,0.01142676 0.160313,0.05494986 0.208959,0.09671675 0.111008,0.0953132 0.240648,0.13383557 0.450397,0.13383557 0.213596,0 0.631886,0.11371155 0.720678,0.19591506 0.0441,0.0408268 0.126778,0.0703403 0.225597,0.080532 l 0.155987,0.0160861 0.02266,0.13604483 c 0.01246,0.0748243 0.06372,0.22291205 0.113898,0.32908374 0.05018,0.10617176 0.09124,0.20617476 0.09124,0.22222956 0,0.016055 0.06101,0.1381752 0.135573,0.2713787 0.07457,0.1332037 0.135675,0.2668831 0.135799,0.2970653 3.42e-4,0.090154 0.07727,0.2506339 0.173987,0.3630676 0.124766,0.1450435 0.216787,0.4636065 0.2662,0.9215491 0.05411,0.5014917 0.05323,0.7664241 -0.0039,1.1661804 -0.04937,0.3455558 -0.05435,0.3568599 -0.343195,0.7789324 -0.193619,0.2829244 -0.406602,0.5129497 -0.606748,0.6552999 -0.161173,0.1146315 -0.852484,0.7183158 -1.021967,0.8924288 -0.08329,0.085567 -0.221661,0.1601836 -0.346575,0.1868947 -0.04777,0.010214 -0.125855,0.058367 -0.173521,0.1070056 -0.108385,0.1105963 -0.121783,0.3079502 -0.02671,0.3934018 0.03298,0.029638 0.103056,0.098923 0.155735,0.1539647 0.05268,0.055042 0.112746,0.1000767 0.133484,0.1000767 0.02074,0 0.115437,0.076213 0.210444,0.1693614 0.09501,0.093148 0.181408,0.1693612 0.192003,0.1693612 0.0106,0 0.04536,0.049455 0.07727,0.1098991 0.0319,0.060444 0.08324,0.1236817 0.114085,0.140527 0.03085,0.016846 0.101547,0.1024948 0.157113,0.1903322 0.05557,0.087837 0.149992,0.2151316 0.209837,0.2828762 0.05985,0.067744 0.11707,0.1508854 0.127168,0.1847572 0.0101,0.033872 0.0422,0.0893 0.07133,0.1231727 0.04864,0.056548 0.190216,0.3221008 0.270878,0.5080834 0.01836,0.04234 0.08753,0.1601229 0.153714,0.26174 0.06618,0.1016165 0.146607,0.2408225 0.178729,0.3093455 0.03212,0.068524 0.09902,0.1615132 0.148658,0.2066452 0.05631,0.05119 0.09799,0.125941 0.110827,0.198738 0.01131,0.06417 0.03784,0.151323 0.05894,0.193662 0.08653,0.173624 0.195301,0.457921 0.195867,0.511935 3.43e-4,0.03176 0.03401,0.189376 0.07484,0.350268 0.04083,0.160894 0.07451,0.331328 0.07484,0.378743 3.42e-4,0.04742 0.02236,0.129142 0.04895,0.181615 0.02671,0.05269 0.06048,0.23465 0.07545,0.406477 0.01491,0.17109 0.04158,0.477355 0.05927,0.680588 0.01769,0.203234 0.03011,0.487299 0.0276,0.631256 -0.0025,0.143957 -0.0038,0.414165 -0.003,0.600464 0.0013,0.268393 -0.02011,0.449313 -0.103049,0.871361 -0.05757,0.292951 -0.104623,0.577017 -0.104569,0.631256 2.57e-4,0.24339 -0.299232,1.275088 -0.396089,1.364529 -0.03117,0.02879 -0.05667,0.09123 -0.05667,0.138783 0,0.157532 -0.123551,0.437289 -0.243593,0.551567 -0.06279,0.05977 -0.186444,0.219772 -0.274782,0.355542 -0.350842,0.539224 -0.580376,0.740511 -0.964504,0.845802 -0.122177,0.03349 -0.25609,0.07972 -0.297584,0.102733 -0.04149,0.02301 -0.184082,0.05129 -0.316862,0.06284 -0.13278,0.01155 -0.424746,0.04734 -0.648813,0.07953 -0.439579,0.06316 -0.777253,0.05711 -1.039051,-0.01863 -0.08185,-0.02368 -0.227628,-0.04305 -0.32395,-0.04305 -0.09984,0 -0.288851,-0.03417 -0.439638,-0.07948 -0.145479,-0.04371 -0.407096,-0.09458 -0.58137,-0.113046 -0.303785,-0.03218 -0.321976,-0.03829 -0.440761,-0.148006 -0.06815,-0.06294 -0.156414,-0.131991 -0.196154,-0.153444 -0.03974,-0.02145 -0.127271,-0.09575 -0.194515,-0.165124 -0.06724,-0.06937 -0.158777,-0.150915 -0.203405,-0.181219 -0.04463,-0.03031 -0.174475,-0.182925 -0.288548,-0.339157 -0.114074,-0.156229 -0.231011,-0.304044 -0.259862,-0.328476 -0.05476,-0.04638 -0.214163,-0.289527 -0.306258,-0.467164 -0.12512,-0.241337 -0.211204,-1.356866 -0.121596,-1.575704 0.02557,-0.06245 0.05975,-0.113541 0.07595,-0.113541 0.0162,0 0.09298,-0.10739 0.170624,-0.238645 0.210205,-0.355357 0.378556,-0.566047 0.490398,-0.613731 0.05483,-0.02338 0.141888,-0.08365 0.19346,-0.13394 0.107254,-0.104589 0.110961,-0.105576 0.191266,-0.05094 0.03274,0.02228 0.119483,0.05816 0.192765,0.07974 0.199643,0.05879 0.505969,0.277227 0.543906,0.387838 0.01743,0.05081 0.03681,0.230947 0.04308,0.400309 0.0085,0.23049 0.02738,0.342778 0.07495,0.446498 0.03496,0.07621 0.06393,0.180138 0.06438,0.230948 0.0015,0.162058 0.05937,0.315136 0.18248,0.482316 0.06588,0.08947 0.119788,0.17928 0.119788,0.199572 0,0.0524 0.387488,0.479874 0.480626,0.530221 0.04271,0.02309 0.09803,0.06718 0.122922,0.098 0.02784,0.03445 0.120785,0.06926 0.241418,0.09042 0.107884,0.01892 0.288013,0.05568 0.400285,0.08169 0.1194,0.02766 0.25191,0.03906 0.319236,0.02745 0.08531,-0.0147 0.125209,-0.0074 0.154146,0.02816 0.0539,0.06626 0.159388,0.06005 0.252763,-0.01489 0.0431,-0.03459 0.143384,-0.08321 0.222856,-0.108046 0.245662,-0.07677 0.338177,-0.188773 0.532792,-0.64507 0.132765,-0.311285 0.203612,-0.591472 0.201119,-0.795386 -0.0011,-0.08756 0.01808,-0.27005 0.04255,-0.405539 0.02447,-0.135489 0.05801,-0.326508 0.07453,-0.424487 0.04891,-0.290153 0.0419,-1.695624 -0.0092,-1.849289 -0.03853,-0.115812 -0.06227,-0.241674 -0.172275,-0.913295 -0.01803,-0.110085 -0.06545,-0.302194 -0.105367,-0.426907 -0.03992,-0.124713 -0.07258,-0.244092 -0.07258,-0.265285 0,-0.02119 -0.02534,-0.07158 -0.05632,-0.11197 -0.05701,-0.07434 -0.186652,-0.371303 -0.260593,-0.596917 -0.0952,-0.290489 -0.430859,-0.925539 -0.539027,-1.019818 -0.06036,-0.052607 -0.109738,-0.11035 -0.109738,-0.1283172 0,-0.017967 -0.03188,-0.071838 -0.07085,-0.1197117 -0.03897,-0.047873 -0.0794,-0.1228505 -0.08985,-0.1666136 -0.01045,-0.043765 -0.06004,-0.1322749 -0.11021,-0.196691 -0.05017,-0.064416 -0.09122,-0.1313217 -0.09122,-0.1486797 0,-0.05212 -0.172163,-0.3094415 -0.304391,-0.4549561 C 15.367351,8.7503201 15.286546,8.6391527 15.255885,8.5782293 15.225225,8.5173063 15.166375,8.444885 15.125106,8.4172942 15.083836,8.3897026 14.981854,8.2975169 14.898474,8.212436 14.815094,8.1273551 14.72011,8.0577436 14.687398,8.0577436 c -0.03271,0 -0.09805,-0.03312 -0.145197,-0.0736 C 14.495051,7.9436636 14.349154,7.8727433 14.217979,7.826544 14.023467,7.758039 13.94925,7.74617 13.815592,7.7622 13.700004,7.776062 13.604285,7.7666 13.490788,7.730094 13.33886,7.681226 13.325363,7.681347 13.249192,7.732274 c -0.0647,0.04326 -0.120394,0.050451 -0.281244,0.036314 -0.11031,-0.00969 -0.46537,-0.026 -0.789022,-0.036233 C 11.337374,7.705746 11.222967,7.697297 10.98692,7.644324 10.641368,7.566777 10.622807,7.571384 10.530857,7.7575118 10.486937,7.8464268 10.40862,7.9689289 10.356829,8.0297391 10.150655,8.2718191 10.130126,8.3155217 10.022011,8.7425083 9.993118,8.8566223 9.9217569,9.0298323 9.8634309,9.1274228 9.7041079,9.394002 9.6454252,9.5387773 9.6446913,9.6670675 9.6438187,9.8189323 9.5561573,10.134171 9.4242963,10.459596 9.3659653,10.603553 9.2889132,10.83219 9.2530702,10.967679 9.1844062,11.22723 9.1177221,11.44947 9.053941,11.631319 c -0.021098,0.06015 -0.060043,0.237582 -0.086546,0.394286 -0.026502,0.156705 -0.069269,0.336129 -0.095039,0.398717 -0.063252,0.153628 -0.1294338,0.47767 -0.1773236,0.868226 -0.021806,0.177829 -0.075106,0.450345 -0.1184467,0.605593 -0.043341,0.155247 -0.092457,0.376956 -0.1091467,0.492688 -0.01669,0.11573 -0.057308,0.314346 -0.090262,0.441367 -0.032955,0.12702 -0.06015,0.285465 -0.060435,0.352099 -2.737e-4,0.06663 -0.019685,0.198273 -0.043113,0.292533 -0.023428,0.09426 -0.059192,0.268378 -0.079475,0.386931 -0.020284,0.118554 -0.055046,0.252201 -0.077249,0.296997 -0.022204,0.0448 -0.053402,0.134865 -0.06933,0.200154 -0.059468,0.243768 -0.2167841,0.821717 -0.2292872,0.842361 -0.046082,0.07608 -0.1345337,0.888385 -0.1274133,1.170114 l 0.00817,0.323326 -0.1287845,0.207852 c -0.070831,0.114319 -0.1398392,0.207852 -0.1533505,0.207852 -0.013511,0 -0.068197,0.06316 -0.1215245,0.140362 -0.053327,0.0772 -0.1400207,0.163805 -0.1926525,0.192457 -0.052632,0.02865 -0.1575978,0.109162 -0.2332576,0.178911 -0.075659,0.06976 -0.1810227,0.149428 -0.2341405,0.17706 -0.098721,0.05136 -0.1432748,0.05306 -0.5725748,0.02194 z M 16.731098,5.3260465 c 0.110434,-0.096742 0.302638,-0.2747483 0.42712,-0.3955694 0.124482,-0.1208208 0.241549,-0.2252711 0.26015,-0.2321118 0.04162,-0.015305 0.238996,-0.3275837 0.338729,-0.5359174 0.102335,-0.2137681 0.122031,-0.312163 0.153558,-0.7671122 L 17.938207,2.9977389 17.837313,2.7133284 C 17.781821,2.5569027 17.694592,2.3700004 17.643471,2.29799 17.59235,2.2259797 17.550374,2.1448917 17.550192,2.1177945 17.550021,2.0906973 17.480814,1.9675596 17.396423,1.844155 17.25484,1.6371216 17.223467,1.6100967 16.990434,1.4944388 16.741381,1.3708301 16.471694,1.3115822 16.114519,1.3020079 c -0.160856,-0.00432 -0.290607,0.087922 -0.686592,0.4880593 -0.341576,0.3451578 -0.464059,0.5104029 -0.507328,0.6844448 -0.01607,0.064622 -0.02821,0.4866081 -0.02699,0.9377462 0.002,0.7386909 0.0083,0.8381966 0.06308,1.0007317 0.07583,0.2248996 0.176657,0.3825562 0.312045,0.4879291 0.05753,0.044773 0.154064,0.1290129 0.214527,0.1871996 0.06046,0.058186 0.146332,0.1148524 0.190822,0.1259235 0.04449,0.011071 0.11767,0.051284 0.162623,0.089363 0.04695,0.039765 0.145526,0.078186 0.231613,0.090268 0.08574,0.012033 0.1569,0.039702 0.166283,0.064652 0.01088,0.028933 0.06342,0.043617 0.156055,0.043617 0.126351,0 0.158775,-0.016752 0.340443,-0.1758949 z"
       id="path404" /></g></svg>
