<?xml version="1.0" encoding="UTF-8" standalone="no"?>
<!-- Created with Inkscape (http://www.inkscape.org/) -->

<svg
   width="75"
   height="75"
   viewBox="0 0 19.84375 19.84375"
   version="1.1"
   id="svg739"
   inkscape:version="1.2.2 (b0a8486541, 2022-12-01)"
   sodipodi:docname="leo.svg"
   xml:space="preserve"
   xmlns:inkscape="http://www.inkscape.org/namespaces/inkscape"
   xmlns:sodipodi="http://sodipodi.sourceforge.net/DTD/sodipodi-0.dtd"
   xmlns="http://www.w3.org/2000/svg"
   xmlns:svg="http://www.w3.org/2000/svg"><sodipodi:namedview
     id="namedview741"
     pagecolor="#ffffff"
     bordercolor="#999999"
     borderopacity="1"
     inkscape:showpageshadow="0"
     inkscape:pageopacity="0"
     inkscape:pagecheckerboard="0"
     inkscape:deskcolor="#d1d1d1"
     inkscape:document-units="px"
     showgrid="false"
     inkscape:zoom="2.7937149"
     inkscape:cx="12.170175"
     inkscape:cy="52.976057"
     inkscape:window-width="1280"
     inkscape:window-height="955"
     inkscape:window-x="0"
     inkscape:window-y="0"
     inkscape:window-maximized="1"
     inkscape:current-layer="layer1" /><defs
     id="defs736" /><g
     inkscape:label="Warstwa 1"
     inkscape:groupmode="layer"
     id="layer1"><path
       style="fill:#000000;stroke-width:0.0292171"
       d="m 14.222582,19.802645 c -0.0557,-0.0197 -0.13469,-0.03658 -0.17556,-0.0375 -0.0987,-0.0022 -0.34817,-0.07902 -0.53056,-0.163359 -0.081,-0.03748 -0.22545,-0.08404 -0.32093,-0.103456 -0.32116,-0.06534 -0.47661,-0.200088 -0.66976,-0.580574 -0.0274,-0.05402 -0.0926,-0.114129 -0.15478,-0.142722 -0.0676,-0.03108 -0.12462,-0.08621 -0.15382,-0.148655 -0.0255,-0.05459 -0.0795,-0.121351 -0.11988,-0.148354 -0.0404,-0.027 -0.0735,-0.06646 -0.0735,-0.0877 0,-0.02123 -0.0456,-0.09949 -0.10126,-0.173898 -0.0557,-0.07441 -0.10126,-0.149831 -0.10126,-0.167603 0,-0.01778 -0.0444,-0.120558 -0.0987,-0.228415 -0.0543,-0.107857 -0.10688,-0.242575 -0.11681,-0.299373 -0.0761,-0.43518 -0.0806,-0.485735 -0.0504,-0.573277 0.0709,-0.206005 0.15337,-0.624399 0.15648,-0.794128 0.002,-0.128802 0.0183,-0.198904 0.0549,-0.240946 0.0284,-0.03261 0.0799,-0.178665 0.11453,-0.324564 0.0346,-0.1459 0.0877,-0.322266 0.11795,-0.391926 0.0302,-0.06966 0.0765,-0.182521 0.1027,-0.250801 0.0262,-0.06828 0.078,-0.161677 0.115,-0.207549 0.037,-0.04587 0.0673,-0.09781 0.0673,-0.115431 0,-0.01761 0.057,-0.132775 0.12677,-0.255913 0.0697,-0.123138 0.13517,-0.260852 0.14544,-0.306031 0.0104,-0.04552 0.0491,-0.09628 0.0869,-0.113845 0.0526,-0.02445 0.0723,-0.06321 0.0861,-0.169379 0.0178,-0.136972 0.1279,-0.339249 0.22241,-0.408665 0.0813,-0.05973 0.37175,-0.580236 0.37304,-0.668565 4.9e-4,-0.03071 0.0529,-0.139918 0.11654,-0.2427 0.0636,-0.102783 0.11572,-0.196305 0.11572,-0.207828 0,-0.01152 0.0255,-0.04859 0.0566,-0.08235 0.0821,-0.08917 0.1874,-0.303754 0.23227,-0.473503 0.0214,-0.08114 0.056,-0.173231 0.0769,-0.204644 0.0208,-0.03141 0.0658,-0.150913 0.10005,-0.265553 0.0342,-0.114641 0.085,-0.234992 0.11285,-0.267448 0.0787,-0.09171 0.1083,-0.164872 0.13116,-0.324565 0.0203,-0.141586 0.0973,-0.33454 0.17088,-0.427835 0.0192,-0.02434 0.0513,-0.104009 0.0713,-0.177035 0.10136,-0.3694502 0.19358,-0.6209002 0.33309,-0.9081702 0.14619,-0.301028 0.1855,-0.443219 0.20575,-0.744159 0.005,-0.07302 0.0236,-0.292108 0.0416,-0.486846 0.0561,-0.608081 0.0625,-1.581212 0.0127,-1.932634 -0.0405,-0.285902 -0.0605,-0.461328 -0.12106,-1.0622111 -0.0231,-0.2289696 -0.0504,-0.3007895 -0.18994,-0.4990551 -0.0551,-0.078365 -0.11425,-0.24138 -0.17944,-0.4949112 -0.0535,-0.2079311 -0.16092,-0.5226538 -0.23878,-0.6993845 -0.13972,-0.3171158 -0.14761,-0.3276927 -0.60156,-0.8068243 -0.60542,-0.6390053 -0.75904,-0.7449908 -1.19184,-0.8223152 -0.13864,-0.024771 -0.29765,-0.064165 -0.35334,-0.087541 -0.0557,-0.023377 -0.22852,-0.059929 -0.38406,-0.081225 -0.32872,-0.045011 -0.62049,-0.020334 -0.73847,0.06246 -0.0941,0.066059 -0.18727,0.1027149 -0.45422,0.1787679 -0.21207,0.060415 -0.31238,0.079075 -0.99813,0.1856907 -0.27365,0.042544 -0.46695,0.089046 -0.55597,0.1337455 -0.0751,0.037689 -0.16503,0.068525 -0.19997,0.068525 -0.0349,0 -0.11673,0.031712 -0.18178,0.070473 -0.065,0.038759 -0.20235,0.1064803 -0.30512,0.1504898 -0.10276,0.04401 -0.23471,0.1218376 -0.29323,0.1729509 -0.1614,0.1409756 -0.4222,0.495615 -0.51759,0.7038282 -0.0468,0.10217 -0.13109,0.2720683 -0.1873,0.3775518 -0.0562,0.1054834 -0.10267,0.2183433 -0.10326,0.2507997 -5.7e-4,0.032457 -0.0364,0.127779 -0.0797,0.2118276 -0.19672,0.3823069 -0.19709,0.3831948 -0.47332,1.1454423 -0.0596,0.164466 -0.09,0.311488 -0.10033,0.484823 -0.008,0.136827 -0.0164,0.256326 -0.0184,0.265552 -0.002,0.0092 0.005,0.09644 0.0161,0.193812 0.0109,0.09736 0.0267,0.32309 0.0352,0.5016 0.0144,0.301079 0.0238,0.342384 0.13029,0.570821 0.0632,0.135442 0.11482,0.271347 0.11482,0.302012 0,0.144017 0.13024,0.568278 0.18997,0.618833 0.0208,0.01758 0.0465,0.07231 0.0571,0.121612 0.0106,0.04931 0.0505,0.136548 0.0887,0.193868 0.0381,0.05732 0.0693,0.12038 0.0693,0.140136 0,0.01975 0.0646,0.12406 0.14357,0.231788 0.079,0.107729 0.15738,0.222195 0.17426,0.254371 0.0169,0.03218 0.0597,0.08877 0.0951,0.125757 0.0354,0.03699 0.10999,0.149015 0.16568,0.248939 0.0681,0.12225 0.13231,0.196967 0.19618,0.228409 0.0522,0.0257 0.10208,0.06998 0.11084,0.09841 0.0248,0.08054 0.0627,0.154545 0.18481,0.3614902 0.0623,0.105483 0.12837,0.224983 0.14692,0.265553 0.0185,0.04057 0.0647,0.140343 0.10252,0.221717 0.0378,0.08137 0.0688,0.159217 0.0688,0.172985 0,0.01377 0.0332,0.06669 0.0738,0.117601 0.22968,0.288252 0.30234,0.405887 0.30234,0.489431 0,0.04883 0.0187,0.138848 0.0414,0.200032 0.0228,0.06118 0.0624,0.209232 0.088,0.328996 0.0256,0.119764 0.0645,0.253147 0.0865,0.296408 0.0353,0.06962 0.12023,1.106731 0.10529,1.285698 -0.003,0.03245 -0.004,0.145317 -0.004,0.2508 8.4e-4,0.11237 -0.0167,0.231496 -0.0424,0.287682 -0.057,0.124675 -0.11264,0.262307 -0.15813,0.390953 -0.0885,0.250365 -0.10873,0.295685 -0.15494,0.347758 -0.0269,0.03037 -0.049,0.07828 -0.049,0.106469 0,0.0752 -0.0512,0.163076 -0.18486,0.317488 -0.16278,0.18799 -0.17851,0.209289 -0.23092,0.312668 -0.0636,0.125408 -0.51072,0.503229 -0.78991,0.667463 -0.12765,0.07509 -0.24383,0.13661 -0.25818,0.136711 -0.0144,8.3e-5 -0.0652,0.02148 -0.11288,0.04752 -0.20462,0.111586 -0.56959,0.224093 -0.85131,0.262429 -0.16587,0.02257 -0.31494,0.03263 -0.33124,0.02237 -0.0163,-0.01027 -0.14987,-0.01611 -0.29684,-0.01298 -0.20913,0.0045 -0.29929,-0.0072 -0.4148,-0.05363 -0.0812,-0.03264 -0.18701,-0.05933 -0.23519,-0.05933 -0.0482,0 -0.14859,-0.02446 -0.22315,-0.05435 -0.0746,-0.02989 -0.25273,-0.09242 -0.39593,-0.138956 -0.14321,-0.04654 -0.34501,-0.126414 -0.44844,-0.177506 -0.10343,-0.0511 -0.23362,-0.115182 -0.28931,-0.142421 -0.0557,-0.02724 -0.19889,-0.118749 -0.31824,-0.203358 -0.15825,-0.112194 -0.23426,-0.188757 -0.28081,-0.282854 -0.0351,-0.07096 -0.0839,-0.151672 -0.10849,-0.179358 -0.0246,-0.02769 -0.0447,-0.06358 -0.0447,-0.07975 0,-0.01618 -0.0336,-0.0616 -0.0747,-0.100945 -0.11306,-0.108214 -0.27185,-0.483712 -0.29195,-0.690413 -0.0102,-0.10474 -0.0512,-0.24852 -0.0999,-0.349974 -0.0634,-0.132114 -0.0835,-0.217969 -0.0865,-0.368824 -0.008,-0.383649 0.10135,-0.897846 0.20398,-0.962532 0.0149,-0.0094 0.0486,-0.09241 0.0748,-0.184468 0.0262,-0.09206 0.0829,-0.22127 0.12598,-0.287136 0.0431,-0.06586 0.1141,-0.210994 0.15791,-0.322506 0.0438,-0.111511 0.11164,-0.245541 0.15076,-0.297844 0.0391,-0.0523 0.0711,-0.10412 0.0711,-0.115151 0,-0.02393 0.1742,-0.293484 0.26701,-0.413177 0.10299,-0.132817 0.13709,-0.164076 0.23479,-0.215263 0.0502,-0.0263 0.23726,-0.19071 0.41566,-0.365355 0.29207,-0.285907 0.34394,-0.324165 0.52076,-0.384089 0.10802,-0.0366 0.23981,-0.09138 0.29289,-0.121715 0.0531,-0.03034 0.15722,-0.06249 0.23145,-0.07144 0.0742,-0.009 0.1697,-0.02963 0.21217,-0.04593 0.0529,-0.02033 0.12644,-0.01924 0.23367,0.0035 0.0861,0.01821 0.17825,0.0246 0.20487,0.01419 0.10595,-0.04147 0.03,-0.294927 -0.15564,-0.519463 -0.0628,-0.07597 -0.11421,-0.151106 -0.11421,-0.166966 0,-0.01586 -0.0406,-0.1197 -0.0901,-0.230754 -0.0496,-0.111053 -0.10711,-0.261665 -0.12786,-0.334691 -0.0207,-0.07303 -0.0893,-0.28547 -0.15242,-0.472095 -0.25368,-0.750428 -0.29415,-0.915678 -0.35243,-1.438884 -0.0444,-0.399072 -0.0508,-0.557636 -0.0291,-0.731844 0.0152,-0.122317 0.0254,-0.231644 0.0227,-0.242949 -0.0144,-0.05941 0.0435,-0.8026091 0.0694,-0.8909786 0.0166,-0.056799 0.0672,-0.1895752 0.11244,-0.2950587 0.0452,-0.1054834 0.0959,-0.2627564 0.11261,-0.3494957 0.0167,-0.086739 0.0498,-0.1859566 0.0735,-0.2204828 0.0237,-0.034526 0.0431,-0.09488 0.0431,-0.1341192 0,-0.039239 0.025,-0.1259089 0.0555,-0.1925993 0.16895,-0.369252 0.26545,-0.6141772 0.30935,-0.785137 0.0271,-0.1054835 0.0591,-0.2050659 0.0711,-0.2212939 0.012,-0.016228 0.0313,-0.081313 0.0429,-0.1446329 0.0118,-0.064479 0.0618,-0.1618335 0.1136,-0.221294 0.0509,-0.058392 0.12431,-0.1547356 0.16318,-0.2140973 0.0389,-0.059361 0.13104,-0.158944 0.20483,-0.2212939 0.0738,-0.06235 0.18406,-0.1787943 0.24505,-0.258765 0.15237,-0.1997843 0.56697,-0.63648495 0.60429,-0.63649545 0.0168,-4.7e-6 0.0753,-0.048094 0.13018,-0.1068659 0.0548,-0.058771 0.17131,-0.1422268 0.25882,-0.1854562 0.0875,-0.043229 0.21991,-0.1152726 0.2942,-0.1600959 0.0762,-0.045962 0.30324,-0.1252632 0.52076,-0.1818722 0.21213,-0.055207 0.4573,-0.1213636 0.54481,-0.1470165 0.0875,-0.025652 0.26327,-0.05498 0.39057,-0.065173 0.1364,-0.010922 0.27407,-0.041045 0.33523,-0.073352 0.14495,-0.076562 0.57445,-0.1010643 0.94975,-0.054178 0.16424,0.020519 0.58025,0.040174 0.92445,0.043676 0.61837,0.00629 0.91969,0.035116 1.08872,0.1041518 0.0496,0.020262 0.3037,0.042075 0.5931,0.050917 l 0.50629,0.015468 0.23268,0.1122588 c 0.14862,0.071706 0.28652,0.1663059 0.38171,0.2618703 0.082,0.082286 0.16016,0.1496111 0.17376,0.1496111 0.0136,0 0.0957,0.075071 0.18245,0.1668243 0.15496,0.16390515 0.28306,0.29454415 0.43889,0.44757845 0.0433,0.042487 0.0867,0.1144715 0.0965,0.1599651 0.01,0.045494 0.0473,0.1189111 0.0834,0.16315 0.0361,0.044239 0.10164,0.1401836 0.1457,0.2132106 0.0441,0.073028 0.10996,0.1659705 0.14644,0.2065411 0.0365,0.040571 0.109,0.173347 0.16113,0.2950586 0.0521,0.1217116 0.12963,0.2677657 0.17223,0.3245645 0.0849,0.1132021 0.20088,0.333934 0.20088,0.3823219 0,0.016832 0.0385,0.1137621 0.0856,0.2154014 0.0471,0.1016395 0.10088,0.257687 0.11953,0.3467726 0.0186,0.089085 0.0727,0.2196352 0.12014,0.2901102 0.0532,0.07907 0.10254,0.2084984 0.12882,0.3380011 0.0234,0.1154261 0.0876,0.3066426 0.14265,0.424926 0.10004,0.2149827 0.10008,0.2152403 0.10945,0.7094566 0.007,0.392365 0.0199,0.518754 0.0603,0.61242 0.0437,0.101251 0.0488,0.179913 0.0361,0.553558 -0.008,0.239543 -0.004,0.442617 0.0101,0.451276 0.0302,0.01905 0.0118,0.962386 -0.0277,1.417655 -0.0156,0.180165 -0.0497,0.37933 -0.0756,0.442588 -0.026,0.06326 -0.0583,0.204551 -0.0718,0.313984 -0.0181,0.14697 -0.0442,0.222744 -0.0996,0.289946 -0.0413,0.05003 -0.0751,0.112865 -0.0751,0.139618 0,0.148446 -0.27899,0.7641552 -0.41711,0.9205252 -0.23815,0.269617 -0.34154,0.427776 -0.46173,0.706309 -0.0716,0.165946 -0.13814,0.338601 -0.14785,0.383677 -0.01,0.04508 -0.0561,0.119498 -0.10304,0.165385 -0.0538,0.05257 -0.0854,0.113277 -0.0854,0.164126 0,0.04438 -0.0405,0.19791 -0.0901,0.341174 -0.0496,0.143264 -0.11554,0.335977 -0.14661,0.428252 -0.0311,0.09228 -0.10595,0.225065 -0.16639,0.295089 -0.0604,0.07002 -0.11949,0.173777 -0.13125,0.230557 -0.0118,0.05679 -0.0766,0.197739 -0.14403,0.31324 -0.10255,0.175588 -0.12582,0.244851 -0.14203,0.422704 -0.0157,0.172394 -0.0353,0.23325 -0.10321,0.321107 -0.0575,0.07434 -0.0996,0.182567 -0.13412,0.344446 -0.0541,0.254053 -0.13304,0.468039 -0.18456,0.500517 -0.0431,0.02717 -0.20423,0.393209 -0.20423,0.46397 0,0.03101 -0.0185,0.0929 -0.0411,0.137505 -0.11301,0.222884 -0.15042,0.427833 -0.14353,0.786384 0.004,0.194738 0.0178,0.461484 0.0313,0.59277 0.0228,0.222492 0.033,0.249049 0.14964,0.391138 0.0688,0.08384 0.17827,0.198827 0.24322,0.255524 0.10793,0.09421 0.13384,0.103085 0.30104,0.103085 0.12768,0 0.21557,-0.01783 0.29091,-0.05901 0.0594,-0.03246 0.12153,-0.05901 0.13811,-0.05901 0.0467,0 0.21662,-0.168673 0.21662,-0.21502 0,-0.03892 0.0688,-0.154152 0.33563,-0.562428 0.062,-0.09492 0.13587,-0.218113 0.16405,-0.273765 0.13538,-0.267325 0.76963,-0.782192 0.90049,-0.730983 0.0483,0.01892 0.15565,0.159392 0.2197,0.287596 0.0231,0.04618 0.11623,0.166644 0.20703,0.267697 l 0.16508,0.183732 -0.0273,0.307668 c -0.015,0.169217 -0.0191,0.389561 -0.009,0.489652 0.0218,0.220127 -0.0419,0.447951 -0.16597,0.593572 -0.0454,0.05331 -0.0826,0.111157 -0.0826,0.128558 0,0.09557 -0.19076,0.417187 -0.33937,0.572173 -0.30833,0.321544 -0.42516,0.415751 -0.67323,0.542852 -0.13524,0.0693 -0.25892,0.135764 -0.27483,0.1477 -0.0641,0.04804 -0.35834,0.152147 -0.5378,0.190246 -0.10483,0.02225 -0.2169,0.05482 -0.24902,0.07235 -0.0756,0.04125 -0.48551,0.03125 -0.61635,-0.01505 z m -8.06045,-4.879902 c 0.11311,-0.03343 0.25772,-0.08547 0.32136,-0.115649 0.0636,-0.03018 0.17431,-0.07852 0.24592,-0.107422 0.15087,-0.06092 0.37596,-0.255855 0.42303,-0.36638 0.0179,-0.04192 0.065,-0.112028 0.10478,-0.155798 0.0524,-0.05765 0.0776,-0.126995 0.0914,-0.251583 0.0105,-0.0946 0.0108,-0.193937 7.3e-4,-0.22075 -0.0101,-0.02681 0.003,-0.147907 0.0297,-0.269101 0.0416,-0.190587 0.0435,-0.263368 0.0142,-0.538803 -0.0187,-0.17515 -0.0425,-0.424674 -0.053,-0.554499 -0.011,-0.135607 -0.041,-0.277551 -0.0706,-0.333587 -0.0555,-0.105086 -0.45141,-0.389306 -0.54224,-0.389306 -0.0288,0 -0.0591,-0.01103 -0.0673,-0.02452 -0.0285,-0.04709 -0.41311,-0.102018 -0.57104,-0.08157 -0.0854,0.01105 -0.26391,0.02965 -0.3967,0.04131 -0.2273,0.01997 -0.24593,0.02689 -0.31824,0.118227 -0.0422,0.05336 -0.14515,0.173899 -0.22869,0.26787 -0.0835,0.09397 -0.15189,0.185235 -0.15189,0.202808 0,0.01757 -0.0306,0.06948 -0.0681,0.115356 -0.0374,0.04587 -0.0905,0.152956 -0.11794,0.237964 -0.0274,0.085 -0.0619,0.162137 -0.0766,0.1714 -0.0147,0.0093 -0.0267,0.0488 -0.0267,0.08786 0,0.03906 -0.0182,0.114626 -0.0405,0.167917 -0.072,0.172063 -0.13777,0.542376 -0.11768,0.662097 0.042,0.250494 0.1725,0.636737 0.31238,0.924845 0.0754,0.155184 0.47355,0.352181 0.71821,0.355307 0.0532,6.69e-4 0.14236,0.02668 0.19806,0.05777 0.12813,0.07154 0.13961,0.07149 0.38745,-0.0017 z"
       id="path217" /></g></svg>
