<?xml version="1.0" encoding="UTF-8" standalone="no"?>
<!-- Created with Inkscape (http://www.inkscape.org/) -->

<svg
   width="75"
   height="75"
   viewBox="0 0 19.84375 19.84375"
   version="1.1"
   id="svg739"
   inkscape:version="1.2.2 (b0a8486541, 2022-12-01)"
   sodipodi:docname="libra.svg"
   xml:space="preserve"
   xmlns:inkscape="http://www.inkscape.org/namespaces/inkscape"
   xmlns:sodipodi="http://sodipodi.sourceforge.net/DTD/sodipodi-0.dtd"
   xmlns="http://www.w3.org/2000/svg"
   xmlns:svg="http://www.w3.org/2000/svg"><sodipodi:namedview
     id="namedview741"
     pagecolor="#ffffff"
     bordercolor="#999999"
     borderopacity="1"
     inkscape:showpageshadow="0"
     inkscape:pageopacity="0"
     inkscape:pagecheckerboard="0"
     inkscape:deskcolor="#d1d1d1"
     inkscape:document-units="px"
     showgrid="false"
     inkscape:zoom="3.9509095"
     inkscape:cx="49.861937"
     inkscape:cy="28.601009"
     inkscape:window-width="1280"
     inkscape:window-height="955"
     inkscape:window-x="0"
     inkscape:window-y="0"
     inkscape:window-maximized="1"
     inkscape:current-layer="layer1" /><defs
     id="defs736" /><g
     inkscape:label="Warstwa 1"
     inkscape:groupmode="layer"
     id="layer1"><path
       style="fill:#000000;stroke-width:0.0260263"
       d="m 16.475666,14.497249 c -0.147681,-0.06251 -0.202895,-0.06921 -0.668658,-0.08121 -0.296946,-0.008 -0.592684,-0.03031 -0.712455,-0.05481 -0.237284,-0.04841 -0.437528,-0.04791 -0.883417,0.002 -0.212183,0.024 -0.335694,0.0272 -0.365527,0.01 -0.02553,-0.0151 -0.380291,-0.0302 -0.818724,-0.035 -0.531666,-0.006 -0.804653,-0.0191 -0.872727,-0.04271 -0.05448,-0.0189 -0.14481,-0.0327 -0.200725,-0.03071 -0.05591,0.002 -0.128352,-0.007 -0.160973,-0.0202 -0.03262,-0.0131 -0.191612,-0.0155 -0.353314,-0.006 -0.218002,0.0138 -0.318771,0.009 -0.389805,-0.0178 -0.104319,-0.03971 -0.598273,-0.0325 -1.2386885,0.018 -0.219031,0.0173 -0.422804,0.0175 -0.569315,8.6e-4 -0.125501,-0.0144 -0.23677,-0.0202 -0.247265,-0.013 -0.0105,0.007 -0.212028,0.0145 -0.447853,0.0163 -0.235825,0.002 -0.62614,0.0234 -0.867367,0.04801 -0.241226,0.0246 -0.514262,0.03751 -0.606744,0.0287 -0.156379,-0.0149 -1.000051,0.03751 -1.041245,0.06481 -0.01015,0.007 -0.235457,0.0206 -0.50069,0.03101 -0.265233,0.01 -0.489002,0.0234 -0.497266,0.029 -0.0083,0.006 -0.06429,-0.007 -0.124503,-0.0261 -0.08031,-0.0266 -0.314005,-0.0368 -0.877197,-0.03791 -1.016337,-0.002 -1.770294,-0.0368 -1.99359,-0.09181 -0.149463,-0.0368 -0.475435,-0.07331 -0.513368,-0.05751 -0.03429,0.0142 -0.25435,-0.09591 -0.25435,-0.12734 0,-0.0306 -0.227089,-0.186878 -0.30154802,-0.207521 -0.03586,-0.01 -0.130337,-0.07871 -0.209959,-0.152944 -0.07962,-0.07421 -0.163358,-0.142002 -0.186079,-0.150723 -0.02272,-0.009 -0.05417,-0.05011 -0.06988,-0.09201 -0.01734,-0.04631 -0.06627,-0.09501 -0.124494,-0.123949 -0.05276,-0.0263 -0.118397,-0.07421 -0.145866,-0.106466 -0.04611,-0.05421 -0.04824,-0.07691 -0.02777,-0.296035 0.02947,-0.315469 0.07325,-0.382049 0.29468,-0.448189 0.109965,-0.0328 0.262311,-0.05021 0.46136,-0.05261 0.16344902,-0.002 0.33074402,-0.0121 0.37176502,-0.0225 0.06167,-0.0157 1.540657,-0.05051 1.74565,-0.04111 0.03405,10e-4 0.57455,0.006 1.201107,0.008 1.079183,0.004 1.312436,-0.002 2.29077,-0.06741 0.544758,-0.03631 1.348222,-0.05451 2.179329,-0.04931 0.881597,0.006 1.173394,-9.7e-4 1.4611405,-0.033 0.193225,-0.0215 0.716553,-0.03011 1.41161,-0.0234 0.06129,6.2e-4 0.178343,0.0184 0.260109,0.03981 0.08177,0.0212 0.226643,0.03701 0.321946,0.03491 0.0953,-0.002 0.234208,0.01 0.308676,0.0271 0.10517,0.024 0.953898,0.0225 1.064442,-0.002 0.0075,-10e-4 0.09723,0.007 0.19939,0.0177 0.102156,0.0114 0.598077,0.0246 1.102047,0.02941 0.516507,0.004 0.981749,0.0217 1.066292,0.03861 0.126899,0.0253 0.27645,0.0321 0.729177,0.0335 0.515638,10e-4 0.89638,-0.013 1.198385,-0.04541 0.476576,-0.05121 0.863719,-0.05011 1.139627,0.003 0.121328,0.0234 0.261155,0.03501 0.310727,0.0258 0.185257,-0.0346 0.339195,0.215053 0.298554,0.484114 -0.01949,0.12904 -0.01636,0.149953 0.02884,0.19262 0.02788,0.0263 0.0829,0.04781 0.122251,0.04781 0.06956,0 0.07155,0.004 0.07155,0.139871 0,0.08541 -0.01857,0.178627 -0.04767,0.239327 -0.02622,0.05471 -0.05373,0.13022 -0.06113,0.167825 -0.0085,0.04301 -0.05616,0.09792 -0.128353,0.147973 -0.0684,0.04741 -0.145155,0.13392 -0.189683,0.213843 -0.04113,0.07391 -0.117945,0.164335 -0.17069,0.2011 -0.05275,0.03681 -0.0959,0.07751 -0.0959,0.09061 0,0.06061 -0.168333,0.08871 -0.596521,0.09961 -0.250797,0.007 -0.500573,0.0256 -0.555056,0.04271 -0.130105,0.04091 -0.18668,0.04021 -0.408624,-0.006 -0.124344,-0.0256 -0.247133,-0.03181 -0.371476,-0.019 -0.374526,0.03891 -0.459421,0.04891 -0.520068,0.06141 -0.03405,0.007 -0.13435,-0.0179 -0.222885,-0.05531 z m -3.024867,-3.21079 c -0.104401,-0.011 -0.168044,-0.03731 -0.251699,-0.103596 -0.06158,-0.04881 -0.134778,-0.08881 -0.16266,-0.08881 -0.02788,0 -0.146044,-0.05761 -0.262582,-0.128209 -0.168186,-0.101826 -0.227127,-0.154454 -0.285777,-0.255399 -0.04064,-0.06991 -0.07389,-0.157484 -0.07389,-0.19453 0,-0.03701 -0.01026,-0.07911 -0.0228,-0.09331 -0.01254,-0.0143 -0.05181,-0.1306 -0.08728,-0.25847 -0.03546,-0.127869 -0.07605,-0.2724109 -0.09019,-0.3211983 -0.01414,-0.048808 -0.0183,-0.1432619 -0.0092,-0.2099221 0.01877,-0.1382611 -0.01777,-0.2885841 -0.100283,-0.412513 -0.06682,-0.1003853 -0.135977,-0.255379 -0.135977,-0.3047766 0,-0.020103 -0.05572,-0.1044859 -0.123825,-0.1875586 -0.0681,-0.083013 -0.123825,-0.163615 -0.123825,-0.1790074 0,-0.015402 -0.07792,-0.1166578 -0.173159,-0.2250243 C 11.428735,8.188826 11.378696,8.1124843 11.387911,8.0804294 11.404531,8.0225206 11.322631,7.9616013 11.195281,7.9369475 11.144601,7.926946 11.072167,7.8911405 11.034308,7.8567353 10.944968,7.7759229 10.842277,7.7315061 10.677603,7.7025617 10.604383,7.6896597 10.421497,7.6380519 10.271199,7.5878542 9.9223305,7.4712864 9.6346925,7.4606548 9.4843455,7.5588498 c -0.05186,0.033805 -0.135439,0.061809 -0.185738,0.06231 -0.06888,5.401e-4 -0.112853,0.023003 -0.178132,0.090914 -0.102098,0.1062462 -0.321946,0.4165236 -0.321946,0.4543494 0,0.014502 -0.06129,0.1021656 -0.136208,0.1948697 -0.07491,0.092814 -0.136208,0.1791974 -0.136208,0.1921594 0,0.012902 -0.04426,0.054408 -0.09835,0.092114 -0.0541,0.037606 -0.115667,0.1055861 -0.136827,0.150743 -0.02116,0.045207 -0.08662,0.1353507 -0.145471,0.2003506 -0.100762,0.111277 -0.31277,0.5347817 -0.31277,0.6247655 0,0.047707 -0.269181,0.5347216 -0.378974,0.6856346 -0.04355,0.05981 -0.11211,0.12765 -0.152357,0.150633 -0.04025,0.023 -0.115091,0.09251 -0.16632,0.154444 -0.212935,0.257519 -0.332335,0.369546 -0.416562,0.39084 -0.111664,0.0283 -0.261654,0.0315 -2.024917,0.04461 -1.361207,0.01 -1.470996,0.0144 -1.515939,0.05931 -0.04651,0.04651 -0.05469,0.04571 -0.204157,-0.0195 -0.149183,-0.06511 -0.457938,-0.106026 -0.873892,-0.115907 -0.275521,-0.007 -0.907241,-0.144612 -1.15132702,-0.251639 -0.123959,-0.05431 -0.208931,-0.07131 -0.371476,-0.07431 l -0.210754,-0.003 0.0087,-0.161454 c 0.0066,-0.121979 0.02107,-0.172527 0.0593,-0.206722 l 0.05061,-0.04531 -0.05778,-0.05941 c -0.03178,-0.0327 -0.08141,-0.05941 -0.110291,-0.05941 -0.06931,0 -0.117892,-0.04511 -0.192128,-0.1781962 -0.03368,-0.060409 -0.07954,-0.1265793 -0.101912,-0.1470825 -0.03681,-0.033805 -0.03263,-0.044107 0.04401,-0.1090066 0.04658,-0.039406 0.113436,-0.1103369 0.148566,-0.1574741 0.0482,-0.06471 0.09197,-0.090414 0.178397,-0.104706 0.08812,-0.014602 0.136467,-0.043707 0.209711,-0.1262093 0.07534,-0.084913 0.114756,-0.1080165 0.189036,-0.1107369 0.76449402,-0.028304 2.47040602,-0.034805 3.06566002,-0.011602 0.177071,0.007 0.433389,-5.401e-4 0.569597,-0.016603 0.136209,-0.016002 0.386955,-0.033005 0.557215,-0.037906 0.687089,-0.019703 0.917882,-0.052708 0.87716,-0.1254291 -0.0076,-0.013602 -0.0062,-0.092214 0.0031,-0.1746767 0.01555,-0.137411 0.02222,-0.1499629 0.07984,-0.1499629 0.04295,0 0.09038,-0.035405 0.149672,-0.1119871 0.08962,-0.1156377 0.202753,-0.2907545 0.202753,-0.313838 0,-0.008 0.03987,-0.077112 0.08859,-0.1553637 0.04873,-0.078212 0.111376,-0.1974702 0.13922,-0.2649805 0.02784,-0.06751 0.08247,-0.1662854 0.121394,-0.2195035 0.298881,-0.4086925 0.389902,-0.5459734 0.413784,-0.6240854 0.01508,-0.049408 0.05933,-0.1193582 0.09833,-0.1555937 0.039,-0.036206 0.103545,-0.1182781 0.143434,-0.1822879 0.03989,-0.06411 0.110065,-0.1540035 0.15595,-0.1999905 0.04588,-0.045907 0.149336,-0.1552237 0.229891,-0.242787 0.08056,-0.087613 0.19758,-0.1841882 0.260057,-0.2147028 0.06641,-0.032505 0.118997,-0.078312 0.1266,-0.1104469 0.009,-0.038106 0.104654,-0.1031558 0.312791,-0.2125725 0.313821,-0.1650252 0.649801,-0.2740618 0.844441,-0.2740618 0.06318,0 0.13806,-0.013702 0.166398,-0.030505 0.05558,-0.032805 0.251062,-0.060609 0.390991,-0.055709 0.04767,0.002 0.2482705,0.008 0.4457725,0.013802 0.279523,0.009 0.397507,0.024004 0.532449,0.070411 0.09535,0.032805 0.206789,0.06411 0.247651,0.06921 0.184053,0.023504 0.28619,0.051808 0.312229,0.086513 0.01549,0.020603 0.05615,0.037406 0.09036,0.037406 0.08908,0 0.255574,0.056709 0.328746,0.1119671 0.03447,0.026104 0.128524,0.076512 0.209,0.1122971 0.101729,0.045207 0.158516,0.089214 0.186343,0.1447321 0.02861,0.057009 0.07806,0.094314 0.173425,0.13067 0.07337,0.028104 0.170653,0.087013 0.216183,0.1312 0.04553,0.044207 0.09279,0.080312 0.105018,0.080312 0.01223,0 0.0293,0.024604 0.03794,0.054708 0.0086,0.030004 0.04561,0.062709 0.08216,0.072611 0.03655,0.010002 0.131168,0.083713 0.210264,0.164175 0.0791,0.080412 0.153434,0.1462324 0.165196,0.1462324 0.01176,0 0.02919,0.040006 0.03872,0.088914 0.02516,0.1290397 0.07755,0.2309252 0.160954,0.3129978 0.04032,0.039606 0.0733,0.087613 0.0733,0.1065763 0,0.018903 0.02786,0.071011 0.06191,0.1156676 0.03405,0.044707 0.06191,0.089114 0.06191,0.098815 0,0.010002 0.06632,0.092914 0.147375,0.1849383 0.08106,0.092014 0.150708,0.1926494 0.154782,0.2235341 0.0043,0.032705 0.03174,0.06241 0.06551,0.071111 0.03908,0.010002 0.06826,0.047707 0.08915,0.1147975 0.01708,0.054908 0.06059,0.1554138 0.09668,0.2234442 0.0361,0.06801 0.06617,0.1645751 0.06682,0.2145427 0.0012,0.088213 0.01698,0.1291098 0.147401,0.3810782 0.03405,0.06581 0.07894,0.1687958 0.09975,0.228905 0.03308,0.095515 0.0502,0.1116971 0.136208,0.1283896 0.0541,0.011002 0.204244,0.012702 0.333642,0.006 0.430818,-0.025804 1.222421,-0.018003 1.498288,0.014702 0.279838,0.033205 0.33464,0.038906 0.7801,0.080412 0.143019,0.013402 0.293467,0.039206 0.334329,0.057509 0.08509,0.038106 1.061998,0.050308 1.386845,0.017403 0.348361,-0.035305 0.735306,0.053008 0.76594,0.1749167 0.04355,0.1733065 0.03998,0.2655706 -0.01317,0.340202 -0.03443,0.048407 -0.05903,0.1290589 -0.06628,0.2175329 -0.0063,0.07741 -0.0285,0.162075 -0.04925,0.188249 -0.04395,0.05541 -0.03078,0.367766 0.02079,0.492765 0.05368,0.13012 0.0087,0.152553 -0.331774,0.165545 -0.394383,0.015 -0.835151,0.08261 -0.914808,0.140302 -0.0504,0.03641 -0.133466,0.04641 -0.418212,0.05001 -0.195424,0.002 -0.472332,-0.004 -0.615351,-0.0163 -0.278215,-0.0223 -0.418138,-0.0235 -0.447196,-0.003 -0.0099,0.007 -0.06134,-0.004 -0.114229,-0.0252 -0.176158,-0.06871 -1.19273,-0.06431 -1.70458,0.008 -0.09535,0.0134 -0.31266,0.0211 -0.48292,0.0172 -0.323575,-0.008 -0.40933,0.01 -0.462041,0.09311 -0.02566,0.04041 -0.06728,0.05051 -0.21904,0.05231 -0.103046,10e-4 -0.195341,0.007 -0.2051,0.0114 -0.0098,0.004 -0.08063,0.002 -0.157478,-0.006 z"
       id="path482" /></g></svg>
