<?xml version="1.0" encoding="UTF-8" standalone="no"?>
<!-- Created with Inkscape (http://www.inkscape.org/) -->

<svg
   width="75"
   height="75"
   viewBox="0 0 19.84375 19.84375"
   version="1.1"
   id="svg739"
   inkscape:version="1.2.2 (b0a8486541, 2022-12-01)"
   sodipodi:docname="saggitarius.svg"
   xml:space="preserve"
   xmlns:inkscape="http://www.inkscape.org/namespaces/inkscape"
   xmlns:sodipodi="http://sodipodi.sourceforge.net/DTD/sodipodi-0.dtd"
   xmlns="http://www.w3.org/2000/svg"
   xmlns:svg="http://www.w3.org/2000/svg"><sodipodi:namedview
     id="namedview741"
     pagecolor="#ffffff"
     bordercolor="#999999"
     borderopacity="1"
     inkscape:showpageshadow="0"
     inkscape:pageopacity="0"
     inkscape:pagecheckerboard="0"
     inkscape:deskcolor="#d1d1d1"
     inkscape:document-units="px"
     showgrid="false"
     inkscape:zoom="3.9509095"
     inkscape:cx="48.722959"
     inkscape:cy="59.733082"
     inkscape:window-width="1280"
     inkscape:window-height="955"
     inkscape:window-x="0"
     inkscape:window-y="0"
     inkscape:window-maximized="1"
     inkscape:current-layer="layer1" /><defs
     id="defs736" /><g
     inkscape:label="Warstwa 1"
     inkscape:groupmode="layer"
     id="layer1"><path
       style="fill:#000000;stroke-width:0.0315105"
       d="m 16.398242,19.838336 c -0.158475,-0.01168 -0.671715,-0.102358 -1.027722,-0.181586 -0.268233,-0.05969 -0.582966,-0.203442 -0.795024,-0.363112 -0.08994,-0.06771 -0.176396,-0.123409 -0.192135,-0.12376 -0.0754,-0.0017 -0.506396,-0.286239 -0.618749,-0.408514 -0.138137,-0.150334 -0.456536,-0.704997 -0.456536,-0.795302 0,-0.03086 -0.0299,-0.0903 -0.06646,-0.132086 -0.03655,-0.04179 -0.06646,-0.09951 -0.06646,-0.128281 0,-0.06362 -0.08839,-0.336538 -0.152556,-0.471058 -0.02574,-0.05398 -0.04681,-0.120147 -0.04681,-0.147058 0,-0.02691 -0.02,-0.07016 -0.04445,-0.09611 -0.02444,-0.02595 -0.06353,-0.127858 -0.08688,-0.226468 -0.02334,-0.09861 -0.05676,-0.203782 -0.07429,-0.233713 -0.06715,-0.114711 -0.126669,-0.390118 -0.126669,-0.586073 0,-0.112356 -0.021,-0.269702 -0.04667,-0.349657 -0.02566,-0.07995 -0.07278,-0.226053 -0.104689,-0.324664 -0.0534,-0.16501 -0.09801,-0.812887 -0.08539,-1.240107 0.0221,-0.748189 -0.0069,-1.719875 -0.06207,-2.076808 -0.09815,-0.635458 -0.149148,-1.081919 -0.157001,-1.374577 -0.0048,-0.180786 -0.01802,-0.550577 -0.02928,-0.8217565 -0.01125,-0.271181 -0.02162,-0.931994 -0.02305,-1.468474 -0.0023,-0.866964 0.0036,-0.983965 0.05341,-1.052293 0.0308,-0.04228 0.056,-0.110772 0.056,-0.152203 0,-0.07996 0.04245,-0.264098 0.11744,-0.509476 0.06888,-0.225385 0.08405,-0.446103 0.08392,-1.220824 -6.7e-5,-0.389009 0.01315,-0.771001 0.02938,-0.848871 0.03424,-0.164332 -0.01046,-1.225337 -0.06577,-1.560982 -0.04191,-0.254301 -0.0848,-0.349136 -0.184663,-0.408171 -0.06111,-0.03613 -0.0801,-0.03365 -0.156664,0.02052 -0.04792,0.0339 -0.130846,0.138349 -0.184281,0.232113 -0.394702,0.692583 -0.479418,0.853759 -0.553023,1.05216 -0.04576,0.123352 -0.11189,0.358672 -0.146949,0.522937 -0.03506,0.164264 -0.109812,0.425863 -0.166117,0.581331 -0.05631,0.155468 -0.102373,0.29514 -0.102373,0.310384 0,0.01524 -0.09602,0.124199 -0.213377,0.242122 -0.117357,0.117924 -0.24361,0.274084 -0.28056,0.347023 -0.254049,0.501481 -0.336752,0.684647 -0.336752,0.745818 0,0.03841 -0.0163,0.117861 -0.03623,0.176552 -0.01993,0.05869 -0.05124,0.153773 -0.06958,0.211296 -0.01834,0.05752 -0.06932,0.187563 -0.113293,0.288977 -0.06784,0.156465 -0.07995,0.236171 -0.07995,0.526329 0,0.188066 0.01652,0.414372 0.03672,0.502899 0.04168,0.182771 0.05602,2.3377365 0.01826,2.7457615 -0.01293,0.1397 -0.0252,0.610342 -0.02727,1.045874 -0.0029,0.605794 0.0076,0.830497 0.04449,0.956228 0.0722,0.245875 0.05362,1.559815 -0.0266,1.882573 -0.01727,0.0695 -0.0502,0.42656 -0.106081,1.150461 -0.02206,0.285784 -0.09363,0.493055 -0.170247,0.493055 -0.01631,0 -0.0609,0.04545 -0.09908,0.101004 -0.0464,0.06752 -0.127092,0.123318 -0.243374,0.168304 -0.152,0.0588 -0.210861,0.06515 -0.466241,0.05027 -0.370427,-0.02158 -0.391584,-0.03972 -0.529701,-0.454049 -0.05008,-0.150218 -0.05073,-0.203595 -0.0098,-0.806817 0.01329,-0.196121 0.0069,-0.443207 -0.01583,-0.612584 -0.02096,-0.156134 -0.05023,-0.43852 -0.06506,-0.627524 -0.01482,-0.189005 -0.05011,-0.455554 -0.0784,-0.592334 -0.0283,-0.13678 -0.05024,-0.28712 -0.04875,-0.33409 0.0015,-0.04697 -0.01329,-0.123318 -0.03283,-0.16966 -0.05428,-0.12873 -0.07525,-1.410223 -0.03488,-2.131185 0.01979,-0.353355 0.04056,-0.72987 0.04616,-0.836699 0.0056,-0.106828 0.02022,-0.321979 0.03249,-0.4781125 0.04672,-0.594404 0.0067,-2.139603 -0.05834,-2.251454 -0.0505,-0.08686 -0.07593,-0.604608 -0.03093,-0.629616 0.02156,-0.01199 0.03782,-0.09904 0.03782,-0.202456 0,-0.09979 0.02245,-0.310785 0.04988,-0.46888 0.02744,-0.158095 0.06525,-0.48915 0.08404,-0.735677 0.01879,-0.246525 0.0467,-0.549081 0.06201,-0.672344 0.01644,-0.132353 0.01389,-0.386313 -0.0062,-0.620253 -0.02526,-0.293732 -0.02393,-0.43664 0.0051,-0.552819 0.02156,-0.08617 0.03628,-0.197023 0.0327,-0.246329 -0.0036,-0.04931 0.0053,-0.140224 0.01967,-0.202039 0.02663,-0.114395 -0.02955,-0.563664 -0.08115,-0.649037 -0.04679,-0.07741 -0.252991,-0.159331 -0.347413,-0.138018 -0.09907,0.02236 -0.628191,0.452992 -0.795998,0.647834 -0.06256,0.07264 -0.163851,0.219491 -0.225075,0.326319 -0.11503,0.200714 -0.297387,0.456272 -0.437117,0.612584 -0.07869,0.08803 -0.258902,0.481824 -0.328191,0.71717 -0.01936,0.06574 -0.06918,0.160794 -0.110719,0.21123 -0.04154,0.05044 -0.09315,0.150569 -0.114697,0.222519 -0.02155,0.07195 -0.112468,0.21837 -0.202056,0.325377 -0.08959,0.107007 -0.169845,0.235472 -0.17835,0.285476 -0.05794,0.34062 -0.09625,1.028832 -0.101546,1.824081 -0.0034,0.509491 -0.01967,1.383542 -0.03617,1.942338 -0.03276,1.1094645 -0.03641,1.5026625 -0.01776,1.9124545 0.0067,0.147916 0.0043,0.342898 -0.0054,0.43329 -0.0457,0.425135 -0.03182,1.122807 0.02793,1.40446 0.03312,0.156134 0.06146,0.351114 0.06297,0.433291 0.0015,0.08217 0.01707,0.16958 0.03458,0.194234 0.02859,0.04027 0.08415,0.339689 0.09149,0.493054 0.0016,0.03287 -0.01722,0.204645 -0.04177,0.381721 -0.03656,0.263742 -0.03693,0.348989 -0.002,0.471469 0.03507,0.123028 0.03482,0.157962 -0.0014,0.197203 -0.04443,0.04814 -0.0849,0.256382 -0.117056,0.602261 l -0.01752,0.18843 -0.271211,0.249931 c -0.149834,0.13808 -0.308387,0.256854 -0.35428,0.265398 -0.04569,0.0085 -0.121706,0.02273 -0.168931,0.0316 -0.04722,0.0089 -0.142732,0.05679 -0.212241,0.106462 -0.06951,0.04968 -0.157966,0.09071 -0.196572,0.09118 C 4.019392,17.050201 3.8719,16.999773 3.730238,16.937674 3.495177,16.834628 3.470878,16.815624 3.452143,16.720175 3.440843,16.662655 3.390503,16.548353 3.340256,16.466177 3.21827,16.266674 3.177302,16.028629 3.19369,15.614537 3.20119,15.425533 3.20716,15.250722 3.207,15.226069 3.2045,14.831577 3.207517,14.6149 3.2249,13.956079 3.23618,13.528765 3.24332,13.0351 3.24079,12.859046 3.23829,12.682992 3.25284,12.326649 3.2732,12.067171 3.30813,11.622243 3.306,11.576928 3.23586,11.270957 3.17139,10.9897 3.16662,10.924537 3.20001,10.781337 3.2212,10.690477 3.23074,10.604804 3.22121,10.590936 3.19535,10.553306 3.108761,9.3673435 3.107953,9.0396885 c -3.85e-4,-0.156565 -0.018,-0.398611 -0.03914,-0.537878 -0.02115,-0.139268 -0.03682,-0.286832 -0.03484,-0.32792 0.002,-0.04109 0.0031,-0.18228 0.0025,-0.313761 -6.23e-4,-0.131482 -10e-4,-0.259228 -9.57e-4,-0.283881 9.7e-5,-0.02466 0.0081,-0.125505 0.0178,-0.224116 0.02243,-0.228091 0.05911,-1.468545 0.0698,-2.360687 0.0045,-0.378009 0.02779,-0.815034 0.05169,-0.971168 0.0518,-0.338478 0.05292,-0.380629 0.01984,-0.747054 -0.01531,-0.169523 -0.04639,-0.312782 -0.07716,-0.355627 l -0.05153,-0.07175 -0.09289,0.176336 c -0.08705,0.165228 -0.297728,0.725698 -0.297728,0.792033 0,0.01652 -0.02896,0.08722 -0.06436,0.157098 -0.0354,0.06988 -0.08142,0.193525 -0.102276,0.27477 -0.02086,0.08124 -0.05725,0.194781 -0.08087,0.252305 -0.07754,0.188829 -0.15515,0.410624 -0.205655,0.587767 -0.04996,0.175237 -0.06644,0.252287 -0.157585,0.736888 -0.0273,0.145112 -0.07121,0.293474 -0.0976,0.329693 -0.02638,0.03622 -0.08138,0.186429 -0.122194,0.333802 -0.04081,0.147372 -0.09119,0.296409 -0.111945,0.331193 -0.06275,0.105194 -0.335054,0.29727 -0.56301,0.397141 -0.18139698,0.07947 -0.23736098,0.09098 -0.35806398,0.07362 -0.08495,-0.01222 -0.172234,-0.04888 -0.214876,-0.09026 -0.03949,-0.03832 -0.130032,-0.09143 -0.201189,-0.118002 -0.142688,-0.05328 -0.290547,-0.187111 -0.360944,-0.326684 -0.05957,-0.118108 -0.03875,-0.88599 0.03319,-1.224231 0.08805,-0.413927 0.253957,-1.01079 0.31878,-1.146789 0.03428,-0.07194 0.06234,-0.193634 0.06234,-0.270434 0,-0.0768 0.0141,-0.152409 0.03132,-0.168023 0.01722,-0.01561 0.04574,-0.08218 0.06336,-0.147916 0.01762,-0.06574 0.08386,-0.287616 0.147189,-0.493056 0.06332,-0.205439 0.12581,-0.426849 0.138847,-0.492021 0.01304,-0.06517 0.04485,-0.155273 0.07069,-0.200221 0.02584,-0.04495 0.04699,-0.103749 0.04699,-0.130669 0,-0.02692 0.04486,-0.136101 0.09968,-0.242625 0.05482,-0.106526 0.09968,-0.2009685 0.09968,-0.2098739 0,-0.0089 0.05145,-0.1390752 0.11432,-0.2892658 0.13631,-0.3255977 0.298568,-0.6026107 0.415401,-0.709188 0.04674,-0.0426411 0.12237,-0.12627225 0.168057,-0.18584735 0.08698,-0.1134179 0.343387,-0.2758123 0.486479,-0.3081102 0.04607,-0.010398 0.0924,-0.039156 0.10296,-0.063907 0.01056,-0.024751 0.117654,-0.085147 0.237982,-0.1342139 0.447563,-0.1825021 1.261552,-0.1288049 1.627559,0.1073664 0.08436,0.054436 0.224729,0.1356779 0.311925,0.1805366 C 4.917249,0.78234245 5.139203,1.0592645 5.201187,1.3607606 5.315689,1.917704 5.389901,1.9541736 5.748857,1.629898 5.876783,1.5143313 6.078641,1.3358344 6.197429,1.2332382 6.316218,1.130642 6.465954,0.97953205 6.530176,0.89743845 c 0.06423,-0.082094 0.170031,-0.1750103 0.23513,-0.2064814 0.0651,-0.031471 0.142456,-0.094976 0.171906,-0.1411217 0.05071,-0.079459 0.299089,-0.2470511 0.536562,-0.3620397 0.0595,-0.028812 0.234024,-0.086388 0.387827,-0.1279471 0.313756,-0.08478 0.564596,-0.079461 0.744828,0.015791 0.05482,0.028976 0.154091,0.06137 0.220591,0.07199 0.09279,0.014819 0.174812,0.069505 0.352767,0.2352226 0.127523,0.1187532 0.316092,0.2745781 0.419041,0.3462777 0.10295,0.071699 0.187181,0.1430338 0.187181,0.1585205 0,0.015487 0.02855,0.08457 0.06344,0.15351725 0.0349,0.068948 0.07399,0.1760217 0.08688,0.237942 0.02629,0.1263162 0.147857,0.2310619 0.268162,0.2310619 0.08421,0 0.208993,-0.1049486 0.319771,-0.268939 0.179526,-0.26576435 0.675402,-0.73441805 0.8899,-0.84104935 0.06397,-0.031798 0.165519,-0.08993 0.22568,-0.1291853 0.13823,-0.090195 0.499512,-0.2129036 0.739459,-0.2511556 0.240392,-0.038323 0.674784,0.00829 0.795076,0.085327 0.04838,0.030983 0.129153,0.065629 0.179488,0.076991 0.105408,0.023792 0.550993,0.4259171 0.699591,0.6313562 0.08659,0.1196996 0.100192,0.1671989 0.104548,0.36484235 0.0033,0.1518056 0.03821,0.3313696 0.105044,0.5409883 0.09027,0.2831463 0.100318,0.3574992 0.102933,0.7619934 0.0016,0.246528 0.01764,0.542361 0.03566,0.657407 0.01801,0.115046 0.03346,0.666371 0.03434,1.225166 8.67e-4,0.558796 0.0109,1.110683 0.02231,1.226417 0.0114,0.115734 0.0032,0.373892 -0.01822,0.573684 -0.02764,0.257673 -0.029,0.413653 -0.0047,0.536629 0.06422,0.324942 0.08846,2.120704 0.03397,2.516275 -0.01902,0.138136 -0.04049,0.454139 -0.0477,0.702229 -0.0072,0.2480895 -0.02829,0.6057115 -0.04684,0.7947155 -0.03169,0.322792 -0.02187,1.779066 0.0131,1.942338 0.0088,0.04109 0.02389,0.237085 0.03353,0.43555 0.01782,0.366705 0.08162,0.766166 0.146691,0.91856 0.01976,0.04627 0.03592,0.153145 0.03592,0.237507 0,0.08436 0.01472,0.261658 0.0327,0.393992 0.01799,0.132335 0.04825,0.381801 0.06726,0.55437 0.07296,0.662615 0.103656,0.836004 0.227502,1.284932 0.07027,0.254744 0.161769,0.520909 0.203316,0.591477 0.05541,0.09412 0.07039,0.156808 0.05624,0.235284 -0.04163,0.230708 0.159084,0.421063 0.559335,0.530469 0.109651,0.02997 0.244222,0.07115 0.299048,0.09151 0.199028,0.0739 0.501756,0.143385 0.647938,0.148718 0.166854,0.0061 0.707609,-0.102597 0.832807,-0.167382 0.31415,-0.162563 0.318379,-0.168116 0.451821,-0.593376 0.06687,-0.213094 0.04477,-0.516507 -0.05052,-0.693514 -0.03913,-0.07269 -0.07114,-0.172985 -0.07114,-0.222866 0,-0.109263 -0.04927,-0.255548 -0.135562,-0.402502 -0.0351,-0.05976 -0.0638,-0.164586 -0.0638,-0.232945 0,-0.09212 -0.02111,-0.143274 -0.08156,-0.197636 -0.147819,-0.132936 -0.28906,-0.07916 -0.464511,0.176855 -0.264498,0.385955 -0.432356,0.580329 -0.578752,0.670169 -0.335672,0.205998 -0.707789,0.220694 -0.960664,0.03793 -0.07457,-0.0539 -0.150481,-0.133559 -0.168689,-0.177033 -0.0182,-0.04348 -0.04181,-0.236202 -0.05246,-0.428281 -0.01064,-0.192078 -0.0346,-0.385297 -0.05323,-0.429375 -0.01864,-0.04408 -0.04859,-0.173461 -0.06659,-0.287519 -0.01798,-0.114057 -0.05453,-0.245329 -0.0812,-0.291716 -0.03403,-0.05919 -0.04002,-0.110906 -0.02009,-0.173434 0.01563,-0.049 0.0167,-0.146666 0.0024,-0.217033 -0.01431,-0.07037 -0.01816,-0.205778 -0.0086,-0.300914 0.0096,-0.09513 0.0067,-0.197411 -0.0064,-0.227277 -0.04101,-0.09329 -0.04162,-0.555003 -9.27e-4,-0.716014 0.02137,-0.08454 0.07109,-0.190571 0.110481,-0.235617 0.0394,-0.04504 0.07164,-0.105616 0.07164,-0.1346 0,-0.08399 0.193037,-0.395845 0.291866,-0.471522 0.04964,-0.03801 0.181811,-0.108775 0.293718,-0.157257 0.111908,-0.04848 0.258732,-0.135022 0.326279,-0.192311 0.06755,-0.05729 0.16289,-0.112349 0.211877,-0.122352 0.50143,-0.10239 0.972037,-0.229335 1.053965,-0.284302 0.01899,-0.01274 0.161036,-0.06538 0.315661,-0.116989 0.300375,-0.100245 0.369445,-0.105445 0.962303,-0.07245 0.350167,0.01949 0.431959,0.04312 0.431959,0.124821 0,0.02421 0.02714,0.07971 0.06031,0.123341 0.08025,0.105532 0.253832,0.492125 0.300805,0.669918 0.06133,0.232159 0.04572,0.326443 -0.09611,0.580471 -0.13475,0.24134 -0.287503,0.386542 -0.486843,0.462778 -0.05161,0.01974 -0.134243,0.06888 -0.183639,0.109193 l -0.08981,0.07331 0.08467,0.137698 c 0.04657,0.07574 0.113775,0.166055 0.149341,0.200713 0.03557,0.03466 0.07883,0.108615 0.09614,0.164351 0.01731,0.05574 0.07646,0.148402 0.13145,0.205926 0.05498,0.05752 0.100013,0.118805 0.100053,0.136183 3.3e-5,0.01737 0.05164,0.123751 0.114651,0.236387 0.06627,0.118457 0.124059,0.275205 0.137075,0.371813 0.01238,0.09186 0.03833,0.193915 0.05768,0.226785 0.01935,0.03287 0.03888,0.113753 0.04342,0.179739 0.0045,0.06598 0.03078,0.180285 0.05832,0.253998 0.02754,0.07371 0.08276,0.292825 0.12271,0.486916 0.06735,0.327209 0.06887,0.36092 0.02085,0.463173 -0.02849,0.06065 -0.06685,0.265215 -0.08526,0.454581 -0.01845,0.189834 -0.05595,0.383264 -0.08357,0.431148 -0.02756,0.04777 -0.04283,0.09744 -0.03393,0.110376 0.0089,0.01294 -0.0143,0.07724 -0.05154,0.142893 -0.03724,0.06565 -0.06771,0.166295 -0.06771,0.223655 0,0.06415 -0.02029,0.114503 -0.0527,0.130818 -0.03361,0.01691 -0.06884,0.110082 -0.09724,0.257164 -0.03328,0.172397 -0.07093,0.262288 -0.149065,0.355958 -0.05749,0.06893 -0.1329,0.168675 -0.167576,0.221668 -0.03499,0.05346 -0.142767,0.136812 -0.242146,0.18725 -0.0985,0.05 -0.205942,0.117576 -0.23875,0.150178 -0.03281,0.03261 -0.08495,0.05927 -0.115871,0.05927 -0.03092,0 -0.09215,0.02871 -0.136068,0.06379 -0.135412,0.108187 -0.392574,0.197975 -0.877308,0.306312 -0.474859,0.106131 -0.747626,0.138003 -1.013442,0.118422 z"
       id="path212" /></g></svg>
