<?xml version="1.0" encoding="UTF-8" standalone="no"?>
<!-- Created with Inkscape (http://www.inkscape.org/) -->

<svg
   width="64"
   height="64"
   viewBox="0 0 16.933333 16.933333"
   version="1.1"
   id="svg739"
   inkscape:version="1.1.2 (0a00cf5339, 2022-02-04)"
   sodipodi:docname="mushroom.svg"
   xml:space="preserve"
   xmlns:inkscape="http://www.inkscape.org/namespaces/inkscape"
   xmlns:sodipodi="http://sodipodi.sourceforge.net/DTD/sodipodi-0.dtd"
   xmlns="http://www.w3.org/2000/svg"
   xmlns:svg="http://www.w3.org/2000/svg"><sodipodi:namedview
     id="namedview741"
     pagecolor="#000000"
     bordercolor="#999999"
     borderopacity="1"
     inkscape:showpageshadow="0"
     inkscape:pageopacity="0"
     inkscape:pagecheckerboard="0"
     inkscape:deskcolor="#d1d1d1"
     inkscape:document-units="px"
     showgrid="false"
     inkscape:zoom="0.9877274"
     inkscape:cx="-358.90469"
     inkscape:cy="146.29543"
     inkscape:window-width="1920"
     inkscape:window-height="1002"
     inkscape:window-x="0"
     inkscape:window-y="0"
     inkscape:window-maximized="1"
     inkscape:current-layer="svg739"
     inkscape:pageshadow="2"
     width="64px" /><defs
     id="defs736"><inkscape:path-effect
       effect="skeletal"
       id="path-effect7251"
       is_visible="true"
       lpeversion="1"
       pattern="M -7.4827225e-7,8.598798 H 9.1953032 l -0.1085209,3.812727 c 0,0 1.2419687,-2.7095838 2.5740037,-3.812727 H 14.48852 V 4.2336979 H 4.7185744 C 3.1464652,3.8109779 1.3993963,-6.6766429e-8 1.3993963,-6.6766429e-8 L 1.5198033,4.2336979 H -7.4827223e-7 Z"
       copytype="repeated_stretched"
       prop_scale="0.2"
       scale_y_rel="false"
       spacing="0"
       normal_offset="0"
       tang_offset="0"
       prop_units="false"
       vertical_pattern="false"
       hide_knot="false"
       fuse_tolerance="0" /><inkscape:path-effect
       effect="skeletal"
       id="path-effect6371"
       is_visible="true"
       lpeversion="1"
       pattern="M -7.4827225e-7,8.598798 H 9.1953032 l -0.1085209,3.812727 c 0,0 1.2419687,-2.7095838 2.5740037,-3.812727 H 14.48852 V 4.2336979 H 4.7185744 C 3.1464652,3.8109779 1.3993963,-6.6766429e-8 1.3993963,-6.6766429e-8 L 1.5198033,4.2336979 H -7.4827223e-7 Z"
       copytype="repeated_stretched"
       prop_scale="0.2"
       scale_y_rel="false"
       spacing="0"
       normal_offset="0"
       tang_offset="0"
       prop_units="false"
       vertical_pattern="false"
       hide_knot="false"
       fuse_tolerance="0" /><inkscape:path-effect
       effect="skeletal"
       id="path-effect6309"
       is_visible="true"
       lpeversion="1"
       pattern="M -7.4827225e-7,8.598798 H 9.1953032 l -0.1085209,3.812727 c 0,0 1.2419687,-2.7095838 2.5740037,-3.812727 H 14.48852 V 4.2336979 H 4.7185744 C 3.1464652,3.8109779 1.3993963,-6.6766429e-8 1.3993963,-6.6766429e-8 L 1.5198033,4.2336979 H -7.4827223e-7 Z"
       copytype="repeated_stretched"
       prop_scale="0.4"
       scale_y_rel="false"
       spacing="0"
       normal_offset="0"
       tang_offset="0"
       prop_units="false"
       vertical_pattern="false"
       hide_knot="false"
       fuse_tolerance="0" /><inkscape:path-effect
       effect="tiling"
       id="path-effect5755"
       is_visible="true"
       lpeversion="1"
       unit="px"
       seed="1;258739314"
       lpesatellites=""
       num_rows="1"
       num_cols="10"
       gapx="-8.5"
       gapy="0"
       offset="0"
       offset_type="false"
       scale="0"
       rotate="45"
       mirrorrowsx="false"
       mirrorrowsy="false"
       mirrorcolsx="false"
       mirrorcolsy="false"
       mirrortrans="false"
       shrink_interp="false"
       split_items="false"
       link_styles="false"
       interpolate_scalex="false"
       interpolate_scaley="true"
       interpolate_rotatex="false"
       interpolate_rotatey="false"
       random_scale="false"
       random_rotate="true"
       random_gap_y="false"
       random_gap_x="false"
       transformorigin="matrix(4.024685,-2.6328327,2.376849,3.2237086,-330.52167,-30.842022)" /><inkscape:path-effect
       effect="skeletal"
       id="path-effect3642"
       is_visible="true"
       lpeversion="1"
       pattern="M 1.1602011,2.5269228 H -4.5466328e-8 V 6.0074389 H 9.2538008 l 5e-7,8e-7 c 0.8030327,0.3066082 1.3444077,1.101226 1.5073467,1.9452162 0,1e-6 0,1e-6 0,1e-6 0.06188,0.3205261 0.08398,0.6482908 0.07368,0.9745718 0,1.1e-6 0,1.1e-6 0,1.1e-6 -0.0032,0.102684 -0.0097,0.205292 -0.02055,0.3074511 0,0 0,1.1e-6 0,1.1e-6 -0.0031,0.02879 -0.0065,0.05756 -0.01055,0.08622 -0.0015,0.010739 -0.0015,0.022521 -0.0054,0.03264 0,0 0,0 0,1.1e-6 -3.44e-4,-0.0042 8.2e-4,-0.0081 0.0015,-0.01225 0.0016,-0.01102 0.0035,-0.022021 0.0054,-0.033 0.0077,-0.04447 0.01638,-0.08876 0.02535,-0.1329939 0.03852,-0.1899711 0.08303,-0.378682 0.129361,-0.5669021 0.215424,-0.8751958 0.472032,-1.7397449 0.737898,-2.60096 h 1.050894 v -3.4805137 -2e-6 L 3.5442861,2.3387618 c -8e-7,0 -1.3e-6,0 -2.1e-6,-10e-7 C 3.0079379,2.1591538 2.5408025,1.7775778 2.2730711,1.2793348 v 0 l -9e-7,-2e-6 C 2.0931587,0.94452075 1.9976653,0.57044775 1.9420056,0.19445674 v 0 c -1e-7,-1e-6 -2e-7,-1e-6 -3e-7,-2e-6 -0.00697,-0.04708 -0.012941,-0.09434 -0.022004,-0.141056 -0.00378,-0.01946 -0.00104,-0.05047 -0.020669,-0.0532199981 C 1.8783163,-0.00282126 1.8756453,0.03268874 1.8685133,0.05267874 c -0.020588,0.0577 -0.036202,0.117035 -0.052454,0.1761 C 1.6047072,0.99691375 1.3932186,1.7650878 1.1602011,2.5269298 Z"
       copytype="repeated_stretched"
       prop_scale="0.6"
       scale_y_rel="false"
       spacing="0"
       normal_offset="0"
       tang_offset="0"
       prop_units="false"
       vertical_pattern="false"
       hide_knot="false"
       fuse_tolerance="0" /><inkscape:path-effect
       effect="skeletal"
       id="path-effect3561"
       is_visible="true"
       lpeversion="1"
       pattern="M 1.1602011,2.5269228 H -4.5466328e-8 V 6.0074389 H 9.2538008 l 5e-7,8e-7 c 0.8030327,0.3066082 1.3444077,1.101226 1.5073467,1.9452162 0,1e-6 0,1e-6 0,1e-6 0.06188,0.3205261 0.08398,0.6482908 0.07368,0.9745718 0,1.1e-6 0,1.1e-6 0,1.1e-6 -0.0032,0.102684 -0.0097,0.205292 -0.02055,0.3074511 0,0 0,1.1e-6 0,1.1e-6 -0.0031,0.02879 -0.0065,0.05756 -0.01055,0.08622 -0.0015,0.010739 -0.0015,0.022521 -0.0054,0.03264 0,0 0,0 0,1.1e-6 -3.44e-4,-0.0042 8.2e-4,-0.0081 0.0015,-0.01225 0.0016,-0.01102 0.0035,-0.022021 0.0054,-0.033 0.0077,-0.04447 0.01638,-0.08876 0.02535,-0.1329939 0.03852,-0.1899711 0.08303,-0.378682 0.129361,-0.5669021 0.215424,-0.8751958 0.472032,-1.7397449 0.737898,-2.60096 h 1.050894 v -3.4805137 -2e-6 L 3.5442861,2.3387618 c -8e-7,0 -1.3e-6,0 -2.1e-6,-10e-7 C 3.0079379,2.1591538 2.5408025,1.7775778 2.2730711,1.2793348 v 0 l -9e-7,-2e-6 C 2.0931587,0.94452075 1.9976653,0.57044775 1.9420056,0.19445674 v 0 c -1e-7,-1e-6 -2e-7,-1e-6 -3e-7,-2e-6 -0.00697,-0.04708 -0.012941,-0.09434 -0.022004,-0.141056 -0.00378,-0.01946 -0.00104,-0.05047 -0.020669,-0.0532199981 C 1.8783163,-0.00282126 1.8756453,0.03268874 1.8685133,0.05267874 c -0.020588,0.0577 -0.036202,0.117035 -0.052454,0.1761 C 1.6047072,0.99691375 1.3932186,1.7650878 1.1602011,2.5269298 Z"
       copytype="repeated_stretched"
       prop_scale="0.6"
       scale_y_rel="false"
       spacing="0"
       normal_offset="0"
       tang_offset="0"
       prop_units="false"
       vertical_pattern="false"
       hide_knot="false"
       fuse_tolerance="0" /><inkscape:path-effect
       effect="skeletal"
       id="path-effect3543"
       is_visible="true"
       lpeversion="1"
       pattern="M 0,0 H 1"
       copytype="single_stretched"
       prop_scale="1"
       scale_y_rel="false"
       spacing="0"
       normal_offset="0"
       tang_offset="0"
       prop_units="false"
       vertical_pattern="false"
       hide_knot="false"
       fuse_tolerance="0" /><inkscape:path-effect
       effect="skeletal"
       id="path-effect3501"
       is_visible="true"
       lpeversion="1"
       pattern="M 1.1602011,2.5267989 H -4.5466328e-8 V 6.0073151 H 9.2538008 c 3.0758202,1.1743888 0.3128785,6.9034129 2.4440372,0 h 1.050897 V 2.5267989 L 3.5442861,2.3386399 c -2.64839974,-0.886871 -0.8296532,-4.893995 -2.384085,0.188159 z"
       copytype="repeated_stretched"
       prop_scale="0.6"
       scale_y_rel="false"
       spacing="0"
       normal_offset="0"
       tang_offset="0"
       prop_units="false"
       vertical_pattern="false"
       hide_knot="false"
       fuse_tolerance="0" /><inkscape:path-effect
       effect="skeletal"
       id="path-effect3449"
       is_visible="true"
       lpeversion="1"
       pattern="M 1.1602011,2.5267989 H -4.5466328e-8 V 6.0073151 H 9.2538008 c 3.0758202,1.1743888 0.3128785,6.9034129 2.4440372,0 h 1.050897 V 2.5267989 L 3.5442861,2.3386399 c -2.64839974,-0.886871 -0.8296532,-4.893995 -2.384085,0.188159 z"
       copytype="repeated_stretched"
       prop_scale="0.5"
       scale_y_rel="false"
       spacing="0"
       normal_offset="0"
       tang_offset="0.8"
       prop_units="false"
       vertical_pattern="false"
       hide_knot="false"
       fuse_tolerance="0" /><inkscape:path-effect
       effect="skeletal"
       id="path-effect3319"
       is_visible="true"
       lpeversion="1"
       pattern="M 2.8029297,6.2670944 H 4.5439108e-8 V 14.899642 H 22.356258 c 7.430875,2.912778 0.755883,17.122194 5.904549,0 H 30.79967 V 6.2670944 L 8.5626411,5.8004131 C 2.1643724,3.6007498 6.5582821,-6.3379204 2.8029297,6.2670944 Z"
       copytype="repeated_stretched"
       prop_scale="1"
       scale_y_rel="false"
       spacing="0"
       normal_offset="0"
       tang_offset="0"
       prop_units="false"
       vertical_pattern="false"
       hide_knot="false"
       fuse_tolerance="0" /><inkscape:path-effect
       effect="tiling"
       id="path-effect3119"
       is_visible="true"
       lpeversion="1"
       unit="px"
       seed="1;1"
       lpesatellites=""
       num_rows="3"
       num_cols="1"
       gapx="0"
       gapy="0"
       offset="21"
       offset_type="false"
       scale="0"
       rotate="5"
       mirrorrowsx="false"
       mirrorrowsy="false"
       mirrorcolsx="false"
       mirrorcolsy="false"
       mirrortrans="false"
       shrink_interp="false"
       split_items="false"
       link_styles="false"
       interpolate_scalex="false"
       interpolate_scaley="true"
       interpolate_rotatex="false"
       interpolate_rotatey="true"
       random_scale="false"
       random_rotate="false"
       random_gap_y="false"
       random_gap_x="false"
       transformorigin="" /><inkscape:path-effect
       effect="tiling"
       id="path-effect3115"
       is_visible="true"
       lpeversion="1"
       unit="px"
       seed="1;1"
       lpesatellites=""
       num_rows="3"
       num_cols="3"
       gapx="-70"
       gapy="-40"
       offset="0"
       offset_type="false"
       scale="25"
       rotate="20"
       mirrorrowsx="false"
       mirrorrowsy="false"
       mirrorcolsx="false"
       mirrorcolsy="false"
       mirrortrans="false"
       shrink_interp="false"
       split_items="false"
       link_styles="false"
       interpolate_scalex="false"
       interpolate_scaley="false"
       interpolate_rotatex="false"
       interpolate_rotatey="false"
       random_scale="true"
       random_rotate="true"
       random_gap_y="false"
       random_gap_x="false"
       transformorigin="" /><inkscape:path-effect
       effect="skeletal"
       id="path-effect3449-5"
       is_visible="true"
       lpeversion="1"
       pattern="M 1.1602011,2.5267989 H -4.5466328e-8 V 6.0073151 H 9.2538008 c 3.0758202,1.1743888 0.3128785,6.9034129 2.4440372,0 h 1.050897 V 2.5267989 L 3.5442861,2.3386399 c -2.64839974,-0.886871 -0.8296532,-4.893995 -2.384085,0.188159 z"
       copytype="repeated_stretched"
       prop_scale="0.5"
       scale_y_rel="false"
       spacing="0"
       normal_offset="0"
       tang_offset="0.8"
       prop_units="false"
       vertical_pattern="false"
       hide_knot="false"
       fuse_tolerance="0" /><inkscape:path-effect
       effect="skeletal"
       id="path-effect3449-5-5"
       is_visible="true"
       lpeversion="1"
       pattern="M 1.1602011,2.5267989 H -4.5466328e-8 V 6.0073151 H 9.2538008 c 3.0758202,1.1743888 0.3128785,6.9034129 2.4440372,0 h 1.050897 V 2.5267989 L 3.5442861,2.3386399 c -2.64839974,-0.886871 -0.8296532,-4.893995 -2.384085,0.188159 z"
       copytype="repeated_stretched"
       prop_scale="0.5"
       scale_y_rel="false"
       spacing="0"
       normal_offset="0"
       tang_offset="0.8"
       prop_units="false"
       vertical_pattern="false"
       hide_knot="false"
       fuse_tolerance="0" /><inkscape:path-effect
       effect="skeletal"
       id="path-effect3449-5-5-2"
       is_visible="true"
       lpeversion="1"
       pattern="M 1.1602011,2.5267989 H -4.5466328e-8 V 6.0073151 H 9.2538008 c 3.0758202,1.1743888 0.3128785,6.9034129 2.4440372,0 h 1.050897 V 2.5267989 L 3.5442861,2.3386399 c -2.64839974,-0.886871 -0.8296532,-4.893995 -2.384085,0.188159 z"
       copytype="repeated_stretched"
       prop_scale="0.5"
       scale_y_rel="false"
       spacing="0"
       normal_offset="0"
       tang_offset="0.8"
       prop_units="false"
       vertical_pattern="false"
       hide_knot="false"
       fuse_tolerance="0" /><inkscape:path-effect
       effect="skeletal"
       id="path-effect3449-5-5-1"
       is_visible="true"
       lpeversion="1"
       pattern="M 1.1602011,2.5267989 H -4.5466328e-8 V 6.0073151 H 9.2538008 c 3.0758202,1.1743888 0.3128785,6.9034129 2.4440372,0 h 1.050897 V 2.5267989 L 3.5442861,2.3386399 c -2.64839974,-0.886871 -0.8296532,-4.893995 -2.384085,0.188159 z"
       copytype="repeated_stretched"
       prop_scale="0.5"
       scale_y_rel="false"
       spacing="0"
       normal_offset="0"
       tang_offset="0.8"
       prop_units="false"
       vertical_pattern="false"
       hide_knot="false"
       fuse_tolerance="0" /><inkscape:path-effect
       effect="skeletal"
       id="path-effect3449-5-5-1-7"
       is_visible="true"
       lpeversion="1"
       pattern="M 1.1602011,2.5267989 H -4.5466328e-8 V 6.0073151 H 9.2538008 c 3.0758202,1.1743888 0.3128785,6.9034129 2.4440372,0 h 1.050897 V 2.5267989 L 3.5442861,2.3386399 c -2.64839974,-0.886871 -0.8296532,-4.893995 -2.384085,0.188159 z"
       copytype="repeated_stretched"
       prop_scale="0.5"
       scale_y_rel="false"
       spacing="0"
       normal_offset="0"
       tang_offset="0.8"
       prop_units="false"
       vertical_pattern="false"
       hide_knot="false"
       fuse_tolerance="0" /></defs><g
     inkscape:label="Mushroom"
     inkscape:groupmode="layer"
     id="layer1"
     sodipodi:insensitive="true"
     style="display:none"><path
       id="path7285"
       style="fill:#5aa02c;fill-opacity:1;stroke:none;stroke-width:1.32292;stroke-linecap:butt;stroke-linejoin:miter;stroke-dasharray:none;stroke-opacity:1"
       d="m 18.881424,33.339564 c 0.16444,-0.113958 0.330334,-0.223247 0.496949,-0.327517 0.842977,-0.503239 1.78483,-0.843978 2.72534,-0.84773 v 0 c 0.837299,-0.01389 1.68462,0.237409 2.460803,0.631859 0.85566,0.432734 1.627205,1.018661 2.354806,1.683885 -0.198282,0.163421 -0.395263,0.327991 -0.590866,0.493754 0,0 1.239163,0.422422 2.367803,1.320449 0.158829,0.173853 0.317118,0.348617 0.475374,0.523356 0.493206,0.551097 0.97968,1.121958 1.481253,1.68739 l 0.655341,-0.5806 c -0.49372,-0.557863 -0.982147,-1.129652 -1.487111,-1.690174 -1.404722,-1.574531 -2.903715,-3.200805 -4.857979,-4.214762 v 0 c -0.509589,-0.263408 -1.056289,-0.469566 -1.624024,-0.594298 -0.409801,-0.110935 -0.809325,-0.21226 -1.24661,-0.288221 0,0 0,0 0,0 -1.380878,-0.223873 -2.724589,-0.06391 -2.724589,-0.06391 0.162026,0.23746 0.31948,0.477463 0.472129,0.719891 -0.316369,0.135589 -0.621616,0.294531 -0.912778,0.471667 -0.182508,0.107093 -0.363798,0.220249 -0.543135,0.339119 z m 11.771462,5.165446 c 0.873307,0.984494 1.792389,1.952527 2.872485,2.771113 0.65613,0.504227 1.428319,0.943973 2.316176,1.109457 h 1e-6 c 0.875034,0.145052 1.764154,-0.05927 2.496096,-0.509649 0.312786,-0.190492 0.61928,-0.392753 0.918181,-0.606281 0.116419,0.229976 0.231123,0.460948 0.344102,0.692883 0,0 0.833632,-1.240338 1.672224,-2.432025 0.705883,-0.734994 1.329169,-1.547278 1.842089,-2.42615 L 42.3656,36.667065 c -1.063113,1.818636 -2.660538,3.346332 -4.483259,4.463975 0,0 0,0 0,0 -0.569936,0.345899 -1.257163,0.511859 -1.890417,0.394569 -0.390217,-0.06344 -0.768035,-0.215686 -1.133382,-0.418063 -0.269083,-0.169194 -0.511998,-0.389658 -0.732323,-0.62937 0,0 0,0 0,0 -0.850909,-0.937218 -1.232151,-2.076644 -1.232151,-2.076644 -0.175434,0.224609 -0.349717,0.450109 -0.522755,0.676574 -0.362156,-0.371661 -0.713945,-0.759196 -1.063086,-1.153696 z"
       inkscape:label="Vine 2 middle top" /><path
       style="fill:#5aa02c;fill-opacity:1;stroke:none;stroke-width:1.32292;stroke-linecap:butt;stroke-linejoin:miter;stroke-dasharray:none;stroke-opacity:1"
       d="m 33.324632,46.936121 c -2.858795,-1.611039 -6.157887,-2.427391 -9.443178,-2.432625 0.0393,-0.254715 0.08009,-0.509345 0.122353,-0.763874 0,0 -0.832927,0.310704 -1.834255,0.644462 0,0 0,0 0,0 -0.263782,0.09138 -0.553694,0.165548 -0.859781,0.208418 -0.946189,-0.02561 -1.908312,-0.199628 -2.790022,-0.519516 l -0.307127,0.828902 c 1.281271,0.482094 2.702058,0.664448 4.045218,0.541358 2.05905,-0.170174 4.158791,-0.0045 6.169083,0.492336 1.608517,0.488514 2.84756,1.881932 2.84756,1.881932 0.08208,-0.272483 0.162317,-0.5457 0.240697,-0.819628 0.471212,0.211823 0.932488,0.444301 1.381776,0.69736 z"
       id="path7281"
       inkscape:label="Vine 2 middle bottom" /><path
       id="path6409"
       style="display:inline;fill:#2d5016;fill-opacity:1;stroke:none;stroke-width:1.32292;stroke-linecap:butt;stroke-linejoin:miter;stroke-dasharray:none;stroke-opacity:1"
       d="m 47.777319,37.024542 c 0.917455,-0.634359 1.709465,-1.434169 2.292894,-2.433332 v -10e-7 c 0.798725,-1.43495 1.007576,-3.112961 0.79992,-4.69453 v -10e-7 c -0.08425,-0.645608 -0.222258,-1.277495 -0.402657,-1.895239 0.254125,-0.03367 0.50865,-0.0652 0.763572,-0.09452 0,0 -0.920093,-1.20511 -1.724072,-2.383839 -0.297077,-0.622366 -0.625108,-1.227653 -0.969889,-1.815335 -0.159491,-0.279185 -0.327062,-0.559231 -0.50478,-0.835776 l -0.741169,0.477869 c 0.169359,0.261926 0.332587,0.529252 0.491747,0.797615 1.067576,1.84093 1.964757,3.799904 2.221221,5.859506 v 0 c 0.110318,0.891484 0.08511,1.807318 -0.11717,2.666128 -0.156965,0.534204 -0.459204,1.002694 -0.819657,1.352316 0,0 -10e-7,0 -10e-7,0 -0.636404,0.663562 -1.311343,0.84939 -1.311343,0.84939 0.218633,0.169419 0.440454,0.335168 0.665498,0.497145 -0.336504,0.352278 -0.715879,0.665593 -1.128104,0.944032 z m 0.254988,-14.152574 c -0.753622,-1.172706 -1.689685,-2.282446 -2.965573,-2.996524 -1.024948,-0.543456 -2.15749,-0.687172 -3.221192,-0.71529 v 0 c -0.827539,-0.03403 -1.638175,-0.06824 -2.371915,-0.262378 0.09809,-0.235248 0.191571,-0.472114 0.280745,-0.710469 0,0 -0.269942,0.08381 -0.680231,0.07461 -0.470091,0.0035 -1.063963,-0.116639 -1.672903,-0.466165 -0.714134,-0.586888 -1.342317,-1.32966 -1.91781,-2.102629 l -0.704272,0.515911 c 0.969396,1.340434 2.180931,2.625835 3.782038,3.299063 h 10e-7 c 1.065425,0.428164 2.19129,0.493467 3.254169,0.524559 0,0 0,0 0,0 0.714482,0.02975 1.423559,0.0923 2.065518,0.287057 0.264159,0.09643 0.508754,0.237479 0.71619,0.416135 0,0 0,1e-6 0,1e-6 0.985987,0.791193 1.204213,1.997181 1.204213,1.997181 0.194793,-0.209369 0.386815,-0.421133 0.575852,-0.635378 0.328427,0.388455 0.629845,0.81272 0.914001,1.252188 z"
       inkscape:label="Vine 1 top" /><g
       inkscape:groupmode="layer"
       id="layer4"
       inkscape:label="Mage staff"><rect
         style="display:inline;fill:#2b2200;fill-opacity:1;stroke:none;stroke-width:0.662658;stroke-linecap:round;stroke-linejoin:bevel;stroke-dasharray:none;stroke-opacity:1"
         id="rect7628"
         width="61.83165"
         height="1.7547628"
         x="12.363406"
         y="17.86277"
         inkscape:label="Staff"
         transform="rotate(-2.2207331)" /><circle
         style="fill:#999999;fill-opacity:1;stroke:none;stroke-width:1.32292;stroke-linecap:round;stroke-linejoin:bevel;stroke-dasharray:none;stroke-opacity:1"
         id="path7734"
         cx="11.791559"
         cy="18.249046"
         r="3.96875"
         inkscape:label="Orb" /><circle
         style="fill:#e6e6e6;fill-opacity:1;stroke:none;stroke-width:1.32292;stroke-linecap:round;stroke-linejoin:bevel;stroke-dasharray:none;stroke-opacity:1"
         id="path8186"
         cx="11.791559"
         cy="18.249046"
         r="1.8520833"
         inkscape:label="Orb inside" /><path
         id="rect8240"
         style="fill:#2b2200;stroke-width:1.32292;stroke-linecap:round;stroke-linejoin:bevel"
         d="m 17.686736,17.235307 -1.523908,1.15409 -4.872897,-3.038307 z"
         sodipodi:nodetypes="cccc" /><path
         id="rect8240-6"
         style="fill:#2b2200;stroke-width:1.32292;stroke-linecap:round;stroke-linejoin:bevel"
         d="m 18.809274,17.53804 -1.310263,0.199809 -7.039866,-4.872508 z"
         sodipodi:nodetypes="cccc" /><path
         id="rect8240-9"
         style="fill:#2b2200;fill-opacity:1;stroke-width:1.32292;stroke-linecap:round;stroke-linejoin:bevel"
         d="m 16.509477,17.901219 0.763773,0.921404 -5.681015,3.274896 z"
         sodipodi:nodetypes="cccc" /><path
         id="rect8240-9-3"
         style="fill:#2b2200;fill-opacity:1;stroke-width:1.32292;stroke-linecap:round;stroke-linejoin:bevel"
         d="M 17.701109,18.281256 19.34397,18.55072 9.9068756,24.45095 Z"
         sodipodi:nodetypes="cccc" /></g><path
       id="path6399"
       style="display:inline;fill:#2d5016;fill-opacity:1;stroke:none;stroke-width:1.32292;stroke-linecap:butt;stroke-linejoin:miter;stroke-dasharray:none;stroke-opacity:1"
       inkscape:label="Vine 1 middle"
       d="m 48.784409,59.28732 c 6.51e-4,-0.430889 -0.01945,-0.862969 -0.06313,-1.295388 v -10e-7 c -0.246103,-2.36893 -1.430597,-4.63139 -3.334133,-6.09452 v 0 c -0.45419,-0.347888 -0.948407,-0.649314 -1.473176,-0.888492 0.142495,-0.214111 0.288783,-0.426198 0.43875,-0.636199 0,0 -0.882066,-0.126655 -1.950365,-0.08241 0,0 0,0 0,0 -0.396938,0.02235 -0.746903,0.05557 -1.15453,0.09301 -0.759857,-0.04448 -1.510712,-0.01002 -2.240077,0.03036 -0.256924,0.01334 -0.513875,0.02574 -0.770826,0.03709 l 0.03862,0.872405 c 0.259364,-0.01151 0.518598,-0.0241 0.777677,-0.03766 v 0 c 1.080226,-0.05347 2.143526,-0.104889 3.14891,0.08549 0.957539,0.174373 1.865703,0.619577 2.655316,1.220372 0.772753,0.586047 1.415598,1.331173 1.907979,2.170446 0.792542,1.534424 0.223919,3.225072 0.223919,3.225072 0.275293,-0.07191 0.549797,-0.147918 0.823421,-0.227982 0.01554,0.107513 0.02894,0.215314 0.04018,0.323315 0.04264,0.399951 0.0623,0.801539 0.0618,1.20391 z M 38.236921,50.45076 c -3.192214,0.140933 -6.384588,0.118893 -9.528795,-0.285579 0.06942,-0.247155 0.138126,-0.494433 0.206128,-0.741832 0,0 -0.352333,0.10388 -0.888893,0.196367 -0.504502,0.0845 -1.164493,0.162016 -1.840063,0.139664 -0.957786,-0.186434 -1.901684,-0.415268 -2.81329,-0.715817 l -0.2736,0.82733 c 1.542026,0.511181 3.145638,0.821511 4.733514,1.054157 1.817261,0.268444 3.64482,0.407262 5.473903,0.456303 1.641936,0.127893 3.520214,0.841405 3.520214,0.841405 -0.05033,-0.281098 -0.100206,-0.56224 -0.14962,-0.843424 0.533442,-0.01349 1.066554,-0.03254 1.59912,-0.05617 z M 23.372008,49.043563 C 22.630497,48.799093 21.91035,48.507175 21.221474,48.15203 v 0 C 20.01274,47.519086 18.885122,46.686831 18.306596,45.547669 v 0 c -0.41049,-0.771995 -0.536498,-1.69597 -0.425997,-2.589366 0.248257,0.06602 0.497623,0.126814 0.747892,0.182315 0,0 -0.04934,-0.110068 -0.102484,-0.308446 -0.117173,-0.459496 -0.191456,-1.237378 0.100202,-2.159892 0.118701,-0.23319 0.247352,-0.462736 0.383451,-0.688194 0.369695,-0.596441 0.762303,-1.189781 1.183895,-1.754363 l -0.710259,-0.531179 c -0.443956,0.592925 -0.848456,1.21213 -1.219575,1.831957 -0.565597,0.924985 -1.015285,1.948616 -1.209067,3.045945 v 1e-6 c -0.199246,1.131862 -0.06031,2.335353 0.47843,3.375998 0,0 0,0 0,1e-6 0.294623,0.551761 0.676127,1.037142 1.113194,1.463344 0.756442,0.812553 1.262632,1.336584 1.944377,1.967109 0.456521,0.432879 0.773676,0.732616 0.773676,0.732616 0.06996,-0.276329 0.142142,-0.551942 0.216584,-0.826811 0.497094,0.21938 1.003877,0.411926 1.517493,0.582189 z" /><path
       style="fill:none;stroke:#ffffff;stroke-width:2.64583;stroke-linecap:butt;stroke-linejoin:miter;stroke-dasharray:none;stroke-opacity:1"
       d="M 42.446536,73.482403 C 42.561635,72.449112 50.994857,57.740286 40.060287,52.449837 25.762411,45.532126 13.686439,43.577294 17.955584,36.497268 c 4.394039,-7.287153 13.767094,4.956523 22.107189,-0.07704 8.340095,-5.033566 7.205961,-10.771076 7.205961,-10.771076"
       id="path874"
       sodipodi:nodetypes="csssc"
       inkscape:label="Trunk" /><path
       id="rect3330"
       style="fill:#cccccc;stroke-width:2.12283;stroke-linecap:round;stroke-linejoin:bevel"
       d="M 47.134679,25.267138 49.868975,25.011089 46.050488,35.985878 41.154354,32.15054 Z"
       sodipodi:nodetypes="ccccc"
       inkscape:label="Trill 2" /><path
       id="rect3330-3"
       style="fill:#b3b3b3;stroke-width:2.12283;stroke-linecap:round;stroke-linejoin:bevel"
       d="M 47.66956,22.138717 50.357115,21.573929 48.287177,33.12398 42.137055,29.646159 Z"
       sodipodi:nodetypes="ccccc"
       inkscape:label="Trill 1" /><path
       id="path1804"
       style="fill:#808080;stroke:none;stroke-width:1.77213;stroke-linecap:round;stroke-linejoin:bevel"
       d="m 54.444592,24.292757 c -0.619198,6.598243 -1.648463,3.289096 -7.004827,2.786439 -5.356364,-0.502657 -7.356906,1.819096 -6.737708,-4.779147 0.619199,-6.598242 2.989201,-11.891545 8.345564,-11.388889 5.356364,0.502657 6.016169,6.783354 5.396971,13.381597 z"
       sodipodi:nodetypes="sssss"
       inkscape:label="Head" /><path
       id="path7289"
       style="fill:#5aa02c;fill-opacity:1;stroke:none;stroke-width:1.32292;stroke-linecap:butt;stroke-linejoin:miter;stroke-dasharray:none;stroke-opacity:1"
       d="m 43.11424,37.104358 c 0.420001,-0.719658 0.766,-1.483963 1.02275,-2.287038 v 0 c 0.321621,-1.024024 0.507618,-2.06371 0.6848,-3.080933 0.142067,-0.753255 0.222209,-1.470829 0.545877,-2.006283 0.303561,-0.526546 0.610113,-1.050915 0.929612,-1.562028 0.196542,0.166996 0.393684,0.333226 0.591368,0.498735 0,0 0.167868,-1.364365 0.860053,-2.544382 0.332691,-0.400383 0.686522,-0.778143 1.068413,-1.125575 0.303111,-0.2805 0.634105,-0.530918 0.985685,-0.755742 L 49.332947,23.50841 c -0.388646,0.249741 -0.759653,0.529866 -1.105725,0.844866 -1.531959,1.412128 -2.619358,3.191456 -3.617119,4.942939 -0.414498,0.748153 -0.528759,1.560136 -0.648234,2.289508 -0.03392,0.192655 -0.06776,0.384831 -0.102407,0.576268 -0.209767,0.892457 -0.625459,1.687292 -1.036517,2.240358 -0.327019,0.445382 -0.609232,0.687986 -0.609232,0.687986 0.272993,0.07453 0.54716,0.145995 0.822481,0.214343 -0.18969,0.469883 -0.414659,0.924566 -0.670594,1.362387 z m 6.688558,-12.863246 c 0.645224,-0.412601 1.359782,-0.739003 2.098576,-1.00695 v -1e-6 c 1.445388,-0.519566 2.940157,-0.9861 4.389284,-1.636734 h 10e-7 c 0.775537,-0.349642 1.532959,-0.733347 2.274156,-1.144396 0.08976,0.24068 0.178725,0.481714 0.266884,0.723106 0,0 0.913178,-1.124525 1.965171,-2.067309 0.835311,-0.541361 1.650845,-1.111033 2.449681,-1.698069 l -0.516637,-0.70374 c -2.145472,1.573738 -4.390644,3.012103 -6.797631,4.094336 -0.644064,0.29061 -1.307664,0.545197 -1.981218,0.787677 -0.82693,0.250092 -1.805336,0.323184 -2.513771,0.355312 -0.64946,0.03454 -1.116671,0.0715 -1.116671,0.0715 0.158232,0.238694 0.31372,0.478977 0.466534,0.720719 -0.501587,0.219103 -0.990456,0.473843 -1.45421,0.771848 z"
       inkscape:label="Vine 2 top" /><path
       id="path6405"
       style="display:inline;fill:#2d5016;fill-opacity:1;stroke:none;stroke-width:1.32292;stroke-linecap:butt;stroke-linejoin:miter;stroke-dasharray:none;stroke-opacity:1"
       d="m 20.193555,38.229723 c 1.186253,-1.588589 2.601985,-2.949503 4.382491,-3.511224 1.047476,-0.357662 2.185063,-0.362441 3.319399,-0.160522 -0.07956,0.245259 -0.156211,0.491022 -0.229864,0.737236 0,0 1.045592,-0.300686 2.331743,-0.09524 0,0 0,0 0,0 0.09759,0.01638 0.195534,0.03524 0.293416,0.05669 0.896509,0.354116 1.773584,0.777174 2.654833,1.215163 L 33.334119,35.6895 c -0.978283,-0.485583 -1.970824,-0.961486 -3.009214,-1.355443 -1.882876,-0.724256 -4.025166,-1.084033 -6.021664,-0.44486 v 0 c -0.359194,0.121694 -0.70408,0.268303 -1.035432,0.436562 -1.558931,0.698246 -3.444228,1.623986 -3.444228,1.623986 0.241627,0.157755 0.481342,0.317469 0.719039,0.479173 -0.376633,0.401601 -0.728906,0.828336 -1.059324,1.269626 z m 12.752018,-1.757895 c 0.908464,0.451515 1.821365,0.918897 2.764568,1.342975 1.82216,0.834342 3.861664,1.517102 5.967452,1.275683 v 0 c 0.223454,-0.02516 0.448356,-0.05452 0.673994,-0.08835 0.0011,0.260135 6.64e-4,0.519927 -0.0013,0.779305 0,0 1.312052,-0.719473 2.644063,-1.400773 0.990593,-0.32983 1.939768,-0.773097 2.78298,-1.356122 l -0.48399,-0.708573 c -1.606421,1.085064 -3.711707,1.640485 -5.722821,1.908089 -1.25057,0.165136 -2.523231,-0.0878 -3.770309,-0.514979 -0.591875,-0.238264 -1.141463,-0.615104 -1.599829,-0.984391 0,0 0,-10e-7 0,-10e-7 -0.70722,-0.58166 -1.179003,-1.141505 -1.179003,-1.141505 -0.08781,0.271654 -0.17526,0.543435 -0.262277,0.815377 -0.474042,-0.233066 -0.94781,-0.472214 -1.424971,-0.709059 z"
       inkscape:label="Vine 1 almost top" /><path
       style="display:inline;fill:#2d5016;fill-opacity:1;stroke:none;stroke-width:1.32292;stroke-linecap:butt;stroke-linejoin:miter;stroke-dasharray:none;stroke-opacity:1"
       d="m 43.88998,73.561696 c -0.01508,0.0055 0.03272,-0.05507 0.08478,-0.192798 0.09023,-0.194971 0.193267,-0.392079 0.299362,-0.595874 0.334304,-0.641103 0.677928,-1.283167 1.010073,-1.936948 v 0 c 0.961152,-1.890545 1.834643,-3.842135 2.488256,-5.880726 v 0 c 0.0087,-0.02696 0.01738,-0.05394 0.02602,-0.08095 0.169793,0.08359 0.339316,0.167631 0.508565,0.252106 0.06071,0.03033 0.121398,0.06072 0.182055,0.09117 0,0 -7.78e-4,-0.01153 -0.0021,-0.03354 -0.0089,-0.16323 -0.07192,-1.609136 -0.01893,-2.866231 0.196803,-0.995955 0.314778,-2.009929 0.31632,-3.030588 l -0.869669,-0.0012 c -0.0022,1.811044 -0.412821,3.637963 -0.973735,5.40301 -0.461156,1.442008 -1.041169,2.847464 -1.68875,4.226436 -0.270912,0.506983 -0.632422,0.987337 -0.99243,1.400163 0,0 0,0 0,0 -0.664269,0.760101 -1.31783,1.293898 -1.31783,1.293898 0.03512,0.01222 0.773287,0.269659 0.80841,0.281883 -0.08356,0.158944 -0.167127,0.318176 -0.250389,0.477858 v 0 c -0.106279,0.203548 -0.21526,0.41274 -0.31721,0.632127 v 0 c -0.05047,0.08777 -0.123493,0.238542 -0.16048,0.463541 z"
       id="path874-7"
       inkscape:label="Vine 1 bottom" /><path
       style="fill:#5aa02c;fill-opacity:1;stroke:none;stroke-width:1.32292;stroke-linecap:butt;stroke-linejoin:miter;stroke-dasharray:none;stroke-opacity:1"
       d="m 18.519749,44.072986 c -1.632763,-0.592372 -2.989771,-1.68497 -3.459189,-3.261726 -0.423226,-1.170576 -0.257943,-2.379427 0.272196,-3.519809 0.212047,0.13313 0.425324,0.262495 0.639789,0.388 0,0 -0.05939,-1.167521 0.721192,-2.413152 0.641311,-0.724062 1.397708,-1.379274 2.187687,-1.926735 L 18.38413,32.603727 c -2.818887,1.868454 -5.155083,5.148515 -4.153765,8.477609 0.06341,0.184023 0.135533,0.362354 0.215767,0.534979 0.626856,1.536564 1.952005,3.326644 1.952005,3.326644 0.103872,-0.264382 0.211895,-0.525988 0.32407,-0.784668 0.463388,0.297974 0.965179,0.54597 1.490415,0.743597 z"
       id="path7283"
       inkscape:label="Vine 2 middle" /><path
       id="path874-0"
       style="fill:#5aa02c;fill-opacity:1;stroke:none;stroke-width:1.32292;stroke-linecap:butt;stroke-linejoin:miter;stroke-dasharray:none;stroke-opacity:1"
       d="m 43.875922,73.567197 c 0.02947,-0.465605 -0.127121,-0.804979 -0.293121,-0.997581 -0.23642,-0.361122 -0.505556,-0.668482 -0.757647,-0.955528 -0.738478,-0.849043 -1.475332,-1.673918 -2.080602,-2.568161 v -1e-6 c -0.781915,-1.147097 -1.312277,-2.458434 -1.56785,-3.819462 0.255108,-0.01132 0.509927,-0.02527 0.764418,-0.04184 0,0 -0.773749,-1.014409 -0.925307,-2.390892 0.04443,-0.805368 0.18713,-1.604685 0.432727,-2.375171 0.04213,-0.132674 0.08194,-0.266192 0.119373,-0.400454 l -0.842141,-0.233841 c -0.03443,0.124454 -0.07102,0.248264 -0.109705,0.371327 v 10e-7 c -0.985414,3.140984 -0.437223,6.659484 1.406306,9.380865 v 1e-6 c 0.05854,0.08595 0.117942,0.17106 0.178121,0.255407 0.661016,1.032153 1.195445,2.207888 1.44402,2.850893 0.09679,0.252714 0.134714,0.392942 0.134714,0.392942 0.19117,-0.211251 0.37993,-0.425279 0.567222,-0.640824 0.186882,0.217013 0.362077,0.428613 0.50371,0.649504 0.09795,0.203528 0.211746,0.336578 0.164734,0.378609 z M 39.567913,60.018106 c 0.589605,-2.114746 0.590449,-4.413814 -0.174776,-6.498937 -0.402733,-1.07865 -0.986364,-2.071605 -1.695645,-2.964046 0.223331,-0.127657 0.447994,-0.253216 0.673974,-0.376632 0,0 -1.29679,-0.776878 -2.546215,-1.529019 -0.121217,-0.100863 -0.244023,-0.199561 -0.368272,-0.296053 -0.675706,-0.525949 -1.389148,-0.998478 -2.132347,-1.417298 l -0.427676,0.759125 c 0.706685,0.398035 1.383714,0.846987 2.023108,1.346567 0,0 0,0 0,0 1.610471,1.260828 2.95946,2.889431 3.654373,4.780497 v 0 c 0.154467,0.413827 0.274543,0.839188 0.362114,1.271846 0.245379,1.669269 -0.762281,3.189879 -0.762281,3.189879 0.28528,0.0028 0.570773,0.0024 0.856415,-0.0013 -0.06607,0.50638 -0.168647,1.00899 -0.304913,1.501511 z"
       inkscape:label="Vine 2 bottom" /></g><g
     inkscape:groupmode="layer"
     id="layer2"
     inkscape:label="Grass"
     style="display:none;fill:#17280b"
     sodipodi:insensitive="true"><path
       id="rect5700"
       style="fill:#2d5016;stroke-width:5.17538;stroke-linecap:round;stroke-linejoin:bevel"
       d="m 37.710708,63.180301 c 4.0847,4.074769 1.418016,8.036733 4.173055,10.734923 l -1.969908,0.0028 z"
       sodipodi:nodetypes="cccc" /><path
       id="rect5700-7"
       style="fill:#5aa02c;stroke-width:6.01035;stroke-linecap:round;stroke-linejoin:bevel"
       d="m 43.342646,60.890294 c -3.589703,5.567019 -0.969323,9.283349 -3.401877,12.978867 l 2.327066,0.01328 z"
       sodipodi:nodetypes="cccc" /><path
       id="rect5700-7-56"
       style="fill:#71c837;stroke-width:5.69908;stroke-linecap:round;stroke-linejoin:bevel"
       d="m 44.566377,62.354614 c -3.477025,5.053667 -0.497727,8.059662 -2.855749,11.415475 l 2.0996,0.01837 z"
       sodipodi:nodetypes="cccc" /><path
       id="rect5700-7-3"
       style="fill:#5aa02c;stroke-width:6.71487;stroke-linecap:round;stroke-linejoin:bevel"
       d="m 45.689583,59.567516 c -3.803475,6.294512 -0.215528,10.158649 -2.796518,14.339359 l 2.34267,-0.04947 z"
       sodipodi:nodetypes="cccc" /><path
       id="rect5700-7-2"
       style="fill:#2d5016;stroke-width:4.98699;stroke-linecap:round;stroke-linejoin:bevel"
       d="m 49.115354,63.300414 c 1.352216,5.060419 -1.756829,7.312132 -0.818688,10.682299 l -2.108818,-0.08916 z"
       sodipodi:nodetypes="cccc" /><path
       id="rect5700-7-9"
       style="fill:#71c837;stroke-width:6.38223;stroke-linecap:round;stroke-linejoin:bevel"
       d="m 45.463314,60.617289 c -2.508031,6.310301 1.905196,9.021682 0.186493,13.221792 l 1.948558,0.01884 z"
       sodipodi:nodetypes="cccc" /><path
       id="rect5700-7-1"
       style="fill:#447821;stroke-width:5.99552;stroke-linecap:round;stroke-linejoin:bevel"
       d="m 45.507858,62.094113 c 2.940682,5.49468 -0.966522,8.115188 1.039336,11.769654 l -2.235066,0.01143 z"
       sodipodi:nodetypes="cccc" /><path
       id="rect5700-7-5"
       style="fill:#2d5016;stroke-width:5.18437;stroke-linecap:round;stroke-linejoin:bevel"
       d="m 40.733282,62.115343 c 3.069771,4.962644 0.918126,8.484675 2.996583,11.77778 l -1.81708,-0.01739 z"
       sodipodi:nodetypes="cccc" /></g><g
     id="g9548"
     style="display:inline;fill:#17280b"
     inkscape:label="Scaled"
     transform="matrix(0.25244733,0,0,0.26833744,-22.630533,14.081992)"><path
       id="path7285-4"
       style="fill:#5aa02c;fill-opacity:1;stroke:none;stroke-width:1.32292;stroke-linecap:butt;stroke-linejoin:miter;stroke-dasharray:none;stroke-opacity:1"
       d="m 100.70317,-30.017198 c 0.16444,-0.113958 0.33033,-0.223247 0.49695,-0.327517 0.84298,-0.503239 1.78483,-0.843978 2.72534,-0.84773 v 0 c 0.8373,-0.01389 1.68462,0.237409 2.4608,0.631859 0.85566,0.432734 1.62721,1.018661 2.35481,1.683885 -0.19828,0.163421 -0.39527,0.327991 -0.59087,0.493754 0,0 1.23916,0.422422 2.3678,1.320449 0.15883,0.173853 0.31712,0.348617 0.47538,0.523356 0.4932,0.551097 0.97968,1.121958 1.48125,1.68739 l 0.65534,-0.5806 c -0.49372,-0.557863 -0.98214,-1.129652 -1.48711,-1.690174 -1.40472,-1.574531 -2.90371,-3.200805 -4.85798,-4.214762 v 0 c -0.50959,-0.263408 -1.05629,-0.469566 -1.62402,-0.594298 -0.4098,-0.110935 -0.80933,-0.21226 -1.24661,-0.288221 0,0 0,0 0,0 -1.38088,-0.223873 -2.72459,-0.06391 -2.72459,-0.06391 0.16203,0.23746 0.31948,0.477463 0.47213,0.719891 -0.31637,0.135589 -0.62162,0.294531 -0.91278,0.471667 -0.18251,0.107093 -0.3638,0.220249 -0.54313,0.339119 z m 11.77146,5.165446 c 0.87331,0.984494 1.79239,1.952527 2.87249,2.771113 0.65613,0.504227 1.42832,0.943973 2.31617,1.109457 v 0 c 0.87504,0.145052 1.76416,-0.05927 2.4961,-0.509649 0.31279,-0.190492 0.61928,-0.392753 0.91818,-0.606281 0.11642,0.229976 0.23112,0.460948 0.3441,0.692883 0,0 0.83363,-1.240338 1.67223,-2.432025 0.70588,-0.734994 1.32917,-1.547278 1.84209,-2.42615 l -0.74864,-0.437293 c -1.06312,1.818636 -2.66054,3.346332 -4.48326,4.463975 0,0 0,0 0,0 -0.56994,0.345899 -1.25717,0.511859 -1.89042,0.394569 -0.39022,-0.06344 -0.76804,-0.215686 -1.13338,-0.418063 -0.26909,-0.169194 -0.512,-0.389658 -0.73233,-0.62937 0,0 0,0 0,0 -0.8509,-0.937218 -1.23215,-2.076644 -1.23215,-2.076644 -0.17543,0.224609 -0.34971,0.450109 -0.52275,0.676574 -0.36216,-0.371661 -0.71395,-0.759196 -1.06309,-1.153696 z"
       inkscape:label="Vine 2 middle top" /><path
       style="fill:#5aa02c;fill-opacity:1;stroke:none;stroke-width:1.32292;stroke-linecap:butt;stroke-linejoin:miter;stroke-dasharray:none;stroke-opacity:1"
       d="m 115.14638,-16.420641 c -2.8588,-1.611039 -6.15789,-2.427391 -9.44318,-2.432625 0.0393,-0.254715 0.0801,-0.509345 0.12235,-0.763874 0,0 -0.83292,0.310704 -1.83425,0.644462 0,0 0,0 0,0 -0.26378,0.09138 -0.5537,0.165548 -0.85978,0.208418 -0.94619,-0.02561 -1.90832,-0.199628 -2.79003,-0.519516 l -0.30712,0.828902 c 1.28127,0.482094 2.70206,0.664448 4.04522,0.541358 2.05905,-0.170174 4.15879,-0.0045 6.16908,0.492336 1.60852,0.488514 2.84756,1.881932 2.84756,1.881932 0.0821,-0.272483 0.16232,-0.5457 0.2407,-0.819628 0.47121,0.211823 0.93248,0.444301 1.38177,0.69736 z"
       id="path7281-5"
       inkscape:label="Vine 2 middle bottom" /><path
       id="path6409-0"
       style="display:inline;fill:#2d5016;fill-opacity:1;stroke:none;stroke-width:1.32292;stroke-linecap:butt;stroke-linejoin:miter;stroke-dasharray:none;stroke-opacity:1"
       d="m 129.59907,-26.33222 c 0.91745,-0.634359 1.70946,-1.434169 2.29289,-2.433332 v -1e-6 c 0.79873,-1.43495 1.00758,-3.112961 0.79992,-4.69453 v -1e-6 c -0.0842,-0.645608 -0.22226,-1.277495 -0.40266,-1.895239 0.25413,-0.03367 0.50865,-0.0652 0.76358,-0.09452 0,0 -0.9201,-1.20511 -1.72408,-2.383839 -0.29707,-0.622366 -0.6251,-1.227653 -0.96989,-1.815335 -0.15949,-0.279185 -0.32706,-0.559231 -0.50477,-0.835776 l -0.74117,0.477869 c 0.16936,0.261926 0.33258,0.529252 0.49174,0.797615 1.06758,1.84093 1.96476,3.799904 2.22122,5.859506 v 0 c 0.11032,0.891484 0.0851,1.807318 -0.11717,2.666128 -0.15696,0.534204 -0.4592,1.002694 -0.81965,1.352316 0,0 0,0 0,0 -0.63641,0.663562 -1.31135,0.84939 -1.31135,0.84939 0.21864,0.169419 0.44046,0.335168 0.6655,0.497145 -0.3365,0.352278 -0.71588,0.665593 -1.1281,0.944032 z m 0.25498,-14.152574 c -0.75362,-1.172706 -1.68968,-2.282446 -2.96557,-2.996524 -1.02495,-0.543456 -2.15749,-0.687172 -3.22119,-0.71529 v 0 c -0.82754,-0.03403 -1.63818,-0.06824 -2.37192,-0.262378 0.0981,-0.235248 0.19157,-0.472114 0.28075,-0.710469 0,0 -0.26994,0.08381 -0.68023,0.07461 -0.47009,0.0035 -1.06397,-0.116639 -1.67291,-0.466165 -0.71413,-0.586888 -1.34231,-1.32966 -1.91781,-2.102629 l -0.70427,0.515911 c 0.9694,1.340434 2.18093,2.625835 3.78204,3.299063 v 0 c 1.06543,0.428164 2.19129,0.493467 3.25417,0.524559 0,0 0,0 0,0 0.71448,0.02975 1.42356,0.0923 2.06552,0.287057 0.26416,0.09643 0.50875,0.237479 0.71619,0.416135 0,0 0,10e-7 0,10e-7 0.98598,0.791193 1.20421,1.997181 1.20421,1.997181 0.19479,-0.209369 0.38682,-0.421133 0.57585,-0.635378 0.32843,0.388455 0.62985,0.81272 0.91401,1.252188 z"
       inkscape:label="Vine 1 top" /><path
       id="path6399-3"
       style="display:inline;fill:#2d5016;fill-opacity:1;stroke:none;stroke-width:1.32292;stroke-linecap:butt;stroke-linejoin:miter;stroke-dasharray:none;stroke-opacity:1"
       inkscape:label="Vine 1 middle"
       d="m 130.60616,-4.0694415 c 6.5e-4,-0.430889 -0.0195,-0.862969 -0.0631,-1.295388 v -1e-6 c -0.24611,-2.36893 -1.4306,-4.63139 -3.33414,-6.0945205 v 0 c -0.45419,-0.347888 -0.94841,-0.649314 -1.47317,-0.888492 0.14249,-0.214111 0.28878,-0.426198 0.43875,-0.636199 0,0 -0.88207,-0.126655 -1.95037,-0.08241 0,0 0,0 0,0 -0.39694,0.02235 -0.7469,0.05557 -1.15453,0.09301 -0.75986,-0.04448 -1.51071,-0.01002 -2.24008,0.03036 -0.25692,0.01334 -0.51387,0.02574 -0.77082,0.03709 l 0.0386,0.872405 c 0.25936,-0.01151 0.5186,-0.0241 0.77767,-0.03766 v 0 c 1.08023,-0.05347 2.14353,-0.104889 3.14891,0.08549 0.95754,0.174373 1.86571,0.619577 2.65532,1.220372 0.77275,0.586047 1.4156,1.3311735 1.90798,2.1704465 0.79254,1.534424 0.22392,3.225072 0.22392,3.225072 0.27529,-0.07191 0.5498,-0.147918 0.82342,-0.227982 0.0155,0.107513 0.0289,0.215314 0.0402,0.323315 0.0426,0.399951 0.0623,0.801539 0.0618,1.20391 z m -10.54749,-8.8365605 c -3.19222,0.140933 -6.38459,0.118893 -9.5288,-0.285579 0.0694,-0.247155 0.13813,-0.494433 0.20613,-0.741832 0,0 -0.35233,0.10388 -0.88889,0.196367 -0.50451,0.0845 -1.1645,0.162016 -1.84007,0.139664 -0.95778,-0.186434 -1.90168,-0.415268 -2.81329,-0.715817 l -0.2736,0.82733 c 1.54203,0.511181 3.14564,0.821511 4.73352,1.054157 1.81726,0.268444 3.64482,0.407262 5.4739,0.456303 1.64194,0.127893 3.52021,0.841405 3.52021,0.841405 -0.0503,-0.281098 -0.1002,-0.56224 -0.14962,-0.843424 0.53345,-0.01349 1.06656,-0.03254 1.59912,-0.05617 z m -14.86492,-1.407197 c -0.74151,-0.24447 -1.46165,-0.536388 -2.15053,-0.891533 v 0 c -1.20873,-0.632944 -2.33635,-1.465199 -2.91488,-2.604361 v 0 c -0.410488,-0.771995 -0.536496,-1.69597 -0.425995,-2.589366 0.248257,0.06602 0.497625,0.126814 0.747895,0.182315 0,0 -0.0493,-0.110068 -0.10249,-0.308446 -0.11717,-0.459496 -0.19145,-1.237378 0.1002,-2.159892 0.11871,-0.23319 0.24736,-0.462736 0.38346,-0.688194 0.36969,-0.596441 0.7623,-1.189781 1.18389,-1.754363 l -0.71026,-0.531179 c -0.44395,0.592925 -0.84845,1.21213 -1.21957,1.831957 -0.5656,0.924985 -1.015288,1.948616 -1.20907,3.045945 v 10e-7 c -0.199246,1.131862 -0.06031,2.335353 0.47843,3.375998 0,0 0,0 0,10e-7 0.294623,0.551761 0.67613,1.037142 1.11319,1.463344 0.75645,0.812553 1.26264,1.336584 1.94438,1.967109 0.45652,0.432879 0.77368,0.732616 0.77368,0.732616 0.07,-0.276329 0.14214,-0.551942 0.21658,-0.826811 0.49709,0.21938 1.00388,0.411926 1.51749,0.582189 z" /><path
       style="fill:none;stroke:#ffffff;stroke-width:2.64583;stroke-linecap:butt;stroke-linejoin:miter;stroke-dasharray:none;stroke-opacity:1"
       d="m 124.26828,10.125641 c 0.1151,-1.0332905 8.54833,-15.7421165 -2.38625,-21.032566 -14.29787,-6.917711 -26.373845,-8.872543 -22.1047,-15.952569 4.39404,-7.287153 13.76709,4.956523 22.10719,-0.07704 8.3401,-5.033566 7.20596,-10.771076 7.20596,-10.771076"
       id="path874-6"
       sodipodi:nodetypes="csssc"
       inkscape:label="Trunk" /><path
       id="rect3330-1"
       style="fill:#cccccc;stroke-width:2.12283;stroke-linecap:round;stroke-linejoin:bevel"
       d="m 128.95643,-38.089624 2.73429,-0.256049 -3.81849,10.974789 -4.89613,-3.835338 z"
       sodipodi:nodetypes="ccccc"
       inkscape:label="Trill 2" /><path
       id="rect3330-3-0"
       style="fill:#b3b3b3;stroke-width:2.12283;stroke-linecap:round;stroke-linejoin:bevel"
       d="m 129.49131,-41.218045 2.68755,-0.564788 -2.06994,11.550051 -6.15012,-3.477821 z"
       sodipodi:nodetypes="ccccc"
       inkscape:label="Trill 1" /><path
       id="path1804-6"
       style="fill:#808080;stroke:none;stroke-width:1.77213;stroke-linecap:round;stroke-linejoin:bevel"
       d="m 136.26634,-39.064005 c -0.6192,6.598243 -1.64846,3.289096 -7.00483,2.786439 -5.35636,-0.502657 -7.35691,1.819096 -6.73771,-4.779147 0.6192,-6.598242 2.9892,-11.891545 8.34557,-11.388889 5.35636,0.502657 6.01617,6.783354 5.39697,13.381597 z"
       sodipodi:nodetypes="sssss"
       inkscape:label="Head" /><path
       id="path6405-2"
       style="display:inline;fill:#2d5016;fill-opacity:1;stroke:none;stroke-width:1.32292;stroke-linecap:butt;stroke-linejoin:miter;stroke-dasharray:none;stroke-opacity:1"
       d="m 102.0153,-25.127039 c 1.18625,-1.588589 2.60199,-2.949503 4.38249,-3.511224 1.04748,-0.357662 2.18506,-0.362441 3.3194,-0.160522 -0.0796,0.245259 -0.15621,0.491022 -0.22986,0.737236 0,0 1.04559,-0.300686 2.33174,-0.09524 0,0 0,0 0,0 0.0976,0.01638 0.19553,0.03524 0.29342,0.05669 0.8965,0.354116 1.77358,0.777174 2.65483,1.215163 l 0.38854,-0.782326 c -0.97828,-0.485583 -1.97082,-0.961486 -3.00921,-1.355443 -1.88288,-0.724256 -4.02517,-1.084033 -6.02166,-0.44486 v 0 c -0.3592,0.121694 -0.70408,0.268303 -1.03544,0.436562 -1.55893,0.698246 -3.44422,1.623986 -3.44422,1.623986 0.24162,0.157755 0.48134,0.317469 0.71904,0.479173 -0.37664,0.401601 -0.72891,0.828336 -1.05933,1.269626 z m 12.75202,-1.757895 c 0.90846,0.451515 1.82136,0.918897 2.76457,1.342975 1.82216,0.834342 3.86166,1.517102 5.96745,1.275683 v 0 c 0.22345,-0.02516 0.44835,-0.05452 0.67399,-0.08835 10e-4,0.260135 6.7e-4,0.519927 -0.001,0.779305 0,0 1.31205,-0.719473 2.64407,-1.400773 0.99059,-0.32983 1.93976,-0.773097 2.78298,-1.356122 l -0.48399,-0.708573 c -1.60643,1.085064 -3.71171,1.640485 -5.72283,1.908089 -1.25057,0.165136 -2.52323,-0.0878 -3.7703,-0.514979 -0.59188,-0.238264 -1.14147,-0.615104 -1.59983,-0.984391 0,0 0,-1e-6 0,-1e-6 -0.70722,-0.58166 -1.17901,-1.141505 -1.17901,-1.141505 -0.0878,0.271654 -0.17526,0.543435 -0.26227,0.815377 -0.47405,-0.233066 -0.94781,-0.472214 -1.42497,-0.709059 z"
       inkscape:label="Vine 1 almost top" /><path
       style="display:inline;fill:#2d5016;fill-opacity:1;stroke:none;stroke-width:1.32292;stroke-linecap:butt;stroke-linejoin:miter;stroke-dasharray:none;stroke-opacity:1"
       d="m 125.71173,10.204934 c -0.0151,0.0055 0.0327,-0.05507 0.0848,-0.192798 0.0902,-0.1949705 0.19326,-0.3920785 0.29936,-0.5958735 0.3343,-0.641103 0.67793,-1.283167 1.01007,-1.936948 v 0 c 0.96115,-1.890545 1.83465,-3.842135 2.48826,-5.880726 v 0 c 0.009,-0.02696 0.0174,-0.05394 0.026,-0.08095 0.16979,0.08359 0.33932,0.167631 0.50856,0.252106 0.0607,0.03033 0.1214,0.06072 0.18206,0.09117 0,0 -7.8e-4,-0.01153 -0.002,-0.03354 -0.009,-0.16323 -0.0719,-1.60913601 -0.0189,-2.866231 0.1968,-0.995955 0.31478,-2.009929 0.31632,-3.030588 l -0.86967,-0.0012 c -0.002,1.811044 -0.41282,3.63796299 -0.97374,5.40301 -0.46115,1.442008 -1.04117,2.847464 -1.68875,4.226436 -0.27091,0.506983 -0.63242,0.987337 -0.99243,1.400163 0,0 0,0 0,0 -0.66427,0.760101 -1.31783,1.293898 -1.31783,1.293898 0.0351,0.01222 0.77329,0.269659 0.80841,0.281883 -0.0836,0.158944 -0.16712,0.318176 -0.25039,0.477858 v 0 c -0.10628,0.203548 -0.21526,0.41274 -0.31721,0.632127 v 0 c -0.0505,0.08777 -0.12349,0.238542 -0.16048,0.4635405 z"
       id="path874-7-0"
       inkscape:label="Vine 1 bottom" /><path
       style="fill:#5aa02c;fill-opacity:1;stroke:none;stroke-width:1.32292;stroke-linecap:butt;stroke-linejoin:miter;stroke-dasharray:none;stroke-opacity:1"
       d="m 100.34149,-19.283776 c -1.632758,-0.592372 -2.989766,-1.68497 -3.459184,-3.261726 -0.423226,-1.170576 -0.257943,-2.379427 0.272196,-3.519809 0.212047,0.13313 0.425324,0.262495 0.639789,0.388 0,0 -0.05939,-1.167521 0.721192,-2.413152 0.641311,-0.724062 1.397708,-1.379274 2.187687,-1.926735 l -0.49729,-0.735837 c -2.818891,1.868454 -5.155087,5.148515 -4.153769,8.477609 0.06341,0.184023 0.135533,0.362354 0.215767,0.534979 0.626856,1.536564 1.952005,3.326644 1.952005,3.326644 0.103872,-0.264382 0.211895,-0.525988 0.32407,-0.784668 0.463388,0.297974 0.965179,0.54597 1.490417,0.743597 z"
       id="path7283-6"
       inkscape:label="Vine 2 middle" /><path
       id="path874-0-1"
       style="fill:#5aa02c;fill-opacity:1;stroke:none;stroke-width:1.32292;stroke-linecap:butt;stroke-linejoin:miter;stroke-dasharray:none;stroke-opacity:1"
       d="m 125.69767,10.210435 c 0.0295,-0.4656045 -0.12712,-0.8049785 -0.29312,-0.9975805 -0.23642,-0.361122 -0.50556,-0.668482 -0.75765,-0.955528 -0.73848,-0.849043 -1.47533,-1.673918 -2.0806,-2.568161 v -10e-7 c -0.78192,-1.147097 -1.31228,-2.458434 -1.56785,-3.819462 0.25511,-0.01132 0.50992,-0.02527 0.76442,-0.04184 0,0 -0.77375,-1.01440901 -0.92531,-2.39089201 0.0444,-0.80536799 0.18713,-1.60468499 0.43273,-2.37517099 0.0421,-0.132674 0.0819,-0.266192 0.11937,-0.400454 l -0.84214,-0.233841 c -0.0344,0.124454 -0.071,0.248264 -0.10971,0.371327 v 1e-6 c -0.98541,3.14098399 -0.43722,6.659484 1.40631,9.380865 v 1e-6 c 0.0585,0.08595 0.11794,0.17106 0.17812,0.255407 0.66102,1.032153 1.19544,2.207888 1.44402,2.850893 0.0968,0.252714 0.13471,0.392942 0.13471,0.392942 0.19117,-0.211251 0.37993,-0.425279 0.56723,-0.640824 0.18688,0.217013 0.36207,0.428613 0.50371,0.649504 0.0979,0.203528 0.21174,0.3365775 0.16473,0.3786085 z m -4.30801,-13.5490905 c 0.5896,-2.114746 0.59045,-4.413814 -0.17478,-6.498937 -0.40273,-1.0786505 -0.98636,-2.0716055 -1.69564,-2.9640465 0.22333,-0.127657 0.44799,-0.253216 0.67397,-0.376632 0,0 -1.29679,-0.776878 -2.54621,-1.529019 -0.12122,-0.100863 -0.24403,-0.199561 -0.36828,-0.296053 -0.6757,-0.525949 -1.38914,-0.998478 -2.13234,-1.417298 l -0.42768,0.759125 c 0.70669,0.398035 1.38372,0.846987 2.02311,1.346567 0,0 0,0 0,0 1.61047,1.260828 2.95946,2.889431 3.65437,4.7804975 v 0 c 0.15447,0.413827 0.27455,0.839188 0.36212,1.271846 0.24538,1.669269 -0.76228,3.189879 -0.76228,3.189879 0.28528,0.0028 0.57077,0.0024 0.85641,-0.0013 -0.0661,0.50638 -0.16865,1.00899 -0.30491,1.501511 z"
       inkscape:label="Vine 2 bottom" /><rect
       style="display:inline;fill:#2b2200;fill-opacity:1;stroke:none;stroke-width:0.662658;stroke-linecap:round;stroke-linejoin:bevel;stroke-dasharray:none;stroke-opacity:1"
       id="rect7628-5"
       width="61.83165"
       height="1.7547628"
       x="96.578743"
       y="-42.275864"
       inkscape:label="Staff"
       transform="rotate(-2.2207331)" /><circle
       style="fill:#999999;fill-opacity:1;stroke:none;stroke-width:1.32292;stroke-linecap:round;stroke-linejoin:bevel;stroke-dasharray:none;stroke-opacity:1"
       id="path7734-5"
       cx="93.613304"
       cy="-45.107716"
       r="3.96875"
       inkscape:label="Orb" /><circle
       style="fill:#e6e6e6;fill-opacity:1;stroke:none;stroke-width:1.32292;stroke-linecap:round;stroke-linejoin:bevel;stroke-dasharray:none;stroke-opacity:1"
       id="path8186-4"
       cx="93.613304"
       cy="-45.107716"
       r="1.8520833"
       inkscape:label="Orb inside" /><path
       id="rect8240-7"
       style="fill:#2b2200;stroke-width:1.32292;stroke-linecap:round;stroke-linejoin:bevel"
       d="m 99.508482,-46.121455 -1.523908,1.15409 -4.872897,-3.038307 z"
       sodipodi:nodetypes="cccc" /><path
       id="rect8240-6-6"
       style="fill:#2b2200;stroke-width:1.32292;stroke-linecap:round;stroke-linejoin:bevel"
       d="m 100.63102,-45.818722 -1.310263,0.199809 -7.039866,-4.872508 z"
       sodipodi:nodetypes="cccc" /><path
       id="rect8240-9-5"
       style="fill:#2b2200;fill-opacity:1;stroke-width:1.32292;stroke-linecap:round;stroke-linejoin:bevel"
       d="m 98.331223,-45.455543 0.763773,0.921404 -5.681015,3.274896 z"
       sodipodi:nodetypes="cccc" /><path
       id="rect8240-9-3-6"
       style="fill:#2b2200;fill-opacity:1;stroke-width:1.32292;stroke-linecap:round;stroke-linejoin:bevel"
       d="m 99.522855,-45.075506 1.642865,0.269464 -9.437098,5.90023 z"
       sodipodi:nodetypes="cccc" /><path
       id="rect5700-9"
       style="display:inline;fill:#2d5016;stroke-width:5.17538;stroke-linecap:round;stroke-linejoin:bevel"
       d="m 119.53245,-0.17646051 c 4.0847,4.07476901 1.41802,8.03673301 4.17306,10.73492251 l -1.96991,0.0028 z"
       sodipodi:nodetypes="cccc" /><path
       id="rect5700-7-37"
       style="display:inline;fill:#5aa02c;stroke-width:6.01035;stroke-linecap:round;stroke-linejoin:bevel"
       d="m 125.16439,-2.4664675 c -3.5897,5.567019 -0.96932,9.283349 -3.40188,12.9788665 l 2.32707,0.01328 z"
       sodipodi:nodetypes="cccc" /><path
       id="rect5700-7-56-4"
       style="display:inline;fill:#71c837;stroke-width:5.69908;stroke-linecap:round;stroke-linejoin:bevel"
       d="m 126.38812,-1.0021475 c -3.47702,5.053667 -0.49772,8.059662 -2.85575,11.4154745 l 2.0996,0.01837 z"
       sodipodi:nodetypes="cccc" /><path
       id="rect5700-7-3-5"
       style="display:inline;fill:#5aa02c;stroke-width:6.71487;stroke-linecap:round;stroke-linejoin:bevel"
       d="m 127.51133,-3.7892455 c -3.80348,6.294512 -0.21553,10.158649 -2.79652,14.3393585 l 2.34267,-0.04947 z"
       sodipodi:nodetypes="cccc" /><path
       id="rect5700-7-2-2"
       style="display:inline;fill:#2d5016;stroke-width:4.98699;stroke-linecap:round;stroke-linejoin:bevel"
       d="m 130.9371,-0.05634751 c 1.35222,5.06041901 -1.75683,7.31213201 -0.81869,10.68229851 l -2.10882,-0.08916 z"
       sodipodi:nodetypes="cccc" /><path
       id="rect5700-7-9-5"
       style="display:inline;fill:#71c837;stroke-width:6.38223;stroke-linecap:round;stroke-linejoin:bevel"
       d="m 127.28506,-2.7394725 c -2.50803,6.310301 1.9052,9.021682 0.18649,13.2217915 l 1.94856,0.01884 z"
       sodipodi:nodetypes="cccc" /><path
       id="rect5700-7-1-4"
       style="display:inline;fill:#447821;stroke-width:5.99552;stroke-linecap:round;stroke-linejoin:bevel"
       d="m 127.3296,-1.2626485 c 2.94069,5.49468 -0.96652,8.115188 1.03934,11.7696535 l -2.23507,0.01143 z"
       sodipodi:nodetypes="cccc" /><path
       id="rect5700-7-5-7"
       style="display:inline;fill:#2d5016;stroke-width:5.18437;stroke-linecap:round;stroke-linejoin:bevel"
       d="m 122.55503,-1.2414185 c 3.06977,4.962644 0.91812,8.484675 2.99658,11.7777795 l -1.81708,-0.01739 z"
       sodipodi:nodetypes="cccc" /><path
       id="path7289-3"
       style="fill:#5aa02c;fill-opacity:1;stroke:none;stroke-width:1.32292;stroke-linecap:butt;stroke-linejoin:miter;stroke-dasharray:none;stroke-opacity:1"
       d="m 124.93599,-26.252404 c 0.42,-0.719658 0.766,-1.483963 1.02275,-2.287038 v 0 c 0.32162,-1.024024 0.50761,-2.06371 0.6848,-3.080933 0.14206,-0.753255 0.2222,-1.470829 0.54587,-2.006283 0.30356,-0.526546 0.61012,-1.050915 0.92961,-1.562028 0.19655,0.166996 0.39369,0.333226 0.59137,0.498735 0,0 0.16787,-1.364365 0.86006,-2.544382 0.33269,-0.400383 0.68652,-0.778143 1.06841,-1.125575 0.30311,-0.2805 0.63411,-0.530918 0.98569,-0.755742 l -0.46985,-0.732702 c -0.38865,0.249741 -0.75966,0.529866 -1.10573,0.844866 -1.53196,1.412128 -2.61936,3.191456 -3.61712,4.942939 -0.4145,0.748153 -0.52876,1.560136 -0.64824,2.289508 -0.0339,0.192655 -0.0678,0.384831 -0.1024,0.576268 -0.20977,0.892457 -0.62546,1.687292 -1.03652,2.240358 -0.32702,0.445382 -0.60923,0.687986 -0.60923,0.687986 0.27299,0.07453 0.54716,0.145995 0.82248,0.214343 -0.18969,0.469883 -0.41466,0.924566 -0.67059,1.362387 z m 6.68856,-12.863246 c 0.64522,-0.412601 1.35978,-0.739003 2.09857,-1.00695 v -1e-6 c 1.44539,-0.519566 2.94016,-0.9861 4.38929,-1.636734 v 0 c 0.77553,-0.349642 1.53296,-0.733347 2.27415,-1.144396 0.0898,0.24068 0.17873,0.481714 0.26689,0.723106 0,0 0.91318,-1.124525 1.96517,-2.067309 0.83531,-0.541361 1.65084,-1.111033 2.44968,-1.698069 l -0.51664,-0.70374 c -2.14547,1.573738 -4.39064,3.012103 -6.79763,4.094336 -0.64406,0.29061 -1.30766,0.545197 -1.98122,0.787677 -0.82693,0.250092 -1.80533,0.323184 -2.51377,0.355312 -0.64946,0.03454 -1.11667,0.0715 -1.11667,0.0715 0.15823,0.238694 0.31372,0.478977 0.46653,0.720719 -0.50158,0.219103 -0.99045,0.473843 -1.4542,0.771848 z"
       inkscape:label="Vine 2 top" /></g></svg>
