<?xml version="1.0" encoding="UTF-8" standalone="no"?>
<!-- Created with Inkscape (http://www.inkscape.org/) -->

<svg
   width="300"
   height="300"
   viewBox="0 0 79.375 79.375"
   version="1.1"
   id="svg739"
   inkscape:version="1.2.2 (b0a8486541, 2022-12-01)"
   sodipodi:docname="vine monster.svg"
   xml:space="preserve"
   xmlns:inkscape="http://www.inkscape.org/namespaces/inkscape"
   xmlns:sodipodi="http://sodipodi.sourceforge.net/DTD/sodipodi-0.dtd"
   xmlns="http://www.w3.org/2000/svg"
   xmlns:svg="http://www.w3.org/2000/svg"><sodipodi:namedview
     id="namedview741"
     pagecolor="#000000"
     bordercolor="#999999"
     borderopacity="1"
     inkscape:showpageshadow="0"
     inkscape:pageopacity="0"
     inkscape:pagecheckerboard="0"
     inkscape:deskcolor="#d1d1d1"
     inkscape:document-units="px"
     showgrid="false"
     inkscape:zoom="1.9754548"
     inkscape:cx="164.77218"
     inkscape:cy="79.475369"
     inkscape:window-width="1280"
     inkscape:window-height="955"
     inkscape:window-x="0"
     inkscape:window-y="0"
     inkscape:window-maximized="1"
     inkscape:current-layer="layer1" /><defs
     id="defs736"><inkscape:path-effect
       effect="skeletal"
       id="path-effect3642"
       is_visible="true"
       lpeversion="1"
       pattern="M 1.1602011,2.5269228 H -4.5466328e-8 V 6.0074389 H 9.2538008 l 5e-7,8e-7 c 0.8030327,0.3066082 1.3444077,1.101226 1.5073467,1.9452162 0,1e-6 0,1e-6 0,1e-6 0.06188,0.3205261 0.08398,0.6482908 0.07368,0.9745718 0,1.1e-6 0,1.1e-6 0,1.1e-6 -0.0032,0.102684 -0.0097,0.205292 -0.02055,0.3074511 0,0 0,1.1e-6 0,1.1e-6 -0.0031,0.02879 -0.0065,0.05756 -0.01055,0.08622 -0.0015,0.010739 -0.0015,0.022521 -0.0054,0.03264 0,0 0,0 0,1.1e-6 -3.44e-4,-0.0042 8.2e-4,-0.0081 0.0015,-0.01225 0.0016,-0.01102 0.0035,-0.022021 0.0054,-0.033 0.0077,-0.04447 0.01638,-0.08876 0.02535,-0.1329939 0.03852,-0.1899711 0.08303,-0.378682 0.129361,-0.5669021 0.215424,-0.8751958 0.472032,-1.7397449 0.737898,-2.60096 h 1.050894 v -3.4805137 -2e-6 L 3.5442861,2.3387618 c -8e-7,0 -1.3e-6,0 -2.1e-6,-10e-7 C 3.0079379,2.1591538 2.5408025,1.7775778 2.2730711,1.2793348 v 0 l -9e-7,-2e-6 C 2.0931587,0.94452075 1.9976653,0.57044775 1.9420056,0.19445674 v 0 c -1e-7,-1e-6 -2e-7,-1e-6 -3e-7,-2e-6 -0.00697,-0.04708 -0.012941,-0.09434 -0.022004,-0.141056 -0.00378,-0.01946 -0.00104,-0.05047 -0.020669,-0.0532199981 C 1.8783163,-0.00282126 1.8756453,0.03268874 1.8685133,0.05267874 c -0.020588,0.0577 -0.036202,0.117035 -0.052454,0.1761 C 1.6047072,0.99691375 1.3932186,1.7650878 1.1602011,2.5269298 Z"
       copytype="repeated_stretched"
       prop_scale="0.6"
       scale_y_rel="false"
       spacing="0"
       normal_offset="0"
       tang_offset="0"
       prop_units="false"
       vertical_pattern="false"
       hide_knot="false"
       fuse_tolerance="0" /><inkscape:path-effect
       effect="skeletal"
       id="path-effect3561"
       is_visible="true"
       lpeversion="1"
       pattern="M 1.1602011,2.5269228 H -4.5466328e-8 V 6.0074389 H 9.2538008 l 5e-7,8e-7 c 0.8030327,0.3066082 1.3444077,1.101226 1.5073467,1.9452162 0,1e-6 0,1e-6 0,1e-6 0.06188,0.3205261 0.08398,0.6482908 0.07368,0.9745718 0,1.1e-6 0,1.1e-6 0,1.1e-6 -0.0032,0.102684 -0.0097,0.205292 -0.02055,0.3074511 0,0 0,1.1e-6 0,1.1e-6 -0.0031,0.02879 -0.0065,0.05756 -0.01055,0.08622 -0.0015,0.010739 -0.0015,0.022521 -0.0054,0.03264 0,0 0,0 0,1.1e-6 -3.44e-4,-0.0042 8.2e-4,-0.0081 0.0015,-0.01225 0.0016,-0.01102 0.0035,-0.022021 0.0054,-0.033 0.0077,-0.04447 0.01638,-0.08876 0.02535,-0.1329939 0.03852,-0.1899711 0.08303,-0.378682 0.129361,-0.5669021 0.215424,-0.8751958 0.472032,-1.7397449 0.737898,-2.60096 h 1.050894 v -3.4805137 -2e-6 L 3.5442861,2.3387618 c -8e-7,0 -1.3e-6,0 -2.1e-6,-10e-7 C 3.0079379,2.1591538 2.5408025,1.7775778 2.2730711,1.2793348 v 0 l -9e-7,-2e-6 C 2.0931587,0.94452075 1.9976653,0.57044775 1.9420056,0.19445674 v 0 c -1e-7,-1e-6 -2e-7,-1e-6 -3e-7,-2e-6 -0.00697,-0.04708 -0.012941,-0.09434 -0.022004,-0.141056 -0.00378,-0.01946 -0.00104,-0.05047 -0.020669,-0.0532199981 C 1.8783163,-0.00282126 1.8756453,0.03268874 1.8685133,0.05267874 c -0.020588,0.0577 -0.036202,0.117035 -0.052454,0.1761 C 1.6047072,0.99691375 1.3932186,1.7650878 1.1602011,2.5269298 Z"
       copytype="repeated_stretched"
       prop_scale="0.6"
       scale_y_rel="false"
       spacing="0"
       normal_offset="0"
       tang_offset="0"
       prop_units="false"
       vertical_pattern="false"
       hide_knot="false"
       fuse_tolerance="0" /><inkscape:path-effect
       effect="skeletal"
       id="path-effect3543"
       is_visible="true"
       lpeversion="1"
       pattern="M 0,0 H 1"
       copytype="single_stretched"
       prop_scale="1"
       scale_y_rel="false"
       spacing="0"
       normal_offset="0"
       tang_offset="0"
       prop_units="false"
       vertical_pattern="false"
       hide_knot="false"
       fuse_tolerance="0" /><inkscape:path-effect
       effect="skeletal"
       id="path-effect3501"
       is_visible="true"
       lpeversion="1"
       pattern="M 1.1602011,2.5267989 H -4.5466328e-8 V 6.0073151 H 9.2538008 c 3.0758202,1.1743888 0.3128785,6.9034129 2.4440372,0 h 1.050897 V 2.5267989 L 3.5442861,2.3386399 c -2.64839974,-0.886871 -0.8296532,-4.893995 -2.384085,0.188159 z"
       copytype="repeated_stretched"
       prop_scale="0.6"
       scale_y_rel="false"
       spacing="0"
       normal_offset="0"
       tang_offset="0"
       prop_units="false"
       vertical_pattern="false"
       hide_knot="false"
       fuse_tolerance="0" /><inkscape:path-effect
       effect="skeletal"
       id="path-effect3449"
       is_visible="true"
       lpeversion="1"
       pattern="M 1.1602011,2.5267989 H -4.5466328e-8 V 6.0073151 H 9.2538008 c 3.0758202,1.1743888 0.3128785,6.9034129 2.4440372,0 h 1.050897 V 2.5267989 L 3.5442861,2.3386399 c -2.64839974,-0.886871 -0.8296532,-4.893995 -2.384085,0.188159 z"
       copytype="repeated_stretched"
       prop_scale="0.5"
       scale_y_rel="false"
       spacing="0"
       normal_offset="0"
       tang_offset="0.8"
       prop_units="false"
       vertical_pattern="false"
       hide_knot="false"
       fuse_tolerance="0" /><inkscape:path-effect
       effect="skeletal"
       id="path-effect3319"
       is_visible="true"
       lpeversion="1"
       pattern="M 2.8029297,6.2670944 H 4.5439108e-8 V 14.899642 H 22.356258 c 7.430875,2.912778 0.755883,17.122194 5.904549,0 H 30.79967 V 6.2670944 L 8.5626411,5.8004131 C 2.1643724,3.6007498 6.5582821,-6.3379204 2.8029297,6.2670944 Z"
       copytype="repeated_stretched"
       prop_scale="1"
       scale_y_rel="false"
       spacing="0"
       normal_offset="0"
       tang_offset="0"
       prop_units="false"
       vertical_pattern="false"
       hide_knot="false"
       fuse_tolerance="0" /><inkscape:path-effect
       effect="tiling"
       id="path-effect3119"
       is_visible="true"
       lpeversion="1"
       unit="px"
       seed="1;1"
       lpesatellites=""
       num_rows="3"
       num_cols="1"
       gapx="0"
       gapy="0"
       offset="21"
       offset_type="false"
       scale="0"
       rotate="5"
       mirrorrowsx="false"
       mirrorrowsy="false"
       mirrorcolsx="false"
       mirrorcolsy="false"
       mirrortrans="false"
       shrink_interp="false"
       split_items="false"
       link_styles="false"
       interpolate_scalex="false"
       interpolate_scaley="true"
       interpolate_rotatex="false"
       interpolate_rotatey="true"
       random_scale="false"
       random_rotate="false"
       random_gap_y="false"
       random_gap_x="false"
       transformorigin="" /><inkscape:path-effect
       effect="tiling"
       id="path-effect3115"
       is_visible="true"
       lpeversion="1"
       unit="px"
       seed="1;1"
       lpesatellites=""
       num_rows="3"
       num_cols="3"
       gapx="-70"
       gapy="-40"
       offset="0"
       offset_type="false"
       scale="25"
       rotate="20"
       mirrorrowsx="false"
       mirrorrowsy="false"
       mirrorcolsx="false"
       mirrorcolsy="false"
       mirrortrans="false"
       shrink_interp="false"
       split_items="false"
       link_styles="false"
       interpolate_scalex="false"
       interpolate_scaley="false"
       interpolate_rotatex="false"
       interpolate_rotatey="false"
       random_scale="true"
       random_rotate="true"
       random_gap_y="false"
       random_gap_x="false"
       transformorigin="" /><inkscape:path-effect
       effect="skeletal"
       id="path-effect3449-5"
       is_visible="true"
       lpeversion="1"
       pattern="M 1.1602011,2.5267989 H -4.5466328e-8 V 6.0073151 H 9.2538008 c 3.0758202,1.1743888 0.3128785,6.9034129 2.4440372,0 h 1.050897 V 2.5267989 L 3.5442861,2.3386399 c -2.64839974,-0.886871 -0.8296532,-4.893995 -2.384085,0.188159 z"
       copytype="repeated_stretched"
       prop_scale="0.5"
       scale_y_rel="false"
       spacing="0"
       normal_offset="0"
       tang_offset="0.8"
       prop_units="false"
       vertical_pattern="false"
       hide_knot="false"
       fuse_tolerance="0" /><inkscape:path-effect
       effect="skeletal"
       id="path-effect3449-5-5"
       is_visible="true"
       lpeversion="1"
       pattern="M 1.1602011,2.5267989 H -4.5466328e-8 V 6.0073151 H 9.2538008 c 3.0758202,1.1743888 0.3128785,6.9034129 2.4440372,0 h 1.050897 V 2.5267989 L 3.5442861,2.3386399 c -2.64839974,-0.886871 -0.8296532,-4.893995 -2.384085,0.188159 z"
       copytype="repeated_stretched"
       prop_scale="0.5"
       scale_y_rel="false"
       spacing="0"
       normal_offset="0"
       tang_offset="0.8"
       prop_units="false"
       vertical_pattern="false"
       hide_knot="false"
       fuse_tolerance="0" /><inkscape:path-effect
       effect="skeletal"
       id="path-effect3449-5-5-2"
       is_visible="true"
       lpeversion="1"
       pattern="M 1.1602011,2.5267989 H -4.5466328e-8 V 6.0073151 H 9.2538008 c 3.0758202,1.1743888 0.3128785,6.9034129 2.4440372,0 h 1.050897 V 2.5267989 L 3.5442861,2.3386399 c -2.64839974,-0.886871 -0.8296532,-4.893995 -2.384085,0.188159 z"
       copytype="repeated_stretched"
       prop_scale="0.5"
       scale_y_rel="false"
       spacing="0"
       normal_offset="0"
       tang_offset="0.8"
       prop_units="false"
       vertical_pattern="false"
       hide_knot="false"
       fuse_tolerance="0" /><inkscape:path-effect
       effect="skeletal"
       id="path-effect3449-5-5-1"
       is_visible="true"
       lpeversion="1"
       pattern="M 1.1602011,2.5267989 H -4.5466328e-8 V 6.0073151 H 9.2538008 c 3.0758202,1.1743888 0.3128785,6.9034129 2.4440372,0 h 1.050897 V 2.5267989 L 3.5442861,2.3386399 c -2.64839974,-0.886871 -0.8296532,-4.893995 -2.384085,0.188159 z"
       copytype="repeated_stretched"
       prop_scale="0.5"
       scale_y_rel="false"
       spacing="0"
       normal_offset="0"
       tang_offset="0.8"
       prop_units="false"
       vertical_pattern="false"
       hide_knot="false"
       fuse_tolerance="0" /><inkscape:path-effect
       effect="skeletal"
       id="path-effect3449-5-5-1-7"
       is_visible="true"
       lpeversion="1"
       pattern="M 1.1602011,2.5267989 H -4.5466328e-8 V 6.0073151 H 9.2538008 c 3.0758202,1.1743888 0.3128785,6.9034129 2.4440372,0 h 1.050897 V 2.5267989 L 3.5442861,2.3386399 c -2.64839974,-0.886871 -0.8296532,-4.893995 -2.384085,0.188159 z"
       copytype="repeated_stretched"
       prop_scale="0.5"
       scale_y_rel="false"
       spacing="0"
       normal_offset="0"
       tang_offset="0.8"
       prop_units="false"
       vertical_pattern="false"
       hide_knot="false"
       fuse_tolerance="0" /></defs><g
     inkscape:label="Warstwa 1"
     inkscape:groupmode="layer"
     id="layer1"><path
       id="rect3281"
       style="fill:#000000;stroke:none;stroke-width:0.432348;stroke-linecap:round;stroke-linejoin:bevel;stroke-dasharray:none"
       d="m -6.1136138,-17.064704 h -1.1602011 v 3.480516 h 9.2538006 c 3.0758201,1.174389 0.3128785,6.9034127 2.4440369,0 H 5.47492 v -3.480516 l -9.2044489,-0.188159 c -2.6483996,-0.886871 -0.8296531,-4.893995 -2.3840849,0.188159 z"
       sodipodi:nodetypes="ccccccccc" /><path
       style="fill:#ffffff;fill-opacity:1;stroke:none;stroke-width:0.264583px;stroke-linecap:butt;stroke-linejoin:miter;stroke-opacity:1"
       d="M 45.896774,5.3804717 C 45.716518,4.9870396 45.517176,4.6084013 45.304899,4.2469822 l -1.823104,1.0184927 c 0.875604,1.6248194 1.536212,3.4044926 1.21064,5.0349601 -0.15073,0.949959 -0.680768,1.836496 -1.399243,2.564741 0,0 0,0 -10e-7,0 -0.390952,0.234 -0.799951,0.272533 -1.132326,0.185103 -0.21868,-0.05246 -0.408212,-0.155241 -0.55959,-0.290111 0,0 0,0 0,0 -0.147446,-0.131367 -0.26876,-0.286735 -0.370119,-0.453709 -10e-7,-1e-6 -10e-7,-1e-6 -10e-7,-1e-6 -0.03198,-0.05263 -0.06192,-0.10644 -0.0894,-0.1618 0,0 0,-10e-7 0,-10e-7 -0.0077,-0.01562 -0.01525,-0.03131 -0.02241,-0.04723 -0.0027,-0.006 -0.0066,-0.01182 -0.0077,-0.01843 0,0 0,0 0,0 0.0016,0.002 0.0022,0.0044 0.0032,0.0067 0.0027,0.0061 0.0053,0.01237 0.0078,0.01861 0.01027,0.02528 0.01981,0.05082 0.02912,0.07655 0.04005,0.110761 0.07438,0.222861 0.106037,0.337181 0.14806,0.534651 0.226404,1.080806 0.256603,1.655574 -0.284768,0.154515 -0.579275,0.295383 -0.881523,0.424275 l 0.824191,1.917486 0,1e-6 c 0.796921,-0.335801 1.573469,-0.751632 2.308148,-1.266852 0,0 0,0 0,-1e-6 1.491397,-1.040533 2.66774,-2.633516 3.067583,-4.57033 0,-10e-7 0,-10e-7 0,-10e-7 0.148605,-0.9324759 0.130451,-1.8477388 -0.0095,-2.7261327 -1e-6,-8e-7 -1e-6,-1.6e-6 0,-2.6e-6 -5.34e-4,-0.6360927 0.06513,-1.2392369 0.248236,-1.64281 10e-7,-5e-7 10e-7,-1e-6 10e-7,-1.5e-6 0.124424,-0.2742338 0.294384,-0.4633804 0.484602,-0.6106639 0,-3e-7 0,-4e-7 10e-7,-8e-7 0.02365,-0.018311 0.04794,-0.035614 0.07042,-0.056449 0.0094,-0.0087 0.02817,-0.012072 0.02109,-0.036227 -0.0075,-0.025862 -0.02888,-0.021384 -0.04333,-0.025561 -0.04167,-0.012051 -0.08236,-0.017652 -0.122874,-0.023842 C 46.960076,5.4768505 46.41926,5.4253973 45.89677,5.3804735 Z M 40.265529,16.971196 c 0.400785,-0.134012 0.798866,-0.285199 1.191551,-0.45581 l -0.824192,-1.917487 c -0.872683,0.372153 -1.809892,0.644475 -2.763479,0.857226 -1.912317,0.41761 -3.893854,0.548428 -5.870934,0.468559 l 0,0 c -0.04222,-0.0018 -0.08442,-0.0036 -0.126626,-0.0056 0,0 0,0 0,0 -0.773711,-0.220158 -1.246229,-0.750417 -1.344757,-1.269841 0,0 0,0 0,0 -0.0374,-0.197192 -0.03632,-0.39519 -0.0066,-0.588927 0,-10e-7 0,-10e-7 0,-10e-7 0.0093,-0.06102 0.0216,-0.121654 0.03765,-0.181661 0,0 1e-6,-1e-6 1e-6,-1e-6 0.0046,-0.01691 0.0094,-0.03377 0.01476,-0.05051 0.002,-0.0063 0.0027,-0.01331 0.0068,-0.01899 0,0 0,0 0,-1e-6 4.5e-5,0.0025 -0.0012,0.0048 -0.0021,0.0072 -0.0021,0.0064 -0.0045,0.01283 -0.0069,0.01921 -0.0096,0.02585 -0.02011,0.05148 -0.03089,0.07706 -0.04635,0.109953 -0.09831,0.218103 -0.152664,0.325939 -0.253411,0.5028 -0.553469,0.985355 -0.882305,1.463042 -0.336496,-0.04734 -0.671464,-0.102001 -1.004454,-0.164453 l -0.385694,2.051947 0,10e-7 c 1.256993,0.252121 2.528744,0.401404 3.796067,0.466587 1.951499,0.105185 3.933567,0.0122 5.891679,-0.339573 10e-7,0 2e-6,-1e-6 3e-6,0 0.195051,-7.04e-4 0.385711,0.01087 0.566236,0.03439 0,0 0,0 0,0 0.357889,0.04952 0.683998,0.14529 0.92613,0.288973 10e-7,0 10e-7,1e-6 2e-6,1e-6 0.245883,0.145909 0.410502,0.33247 0.534057,0.534029 0,0 0,0 10e-7,1e-6 0.01539,0.02511 0.0298,0.05074 0.04755,0.07495 0.0074,0.01009 0.0094,0.02896 0.03195,0.02435 0.02421,-0.0049 0.02142,-0.02636 0.02617,-0.04019 0.01373,-0.03994 0.02151,-0.07938 0.02993,-0.118742 0.106809,-0.49915 0.206279,-1.039168 0.300927,-1.541659 z m -13.355876,0.356385 c 0.400049,0.09784 0.801972,0.184454 1.205164,0.260488 l 0.385694,-2.051948 c -0.733296,-0.137528 -1.456997,-0.31284 -2.166295,-0.530989 l -1e-6,0 C 24.827124,14.529433 23.377508,13.918625 22.31803,12.917177 l 0,0 c -0.419804,-0.395754 -0.775406,-0.836978 -0.978429,-1.318464 -0.0059,-0.01353 -0.01179,-0.02711 -0.01752,-0.04075 0,0 0,-1e-6 0,-1e-6 -0.07876,-0.704729 0.458657,-1.070871 0.946978,-1.137527 10e-7,0 10e-7,0 10e-7,0 0.191907,-0.0262 0.390725,-0.02428 0.585217,-0.01424 0,0 0,0 0,0 0.06185,0.0032 0.122651,0.0072 0.184133,0.01188 0,0 1e-6,0 1e-6,0 0.01732,0.0013 0.03437,0.0027 0.05162,0.0042 0.0065,5.5e-4 0.01345,7.28e-4 0.01953,0.0018 0,0 0,0 1e-6,0 -0.0025,2e-5 -0.0048,-3.23e-4 -0.0073,-5.55e-4 -0.0066,-5.66e-4 -0.01316,-0.0012 -0.01975,-0.0019 -0.0267,-0.0027 -0.053,-0.0057 -0.07952,-0.0091 -0.114161,-0.01445 -0.225248,-0.03383 -0.337337,-0.05849 -0.108084,-0.02378 -0.215148,-0.05206 -0.321148,-0.08517 C 21.92688,10.122848 21.547327,9.9167518 21.191782,9.651 21.256234,9.369447 21.357245,9.0933587 21.487267,8.8224401 l -1.869003,-0.870624 -1e-6,-5e-7 c -0.277722,0.6012355 -0.486111,1.2537467 -0.596046,1.9597427 -0.09936,0.8579817 0.02302,1.7322307 0.36301,2.5388107 0.358666,0.817256 0.877363,1.503032 1.467907,2.048878 0,0 0,0 0,0 1.075504,0.990287 2.313285,1.68424 3.569472,2.184211 1e-6,0 1e-6,10e-7 2e-6,2e-6 0.486368,0.297295 0.887501,0.645434 1.092859,0.992006 0.01079,0.01838 0.02107,0.03676 0.03081,0.05515 0,0 0,1e-6 0,1e-6 0.132553,0.25021 0.173823,0.494087 0.172795,0.728844 0,1e-6 0,1e-6 0,1e-6 -1.27e-4,0.02929 -0.0014,0.05848 9.38e-4,0.08821 9.6e-4,0.01239 -0.0071,0.02945 0.01402,0.03713 0.02266,0.0083 0.03139,-0.01142 0.04249,-0.02076 0.032,-0.02693 0.05881,-0.05648 0.0861,-0.08563 0.344008,-0.367367 0.708588,-0.778265 1.047027,-1.150842 z M 20.28553,6.7499808 C 20.035232,7.126331 19.809424,7.5268104 19.618264,7.951816 l 1.869004,0.8706246 c 0.46109,-0.9607427 1.287019,-1.8564717 2.141134,-2.7003392 1.304688,-1.2115776 2.777248,-2.2926252 4.349173,-3.0577764 0,0 0,10e-8 0,2e-7 0.777738,-0.1705215 1.396584,0.1151279 1.692052,0.5402817 0,5e-7 0,5e-7 0,5e-7 0.112496,0.161873 0.192573,0.3408122 0.24831,0.5268687 1e-6,6e-7 1e-6,6e-7 1e-6,6e-7 0.0176,0.058636 0.03273,0.1180516 0.04472,0.1784235 0,0 1e-6,6e-7 1e-6,6e-7 0.0033,0.017024 0.0065,0.034101 0.0091,0.051303 0.001,0.00644 0.0033,0.013056 0.0024,0.019797 0,0 0,0 1e-6,6e-7 -0.0011,-0.00227 -9.9e-4,-0.00477 -0.0013,-0.00729 -9.91e-4,-0.00663 -0.0018,-0.013316 -0.0025,-0.02 -0.0031,-0.027083 -0.0053,-0.054288 -0.0073,-0.081595 -0.0085,-0.1174393 -0.01135,-0.2352021 -0.01147,-0.3539797 -5.4e-4,-0.5542389 0.05883,-1.1065362 0.163588,-1.6675159 0.31304,-0.085472 0.628577,-0.1565605 0.946141,-0.2119914 l -0.356313,-2.03121807 0,-1.17e-6 c -3.277251,0.5417281 -6.248016,2.31161114 -8.584761,4.51435784 -0.04945,0.042229 -0.09886,0.085059 -0.148187,0.1284917 0,5e-7 -1e-6,1e-6 -2e-6,1.1e-6 -0.497051,0.3045545 -1.049751,0.5399398 -1.480244,0.580866 -10e-7,0 -10e-7,0 -2e-6,0 -0.296369,0.028175 -0.543706,-0.023075 -0.766373,-0.1137084 0,-3e-7 -10e-7,-2e-7 -10e-7,-5e-7 -0.02762,-0.011243 -0.05478,-0.023595 -0.08397,-0.032462 -0.01217,-0.00369 -0.02462,-0.018479 -0.04165,4.33e-4 -0.01827,0.020246 -0.0036,0.036674 1.18e-4,0.051634 0.01082,0.043123 0.02658,0.081906 0.04177,0.1209624 0.194381,0.5000376 0.420217,1.0123703 0.643786,1.4919953 z m 11.697428,-6.90302435 c -0.431093,0.0321217 -0.857273,0.08617889 -1.277908,0.16045713 L 31.061363,2.038633 c 0.596559,-0.1041299 1.200268,-0.153005 1.808006,-0.1381785 2.234363,0.018433 4.442518,0.9083038 6.237903,2.3178529 0,2e-7 0,5e-7 0,7e-7 0.356401,0.4538182 0.458725,0.9613529 0.377043,1.3709548 0,1e-7 0,1e-7 0,2e-7 -0.02794,0.143677 -0.07732,0.2762642 -0.144365,0.3942041 0,4e-7 0,4e-7 0,4e-7 -0.09869,0.1736076 -0.22674,0.3246608 -0.371929,0.45606 0,5e-7 0,5e-7 0,5e-7 -0.04573,0.04143 -0.09323,0.080876 -0.142951,0.1177771 0,0 -10e-7,4e-7 -10e-7,4e-7 -0.01403,0.010374 -0.02821,0.020566 -0.04271,0.03036 -0.0054,0.00368 -0.01044,0.00866 -0.01694,0.010705 0,0 0,0 -1e-6,5e-7 0.0016,-0.00197 0.0039,-0.00295 0.0061,-0.00432 0.0056,-0.00374 0.01135,-0.0073 0.0171,-0.010854 0.0233,-0.014384 0.04706,-0.02807 0.07104,-0.041547 0.103115,-0.057964 0.20906,-0.1108133 0.317179,-0.1617196 0.504748,-0.23766 1.034594,-0.4211442 1.593411,-0.5717841 0.217592,0.2503432 0.425851,0.5089707 0.623976,0.7750225 l 1.678061,-1.249613 1e-6,-7e-7 C 42.600899,4.6855943 42.07743,4.0755185 41.508774,3.5113454 39.674603,1.6722223 37.286326,0.34949032 34.678657,-0.12905251 c -1e-6,-1.3e-7 -2e-6,-2.7e-7 -2e-6,-9.9e-7 -0.572006,-0.20580958 -1.103812,-0.48308468 -1.409498,-0.7934984 0,-4.2e-7 -10e-7,-8.3e-7 -10e-7,-1.25e-6 -0.173317,-0.17599705 -0.282652,-0.36047315 -0.354661,-0.54933835 -0.01463,-0.038083 -0.02766,-0.076279 -0.03932,-0.1145213 0,-5e-7 0,-5e-7 -10e-7,-1.1e-6 -0.0085,-0.028033 -0.01593,-0.056356 -0.02727,-0.084093 -0.0047,-0.011577 -0.0011,-0.030256 -0.02622,-0.031383 -0.0269,-0.00124 -0.03042,0.020157 -0.03954,0.032328 -0.02633,0.03511 -0.04625,0.071304 -0.06668,0.1071481 -0.262436,0.4605129 -0.506053,0.94435856 -0.732511,1.4093744 z M 43.789447,6.3880453 C 43.565527,6.0263373 43.3261,5.674455 43.072244,5.3335558 l -1.678062,1.2496138 c 1.139619,1.5303409 1.943923,3.3063197 2.260449,5.1642414 0.159211,0.972263 0.169059,1.985684 0.0078,2.94946 0,0 -1e-6,0 -1e-6,0 -0.312012,0.713396 -0.921125,0.973521 -1.42829,0.913626 -10e-7,-1e-6 -10e-7,-1e-6 -10e-7,-1e-6 -0.193822,-0.02289 -0.381429,-0.0797 -0.560106,-0.155167 -10e-7,0 -10e-7,0 -10e-7,0 -0.05641,-0.0238 -0.111936,-0.04952 -0.16653,-0.07763 0,0 0,0 0,0 -0.01537,-0.0079 -0.03065,-0.01604 -0.04578,-0.02449 -0.0057,-0.0032 -0.01222,-0.0056 -0.01706,-0.01008 0,0 0,0 0,0 0.0024,6.74e-4 0.0043,0.0022 0.0065,0.0035 0.0058,0.0033 0.01153,0.0067 0.01725,0.01016 0.02318,0.01398 0.04594,0.02854 0.06863,0.04339 0.09765,0.06389 0.191548,0.13202 0.28447,0.203559 0.433532,0.333762 0.818516,0.72195 1.165272,1.16874 -0.142251,0.273606 -0.304621,0.53447 -0.487872,0.779404 l 1.665163,1.227127 10e-7,1e-6 c 1.578862,-2.13513 2.06619,-4.88028 1.629488,-7.400285 -0.151069,-0.921111 -0.396058,-1.820994 -0.724599,-2.6876653 0,-7e-7 0,-1.5e-6 0,-2.4e-6 -0.116154,-0.5887355 -0.136837,-1.1679438 -0.01204,-1.5765738 0,-5e-7 0,-1e-6 10e-7,-1.5e-6 0.08481,-0.2777021 0.227486,-0.4825585 0.394738,-0.6499405 0,-4e-7 0,-5e-7 1e-6,-9e-7 0.02082,-0.020839 0.0424,-0.04081 0.06177,-0.063846 0.0081,-0.00961 0.02603,-0.015616 0.01609,-0.037345 -0.01061,-0.023286 -0.03087,-0.015872 -0.04554,-0.017674 -0.04227,-0.0052 -0.08267,-0.00449 -0.123075,-0.00442 -0.517291,9.875e-4 -1.056597,0.023884 -1.57152,0.046821 z M 43.237995,19.829649 c 0.126872,-0.115857 0.250715,-0.236618 0.371191,-0.362395 0.198582,-0.221572 0.383476,-0.451367 0.554947,-0.688278 l -1.665165,-1.227128 c -0.12874,0.172075 -0.267787,0.336289 -0.417404,0.491534 l 0,0 c -0.765236,0.84128 -1.878005,1.385355 -3.054469,1.724358 -1.354268,0.382276 -2.806174,0.473384 -4.267354,0.420908 0,0 0,0 -10e-7,-1e-6 -0.03594,-0.0099 -0.07127,-0.02051 -0.105958,-0.03178 0,0 0,0 0,0 -0.71405,-0.233102 -1.139215,-0.736924 -1.232462,-1.230513 0,-10e-7 0,-10e-7 0,-10e-7 -0.0372,-0.196901 -0.03606,-0.394591 -0.0064,-0.588074 0,0 0,0 0,0 0.0093,-0.06094 0.02153,-0.121486 0.03751,-0.181415 0,0 0,-1e-6 0,-1e-6 0.0045,-0.01688 0.0093,-0.03372 0.01469,-0.05044 0.002,-0.0063 0.0027,-0.01329 0.0068,-0.01897 0,0 0,0 0,-1e-6 4.4e-5,0.0025 -0.0012,0.0048 -0.0021,0.0072 -0.0021,0.0064 -0.0045,0.01281 -0.0068,0.01919 -0.0096,0.02582 -0.02001,0.05142 -0.03075,0.07697 -0.04615,0.109829 -0.0979,0.217796 -0.152098,0.325488 -0.252897,0.502509 -0.552594,0.983141 -0.881599,1.460672 -0.336705,-0.04742 -0.672617,-0.101964 -1.007523,-0.163372 l -0.375753,2.05337 0,10e-7 c 1.165569,0.22671 2.348716,0.378174 3.542649,0.445421 1.645504,0.09784 3.35999,0.0059 5.054274,-0.438063 0,0 0,0 0,0 0.432326,-0.109844 0.864062,-0.251067 1.288042,-0.426289 10e-7,0 2e-6,-1e-6 3e-6,-1e-6 0.60447,-0.142989 1.23871,-0.232454 1.676296,-0.172396 0,0 10e-7,0 10e-7,10e-7 0.305412,0.04192 0.53656,0.146228 0.73225,0.28471 10e-7,0 10e-7,0 10e-7,0 0.0242,0.01713 0.04763,0.03528 0.07425,0.05033 0.0111,0.0063 0.01878,0.02368 0.04245,0.0084 0.02538,-0.01631 0.016,-0.0358 0.01719,-0.0515 0.0034,-0.04524 2.66e-4,-0.08728 -0.0023,-0.129327 -0.03275,-0.541269 -0.107006,-1.088865 -0.204446,-1.608605 z m -13.416227,1.791796 c 0.396467,0.09047 0.795078,0.172417 1.195545,0.24548 l 0.375753,-2.053373 c -2.267923,-0.415849 -4.489684,-1.146476 -6.599143,-2.110865 -0.631766,-0.290412 -1.251626,-0.602243 -1.852272,-0.940855 0,-10e-7 0,-10e-7 0,-10e-7 -0.586567,-0.541923 -0.751709,-1.226905 -0.593396,-1.729373 0,0 0,0 0,0 0.06009,-0.19072 0.154185,-0.364684 0.270534,-0.522045 0,-10e-7 0,-10e-7 0,-10e-7 0.03662,-0.04959 0.07555,-0.09754 0.117381,-0.143279 0,0 10e-7,-1e-6 10e-7,-1e-6 0.01182,-0.01287 0.02383,-0.02558 0.03627,-0.03795 0.0046,-0.0046 0.0086,-0.01051 0.01472,-0.01371 0,0 0,0 1e-6,-1e-6 -0.0012,0.0023 -0.0033,0.0036 -0.0051,0.0054 -0.0048,0.0047 -0.0098,0.0093 -0.01484,0.01389 -0.02031,0.01851 -0.04127,0.03643 -0.06246,0.05417 -0.0911,0.07628 -0.186177,0.148274 -0.283386,0.218826 -0.453335,0.329035 -0.939631,0.615368 -1.453892,0.879392 -0.06999,-0.05205 -0.139534,-0.104636 -0.208609,-0.157773 -0.196178,-0.152827 -0.389019,-0.308616 -0.576606,-0.468023 l -1.355738,1.5985 -1e-6,10e-7 c 0.215411,0.18638 0.434455,0.364119 0.655192,0.533804 1.375858,1.077087 2.876305,1.947267 4.413382,2.670252 0,0 10e-7,0 10e-7,0 1.12594,0.534179 2.287829,1.00517 3.47768,1.40242 10e-7,0 2e-6,0 2e-6,1e-6 0.502491,0.274049 0.918481,0.631655 1.117497,0.99435 0,0 0,10e-7 1e-6,10e-7 0.134444,0.245016 0.178691,0.487539 0.181395,0.721806 0,0 0,0 0,1e-6 3.38e-4,0.02925 -3.97e-4,0.05842 0.0023,0.08804 0.0011,0.01234 -0.0065,0.02963 0.01415,0.03662 0.02207,0.0075 0.03025,-0.0124 0.04087,-0.02208 0.03063,-0.02791 0.05619,-0.05823 0.08227,-0.08817 0.34645,-0.397812 0.664132,-0.777637 1.010582,-1.175449 z M 17.882637,15.575709 c 0.302578,0.315657 0.619316,0.609643 0.943843,0.884139 l 1.355738,-1.598501 c -0.771784,-0.655846 -1.454627,-1.372946 -1.914989,-2.196993 -0.436015,-0.79612 -0.676458,-1.711584 -0.45617,-2.483699 l 0,0 c 0.153454,-0.7306846 0.666693,-1.3831605 1.308885,-1.963544 1e-6,0 1e-6,0 1e-6,0 0.319229,-0.1681022 0.649033,-0.2257964 0.935521,-0.2054772 0.324396,0.026471 0.601413,0.150422 0.805816,0.3324333 0,5e-7 0,5e-7 0,5e-7 0.148642,0.1323587 0.269728,0.2887683 0.368904,0.4574792 0,6e-7 0,6e-7 0,6e-7 0.03129,0.053158 0.06035,0.1075964 0.08661,0.1636442 0,0 0,5e-7 0,5e-7 0.0074,0.015811 0.01455,0.031716 0.02129,0.047849 0.0025,0.00604 0.0064,0.011959 0.0072,0.018693 0,0 0,0 0,6e-7 -0.0016,-0.00197 -0.0021,-0.00442 -0.003,-0.00679 -0.0026,-0.00622 -0.0049,-0.01255 -0.0073,-0.018877 -0.0095,-0.02564 -0.01831,-0.051572 -0.02684,-0.077679 -0.0367,-0.1123005 -0.06778,-0.2262038 -0.09643,-0.341958 C 21.077903,8.0458747 21.00541,7.4922649 20.975114,6.9156843 21.263025,6.7575876 21.557842,6.6118032 21.858339,6.4787909 l -0.844673,-1.9089685 -1e-6,-1.1e-6 c -0.859896,0.3689628 -1.683393,0.827197 -2.453074,1.3688794 -1.211399,0.796839 -2.344695,2.0240412 -2.851115,3.7163088 0,3e-7 0,5e-7 0,6e-7 -0.300899,1.3210469 -0.09558,2.6235709 0.434806,3.7144409 1e-6,1e-6 1e-6,2e-6 1e-6,3e-6 0.04593,0.145643 0.09156,0.29172 0.133649,0.429925 0,0 0,0 0,0 0.132186,0.468024 0.210941,0.908177 0.18264,1.254896 0,0 0,10e-7 0,10e-7 -0.02465,0.301951 -0.120031,0.536125 -0.24904,0.736737 -10e-7,0 -10e-7,0 -10e-7,1e-6 -0.01602,0.02492 -0.03302,0.04909 -0.04704,0.07611 -0.0058,0.01128 -0.02248,0.02028 -0.0073,0.04152 0.01619,0.02276 0.03484,0.01191 0.04998,0.01154 0.04366,-0.0011 0.08416,-0.0081 0.124627,-0.01452 0.521736,-0.08292 1.045858,-0.203295 1.550865,-0.329959 z M 22.211126,4.1063621 c -0.406089,0.1355512 -0.805792,0.2902441 -1.19746,0.4634599 l 0.844673,1.9089699 c 1.723971,-0.7630997 3.634913,-1.1058211 5.501654,-0.9413293 1.006622,0.087178 2.004632,0.3032072 2.959751,0.6384305 0,2e-7 0,4e-7 1e-6,6e-7 0.664295,0.4317625 0.892339,1.0818424 0.793863,1.5952238 0,5e-7 0,5e-7 0,5e-7 -0.03752,0.195594 -0.109966,0.3797039 -0.204475,0.5511302 0,6e-7 0,6e-7 0,6e-7 -0.02976,0.054045 -0.06179,0.1068263 -0.09667,0.1579933 0,0 0,5e-7 0,5e-7 -0.0099,0.014404 -0.01991,0.028685 -0.03038,0.042704 -0.0039,0.00526 -0.007,0.011591 -0.01247,0.015693 0,0 0,0 -1e-6,6e-7 8.76e-4,-0.00238 0.0027,-0.00407 0.0043,-0.00607 0.0041,-0.00538 0.0083,-0.010635 0.01257,-0.015884 0.01725,-0.021266 0.03515,-0.042027 0.05333,-0.062664 0.07817,-0.088764 0.160607,-0.173577 0.2458,-0.2572243 0.397694,-0.3904899 0.83737,-0.7362706 1.31694,-1.0575156 0.283653,0.1663141 0.559992,0.3445093 0.827831,0.5342512 l 1.206305,-1.7036131 1e-6,-1e-6 C 32.424678,4.5125053 30.025596,3.61453 27.546403,3.3747515 c -0.92754,-0.087598 -1.859529,-0.07509 -2.779559,0.032041 -10e-7,10e-8 -10e-7,2e-7 -2e-6,-3e-7 -0.601852,-0.03048 -1.173568,-0.1480836 -1.542932,-0.3647347 0,-3e-7 0,-6e-7 -1e-6,-9e-7 -0.251407,-0.1474633 -0.417833,-0.3334519 -0.54183,-0.5348353 -1e-6,-6e-7 -1e-6,-5e-7 -1e-6,-1.1e-6 -0.01543,-0.025058 -0.02984,-0.050656 -0.04778,-0.074807 -0.0075,-0.010064 -0.009,-0.028917 -0.0328,-0.024266 -0.02545,0.00495 -0.02306,0.026371 -0.02838,0.04022 -0.01532,0.039909 -0.02438,0.07938 -0.03405,0.1186927 -0.123919,0.5039248 -0.229692,1.0327208 -0.327944,1.5393056 z M 35.462572,6.7555348 C 35.328767,6.6444378 35.193091,6.5376712 35.056086,6.4353356 34.853895,6.2741323 34.647315,6.1189604 34.436694,5.9699178 L 33.230388,7.673532 c 0.177878,0.1260121 0.352007,0.2571171 0.522039,0.3932169 l 0,3e-7 c 1.407755,1.1811631 2.674048,2.6829708 2.681459,4.2984958 l 0,0 c 0.03067,0.662432 -0.189358,1.351785 -0.59301,1.884909 -0.01941,0.02693 -0.0393,0.05355 -0.05964,0.07988 -10e-7,0 -10e-7,0 -10e-7,0 -0.568625,0.423004 -1.229912,0.235215 -1.599051,-0.109742 -10e-7,0 -10e-7,0 -10e-7,0 -0.144783,-0.135299 -0.265276,-0.29272 -0.369132,-0.458583 0,0 0,0 0,0 -0.03279,-0.05232 -0.06376,-0.105316 -0.09288,-0.159477 0,0 0,0 0,0 -0.0082,-0.01527 -0.0162,-0.03055 -0.02393,-0.046 -0.0029,-0.0058 -0.0069,-0.01162 -0.0084,-0.01779 0,0 0,0 0,-1e-6 0.0016,0.002 0.0023,0.0043 0.0034,0.0065 0.003,0.0059 0.0058,0.01196 0.0085,0.01798 0.01131,0.02441 0.02193,0.04895 0.03234,0.07376 0.04483,0.106836 0.08362,0.214617 0.119346,0.325732 0.167257,0.52024 0.249388,1.06138 0.269634,1.641617 -0.201848,0.102817 -0.410246,0.19888 -0.621977,0.289484 -0.08742,0.03595 -0.175357,0.07067 -0.263787,0.10416 l 0.738833,1.952944 0,10e-7 c 0.107113,-0.03914 0.213739,-0.07979 0.31984,-0.121948 1.166102,-0.438207 2.342253,-1.162326 3.250967,-2.296207 0,-1e-6 0,-1e-6 0,-1e-6 0.70661,-0.927132 1.081603,-2.072163 1.051186,-3.254405 -0.09176,-1.320853 -0.540296,-2.5107481 -1.193363,-3.5356757 -1e-6,-7e-7 -1e-6,-1.4e-6 -1e-6,-2.4e-6 -0.259492,-0.5943786 -0.453098,-1.183111 -0.456034,-1.6302566 0,-6e-7 0,-1.1e-6 0,-1.7e-6 -0.002,-0.3046396 0.07317,-0.548511 0.185282,-0.7628461 1e-6,-6e-7 1e-6,-6e-7 1e-6,-1.2e-6 0.01393,-0.026623 0.02889,-0.052604 0.04061,-0.081042 0.0049,-0.011874 0.02084,-0.02281 0.0037,-0.041935 -0.01831,-0.020487 -0.03614,-0.00748 -0.05135,-0.00526 -0.04388,0.0064 -0.08406,0.018304 -0.124292,0.029593 -0.517831,0.1453127 -1.040033,0.3259484 -1.53815,0.5048881 z M 32.736693,18.345253 c 0.418594,-0.109703 0.831785,-0.241326 1.237467,-0.394615 l -0.738833,-1.952945 c -2.036486,0.771139 -4.331727,0.886314 -6.418182,0.289473 -0.666053,-0.189317 -1.314351,-0.445274 -1.932881,-0.760642 0,0 0,0 0,0 -0.596783,-0.514929 -0.724042,-1.189978 -0.550693,-1.682251 1e-6,0 1e-6,0 1e-6,0 0.0661,-0.1877 0.164864,-0.359188 0.283083,-0.515215 10e-7,-10e-7 10e-7,-10e-7 10e-7,-10e-7 0.03724,-0.0492 0.07648,-0.09685 0.11825,-0.142541 0,0 0,-10e-7 0,-10e-7 0.0118,-0.01286 0.02375,-0.02557 0.03608,-0.03797 0.0046,-0.0047 0.0086,-0.01047 0.01452,-0.01378 0,0 0,0 1e-6,-10e-7 -0.0012,0.0022 -0.0033,0.0036 -0.0051,0.0054 -0.0048,0.0048 -0.0097,0.0094 -0.01465,0.01395 -0.02003,0.01863 -0.04061,0.03666 -0.06145,0.05454 -0.08964,0.07691 -0.182867,0.149239 -0.278763,0.220003 -0.447718,0.330385 -0.931492,0.608866 -1.453251,0.855256 -0.254098,-0.206098 -0.498644,-0.423646 -0.732379,-0.651886 l -1.458774,1.493763 -1e-6,10e-7 c 1.507851,1.5054 3.38938,2.627901 5.445536,3.237535 1.262149,0.370873 2.575939,0.532981 3.884237,0.491056 1e-6,0 2e-6,0 3e-6,0 0.601494,0.08063 1.169343,0.242109 1.524987,0.484914 10e-7,0 10e-7,1e-6 10e-7,1e-6 0.242547,0.165592 0.396691,0.362731 0.506993,0.572569 0,0 10e-7,0 10e-7,1e-6 0.01372,0.02609 0.02636,0.05267 0.04271,0.07802 0.0068,0.01057 0.007,0.02951 0.03142,0.02649 0.02621,-0.0032 0.02544,-0.02478 0.03189,-0.03825 0.01861,-0.03883 0.03083,-0.07767 0.04364,-0.116287 0.164332,-0.495609 0.309883,-1.016207 0.444153,-1.516599 z M 19.898556,14.173845 c 0.05784,0.06852 0.116431,0.136247 0.175743,0.203155 0.225578,0.259395 0.461468,0.509165 0.706823,0.7488 l 1.458775,-1.493765 c -0.204906,-0.20009 -0.401503,-0.408397 -0.588941,-0.62441 -1.205855,-1.409831 -2.069437,-3.1560619 -2.081848,-4.9210042 0,-2e-7 0,-3e-7 0,-4e-7 -0.02123,-0.6732826 0.108378,-1.3469065 0.355764,-1.9865626 0,-1e-7 0,-2e-7 0,-3e-7 0.440461,-0.6136866 1.106417,-0.7185854 1.590413,-0.5412398 1e-6,3e-7 1e-6,3e-7 1e-6,3e-7 0.185787,0.068076 0.35743,0.1672642 0.515942,0.2819037 1e-6,3e-7 1e-6,3e-7 1e-6,3e-7 0.05004,0.036154 0.0987,0.073878 0.145902,0.1135851 0,0 1e-6,4e-7 1e-6,4e-7 0.01328,0.011209 0.02643,0.022523 0.03934,0.034134 0.0048,0.00434 0.01072,0.00825 0.01443,0.013603 0,0 0,0 0,4e-7 -0.0022,-0.00122 -0.0038,-0.00311 -0.0056,-0.00483 -0.005,-0.00448 -0.0098,-0.0091 -0.0146,-0.01373 -0.01954,-0.018759 -0.03852,-0.037955 -0.05737,-0.057439 C 22.072161,5.8421733 21.995808,5.7550302 21.921084,5.6643803 21.572173,5.2411112 21.284852,4.7713575 21.045539,4.2486682 21.250487,4.0103483 21.472184,3.7860509 21.70765,3.5788689 l -1.37616,-1.5735849 -10e-7,-9e-7 c -1.750337,1.4876982 -2.901172,3.6980852 -2.921968,6.1194707 0.02811,1.3531783 0.361803,2.6495592 0.912823,3.8294342 10e-7,10e-7 10e-7,2e-6 10e-7,3e-6 0.170026,0.600689 0.262991,1.197311 0.192979,1.628617 0,10e-7 -1e-6,10e-7 -1e-6,2e-6 -0.04778,0.294367 -0.161319,0.519213 -0.305626,0.709262 -10e-7,1e-6 -10e-7,1e-6 -10e-7,1e-6 -0.01793,0.02362 -0.03677,0.04645 -0.05287,0.07219 -0.0067,0.01073 -0.024,0.01881 -0.01058,0.04015 0.01435,0.02286 0.03379,0.0131 0.04892,0.0134 0.04364,8.78e-4 0.08455,-0.0042 0.12547,-0.0086 0.525895,-0.05693 1.063648,-0.144595 1.577923,-0.235373 z M 21.359842,1.2162418 c -0.267231,0.1863282 -0.529453,0.3818165 -0.786182,0.586667 -0.08198,0.065934 -0.162719,0.133409 -0.242171,0.202375 l 1.376161,1.573586 c 0.05992,-0.052724 0.120735,-0.104339 0.18239,-0.1547949 2.177335,-1.7904955 4.958925,-2.74643118 7.852531,-3.07416371 10e-7,1.4e-7 10e-7,2.8e-7 10e-7,4.3e-7 0.805027,0.0975602 1.341456,0.56141673 1.511686,1.06400888 0,6e-7 0,6e-7 0,6e-7 0.06482,0.1913804 0.09169,0.3891294 0.08996,0.5868132 0,6e-7 0,6e-7 0,6e-7 -5.09e-4,0.062261 -0.0039,0.1245523 -0.01112,0.1867827 0,0 0,7e-7 0,7e-7 -0.0021,0.017538 -0.0044,0.035067 -0.0073,0.052563 -0.0011,0.00656 -7.86e-4,0.01368 -0.004,0.019953 0,0 0,0 0,6e-7 -4.03e-4,-0.00253 5.28e-4,-0.00493 0.001,-0.00747 0.0011,-0.00673 0.0026,-0.013455 0.004,-0.02017 0.0057,-0.027207 0.01235,-0.054308 0.01928,-0.081412 0.02976,-0.1165236 0.06536,-0.2319431 0.10353,-0.3474807 0.178131,-0.5391956 0.407506,-1.06249686 0.668811,-1.58574404 0.341255,-1.5082e-4 0.682211,0.007522 1.022081,0.0226883 l 0.102149,-2.09244964 0,-1.2e-6 c -3.255672,-0.2169028 -6.659989,0.2581769 -9.692136,1.66638727 -1e-6,3.3e-7 -2e-6,6.6e-7 -3e-6,4.5e-7 -0.567289,0.15383244 -1.135788,0.20749156 -1.54573,0.10721855 0,-1.7e-7 -10e-7,-3.4e-7 -10e-7,-5.1e-7 -0.278721,-0.06817605 -0.489577,-0.1979823 -0.664825,-0.35409737 -1e-6,-4.4e-7 -1e-6,-3.8e-7 -1e-6,-8.2e-7 -0.02182,-0.0194382 -0.04283,-0.0396691 -0.06674,-0.057555 -0.01,-0.007453 -0.01697,-0.0248691 -0.03784,-0.013868 -0.02237,0.011754 -0.01384,0.0313792 -0.01475,0.0459721 -0.0026,0.0420656 4.61e-4,0.0819486 0.0029,0.12188994 0.03144,0.51069704 0.08456,1.04405231 0.136258,1.55230235 z m 13.113344,-2.9733839 c -0.213885,-0.021586 -0.427748,-0.039816 -0.641418,-0.054807 -0.195793,-0.015856 -0.392191,-0.029223 -0.589076,-0.040054 l -0.102149,2.09245112 c 0.179919,0.008029 0.359534,0.0181574 0.538728,0.0303372 l 0,1e-7 c 2.060891,0.15520214 4.097876,0.61108458 5.908628,1.50822209 0.63676,0.3183365 1.248091,0.6926339 1.805825,1.1220233 0,2e-7 0,4e-7 0,7e-7 0.490024,0.616089 0.46064,1.2862225 0.181844,1.7218092 -10e-7,5e-7 -10e-7,5e-7 -10e-7,5e-7 -0.106186,0.165903 -0.240385,0.3102671 -0.388381,0.4370765 0,5e-7 0,5e-7 0,5e-7 -0.04667,0.040029 -0.0948,0.078293 -0.144755,0.1144294 0,0 0,5e-7 0,5e-7 -0.0141,0.010162 -0.0283,0.020164 -0.04277,0.02983 -0.0054,0.00363 -0.01056,0.00843 -0.01684,0.010622 0,0 0,0 -10e-7,4e-7 0.0017,-0.00188 0.0039,-0.00289 0.0061,-0.00425 0.0056,-0.0037 0.01129,-0.00723 0.017,-0.010763 0.02314,-0.014293 0.04664,-0.027931 0.07036,-0.04137 0.102061,-0.057824 0.206403,-0.1104221 0.313188,-0.1607378 0.498182,-0.2347432 1.022544,-0.4059503 1.580701,-0.523908 0.189373,0.2524236 0.360871,0.516393 0.511721,0.7918226 l 1.823127,-1.018456 10e-7,-6e-7 C 44.202195,2.2725163 42.461636,0.79384992 40.541976,-0.15785169 39.412855,-0.7249726 38.229265,-1.1480154 37.022923,-1.4473345 c -10e-7,-2e-7 -10e-7,-3e-7 -2e-6,-1.1e-6 -0.538729,-0.2372984 -1.003571,-0.5545549 -1.249184,-0.8958456 0,0 -10e-7,-1.4e-6 -10e-7,-1.4e-6 -0.166168,-0.2308988 -0.240745,-0.4674384 -0.272002,-0.7007719 0,-6e-7 0,-7e-7 0,-1.3e-6 -0.0039,-0.029102 -0.0067,-0.058257 -0.01306,-0.087479 -0.0027,-0.012178 0.0031,-0.030214 -0.01907,-0.034984 -0.0237,-0.00514 -0.0297,0.015595 -0.03946,0.026363 -0.02816,0.031069 -0.0508,0.06406 -0.07396,0.096699 -0.292899,0.4127549 -0.597194,0.8683665 -0.882989,1.2862177 z"
       id="path3541"
       sodipodi:nodetypes="sssssss"
       inkscape:path-effect="#path-effect3561"
       inkscape:original-d="M 44.178802,4.8760858 C 53.884244,22.248851 8.9377031,18.869199 23.080837,5.5410541 36.75314,-7.3433913 49.571147,11.179043 42.665603,18.587755 35.73136,26.027257 8.832412,14.58274 19.333262,7.0101581 29.834112,-0.56242389 43.789552,12.529762 33.80247,16.632057 23.815389,20.734352 13.916654,8.8699723 21.386763,2.8042724 c 6.225718,-5.0552586 19.11243,-4.5146949 22.792039,2.0718134 z"
       class="UnoptimicedTransforms"
       transform="translate(9.8395436,35.54834)" /><path
       style="fill:#cccccc;fill-opacity:1;stroke:none;stroke-width:0.199022px;stroke-linecap:butt;stroke-linejoin:miter;stroke-opacity:1"
       d="m 13.347768,12.524114 0.09539,-1.227487 -1.735082,-0.131405 -0.300512,3.868577 c -0.110221,1.999559 -0.173993,4.008738 -0.147468,6.020598 -0.271637,1.656382 -1.108592,1.783371 -1.4679545,1.75287 -0.3593624,-0.0305 -0.2295517,-0.174716 1.5575915,0.876245 0.01843,0.326939 0.03975,0.653869 0.06414,0.98076 0.0037,0.04987 0.0075,0.09976 0.01132,0.149663 l 1.735298,-0.135107 c -0.0033,-0.04824 -0.0066,-0.0965 -0.0098,-0.144796 0,-1e-6 0,-1e-6 0,-1e-6 -0.204033,-3.103683 -0.115461,-6.237743 0.086,-9.379022 0,0 0,0 0,0 0.003,-0.0341 0.006,-0.0682 0.0089,-0.102304 0.660824,-2.77497 2.507925,-0.700111 0.102147,-2.528591 z m -0.07675,13.352823 c -0.04267,-0.396913 -0.07881,-0.796519 -0.11053,-1.198109 l -1.735298,0.135107 c 0.11542,1.495549 0.300822,3.004294 0.655381,4.493211 l 0,1e-6 c 0.273511,1.192306 0.676325,2.44257 1.46665,3.528234 l 1e-6,0 c 0.42789,0.592827 1.041097,1.068412 1.759875,1.308385 0.384122,0.192074 0.754434,0.321553 1.068232,0.424225 1.211022,0.346079 1.374182,0.889738 1.358929,1.110977 -0.0061,0.0889 -0.04105,0.123783 0.06671,-0.168553 0.06341,-0.172026 0.364912,-0.900578 0.501681,-1.742377 0.373911,-0.187359 0.723844,-0.410587 1.050048,-0.651265 l -1.052714,-1.425207 c -0.702586,0.508437 -1.370409,0.897638 -1.998679,0.85559 -0.430653,0.06921 -0.948568,-0.317364 -1.314593,-0.781682 0,0 0,0 -1e-6,0 -0.567897,-0.745385 -0.855797,-1.778197 -1.12832,-2.883317 0,0 0,0 0,0 -0.04706,-0.20457 -0.09057,-0.410447 -0.130871,-0.617526 -0.05064,-1.349349 0.567909,-1.643749 0.795382,-1.74434 0.256128,-0.113263 0.07307,0.0059 -1.25188,-0.643354 z m 5.946357,5.090268 c -0.06804,0.0588 -0.135634,0.117389 -0.202848,0.175663 -0.241969,0.188293 -0.480099,0.375149 -0.714547,0.548698 l 1.052714,1.425207 c 0.281759,-0.207886 0.545814,-0.428791 0.792325,-0.650846 1.03514,-0.876615 2.020474,-1.74944 3.130267,-2.298384 l 1e-6,0 c 0.437386,-0.209821 0.86132,-0.377566 1.254249,-0.381075 0.325043,-0.01458 0.668651,0.09625 0.917593,0.299865 0.384912,0.272356 0.661309,0.658843 0.87064,1.117532 0.161313,0.701905 -0.06826,1.187524 -0.324341,1.45064 -0.254771,0.261765 -0.567806,0.336598 -0.748174,0.358934 -0.189879,0.02352 -0.237648,-0.0082 -0.02116,0.02235 0.199195,0.0281 0.758989,0.126882 1.71547,0.535797 0.0509,0.290648 0.100317,0.583885 0.15346,0.874447 0.01139,0.0762 0.02251,0.152449 0.03335,0.228736 l 1.722589,-0.243372 c -0.01049,-0.08042 -0.02126,-0.160849 -0.03231,-0.241275 -0.144409,-1.735473 -0.520034,-3.928702 -2.251698,-5.505568 -0.600601,-0.476283 -1.338715,-0.722845 -2.102051,-0.703791 0,0 0,0 -1e-6,0 -0.779019,0.04246 -1.454904,0.26928 -2.006583,0.558806 -0.424996,0.214331 -0.825117,0.452229 -1.20517,0.704224 -1.405256,0.682519 -1.921539,0.407238 -2.136594,0.274607 -0.197698,-0.121928 -0.09877,-0.08204 0.102817,1.448803 z m 9.786057,4.725479 c -0.04439,-0.420448 -0.09564,-0.840914 -0.154464,-1.261285 l -1.722589,0.243372 c 0.45272,3.184603 0.433184,6.440933 0.313143,9.711971 -0.607098,2.780562 -2.723786,0.919386 -1.18955,1.862094 0,0 0,0 0,0 0.25403,0.149866 0.603239,0.375113 1.074283,0.723242 -0.02223,0.368972 -0.0474,0.740689 -0.07106,1.115067 l 1.739776,0.110361 c 0.04379,-0.595403 0.09115,-1.201773 0.123506,-1.819289 0.149572,-2.666198 0.274187,-5.374145 0.174135,-8.099076 0.15489,-1.450559 0.723083,-1.735452 0.953911,-1.834465 0.208219,-0.08932 0.127634,-0.03144 -1.241091,-0.751992 z m -0.07763,13.714074 c 0.01672,-0.397824 0.04111,-0.800945 0.06717,-1.209252 l -1.739776,-0.110361 c -0.06955,1.100518 -0.12606,2.224029 -0.05667,3.368386 -0.0011,0.10291 0.01658,0.268243 0.08178,0.486825 -0.01417,0.146422 0.169031,0.33687 0.558187,0.532197 1e-6,0 1e-6,0 2e-6,0 0.543183,0.0032 0.744537,-0.07601 0.614004,-0.07976 -0.08448,-0.0099 -0.09631,0.0049 -0.09114,-0.0023 0.174942,0.10252 0.293202,0.4105 0.483204,0.770787 0.542359,1.166714 0.912243,2.417536 1.214631,3.709405 0.0803,1.634184 -0.782047,1.892909 -1.142793,1.922893 -0.360747,0.02998 -0.24778,-0.178999 1.669839,0.606287 0.07154,0.366514 0.143078,0.734049 0.216824,1.101698 l 1.707194,-0.337619 c -0.461831,-2.522382 -0.884142,-5.203853 -2.017161,-7.761658 0,0 0,-1e-6 0,-1e-6 -0.135726,-0.394755 -0.425427,-0.926963 -1.00194,-1.447167 0,0 -1e-6,-10e-7 -1e-6,-10e-7 -0.359408,-0.3047 -0.869412,-0.434535 -1.475738,-0.341035 -0.461311,0.05528 -0.430807,0.124819 0.08746,0.08951 0.0519,-0.0049 0.108555,-0.0108 0.169942,-0.01787 0.579786,0.315791 0.827723,0.514703 0.769838,0.648748 0.04462,0.118486 0.08205,0.09777 0.08896,-0.0022 0.224373,-0.973553 0.804635,-1.082789 0.980949,-1.13215 0.176314,-0.04936 -0.0274,8.78e-4 -1.184745,-0.7954 z"
       id="path3393"
       sodipodi:nodetypes="cssc"
       inkscape:path-effect="#path-effect3449"
       inkscape:original-d="m 12.433329,10.417919 c 0,0 -3.3780845,30.648646 7.279525,21.542223 4.328289,-3.698317 9.298383,-7.475158 8.31245,14.368824 -0.560308,12.41399 0.128005,-2.643096 3.428378,14.045492"
       class="UnoptimicedTransforms"
       transform="rotate(-10.703223,-23.164045,60.695889)" /><path
       style="fill:#999999;fill-opacity:1;stroke:none;stroke-width:0.199022px;stroke-linecap:butt;stroke-linejoin:miter;stroke-opacity:1"
       d="m 17.204215,7.1343063 c 0.02867,-0.1812323 0.05506,-0.3640382 0.07862,-0.5484988 0.04057,-0.2983075 0.07129,-0.6299459 0.0675,-0.9926622 l -1.738496,0.020721 c 0.0031,0.2328681 -0.02367,0.4852367 -0.05567,0.7548529 l -10e-7,5e-7 c -0.116917,0.9402464 -0.335712,1.8892746 -0.548729,2.862248 -0.508182,2.3066124 -1.02859,4.6343964 -1.364753,7.0081764 -0.185234,0.601359 -0.394839,1.002016 -0.613511,1.270388 0,0 0,0 0,0 -0.543049,0.660507 -1.118407,0.479126 -1.251432,0.420506 -0.125988,-0.05552 0.187921,0.06587 1.555258,1.228682 -0.0279,0.422616 -0.0474,0.846873 -0.05686,1.271932 l 1.746905,0.04019 c 0.0301,-0.903639 0.10583,-1.814063 0.2079,-2.721958 0.301538,-2.584492 0.894013,-5.16185 1.491632,-7.7757566 0.04494,-0.1204291 0.09055,-0.2318741 0.136511,-0.3349507 0.547383,-1.2140942 1.135,-1.2964074 1.34709,-1.3309576 0.209146,-0.034071 0.0559,-0.063374 -1.001965,-1.1729098 z M 15.025602,21.782996 c -0.0131,-0.434826 -0.01322,-0.872588 -0.0026,-1.312157 l -1.746905,-0.04019 c -0.04767,2.140777 0.159111,4.301907 0.828279,6.376259 0.516188,1.571267 1.364516,3.015386 2.460059,4.238318 1.058075,1.619742 0.739369,2.281561 0.471765,2.524366 -0.267604,0.242805 -0.241502,0.158816 1.818551,-0.535371 0.363018,0.242537 0.739748,0.465421 1.128605,0.666896 l 0.797987,-1.544808 c -2.337697,-1.229181 -4.17113,-3.414233 -4.950223,-5.913231 -0.194457,-0.600423 -0.341648,-1.216065 -0.449171,-1.84326 -0.04037,-1.462094 0.617681,-1.738833 0.850314,-1.830848 0.277455,-0.109744 0.05591,0.02333 -1.206706,-0.785977 z m 7.1618,11.325377 c -0.29175,-0.284921 -0.64883,-0.563759 -1.091566,-0.797718 -0.105734,-0.04952 -0.210567,-0.100989 -0.314448,-0.154343 l -0.797987,1.544808 c 0.12199,0.0632 0.245174,0.124304 0.369503,0.183241 0.391858,0.155343 0.721991,0.60936 1.134351,1.087274 0.646205,0.800466 1.205908,1.6894 1.74424,2.607698 l 1e-6,0 c 0.895927,1.531151 1.69477,3.121062 2.426061,4.747655 0.468329,1.757883 -0.318589,2.178292 -0.66681,2.274151 -0.348221,0.09586 -0.284227,-0.157045 1.783555,0.355961 0.153085,0.380494 0.303447,0.762297 0.451441,1.145144 l 1.623783,-0.627158 c -1.130335,-3.007021 -2.423516,-5.984493 -4.044391,-8.815728 -0.224871,-0.394056 -0.458978,-0.789437 -0.706924,-1.18218 -0.766144,-1.640986 -0.388831,-2.191324 -0.302134,-2.364301 0,0 0,0 0,0 0,0 0,0 0,0 0.04213,-0.07024 0.01813,-0.07193 -0.191166,-0.05922 -0.212414,0.0129 -0.633718,0.01272 -1.417509,0.05471 z m 7.151568,13.648684 c -0.101602,-0.265212 -0.203329,-0.535992 -0.308955,-0.810383 -0.05973,-0.157273 -0.119889,-0.314475 -0.180489,-0.471588 l -1.623783,0.627158 c 0.05964,0.154273 0.118887,0.308716 0.177778,0.46331 0.358777,0.949931 0.717799,1.949233 1.244183,2.911246 l 0,0 c 0.124305,0.243756 0.232228,0.361664 0.209404,0.395372 0.15268,0.758956 0.250055,1.555838 0.390742,2.372981 0.241862,1.405708 0.499022,2.807609 0.764732,4.206843 0.100909,3.666646 -3.310062,1.036833 0.548524,2.834493 0.0797,0.405839 0.159739,0.811517 0.239948,1.217063 l 1.707194,-0.337619 C 31.990161,57.420919 31.481732,54.68064 31.034535,51.937778 30.910943,51.177 30.817562,50.363367 30.655318,49.511982 c 0,0 0,0 0,0 -0.01127,-0.03824 -0.02261,-0.07525 -0.03399,-0.111056 -0.136606,-0.529995 -0.247694,-0.773507 -0.261516,-0.867432 0,0 0,-10e-7 0,-10e-7 -0.210273,-0.98175 0.284864,-1.324924 0.417874,-1.439109 0.133009,-0.114186 -0.03981,0.01844 -1.438716,-0.337327 z"
       id="path3393-3"
       sodipodi:nodetypes="cssc"
       inkscape:path-effect="#path-effect3449-5"
       inkscape:original-d="m 16.111078,4.8338854 c 1.519795,2.2415263 -8.2899018,22.3986786 4.525837,28.4488726 1.461667,0.69004 4.52596,5.523394 7.388389,13.046208 2.686855,7.061383 0.128005,-2.643096 3.428378,14.045492"
       class="UnoptimicedTransforms"
       transform="matrix(-0.98260235,-0.18572189,-0.18572189,0.98260235,92.756439,-1.074084)" /><path
       style="fill:#b3b3b3;fill-opacity:1;stroke:none;stroke-width:0.199022px;stroke-linecap:butt;stroke-linejoin:miter;stroke-opacity:1"
       d="m 15.966781,10.289252 c -0.01216,-0.5554119 -0.01801,-1.1114637 -0.01867,-1.6676126 l -1.742362,-3.962e-4 c -0.0049,4.5270288 0.356411,9.1210758 1.650049,13.5069968 0.07294,0.454953 0.108766,0.830312 0.113438,1.148357 0.02529,1.433158 -0.633508,1.622389 -0.866219,1.635889 -0.232712,0.0135 0.001,-0.03554 2.006293,0.634759 0.214828,0.477573 0.444808,0.948432 0.689829,1.411388 l 1.538001,-0.813494 c -0.583299,-1.123926 -1.073006,-2.299217 -1.467619,-3.504841 -0.945157,-2.870008 -1.428115,-5.882394 -1.644142,-8.947301 0.07526,-1.898911 0.708273,-2.218103 0.943679,-2.326664 0.251245,-0.115865 0.08625,0.0039 -1.20228,-1.077081 z m 4.172548,17.249644 c -0.283981,-0.45404 -0.551425,-0.919159 -0.802186,-1.393757 l -1.538001,0.813494 c 0.871977,1.647561 1.934454,3.195036 3.182466,4.588858 l 10e-7,0 c 1.600805,1.779476 3.441943,3.231361 5.054236,4.824557 l 0,10e-7 c 0.241614,0.241454 0.476037,0.490752 0.700259,0.747516 1.184291,1.804581 0.295614,2.363557 -0.0368,2.502656 -0.172254,0.07208 -0.233885,0.04675 -0.0097,0.03084 0.1418,-0.01006 0.857861,-0.04816 1.833233,0.259281 0.176026,0.431765 0.310824,0.876215 0.395617,1.332253 l 1.707631,-0.335405 c -0.468426,-2.301348 -1.770974,-4.2645 -3.336654,-5.805756 0,0 0,0 -1e-6,0 -1.69642,-1.699188 -3.50398,-3.139256 -4.943615,-4.779216 0,0 0,0 -1e-6,-1e-6 -0.05939,-0.06705 -0.118322,-0.134504 -0.176786,-0.202362 -1.030387,-1.514784 -0.620767,-2.135592 -0.47818,-2.347833 0.171387,-0.25511 0.05834,-0.0015 -1.551518,-0.235122 z"
       id="path3393-3-6"
       sodipodi:nodetypes="cc"
       inkscape:path-effect="#path-effect3449-5-5"
       inkscape:original-d="M 14.87563,7.8208987 C 14.633023,34.413504 27.823124,32.216348 29.57125,41.116353"
       class="UnoptimicedTransforms"
       transform="matrix(-0.63669913,-0.77111233,-0.77111233,0.63669913,54.530266,63.699995)" /><path
       style="fill:#4d4d4d;fill-opacity:1;stroke:none;stroke-width:0.199022px;stroke-linecap:butt;stroke-linejoin:miter;stroke-opacity:1"
       d="m 15.702338,9.9085248 c 0.04092,-0.385006 0.08596,-0.7696999 0.134354,-1.1536373 l -1.732295,-0.226336 c -0.420421,3.1508205 -0.585948,6.4223465 -0.104788,9.5890895 -0.04865,1.622218 -0.803494,1.90563 -1.159408,1.941089 -0.179588,0.01789 -0.430887,-0.128294 1.683196,0.54195 0.09654,0.351555 0.202752,0.700991 0.319215,1.047977 l 1.636791,-0.552809 c -0.91033,-2.762124 -1.071447,-5.76847 -0.875611,-8.808781 0.294287,-1.301098 0.947455,-1.445557 1.193403,-1.492038 0.266186,-0.05031 0.08239,0.01551 -1.094857,-0.8865042 z m 1.16873,12.2152112 C 16.728164,21.78553 16.597866,21.442753 16.479403,21.095848 l -1.636791,0.552809 c 0.162221,0.483321 0.344327,0.961889 0.547867,1.434812 1.114629,2.533679 2.927962,4.668622 5.055601,6.375455 0.657853,0.758499 0.787816,1.306821 0.722392,1.698153 -0.138822,0.797134 -1.303088,0.984825 1.348822,-0.215919 0.301732,0.197451 0.604326,0.390612 0.906316,0.5817 l 0.930396,-1.470805 c -0.565114,-0.365388 -1.11919,-0.729566 -1.651592,-1.107602 -1.885501,-1.347245 -3.56401,-2.987802 -4.732715,-4.889311 -0.4333,-1.06989 -0.0094,-1.535954 0.20012,-1.721814 0.233099,-0.206791 0.223107,-0.08635 -0.715876,-0.148991 -0.163212,-0.01202 -0.358567,-0.03071 -0.582875,-0.0606 z m 8.479644,8.556936 c -0.334591,-0.211914 -0.667483,-0.42046 -0.996706,-0.628619 l -0.930396,1.470805 c 0.559853,0.354253 1.117631,0.701378 1.663996,1.055496 0.974486,0.636356 1.912589,1.277969 2.66097,2.065785 l 0,0 c 0.679895,0.714882 1.203581,1.576913 1.409166,2.500865 0.0431,0.178053 0.0757,0.35881 0.09888,0.541764 -0.115015,1.416077 -1.147159,1.374401 -1.500885,1.311297 -0.353725,-0.0631 -0.127864,-0.361677 1.394946,0.954687 -0.06046,0.330598 -0.136212,0.661705 -0.221857,0.990753 l 1.680472,0.452228 c 0.417323,-1.428761 0.621221,-3.02686 0.28522,-4.650691 0,0 0,0 0,0 -0.298508,-1.29262 -0.963548,-2.44171 -1.835802,-3.357151 -1e-6,-1e-6 -1e-6,-1e-6 -1e-6,-1e-6 -0.497683,-0.521435 -1.030716,-0.97796 -1.574143,-1.391162 -0.995012,-1.010989 -0.895838,-1.585429 -0.82725,-1.839831 0.06865,-0.254988 0.09595,-0.148035 -1.306607,0.523775 z"
       id="path3393-3-6-9"
       sodipodi:nodetypes="cc"
       inkscape:path-effect="#path-effect3449-5-5-2"
       inkscape:original-d="M 14.87563,7.8208987 C 10.904017,35.477296 33.155761,27.796246 29.57125,41.116353"
       class="UnoptimicedTransforms"
       transform="rotate(-50.45388,80.495036,5.0223306)" /><path
       style="fill:#999999;fill-opacity:1;stroke:none;stroke-width:0.199022px;stroke-linecap:butt;stroke-linejoin:miter;stroke-opacity:1"
       d="m 15.412295,10.437053 c 0.07389,-0.5335217 0.175046,-1.0642261 0.301914,-1.5885532 L 14.021197,8.4366253 c -0.762582,3.1251497 -0.676465,6.4805237 0.501098,9.5112407 0.572462,1.446425 1.336402,2.785276 2.211096,4.041798 1.100031,2.094092 0.597327,2.696664 0.279787,2.876447 -0.31754,0.179783 -0.338683,-0.03337 2.02673,0.035 0.274238,0.31207 0.551867,0.619502 0.831229,0.922816 0.07656,0.08358 0.153296,0.166928 0.23019,0.250068 l 1.277547,-1.181771 c -0.07454,-0.08169 -0.148821,-0.163487 -0.222839,-0.245412 0,-10e-7 0,-10e-7 0,-10e-7 -2.042129,-2.280865 -3.938409,-4.662249 -4.951536,-7.358125 0,0 0,0 0,0 -0.442966,-1.136627 -0.701228,-2.340071 -0.795329,-3.565894 0.06828,-1.82173 0.81103,-2.052514 1.055623,-2.127005 0.244592,-0.07449 0.05967,0.08726 -1.052498,-1.158732 z m 7.137262,15.695713 c -0.394965,-0.412108 -0.786049,-0.824853 -1.170683,-1.240544 l -1.277547,1.181771 c 2.151018,2.325742 4.424901,4.486251 6.403125,6.857877 0.906394,1.091563 1.755391,2.237248 2.479805,3.439005 0.893942,2.052273 0.02585,2.517869 -0.320773,2.617101 -0.34662,0.09923 -0.289043,-0.314023 1.839846,0.52312 0.168783,0.46734 0.314084,0.942171 0.432763,1.424584 l 1.688288,-0.422116 C 31.8002,37.203529 29.984208,34.292481 27.890513,31.774407 26.985332,30.677651 26.0361,29.636765 25.079305,28.620275 c -1.210436,-1.5897 -0.987259,-2.224734 -0.888417,-2.465959 0.09884,-0.241224 0.07015,-0.0726 -1.641331,-0.02155 z"
       id="path3393-3-6-2"
       sodipodi:nodetypes="cc"
       inkscape:path-effect="#path-effect3449-5-5-1"
       inkscape:original-d="M 14.87563,7.8208987 C 10.363165,23.221529 28.448942,28.245487 31.581494,40.774292"
       class="UnoptimicedTransforms"
       transform="matrix(-0.8263699,-0.5631277,-0.5631277,0.8263699,57.170216,58.015341)" /><path
       style="fill:#808080;fill-opacity:1;stroke:none;stroke-width:0.199022px;stroke-linecap:butt;stroke-linejoin:miter;stroke-opacity:1"
       d="M 14.806499,10.157728 C 14.996095,9.7832675 15.196414,9.4122051 15.405191,9.0446655 L 13.890604,8.1809947 c -1.086966,1.9019003 -1.969072,3.9587293 -2.383918,6.1560443 -0.263294,1.405774 -0.301572,2.860675 -0.08174,4.282421 -0.0033,0.774767 -0.07666,1.264083 -0.22823,1.62514 0,0 0,0 0,0 -0.276692,0.671011 -0.824377,0.700162 -0.915286,0.693485 -0.09091,-0.0067 0.307841,0.09054 1.951261,0.484008 0.162147,0.381452 0.341312,0.75367 0.535496,1.11705 l 1.51797,-0.813242 c -0.360224,-0.68523 -0.648543,-1.396233 -0.845295,-2.136338 -0.448659,-1.576969 -0.470586,-3.283432 -0.152073,-4.920527 0,0 0,0 0,0 0.138007,-0.72053 0.340262,-1.430655 0.593097,-2.129993 0.672064,-1.247713 1.371092,-1.168214 1.618574,-1.134063 0.291639,0.04024 0.04253,0.0462 -0.69396,-1.247252 z m 0.102414,12.603145 c -0.224797,-0.338136 -0.433281,-0.68295 -0.622757,-1.034972 l -1.51797,0.813242 c 1.312661,2.456413 3.311576,4.508937 5.378417,6.279507 0.622887,0.539397 1.257383,1.060651 1.897088,1.571396 1.189697,1.325583 0.739961,2.051755 0.484399,2.30686 -0.255562,0.255106 -0.303718,0.03355 1.708132,-0.594467 0.31445,0.24281 0.628406,0.485183 0.941121,0.72801 l 1.067866,-1.374786 c -1.681603,-1.331183 -3.36189,-2.61812 -4.92127,-3.995879 -0.976058,-0.878916 -1.92718,-1.793608 -2.775156,-2.757315 -0.789701,-1.214735 -0.37636,-1.76038 -0.226614,-1.957294 0.149746,-0.196913 0.09376,0.0017 -1.413256,0.0157 z m 10.379677,9.513093 c -0.347198,-0.275453 -0.695327,-0.547821 -1.043381,-0.818303 l -1.067866,1.374786 c 1.263071,0.980794 2.505889,1.969007 3.679194,3.023402 l 0,1e-6 c 1.226807,1.105176 2.378391,2.27291 3.274581,3.597585 l 0,0 c 0.113064,0.167526 0.222043,0.33779 0.326363,0.510543 0.600285,1.563103 -0.308951,1.958357 -0.654736,2.058001 -0.345785,0.09964 -0.258356,-0.304948 1.70058,0.303686 0.09909,0.352758 0.173459,0.710408 0.219426,1.071348 l 1.725302,-0.227663 c -0.224299,-1.726948 -0.908907,-3.332123 -1.843316,-4.717462 0,0 0,0 0,0 -1.011512,-1.505026 -2.248295,-2.793769 -3.527626,-3.955738 0,0 0,0 0,0 -0.201142,-0.183438 -0.403604,-0.364594 -0.607158,-0.543728 -1.018495,-1.173494 -0.833122,-1.783381 -0.747016,-2.020786 0.08174,-0.225376 0.06283,-0.100653 -1.434347,0.344328 z"
       id="path3393-3-6-2-0"
       sodipodi:nodetypes="cc"
       inkscape:path-effect="#path-effect3449-5-5-1-7"
       inkscape:original-d="M 14.87563,7.8208987 C 3.0298332,27.375279 30.770154,31.090687 32.382306,43.307977"
       class="UnoptimicedTransforms"
       transform="rotate(-34.272376,107.34592,-7.8534648)" /><path
       style="fill:#cccccc;fill-opacity:1;stroke:none;stroke-width:0.264583px;stroke-linecap:butt;stroke-linejoin:miter;stroke-opacity:1"
       d="m 48.230272,18.808323 c -0.19107,-0.259872 -0.35406,-0.537562 -0.484422,-0.83381 l -1.871856,0.925847 c 1.570554,3.024417 4.885463,4.582345 8.0575,4.98134 0.214645,0.03409 0.431946,0.06483 0.651345,0.09169 0,1e-6 0,1e-6 0,1e-6 0.850094,0.289533 1.474176,0.796216 1.661699,1.314614 0,1e-6 0,1e-6 0,1e-6 0.07168,0.198165 0.09748,0.399122 0.0819,0.599585 0,0 0,0 0,0 -0.0048,0.063 -0.01389,0.125959 -0.0286,0.188531 0,0 0,1e-6 0,1e-6 -0.0042,0.01763 -0.0088,0.03526 -0.01423,0.05279 -0.002,0.0066 -0.0021,0.01381 -0.0072,0.01996 0,0 0,0 0,10e-7 -3.99e-4,-0.0026 0.0011,-0.005 0.002,-0.0075 0.0021,-0.0067 0.0047,-0.01347 0.0072,-0.02018 0.01023,-0.02718 0.02168,-0.05429 0.03343,-0.08133 0.05038,-0.115946 0.107808,-0.23206 0.166051,-0.347481 0.284322,-0.563464 0.559387,-1.057434 0.843709,-1.620898 0.397696,-0.02411 0.794839,-0.06689 1.188426,-0.131224 l -0.319004,-2.076674 0,-10e-7 c -1.250159,0.150594 -2.63083,0.05805 -3.970438,-0.0998 -1.593768,-0.288475 -3.203996,-0.826944 -4.440041,-1.665086 -10e-7,0 -10e-7,0 -10e-7,-10e-7 -0.338321,-0.352854 -0.482005,-0.769014 -0.42695,-1.120919 0,0 0,-1e-6 0,-1e-6 0.0365,-0.233292 0.150659,-0.435386 0.284242,-0.612298 10e-7,-1e-6 10e-7,-1e-6 10e-7,-1e-6 0.01697,-0.02247 0.03416,-0.04401 0.05016,-0.06719 0.0066,-0.0096 0.02104,-0.02082 0.01359,-0.0309 -0.0079,-0.0108 -0.02429,0.0022 -0.03601,0.0069 -0.03396,0.01365 -0.06608,0.02981 -0.09896,0.0456 -0.422347,0.202836 -0.873851,0.376521 -1.343573,0.488428 z m 10.991197,2.851156 c -0.327354,0.08999 -0.669775,0.156723 -1.023222,0.204104 l 0.319004,2.076676 c 1.366566,-0.22338 2.690272,-0.706693 3.845511,-1.57132 1.617635,-1.22543 3.167244,-2.802743 3.971018,-4.811423 0,0 0,0 0,0 0.186898,-0.289257 0.382567,-0.550011 0.582454,-0.774301 0.337539,-0.413788 0.676139,-0.720184 1.008166,-0.833954 10e-7,0 10e-7,0 10e-7,0 0.198598,-0.06805 0.394997,-0.0859 0.587516,-0.05281 0,10e-7 0,10e-7 0,10e-7 0.06044,0.01032 0.120518,0.02582 0.179557,0.04844 0,0 0,0 0,0 0.01663,0.0064 0.03323,0.01339 0.04964,0.02139 0.0061,0.003 0.01315,0.0036 0.01858,0.01038 0,0 0,0 1e-6,0 -0.0025,3.03e-4 -0.0047,-0.0018 -0.007,-0.0031 -0.0063,-0.0032 -0.01256,-0.0068 -0.0188,-0.01038 -0.02524,-0.01461 -0.05038,-0.03069 -0.07539,-0.04701 -0.106389,-0.06941 -0.21554,-0.147706 -0.321873,-0.223144 -0.511998,-0.363218 -1.000232,-0.692663 -1.547674,-0.97678 -0.02879,-0.414119 -0.09588,-0.824142 -0.197827,-1.224755 l -2.020994,0.5223 -10e-7,0 c 0.185712,0.737406 0.203499,1.48939 -0.0035,2.161009 0,0 0,0 0,0 -0.40476,1.716753 -1.920593,3.152144 -3.554977,4.457994 0,0 0,0 0,10e-7 -0.02166,0.01805 -0.04351,0.03584 -0.06554,0.05337 0,1e-6 0,1e-6 -1e-6,1e-6 -0.406428,0.192417 -0.837013,0.16434 -1.140546,-0.01928 0,-10e-7 0,-10e-7 -10e-7,-10e-7 -0.20258,-0.122552 -0.350631,-0.304467 -0.468379,-0.49532 0,-1e-6 0,-1e-6 0,-1e-6 -0.01493,-0.02419 -0.02895,-0.04831 -0.04492,-0.0719 -0.0066,-0.0098 -0.01187,-0.02733 -0.02424,-0.02439 -0.01326,0.0031 -0.0071,0.02315 -0.007,0.03572 1.64e-4,0.03653 0.0034,0.07215 0.006,0.108573 0.033,0.467318 0.02387,0.954237 -0.04547,1.439879 z m 5.01176,-8.56578 c 0.139414,0.298416 0.253247,0.60751 0.336867,0.920127 l 2.020996,-0.5223 c -0.198125,-0.778552 -0.527899,-1.52156 -0.964051,-2.189999 l 0,0 C 64.444516,9.4956853 62.761358,8.144804 61.008461,7.0840111 l -10e-7,-2e-7 C 60.532025,6.7925296 60.046429,6.5185045 59.553178,6.260819 c 0,-2e-7 -1e-6,-4e-7 -1e-6,-6e-7 C 58.872398,5.6991099 58.523343,5.02394 58.562859,4.4856471 c 10e-7,-6e-7 10e-7,-6e-7 10e-7,-6e-7 0.01498,-0.2040681 0.07127,-0.3940644 0.161494,-0.5682789 0,-6e-7 0,-6e-7 0,-6e-7 0.02834,-0.054815 0.06014,-0.1080659 0.09648,-0.1589645 0,0 0,-6e-7 0,-6e-7 0.01028,-0.014325 0.02089,-0.028499 0.03215,-0.042297 0.0042,-0.00518 0.0071,-0.011639 0.01367,-0.015343 0,0 0,0 1e-6,-6e-7 -6.62e-4,0.00246 -0.0028,0.00405 -0.0046,0.00601 -0.0044,0.00528 -0.0091,0.010419 -0.01375,0.015542 -0.01897,0.020742 -0.03892,0.040954 -0.05913,0.061 -0.08668,0.085999 -0.179278,0.1691621 -0.272771,0.2512804 C 58.087887,4.4109987 57.609787,4.7890492 57.15672,5.1544844 56.806696,5.0122831 56.454227,4.8768457 56.09979,4.747819 l -0.714779,1.9638582 0,1.1e-6 c 1.58177,0.5974622 3.099692,1.3202795 4.499901,2.2055124 1.156166,0.7454546 2.239518,1.5623343 3.076624,2.5101183 10e-7,1e-6 10e-7,1e-6 10e-7,2e-6 0.252135,0.440011 0.308758,0.900578 0.181611,1.255166 0,0 0,10e-7 0,10e-7 -0.04733,0.132 -0.116699,0.248071 -0.197978,0.351538 -0.06573,0.07776 -0.138909,0.148891 -0.215085,0.21475 0,0 0,0 -1e-6,0 -0.02189,0.01893 -0.04375,0.03687 -0.06491,0.05667 -0.0088,0.0082 -0.02542,0.01651 -0.02074,0.02787 0.005,0.01216 0.02398,0.0025 0.03647,9.4e-5 0.03623,-0.0069 0.07122,-0.01668 0.10704,-0.02591 0.459694,-0.118472 0.949273,-0.199435 1.445293,-0.213788 z m -9.955037,-6.7618 c 0.371727,0.1201965 0.74088,0.2466309 1.106819,0.3797785 l 0.71478,-1.9638596 C 55.53024,4.5404826 54.955607,4.3497006 54.37787,4.1740063 51.805171,3.3774138 49.084914,2.8022716 46.350766,2.6944427 c 0,-1e-7 0,-3e-7 0,-5e-7 -0.854449,-0.2159168 -1.469246,-0.6718424 -1.670495,-1.1683681 0,-6e-7 0,-6e-7 0,-6e-7 -0.07661,-0.189021 -0.109599,-0.3833475 -0.104208,-0.57871603 0,-6.6e-7 0,-6.6e-7 0,-6.6e-7 0.0016,-0.0614325 0.0072,-0.12300456 0.01798,-0.18447414 0,0 0,-6.5e-7 0,-6.5e-7 0.0031,-0.0173255 0.0065,-0.0346593 0.01078,-0.0519493 0.0016,-0.006477 0.0013,-0.0135149 0.0058,-0.0197285 0,0 0,0 0,-6.5e-7 4.89e-4,0.002492 -8.15e-4,0.004873 -0.0015,0.007381 -0.0017,0.00665 -0.0037,0.0133046 -0.0058,0.0199436 -0.0082,0.0268863 -0.01763,0.0537384 -0.02731,0.0805487 -0.04152,0.11499625 -0.08967,0.2301455 -0.138924,0.3446847 -0.22333,0.5194035 -0.495532,1.0794317 -0.736085,1.6007888 -0.379118,0.03053 -0.757672,0.071611 -1.135302,0.1239015 l 0.285568,2.055442 0,1.2e-6 c 2.94941,-0.3744844 6.045784,0.06142 9.063899,0.8564361 10e-7,2e-7 10e-7,4e-7 2e-6,1.1e-6 0.503899,0.2383975 0.897409,0.5855588 1.072399,0.9461086 0,5e-7 0,1e-6 0,1.4e-6 0.117409,0.2419102 0.144438,0.4838618 0.132657,0.7150255 0,6e-7 0,6e-7 0,1.2e-6 -0.0015,0.028996 -0.0039,0.057768 -0.0034,0.087104 2.3e-4,0.012217 -0.0077,0.029324 0.0104,0.036168 0.01936,0.00736 0.02802,-0.012348 0.03822,-0.02193 0.02948,-0.02767 0.05451,-0.057531 0.08019,-0.087096 0.06692,-0.077047 0.134129,-0.1539631 0.201682,-0.2305503 0.265576,-0.3027088 0.540326,-0.6038858 0.830895,-0.8932706 z M 41.746316,5.1189028 C 42.111659,5.040473 42.48013,4.9757656 42.851249,4.9238939 L 42.565681,2.8684504 c -0.735409,0.1018319 -1.467315,0.246176 -2.193073,0.4378997 0,10e-8 0,2e-7 0,3e-7 -1.778067,0.4541383 -3.569987,1.3634615 -4.769944,2.9480803 0,3e-7 0,3e-7 0,4e-7 -0.535989,0.7609627 -0.872962,1.6086792 -1.045249,2.4830347 -10e-7,2e-7 -10e-7,3e-7 -10e-7,5e-7 -0.356822,0.8786703 -0.80452,1.5640717 -1.312279,1.8005787 0,0 0,0 0,0 -0.191317,0.08911 -0.387482,0.130223 -0.585727,0.125097 0,0 0,0 0,0 -0.06227,-0.0016 -0.124782,-0.0078 -0.187159,-0.0205 0,0 0,0 0,0 -0.01758,-0.0036 -0.03519,-0.0077 -0.05274,-0.01279 -0.0066,-0.0019 -0.01371,-0.0016 -0.02003,-0.0069 0,0 0,0 0,0 0.0025,-6.01e-4 0.0049,9.69e-4 0.0075,0.0018 0.0067,0.002 0.01351,0.0044 0.02025,0.0069 0.02729,0.0098 0.05463,0.02103 0.08189,0.0325 0.116425,0.04897 0.235238,0.105542 0.352189,0.161286 0.567136,0.270312 1.084775,0.519788 1.668804,0.749581 0.02618,0.158793 0.05669,0.316298 0.09132,0.472138 0.04762,0.229666 0.101158,0.458271 0.160527,0.685476 l 2.022538,-0.531016 1e-6,0 c -0.04864,-0.193694 -0.09248,-0.388418 -0.131451,-0.58383 0,0 0,0 0,0 -0.255091,-1.51354 -0.155374,-3.111427 0.670697,-4.0865802 0,0 0,-2e-7 0,-3e-7 0.509012,-0.7316819 1.343064,-1.2512792 2.300129,-1.6403181 0,-2e-7 10e-7,-4e-7 2e-6,-10e-8 0.488505,-0.08845 0.96902,-5.135e-4 1.275567,0.2153808 0,3e-7 1e-6,6e-7 1e-6,9e-7 0.112475,0.079214 0.203696,0.1728893 0.279542,0.2744285 0.06538,0.085034 0.120013,0.1758502 0.167221,0.2687831 0,6e-7 10e-7,5e-7 10e-7,1.1e-6 0.01306,0.025714 0.0252,0.051621 0.03989,0.076654 0.0061,0.010414 0.0085,0.02903 0.02536,0.026055 0.01807,-0.00315 0.01501,-0.024362 0.01803,-0.037628 0.0087,-0.038335 0.01314,-0.076235 0.01826,-0.1143475 0.0661,-0.4920009 0.152676,-0.9911135 0.278574,-1.4813372 z m -4.612559,8.1317732 c -0.125496,-0.344386 -0.23541,-0.694764 -0.329266,-1.049039 l -2.022539,0.531017 c 0.746684,2.85757 2.416263,5.493732 4.855273,7.234384 0.399729,0.28085 0.814429,0.536432 1.241375,0.767064 0,1e-6 0,1e-6 0,1e-6 0.692409,0.579604 1.106911,1.244616 1.110506,1.78862 0,0 0,0 0,0 0.0014,0.206297 -0.04091,0.399713 -0.121811,0.578205 0,0 0,0 0,0 -0.02538,0.05612 -0.05469,0.110761 -0.08921,0.163052 0,0 0,0 0,0 -0.0098,0.01472 -0.01993,0.02929 -0.03084,0.04349 -0.0041,0.0053 -0.0066,0.01193 -0.01338,0.01581 0,0 0,0 0,0 4.8e-4,-0.0025 0.0027,-0.0042 0.0044,-0.0062 0.0042,-0.0054 0.0089,-0.01073 0.01345,-0.01601 0.01861,-0.02138 0.03834,-0.04228 0.05832,-0.06301 0.08556,-0.08881 0.177833,-0.175707 0.270127,-0.261538 0.430493,-0.400355 0.881654,-0.795271 1.312213,-1.205866 0.373659,0.11143 0.751957,0.207022 1.133465,0.286941 l 0.426663,-2.047145 10e-7,-1e-6 C 43.467811,19.68397 42.063779,19.088867 40.877042,18.214 c -1.090068,-0.778317 -1.990761,-1.814508 -2.679979,-2.992899 0,-1e-6 0,-1e-6 0,-2e-6 -0.166954,-0.487739 -0.153083,-0.97319 0.01874,-1.316878 0,0 0,-10e-7 0,-10e-7 0.114592,-0.229213 0.289158,-0.395788 0.477075,-0.528427 0,-10e-7 0,-10e-7 10e-7,-10e-7 0.02368,-0.01672 0.04762,-0.03253 0.07046,-0.05067 0.0095,-0.0075 0.02746,-0.0129 0.0226,-0.02839 -0.0052,-0.0166 -0.02561,-0.01016 -0.03897,-0.01083 -0.03862,-0.0019 -0.0763,1.82e-4 -0.114335,0.0016 -0.490535,0.01831 -0.995744,0.01351 -1.498878,-0.03683 z m 8.909651,6.935535 c -0.366656,-0.04293 -0.730939,-0.10143 -1.090923,-0.175734 l -0.426663,2.047146 c 1.158619,0.24271 2.346839,0.340875 3.524604,0.299187 2.23359,-0.07543 4.440464,-0.628134 6.450159,-1.594358 0,0 10e-7,0 10e-7,0 0.878345,-0.218143 1.641306,-0.132439 2.070779,0.198016 0,0 0,0 0,0 0.16317,0.12555 0.290144,0.277717 0.382816,0.450805 1e-6,10e-7 1e-6,10e-7 1e-6,10e-7 0.02918,0.05439 0.05488,0.110927 0.07574,0.170094 0,0 0,10e-7 0,10e-7 0.0058,0.0167 0.01134,0.0336 0.01611,0.05087 0.0018,0.0065 0.0055,0.01248 0.0046,0.02018 0,0 0,0 10e-7,10e-7 -0.0017,-0.0019 -0.0017,-0.0047 -0.0023,-0.0072 -0.0018,-0.0067 -0.0033,-0.01353 -0.0047,-0.02037 -0.0059,-0.0277 -0.01078,-0.05598 -0.01536,-0.08436 -0.01966,-0.121637 -0.03366,-0.247095 -0.04662,-0.372247 -0.0525,-0.506987 -0.08841,-1.02435 -0.135613,-1.539416 0,0 0,0 0,0 -0.007,-0.07767 -0.01433,-0.155202 -0.02198,-0.232688 0.316389,-0.224421 0.623849,-0.46055 0.921888,-0.707573 l -1.330815,-1.606637 -10e-7,-1e-6 c -0.286635,0.231035 -0.582486,0.449795 -0.886862,0.655224 -2.128904,1.443475 -4.669177,2.290092 -7.216499,2.404556 -10e-7,0 -10e-7,0 -2e-6,-1e-6 -0.116889,-0.01773 -0.230017,-0.0434 -0.337817,-0.07625 0,0 0,0 0,0 -0.367929,-0.113848 -0.666035,-0.308895 -0.845008,-0.548007 -10e-7,0 -10e-7,-1e-6 -10e-7,-1e-6 -0.154745,-0.206742 -0.225562,-0.437925 -0.259534,-0.665757 0,0 0,0 0,-10e-7 -0.0043,-0.0287 -0.0076,-0.05723 -0.0136,-0.08583 -0.0025,-0.01189 9.52e-4,-0.03034 -0.01546,-0.03305 -0.01757,-0.0029 -0.02116,0.01821 -0.02795,0.02981 -0.01963,0.03354 -0.03515,0.0681 -0.05143,0.102642 -0.209964,0.445632 -0.444746,0.894202 -0.717557,1.320965 z M 57.240579,16.33923 c -0.265103,0.258969 -0.540474,0.506893 -0.825449,0.742677 l 1.330815,1.606638 c 2.268653,-1.880324 3.991421,-4.39187 4.950873,-7.175746 0.147876,-0.420557 0.290581,-0.848208 0.423107,-1.282231 10e-7,0 10e-7,-10e-7 10e-7,-10e-7 0.4264,-0.770362 1.03429,-1.2585198 1.566599,-1.3306174 0,1e-7 0,1e-7 0,1e-7 0.203799,-0.027603 0.40152,-0.011092 0.590722,0.043893 0,2e-7 0,2e-7 0,2e-7 0.05949,0.017237 0.118126,0.038384 0.175338,0.064725 0,0 0,10e-8 0,10e-8 0.01611,0.00747 0.03214,0.015311 0.04793,0.023915 0.0059,0.0032 0.01284,0.00476 0.01778,0.01074 0,0 0,0 10e-7,10e-8 -0.0026,-1.476e-4 -0.0045,-0.00205 -0.0068,-0.00341 -0.0061,-0.00336 -0.01203,-0.00708 -0.01799,-0.010784 -0.02413,-0.015023 -0.04794,-0.031168 -0.07164,-0.047598 C 65.32022,8.9109649 65.220098,8.8339082 65.120793,8.7559495 64.658341,8.392916 64.203936,8.0008 63.741587,7.6265701 63.803461,7.2444767 63.851347,6.858899 63.882299,6.4702616 l -2.071286,-0.1682207 -1e-6,-10e-8 c -0.143255,1.4702362 -0.615502,2.983912 -1.143626,4.5113722 -0.479881,1.336769 -1.166226,2.60103 -2.0193,3.732104 0,10e-7 0,10e-7 -10e-7,2e-6 -0.392967,0.351615 -0.848879,0.53972 -1.23568,0.525588 -10e-7,0 -10e-7,0 -2e-6,0 -0.25812,-0.0094 -0.481846,-0.0994 -0.67964,-0.216099 -10e-7,-10e-7 -10e-7,-10e-7 -10e-7,-10e-7 -0.02491,-0.01469 -0.04911,-0.03002 -0.07502,-0.04331 -0.01078,-0.0055 -0.02284,-0.01984 -0.03543,-0.0086 -0.0135,0.01199 5.45e-4,0.02811 0.0052,0.04076 0.01338,0.03655 0.03018,0.0705 0.04649,0.105017 0.210457,0.445411 0.408229,0.910358 0.566611,1.390382 z M 61.838945,5.2331982 c 0.01299,0.3528341 0.0024,0.7093054 -0.02793,1.0688427 L 63.8823,6.4702617 c 0.04791,-0.6016137 0.05525,-1.2105597 0.01109,-1.8252631 -0.11513,-1.6168743 -0.791572,-3.2391623 -2.07585,-4.37066134 l 0,-3.8e-7 c -1.076022,-0.89442499 -2.349368,-1.40326878 -3.624422,-1.69309768 0,-2e-7 0,-4e-7 0,-6e-7 -0.400141,-0.1815356 -0.728186,-0.3916897 -0.978411,-0.6203752 -0.273437,-0.2558856 -0.45389,-0.5371974 -0.518581,-0.8124091 0,-6e-7 0,-6e-7 0,-6e-7 -0.04687,-0.1994206 -0.04948,-0.397347 -0.01374,-0.5901155 0,-6e-7 0,-6e-7 0,-6e-7 0.01119,-0.06063 0.02629,-0.1207897 0.04661,-0.1800021 0,0 1e-6,-7e-7 1e-6,-7e-7 0.0058,-0.016682 0.01192,-0.033315 0.01883,-0.04978 0.0026,-0.00617 0.0034,-0.013184 0.0088,-0.018639 0,0 0,0 0,-6e-7 1e-4,0.00255 -0.0016,0.0047 -0.0027,0.00707 -0.0027,0.00632 -0.0058,0.012597 -0.0088,0.018854 -0.0124,0.025339 -0.02593,0.050469 -0.03974,0.075506 -0.05922,0.1073484 -0.125052,0.2139732 -0.191701,0.3196943 -0.298511,0.4735249 -0.661313,0.9985415 -0.976689,1.4716353 -0.378922,-0.029824 -0.757544,-0.050488 -1.135553,-0.063502 l -0.07001,2.08661463 0,1.2e-6 c 0.844991,0.0374382 1.675878,0.11598791 2.487476,0.25676822 0,5e-8 0,1e-7 0,1.5e-7 1.411483,0.27314462 2.745602,0.6442373 3.585499,1.4437477 0.415507,0.3369654 0.723931,0.8187065 0.935171,1.3686214 0,5e-7 0,1.1e-6 0,1.8e-6 0.06091,0.4467027 -0.08306,0.8613217 -0.343752,1.1074323 0,3e-7 -10e-7,6e-7 -10e-7,8e-7 -0.173595,0.1638825 -0.389761,0.2579563 -0.607403,0.3209714 0,10e-8 0,2e-7 -10e-7,3e-7 -0.02762,0.008 -0.05483,0.015127 -0.08206,0.024187 -0.01126,0.00375 -0.03002,0.0044 -0.02981,0.016413 1.85e-4,0.012848 0.02162,0.011941 0.03423,0.014875 0.03662,0.00852 0.073,0.014067 0.110026,0.020424 0.142201,0.024417 0.284571,0.05307 0.426184,0.086206 0.334454,0.093935 0.667489,0.2081251 0.99196,0.34776 z M 53.164793,0.2124488 c 0.391331,-0.002798 0.780352,9.7169e-4 1.166639,0.0133399 l 0.07001,-2.08661609 c -1.241563,-0.042744 -2.476501,-0.00295 -3.693658,0.065915 -1.839742,0.1061737 -3.590965,0.97154018 -4.786396,2.38010042 l -10e-7,4.2e-7 c -0.292356,0.35316121 -0.551979,0.72536296 -0.78194,1.11175626 0,0 -1e-6,2e-7 -1e-6,2e-7 -0.619473,0.6879512 -1.28381,1.1194943 -1.837157,1.1298253 -10e-7,-2e-7 -10e-7,-2e-7 -10e-7,-2e-7 -0.208245,0.00389 -0.403161,-0.036782 -0.582471,-0.1176013 0,-2e-7 0,-2e-7 0,-2e-7 -0.05637,-0.025349 -0.111206,-0.054796 -0.16355,-0.089677 0,0 -10e-7,-2e-7 -10e-7,-2e-7 -0.01473,-0.00988 -0.02931,-0.020157 -0.0435,-0.031225 -0.0053,-0.00412 -0.01196,-0.00661 -0.01577,-0.013597 0,0 0,0 0,-2e-7 0.0025,4.575e-4 0.0042,0.00273 0.0062,0.00445 0.0054,0.00431 0.01071,0.009 0.01598,0.013667 0.02132,0.018915 0.04216,0.038996 0.06283,0.059313 0.08842,0.086911 0.175404,0.1809618 0.261179,0.2744284 0.425871,0.464042 0.775112,0.8624841 1.219957,1.3175686 -0.107158,0.3789435 -0.195754,0.7611739 -0.267974,1.14324 l 2.056562,0.398654 1e-6,2e-7 c 0.315995,-1.4612181 0.825819,-2.8374561 1.710893,-3.8187406 0.781583,-0.9175947 1.994738,-1.50025433 3.192579,-1.56012201 10e-7,-3e-8 10e-7,-7e-8 2e-6,4.9e-7 0.0251,0.004621 0.04993,0.009891 0.07446,0.0157936 0.51989,0.0881227 0.964691,0.28906045 1.228993,0.56307541 0,3.9e-7 10e-7,7.8e-7 10e-7,1.17e-6 0.187814,0.19471686 0.289074,0.41736516 0.349982,0.64141246 0,6e-7 0,6e-7 0,1.2e-6 0.0076,0.028114 0.01427,0.056293 0.02394,0.084137 0.004,0.011592 0.0018,0.030283 0.02115,0.031424 0.02069,0.00125 0.02276,-0.020135 0.02946,-0.032327 0.01936,-0.035193 0.03382,-0.071194 0.04896,-0.1070812 0.196094,-0.4646663 0.400569,-0.93365235 0.632676,-1.39112021 z m -7.490999,6.683196 c 0.03064,-0.2523101 0.06718,-0.5037965 0.109765,-0.7542572 0.02152,-0.1188699 0.0442,-0.2373883 0.06814,-0.3553969 L 43.795133,5.3873364 c -0.02587,0.1368339 -0.04963,0.2736468 -0.07139,0.4102801 -0.528957,3.2024356 -0.216977,6.4918415 0.737076,9.5750675 -10e-7,1e-6 -10e-7,1e-6 -10e-7,1e-6 0.08249,0.891311 -0.14512,1.617275 -0.55135,1.974318 -10e-7,10e-7 -10e-7,10e-7 -10e-7,10e-7 -0.154314,0.135629 -0.328224,0.231766 -0.515632,0.29216 0,0 0,0 0,0 -0.05892,0.01904 -0.119251,0.03446 -0.181199,0.04492 0,0 0,10e-7 0,10e-7 -0.01748,0.0029 -0.03508,0.0055 -0.0529,0.0073 -0.0067,6.99e-4 -0.01328,0.0033 -0.02063,0.0012 0,0 0,0 0,0 0.0022,-0.0013 0.0049,-8.67e-4 0.0075,-0.001 0.0069,-6.49e-4 0.01386,-9.65e-4 0.02084,-0.0013 0.02825,-0.0013 0.05684,-0.0014 0.08549,-0.0013 0.122893,5.02e-4 0.248118,0.0072 0.373157,0.01523 0.569536,0.03647 1.186645,0.105872 1.76454,0.16205 0.153006,0.348917 0.314242,0.693815 0.483379,1.034205 l 1.871852,-0.925851 1e-6,0 c -1.3061,-2.747636 -2.069116,-5.779521 -2.078846,-8.7611303 0,-7e-7 0,-1.4e-6 1e-6,-2e-6 0.100014,-0.5264331 0.344241,-0.963493 0.657435,-1.1973303 0,-3e-7 10e-7,-5e-7 10e-7,-8e-7 0.209148,-0.156154 0.440328,-0.2268773 0.667967,-0.2597514 0,-1e-7 0,-2e-7 10e-7,-2e-7 0.02864,-0.00414 0.05715,-0.00732 0.08572,-0.013261 0.01189,-0.00248 0.0302,0.00136 0.0332,-0.015892 0.0032,-0.018458 -0.01775,-0.022465 -0.02918,-0.029729 -0.03303,-0.020986 -0.06721,-0.037657 -0.101311,-0.055054 -0.440368,-0.2246646 -0.883396,-0.46895 -1.307061,-0.746762 z"
       id="path3640"
       sodipodi:nodetypes="ssssss"
       inkscape:path-effect="#path-effect3642"
       inkscape:original-d="m 46.58964,18.546391 c 2.667925,5.393946 12.111101,5.660854 15.282762,3.192476 C 80.199946,7.4752626 31.76151,-5.5156184 35.402895,11.883628 38.218376,25.336543 57.396779,24.441637 61.941984,11.252667 65.664897,0.44977049 60.233383,-1.5186413 50.751577,-0.99771398 43.606956,-0.60519085 42.642631,10.566423 46.58964,18.546391 Z"
       class="UnoptimicedTransforms"
       transform="translate(-9.4597111,36.663248)" /></g></svg>
