<?xml version="1.0" encoding="UTF-8" standalone="no"?>
<!-- Created with Inkscape (http://www.inkscape.org/) -->

<svg
   width="75"
   height="100"
   viewBox="0 0 19.84375 26.458333"
   version="1.1"
   id="svg5"
   xml:space="preserve"
   inkscape:version="1.2.2 (b0a8486541, 2022-12-01)"
   sodipodi:docname="hagalaz.svg"
   xmlns:inkscape="http://www.inkscape.org/namespaces/inkscape"
   xmlns:sodipodi="http://sodipodi.sourceforge.net/DTD/sodipodi-0.dtd"
   xmlns="http://www.w3.org/2000/svg"
   xmlns:svg="http://www.w3.org/2000/svg"><sodipodi:namedview
     id="namedview7"
     pagecolor="#ffffff"
     bordercolor="#999999"
     borderopacity="1"
     inkscape:showpageshadow="0"
     inkscape:pageopacity="0"
     inkscape:pagecheckerboard="0"
     inkscape:deskcolor="#d1d1d1"
     inkscape:document-units="mm"
     showgrid="false"
     inkscape:zoom="1.6819304"
     inkscape:cx="303.22301"
     inkscape:cy="212.25611"
     inkscape:window-width="1280"
     inkscape:window-height="955"
     inkscape:window-x="0"
     inkscape:window-y="0"
     inkscape:window-maximized="1"
     inkscape:current-layer="layer1" /><defs
     id="defs2" /><g
     inkscape:label="Warstwa 1"
     inkscape:groupmode="layer"
     id="layer1"><path
       style="fill:#000000;stroke-width:0.0314423"
       d="m 17.745899,26.379877 c -0.08718,-0.04565 -0.207875,-0.08363 -0.26822,-0.08438 -0.348562,-0.0044 -0.434591,-0.09385 -0.77645,-0.80754 -0.127273,-0.265702 -0.140506,-0.335305 -0.150686,-0.792558 -0.0051,-0.227548 -0.0235,-0.414003 -0.04579,-0.463113 -0.02301,-0.0507 -0.0392,-0.226835 -0.04226,-0.459562 -0.0033,-0.253985 -0.01969,-0.418534 -0.05002,-0.503321 -0.03326,-0.093 -0.05036,-0.312998 -0.0653,-0.840464 -0.01862,-0.657204 -0.02505,-0.720759 -0.0802,-0.7926 -0.05361,-0.06983 -0.05654,-0.09335 -0.02768,-0.222077 0.03916,-0.174652 0.02961,-0.197236 -0.08344,-0.197236 -0.06308,0 -0.109628,-0.03029 -0.164007,-0.106722 -0.217477,-0.305659 -0.390942,-0.508561 -0.466722,-0.545925 -0.04659,-0.02297 -0.08472,-0.05633 -0.08472,-0.07413 0,-0.107954 -0.132889,-0.380054 -0.208276,-0.42646 -0.04658,-0.02867 -0.139066,-0.113042 -0.205523,-0.187486 -0.167875,-0.188048 -0.665799,-0.513851 -0.820647,-0.536967 -0.09163,-0.01368 -0.132614,-0.03872 -0.153753,-0.09395 -0.01585,-0.04142 -0.06653,-0.101817 -0.112615,-0.134222 -0.04609,-0.03241 -0.09675,-0.08773 -0.112579,-0.122947 -0.01583,-0.03521 -0.07104,-0.0746 -0.122687,-0.08752 -0.101852,-0.02548 -0.2533,-0.178536 -0.338688,-0.342287 -0.108592,-0.208255 -0.305575,-0.430527 -0.412762,-0.465758 -0.07064,-0.02322 -0.120299,-0.06765 -0.148725,-0.133087 -0.02915,-0.06711 -0.112467,-0.139848 -0.262961,-0.229584 -0.121158,-0.07224 -0.225936,-0.148876 -0.232841,-0.170294 -0.01161,-0.03602 -0.235606,-0.223187 -0.369402,-0.308666 -0.0317,-0.02025 -0.07339,-0.07497 -0.09266,-0.121598 -0.04636,-0.112231 -0.1062,-0.170692 -0.296394,-0.289569 -0.181533,-0.113464 -0.191433,-0.125832 -0.229849,-0.287138 -0.02058,-0.0864 -0.1566,-0.270653 -0.497224,-0.673537 C 10.564923,15.574149 10.295562,15.23887 10.224235,15.134115 10.072035,14.91058 9.6769796,14.495986 9.5325894,14.40826 9.4771244,14.374555 9.3378051,14.247394 9.2230008,14.125681 9.1042621,13.999796 8.9551601,13.87778 8.8771778,13.842679 8.5512153,13.695963 8.4661685,13.632516 8.3500365,13.449419 8.2682505,13.320472 8.2080708,13.260319 8.1460905,13.245563 8.062009,13.225545 8.0011888,13.179502 7.7952205,12.979939 7.7442905,12.930591 7.6507472,12.858151 7.5873462,12.818962 7.5239447,12.77977 7.415356,12.67796 7.3460382,12.592716 7.2668732,12.495362 7.1701297,12.418007 7.0858857,12.384699 7.0121192,12.355534 6.9067289,12.296086 6.8516859,12.252593 6.7966422,12.209102 6.6902499,12.146286 6.6152594,12.113003 6.4799332,12.052942 6.1202589,11.783689 5.9078604,11.583443 5.8469779,11.526043 5.7590311,11.468378 5.7124236,11.455298 5.6658151,11.442219 5.5693241,11.374234 5.4979984,11.30422 5.4266719,11.234205 5.3034728,11.133974 5.2242213,11.081482 5.1449698,11.02899 4.9958333,10.89755 4.8928071,10.789392 4.7897801,10.681234 4.6893356,10.586595 4.6695966,10.579079 4.6259061,10.562448 4.4353048,10.390239 4.177428,10.1344 4.071604,10.029414 3.9169383,9.8996038 3.8337243,9.8459345 3.7505105,9.792265 3.6824265,9.7356833 3.6824265,9.7201973 c 0,-0.015485 -0.055115,-0.061383 -0.1224793,-0.1019948 C 3.492584,9.5775898 3.3891267,9.4927243 3.330043,9.4296123 3.16152,9.2495968 3.1269927,9.2923495 3.1502117,9.6522895 c 0.010487,0.1626045 0.02308,0.7819115 0.027984,1.3762415 0.01329,1.611387 0.029232,2.032511 0.119462,3.156031 0.025001,0.311315 0.049456,0.936252 0.054344,1.38875 0.00489,0.452498 0.023432,1.062264 0.04121,1.355035 0.01778,0.292772 0.032165,0.609498 0.031969,0.703836 -6.25e-4,0.318975 0.023508,0.993591 0.043107,1.20313 0.013583,0.145197 0.00615,0.2647 -0.024522,0.394504 -0.035448,0.149997 -0.041069,0.319637 -0.028903,0.872303 0.018267,0.829805 0.01814,0.761822 0.00466,2.504242 -0.00598,0.77357 -0.00439,1.630329 0.00353,1.903911 0.014172,0.489264 0.01317,0.499946 -0.061142,0.651789 -0.041553,0.0849 -0.099911,0.204847 -0.1296833,0.266542 -0.052977,0.10978 -0.1712012,0.198123 -0.6016853,0.449608 -0.095102,0.05556 -0.2118176,0.150087 -0.2593677,0.210065 -0.1896405,0.2392 -0.4319661,0.277822 -0.652441,0.103985 -0.089538,-0.0706 -0.1816985,-0.108883 -0.3003308,-0.124763 -0.1882838,-0.0252 -0.2537961,-0.05531 -0.3519172,-0.161725 -0.044528,-0.04829 -0.10910006,-0.07281 -0.20172979,-0.07659 -0.12275978,-0.005 -0.15236306,-0.02388 -0.29917347,-0.190547 C 0.46495086,25.524384 0.3670959,25.368389 0.30966357,25.230669 0.25851987,25.108032 0.18099756,24.959065 0.13739091,24.899634 0.03762825,24.763671 -0.03378943,24.288563 0.01659296,24.096019 c 0.02928307,-0.111912 0.06394289,-0.502096 0.07747363,-0.872172 0.02361407,-0.645853 0.05814039,-1.082694 0.09489553,-1.200666 0.082422,-0.264546 0.1012266,-3.567186 0.0211877,-3.721344 -0.0107211,-0.02065 0.0102168,-0.102583 0.0465282,-0.182076 0.0636092,-0.139253 0.0660202,-0.174601 0.0660093,-0.967844 -6.15e-6,-0.452821 -0.0156782,-1.016277 -0.0348256,-1.252121 -0.0191483,-0.235844 -0.0328622,-0.729832 -0.0304764,-1.097749 0.008623,-1.329759 8.208e-5,-1.90799 -0.031308,-2.126891 -0.0318231,-0.221706 -0.0920326,-1.164616 -0.0952879,-1.492254 -9.38e-4,-0.09434 0.0153798,-0.287302 0.0362609,-0.428809 0.044422,-0.301044 0.044441,-0.68516 8.118e-5,-1.7666915 C 0.1456903,8.4645888 0.1192296,8.137154 0.08870357,8.0168765 0.04935896,7.8618563 0.04793202,7.8071835 0.07892526,7.6423285 0.10480603,7.5046638 0.10871705,7.3353343 0.09256244,7.051989 0.05844742,6.45368 0.07542194,5.726991 0.12864109,5.5073693 0.16394944,5.3616565 0.16899968,5.2522815 0.15160844,5.0099508 0.13934681,4.8391013 0.12731699,4.4677588 0.1248762,4.1847458 0.1224317,3.9017325 0.10656312,3.5698345 0.08960393,3.447196 0.06624512,3.2782625 0.06820242,3.1369065 0.09768575,2.8640153 0.11908543,2.665906 0.1325855,2.3185718 0.1276859,2.0921601 0.1227881,1.8657492 0.13059932,1.6419108 0.14506362,1.5947414 0.1595216,1.5475731 0.1803359,1.4473773 0.19131761,1.3720828 l 0.0199673,-0.1368974 0.21538864,-7.85e-4 C 0.62319167,1.2336175 0.65797507,1.2223698 0.82372093,1.1054377 1.0211221,0.9661728 1.0816681,0.94970005 1.1070257,1.0283616 c 0.027826,0.086317 0.2247891,0.1293313 0.3971574,0.086737 0.1837577,-0.045411 0.3492889,-0.00865 0.5016871,0.1113955 0.1410746,0.1111308 0.1786849,0.1228235 0.463431,0.1440724 0.3062052,0.022851 0.4625002,0.118794 0.5324312,0.3268408 0.025674,0.076381 0.046681,0.1781106 0.046681,0.2260629 0,0.047954 0.032208,0.2213103 0.071574,0.3852353 0.063143,0.2629322 0.084874,0.391745 0.1509588,0.894809 0.00841,0.064074 -5.78e-5,0.198172 -0.018817,0.2979935 -0.028322,0.1506487 -0.026493,0.2120742 0.010765,0.3614167 0.024687,0.098957 0.044885,0.2520863 0.044885,0.3402865 0,0.1262788 0.030476,0.2288608 0.143374,0.4826158 0.1887112,0.4241505 0.2537185,0.5171517 0.3617947,0.5175857 0.2320061,9.75e-4 0.3185538,0.031184 0.4267273,0.1491505 0.060388,0.065854 0.1769305,0.1727495 0.2589838,0.237545 0.082052,0.064795 0.201864,0.1625373 0.2662498,0.2172033 0.064386,0.054667 0.1811005,0.1431992 0.2593677,0.1967382 0.078266,0.05354 0.1904678,0.1479718 0.2493368,0.2098498 0.05887,0.061877 0.1714258,0.1513447 0.2501235,0.198815 0.078699,0.047473 0.1510813,0.1017047 0.1608488,0.1205195 0.020885,0.040226 0.4037755,0.3922977 0.5611373,0.5159717 0.060017,0.047169 0.2067322,0.20154 0.3260347,0.343047 0.2493123,0.295717 0.5455833,0.592217 0.7212601,0.7218215 0.3440905,0.2538503 0.5654478,0.4045343 0.628061,0.4275383 0.154075,0.056608 0.6308466,0.468145 0.7385791,0.6375235 0.19075,0.2998992 0.3319887,0.4922875 0.41331,0.5629882 0.043404,0.037735 0.1593622,0.1440023 0.2576855,0.2361468 0.098324,0.092147 0.2326158,0.192915 0.2984258,0.223928 0.202453,0.09541 0.3440355,0.20037 0.4942969,0.366448 0.07925,0.08759 0.228388,0.224676 0.331414,0.304628 0.103027,0.07996 0.24639,0.220927 0.318587,0.313271 0.122033,0.156092 0.497566,0.505317 0.936772,0.871145 0.162674,0.135496 0.557148,0.530685 1.030813,1.032681 0.156265,0.165611 0.543367,0.514073 0.70108,0.631096 0.05086,0.03773 0.219778,0.208083 0.375383,0.378549 0.258555,0.283251 0.624735,0.650037 0.820757,0.822115 0.04299,0.03774 0.153536,0.134378 0.245665,0.214763 0.09213,0.08038 0.219382,0.215885 0.282783,0.301112 0.21319,0.286585 0.374075,0.468569 0.461098,0.521566 0.04755,0.02896 0.147806,0.113454 0.22279,0.187765 0.202568,0.200754 0.234374,0.176454 0.257108,-0.196432 0.01034,-0.169607 0.02135,-0.431873 0.02448,-0.582813 0.0031,-0.15094 0.01809,-0.354415 0.03326,-0.452165 0.01826,-0.117661 0.01734,-0.245195 -0.0027,-0.377352 -0.03886,-0.255986 -0.08063,-0.904524 -0.104536,-1.623268 -0.01035,-0.311315 -0.02313,-0.612338 -0.02838,-0.668941 -0.0053,-0.0566 -0.01773,-0.226411 -0.02772,-0.377352 -0.01,-0.150941 -0.04415,-0.412497 -0.07591,-0.581235 -0.03664,-0.194715 -0.05059,-0.351373 -0.03819,-0.42881 0.03994,-0.249284 0.01433,-0.832965 -0.04749,-1.0825413 C 15.80772,9.644356 15.7705,9.4205175 15.75772,9.2790105 15.74494,9.1375035 15.72469,8.9765223 15.71273,8.9212743 15.70076,8.8660263 15.68881,8.7039368 15.68615,8.5610755 15.68345,8.4182133 15.66615,8.1160815 15.6476,7.8896708 15.62905,7.6632608 15.60668,7.1075253 15.5979,6.6547025 15.5891,6.201881 15.57406,5.777361 15.56444,5.7113238 15.55484,5.6452868 15.54472,5.1976108 15.54199,4.7164875 15.53929,4.2353653 15.52047,3.6954988 15.50024,3.5167865 15.43548,2.9448523 15.44506,2.5239053 15.5341,2.0293754 c 0.04359,-0.2420859 0.07925,-0.5312422 0.07925,-0.64257 0,-0.2155021 0.124764,-0.91356897 0.190916,-1.0681895 0.0218,-0.0509489 0.03963,-0.12339971 0.03963,-0.1610019 0,-0.14226842 0.08603,-0.16611914 0.560382,-0.15535354 0.338874,0.00769252 0.465203,0.02314713 0.533671,0.06529427 0.06846,0.04214126 0.130451,0.04972893 0.261781,0.032043 0.170242,-0.02292762 0.173125,-0.0218536 0.270205,0.1006769 0.05397,0.0681184 0.128482,0.18935347 0.165581,0.26941147 0.0508,0.10961295 0.09727,0.1586716 0.1882,0.1986531 0.06641,0.0292031 0.162797,0.0913635 0.21419,0.138136 0.0514,0.0467725 0.159103,0.12385538 0.239349,0.17129518 0.123771,0.07317 0.158943,0.11731332 0.231853,0.29099072 l 0.08595,0.2047355 0.01344,1.2184159 c 0.017,1.541783 0.0177,1.977347 0.0034,2.1274903 -0.0063,0.066035 0.0053,0.2435625 0.02573,0.3945025 0.02042,0.1509407 0.04163,0.6217727 0.04713,1.0462927 0.01074,0.8297363 0.04591,1.3838885 0.112132,1.7666915 0.06636,0.3836048 0.103773,0.9400225 0.116486,1.7323868 0.0065,0.4056537 0.02498,0.8070187 0.04104,0.8919227 0.08189,0.43279 0.190106,1.665013 0.216914,2.469937 0.0091,0.27358 0.02949,0.667226 0.04528,0.87477 0.01579,0.207543 0.04119,0.80959 0.05645,1.337882 0.03059,1.059377 0.08817,1.924667 0.163817,2.461888 0.03341,0.237254 0.05186,0.589232 0.05689,1.085519 0.0058,0.575458 0.01738,0.763936 0.05329,0.870785 0.04009,0.119272 0.04156,0.188459 0.01171,0.552004 -0.02258,0.274983 -0.02806,0.72047 -0.01619,1.316415 0.01614,0.810264 0.02378,0.914397 0.07605,1.03635 0.03196,0.07456 0.05811,0.19682 0.05811,0.271677 0,0.223326 0.05908,0.667772 0.09855,0.741401 0.02398,0.04473 0.04387,0.281514 0.05715,0.680436 0.02025,0.608129 0.01991,0.613277 -0.05671,0.851936 -0.06626,0.20641 -0.111986,0.280978 -0.325792,0.531268 -0.136792,0.160137 -0.283603,0.313125 -0.326247,0.339975 -0.04264,0.02685 -0.100231,0.09455 -0.127971,0.150455 -0.07642,0.153992 -0.171325,0.184972 -0.48177,0.157267 -0.208671,-0.01862 -0.304431,-0.0118 -0.423241,0.03021 -0.186005,0.06575 -0.153484,0.06872 -0.344822,-0.03148 z"
       id="path994" /></g></svg>
