<?xml version="1.0" encoding="UTF-8" standalone="no"?>
<!-- Created with Inkscape (http://www.inkscape.org/) -->

<svg
   width="75"
   height="100"
   viewBox="0 0 19.84375 26.458333"
   version="1.1"
   id="svg5"
   xml:space="preserve"
   inkscape:version="1.2.2 (b0a8486541, 2022-12-01)"
   sodipodi:docname="naudiz.svg"
   xmlns:inkscape="http://www.inkscape.org/namespaces/inkscape"
   xmlns:sodipodi="http://sodipodi.sourceforge.net/DTD/sodipodi-0.dtd"
   xmlns="http://www.w3.org/2000/svg"
   xmlns:svg="http://www.w3.org/2000/svg"><sodipodi:namedview
     id="namedview7"
     pagecolor="#ffffff"
     bordercolor="#999999"
     borderopacity="1"
     inkscape:showpageshadow="0"
     inkscape:pageopacity="0"
     inkscape:pagecheckerboard="0"
     inkscape:deskcolor="#d1d1d1"
     inkscape:document-units="mm"
     showgrid="false"
     inkscape:zoom="1"
     inkscape:cx="147"
     inkscape:cy="213"
     inkscape:window-width="1280"
     inkscape:window-height="955"
     inkscape:window-x="0"
     inkscape:window-y="0"
     inkscape:window-maximized="1"
     inkscape:current-layer="layer1" /><defs
     id="defs2" /><g
     inkscape:label="Warstwa 1"
     inkscape:groupmode="layer"
     id="layer1"><path
       style="fill:#000000;stroke-width:0.033693"
       d="m 9.4499127,26.391049 c -0.090957,-0.06286 -0.119638,-0.06662 -0.2403455,-0.03156 -0.184189,0.05351 -0.3198502,0.02033 -0.4816912,-0.11785 -0.3809332,-0.32521 -0.508553,-0.782665 -0.4126777,-1.479259 0.1185135,-0.861074 0.1575122,-1.284892 0.1687042,-1.833384 0.00744,-0.364601 0.031105,-0.666953 0.064205,-0.820304 0.061879,-0.286694 0.041929,-0.979288 -0.038649,-1.341732 -0.02929,-0.131756 -0.041709,-0.292917 -0.031011,-0.402456 0.089368,-0.915012 0.096535,-1.207233 0.039088,-1.59377 -0.041441,-0.278835 -0.051106,-0.466241 -0.034918,-0.677103 0.01267,-0.165033 0.00784,-0.38268 -0.011145,-0.501535 -0.070868,-0.443865 -0.039841,-2.367831 0.043457,-2.694697 0.024525,-0.09624 0.054464,-0.321441 0.066529,-0.500446 L 8.6033958,14.071488 8.4722795,13.936926 C 8.4001633,13.862915 8.2562313,13.759034 8.1524288,13.706077 8.0486268,13.65312 7.899559,13.556979 7.8211678,13.492432 7.7427771,13.427884 7.6608963,13.375071 7.6392126,13.375071 c -0.080228,0 -0.4255825,-0.223998 -0.5470658,-0.35483 -0.069004,-0.07431 -0.1393614,-0.135115 -0.1563489,-0.135115 -0.052983,0 -0.309587,-0.204641 -0.473086,-0.377285 C 6.3766891,12.417007 6.1988846,12.263947 6.0675902,12.167707 5.9362959,12.071467 5.7618062,11.928805 5.6798352,11.850679 5.5978634,11.772553 5.4766904,11.673265 5.4105619,11.630041 5.2886022,11.550322 4.995557,11.223339 4.995557,11.166973 c 0,-0.02935 -0.1422165,-0.141495 -0.3740115,-0.294933 -0.058829,-0.03894 -0.187636,-0.153118 -0.286237,-0.253722 -0.098601,-0.100604 -0.193987,-0.182916 -0.21197,-0.182916 -0.017983,0 -0.1174795,-0.07612 -0.2211017,-0.169154 C 3.6718273,10.059383 3.4717058,9.920785 3.3595851,9.8904268 3.3132176,9.8778718 3.2488668,9.8313718 3.2165831,9.787095 3.1842998,9.7428178 3.0901386,9.6722348 3.0073368,9.6302455 2.9245336,9.5882548 2.7942566,9.4945975 2.7178301,9.422115 2.6414046,9.349635 2.4985893,9.24657 2.4004619,9.193083 2.3023346,9.1395947 2.1497208,9.025783 2.0613187,8.9401657 1.9729172,8.8545487 1.8269429,8.7445315 1.7369317,8.695683 1.6469214,8.6468342 1.5075875,8.5411352 1.4273015,8.4607965 1.3470164,8.3804577 1.1864445,8.2458587 1.0704767,8.161687 0.77195365,7.9450157 0.36436938,7.4809417 0.32140136,7.3087932 0.30209068,7.2314237 0.2252665,7.100862 0.14369246,7.0067767 0.06466112,6.9156237 -6.329536e-7,6.8092262 -6.329536e-7,6.7703345 -6.329536e-7,6.65973 0.0900521,6.411731 0.19352733,6.2373677 0.24983033,6.142493 0.29691236,6.0043637 0.31029156,5.8948017 0.33186176,5.718165 0.33742156,5.7098435 0.45711455,5.6750722 0.52553845,5.6551947 0.60030161,5.6102327 0.62325724,5.5751557 0.71976634,5.427678 0.86693752,5.387033 1.3121482,5.3848977 c 0.4183189,-0.002 0.4258126,-6.75e-4 0.6341729,0.1152868 0.3421441,0.1903677 0.5924603,0.3566622 0.7136508,0.474107 0.1353757,0.1311912 0.4474519,0.356911 0.6445852,0.4662182 0.2222635,0.123243 0.7159959,0.4878505 1.2863259,0.949918 0.4058355,0.3287965 0.48341,0.3856615 0.6630835,0.4860603 0.1396647,0.078042 0.2988124,0.218289 0.7253799,0.639236 0.110123,0.1086715 0.251314,0.2205842 0.3137587,0.2486957 0.062444,0.028111 0.2110228,0.1555703 0.3301753,0.2832423 0.1191532,0.127672 0.3089197,0.2893002 0.4217034,0.359174 0.3089773,0.19142 0.4528353,0.295658 0.578108,0.418893 0.062444,0.061429 0.1526363,0.1331833 0.2004253,0.1594538 0.047789,0.02627 0.2056302,0.1658762 0.3507562,0.3102342 0.2740492,0.272601 0.4955247,0.427597 0.5680782,0.397561 0.059845,-0.02477 0.079939,-0.131964 0.081092,-0.432557 5.25e-4,-0.144357 0.022972,-0.3727082 0.049822,-0.5074425 0.032009,-0.1606332 0.054238,-0.528111 0.064565,-1.0673808 0.00866,-0.4523237 0.032353,-1.0961952 0.052646,-1.430827 0.036608,-0.6036635 0.02231,-1.246689 -0.037439,-1.683823 C 8.9359345,5.4458372 8.9216505,4.9794767 8.9212915,4.5345914 8.9209665,4.0897064 8.9057485,3.6409977 8.8875475,3.5374602 8.8693475,3.4339239 8.8544245,2.9790129 8.8543855,2.5265472 8.8543197,1.664516 8.8777345,1.4480574 9.014326,1.0485797 9.0520052,0.9383855 9.0828872,0.8202736 9.0829542,0.78611 9.0832292,0.65058842 9.210867,0.49645492 9.395982,0.40813504 9.4971924,0.35984564 9.6814092,0.24826203 9.8053532,0.16016949 L 10.030707,1.5180512e-6 10.236539,0.05578157 c 0.113208,0.03067794 0.265596,0.05577906 0.338641,0.05577906 0.177659,0 0.27053,0.0585503 0.509317,0.32109344 0.291979,0.32102978 0.338712,0.4584367 0.372834,1.09624723 0.02556,0.4776798 0.04996,0.689904 0.15895,1.3823451 0.01969,0.1251115 0.04244,0.6999218 0.05054,1.2773563 0.01137,0.8103345 0.02676,1.101784 0.06745,1.2773575 0.07535,0.3250975 0.09201,2.3025413 0.02289,2.7169065 -0.02612,0.1565745 -0.04625,0.3770498 -0.04474,0.4899455 0.0046,0.3416063 -0.05817,1.6551948 -0.09422,1.9725658 -0.09334,0.821936 -0.0541,2.05743 0.06822,2.147846 0.02932,0.02168 0.14524,0.107065 0.257589,0.189755 0.112351,0.08269 0.299156,0.220415 0.415124,0.306052 0.115969,0.08564 0.267043,0.188393 0.335722,0.228347 0.06868,0.03995 0.185457,0.132408 0.259509,0.205456 0.07405,0.07305 0.18573,0.160164 0.248176,0.193593 0.273112,0.146209 0.51657,0.333119 0.730753,0.56102 0.229759,0.244477 0.651274,0.600376 0.961032,0.811432 0.09001,0.06133 0.252505,0.19519 0.361095,0.297466 0.318388,0.299873 0.640296,0.548916 0.832994,0.644441 0.316556,0.156923 0.454801,0.239556 0.535701,0.3202 0.04346,0.04332 0.15546,0.12739 0.248897,0.186826 0.09344,0.05943 0.245262,0.177537 0.337389,0.26245 0.09213,0.08491 0.178601,0.154386 0.192163,0.154386 0.01356,0 0.07694,0.04952 0.140828,0.110039 0.06389,0.06052 0.176209,0.138691 0.24959,0.17371 0.07338,0.03502 0.160746,0.09625 0.194146,0.136063 0.0334,0.03982 0.112777,0.106045 0.176397,0.147177 0.06362,0.04113 0.214325,0.159522 0.334904,0.263088 0.201536,0.173101 0.508727,0.358623 0.595179,0.359447 0.01974,1.98e-4 0.18618,0.154209 0.369875,0.342267 0.305837,0.313105 0.335658,0.35514 0.35379,0.498693 0.01089,0.08622 7.25e-4,0.258099 -0.02262,0.381949 -0.02905,0.154225 -0.0325,0.253472 -0.01093,0.314965 0.01731,0.04938 0.0404,0.20012 0.0513,0.334975 0.01796,0.222197 0.01252,0.255869 -0.05806,0.359075 -0.04284,0.06264 -0.137566,0.160528 -0.210514,0.217536 -0.103855,0.08116 -0.143529,0.143248 -0.182868,0.286162 -0.05387,0.195709 -0.158859,0.344374 -0.243195,0.344374 -0.0286,0 -0.08355,-0.02383 -0.122093,-0.05296 -0.04626,-0.03495 -0.139714,-0.0517 -0.274839,-0.04925 -0.240593,0.0044 -0.404782,-0.03375 -0.749566,-0.173996 -0.241774,-0.09835 -0.477,-0.25443 -0.477,-0.316515 0,-0.01608 -0.05474,-0.05723 -0.121644,-0.09146 -0.06691,-0.03423 -0.201932,-0.120725 -0.300059,-0.192213 -0.09813,-0.07149 -0.222714,-0.154169 -0.276858,-0.183733 -0.05415,-0.02956 -0.133196,-0.102669 -0.175669,-0.162458 -0.04247,-0.05979 -0.129549,-0.142894 -0.193502,-0.184681 -0.06395,-0.04179 -0.174669,-0.124899 -0.246035,-0.184692 -0.07136,-0.0598 -0.215868,-0.154334 -0.321119,-0.210086 -0.10525,-0.05575 -0.258523,-0.168718 -0.340606,-0.251038 -0.08208,-0.08232 -0.251424,-0.208063 -0.376313,-0.279433 -0.408271,-0.233315 -0.66385,-0.427957 -1.135354,-0.864651 -0.07137,-0.0661 -0.224638,-0.180003 -0.340606,-0.253124 -0.115969,-0.07312 -0.278681,-0.19681 -0.361586,-0.27486 -0.225056,-0.211879 -0.453413,-0.395559 -0.601109,-0.483503 -0.238286,-0.141884 -0.340884,-0.216845 -0.460262,-0.336281 -0.06483,-0.06487 -0.203686,-0.182977 -0.308558,-0.26247 -0.104873,-0.07949 -0.210705,-0.1602 -0.235181,-0.17935 -0.07577,-0.05928 -0.156169,0.02865 -0.179203,0.196008 -0.01164,0.08458 -0.01313,0.460864 -0.0033,0.836197 0.0144,0.550096 0.008,0.726532 -0.03302,0.909898 -0.05833,0.260809 -0.09138,1.090916 -0.103785,2.607207 -0.0099,1.20409 -0.06003,2.146368 -0.132313,2.48472 -0.03867,0.181015 -0.05191,0.416825 -0.05069,0.90321 0.0021,0.830484 -0.03447,1.265282 -0.121846,1.450062 -0.07145,0.1511 -0.119002,0.183942 -0.266308,0.183942 -0.06101,0 -0.137765,0.04121 -0.216309,0.11614 -0.226174,0.21577 -0.335876,0.266095 -0.6604593,0.302978 -0.3974983,0.04516 -0.3855298,0.04603 -0.505282,-0.03672 z"
       id="path986" /></g></svg>
