<?xml version="1.0" encoding="UTF-8" standalone="no"?>
<!-- Created with Inkscape (http://www.inkscape.org/) -->

<svg
   width="75"
   height="100"
   viewBox="0 0 19.84375 26.458333"
   version="1.1"
   id="svg5"
   xml:space="preserve"
   inkscape:version="1.2.2 (b0a8486541, 2022-12-01)"
   sodipodi:docname="oþila.svg"
   inkscape:export-filename="oþila.png"
   inkscape:export-xdpi="96"
   inkscape:export-ydpi="96"
   xmlns:inkscape="http://www.inkscape.org/namespaces/inkscape"
   xmlns:sodipodi="http://sodipodi.sourceforge.net/DTD/sodipodi-0.dtd"
   xmlns="http://www.w3.org/2000/svg"
   xmlns:svg="http://www.w3.org/2000/svg"><sodipodi:namedview
     id="namedview7"
     pagecolor="#ffffff"
     bordercolor="#999999"
     borderopacity="1"
     inkscape:showpageshadow="0"
     inkscape:pageopacity="0"
     inkscape:pagecheckerboard="0"
     inkscape:deskcolor="#d1d1d1"
     inkscape:document-units="mm"
     showgrid="false"
     inkscape:zoom="1"
     inkscape:cx="253"
     inkscape:cy="259"
     inkscape:window-width="1280"
     inkscape:window-height="955"
     inkscape:window-x="0"
     inkscape:window-y="0"
     inkscape:window-maximized="1"
     inkscape:current-layer="layer1" /><defs
     id="defs2" /><g
     inkscape:label="Warstwa 1"
     inkscape:groupmode="layer"
     id="layer1"><path
       style="fill:#000000;stroke-width:0.0330401"
       d="M 3.1817922,26.447293 C 3.1029804,26.434268 2.9960764,26.391165 2.9442274,26.351498 2.8923789,26.31183 2.7858147,26.246262 2.7074184,26.20579 2.462158,26.079169 2.2032218,25.891646 2.1642523,25.812423 2.1436773,25.770593 2.054355,25.658172 1.9657579,25.562599 1.8771608,25.467027 1.74887,25.288546 1.6806671,25.165978 1.6124643,25.043412 1.5233776,24.888017 1.4826965,24.820656 c -0.040681,-0.06736 -0.073965,-0.155574 -0.073965,-0.196027 0,-0.203393 0.1766329,-0.836873 0.2781712,-0.997642 0.033647,-0.05327 0.084133,-0.135631 0.1121917,-0.183019 0.099654,-0.1683 0.2526717,-0.396394 0.288852,-0.430571 0.020196,-0.01908 0.091956,-0.112229 0.1594655,-0.207004 0.06751,-0.09477 0.2200099,-0.274999 0.3388889,-0.4005 0.118879,-0.1255 0.2161438,-0.245344 0.2161438,-0.266319 0,-0.09235 0.4899167,-0.557834 0.9753938,-0.926753 0.080803,-0.0614 0.2471787,-0.218156 0.369724,-0.34834 0.122545,-0.130184 0.257358,-0.261643 0.2995843,-0.292129 0.042226,-0.03048 0.197633,-0.176149 0.345348,-0.323696 0.1477152,-0.147548 0.3055941,-0.293162 0.3508416,-0.323588 0.045245,-0.03043 0.1602906,-0.145603 0.2556506,-0.25595 0.09536,-0.110349 0.225196,-0.240538 0.2885235,-0.289316 0.161122,-0.124099 0.3242175,-0.262175 0.5932495,-0.502245 0.12745,-0.113731 0.278168,-0.237798 0.3349285,-0.275709 0.056761,-0.03791 0.1626625,-0.120552 0.2353385,-0.183647 0.072675,-0.0631 0.1820961,-0.12973 0.2431581,-0.148075 0.061062,-0.01834 0.14874,-0.06865 0.1948405,-0.111797 0.073993,-0.06925 0.081148,-0.09431 0.061033,-0.213793 -0.017095,-0.101561 -0.064383,-0.178434 -0.1894209,-0.307956 -0.091649,-0.09493 -0.1837345,-0.20737 -0.2046345,-0.249861 -0.0209,-0.04248 -0.052253,-0.07725 -0.069675,-0.07725 -0.017425,0 -0.069383,-0.02714 -0.1154685,-0.06031 C 6.724775,17.215986 6.623092,17.173336 6.544901,17.154383 6.429241,17.126343 6.384458,17.091648 6.304706,16.968292 6.25079,16.884899 6.178424,16.799601 6.143893,16.778744 6.109363,16.757884 6.012628,16.680568 5.928929,16.606927 5.8452295,16.533287 5.72401,16.453708 5.659553,16.430087 5.585179,16.402832 5.5113035,16.338424 5.457368,16.253808 5.410623,16.180475 5.3074935,16.073951 5.2281895,16.017087 5.1488859,15.960222 5.0756784,15.886472 5.0655064,15.853199 5.0330014,15.746866 4.8887835,15.585346 4.7649953,15.516634 4.6989685,15.479984 4.612988,15.401167 4.5739283,15.341485 4.5348678,15.281801 4.444581,15.204538 4.3732903,15.169788 4.2982835,15.133228 4.1189917,14.968071 3.9477562,14.777804 3.785004,14.596959 3.6369322,14.448998 3.6187082,14.448998 c -0.018225,0 -0.095117,-0.05816 -0.1708725,-0.129238 C 3.0649242,13.960477 2.8140112,13.760026 2.6321089,13.668084 2.4017411,13.551644 2.2874041,13.449524 2.171997,13.257131 2.0571073,13.065603 1.9723507,12.977918 1.7417086,12.811982 1.6368135,12.736516 1.5207862,12.63106 1.3530447,12.458732 c -0.059964,-0.0616 -0.11564,-0.112006 -0.1237249,-0.112006 -0.038937,0 -0.3624421,-0.180269 -0.51744526,-0.288338 C 0.4858759,11.90082 0.43420663,11.843568 0.35606665,11.664126 0.31144377,11.561652 0.25600692,11.497569 0.17698406,11.457113 0.09684272,11.416085 0.05098047,11.362424 0.02400227,11.278127 -0.02437852,11.12695 0.00315559,10.904021 0.08171195,10.810878 0.114716,10.771748 0.14171927,10.697311 0.14171927,10.645466 c 0,-0.140844 0.0706567,-0.263879 0.25855523,-0.450222 C 0.8125768,9.7863569 1.3045311,9.2827224 1.4462946,9.1243894 1.883362,8.6362339 2.0654674,8.4445023 2.1373763,8.3967703 2.1809923,8.3678203 2.2851781,8.2387293 2.3689004,8.1099038 2.4526224,7.9810768 2.5523486,7.8601933 2.5905139,7.8412723 2.6521109,7.8107323 2.9381537,7.5478638 3.1938472,7.2868158 3.2436152,7.2360068 3.3256084,7.1295527 3.3760539,7.0502547 3.4264999,6.9709542 3.5140652,6.8706067 3.570644,6.8272592 3.7764445,6.6695877 4.0251365,6.4430647 4.164482,6.2863627 4.338483,6.0906837 4.5569085,5.8899962 4.6955615,5.7984056 4.7524665,5.7608206 5.0493409,5.4585886 5.3552825,5.1267896 5.6612245,4.7949871 5.925002,4.5235125 5.941455,4.5235125 c 0.01645,0 0.068982,-0.067025 0.1167325,-0.1489472 C 6.166513,4.1887183 6.8357395,3.4672248 7.4064881,2.9209617 7.6441426,2.6935035 7.8386391,2.4963282 7.8387016,2.4827942 7.8387651,2.4692612 7.8864916,2.4227355 7.9447626,2.3794044 8.1473671,2.2287402 8.5063821,1.8448468 8.5683481,1.7126055 8.6662592,1.5036544 8.6515117,1.3669789 8.5171296,1.2379254 8.3891431,1.1150151 8.3170326,0.96029889 8.2815736,0.73252987 c -0.0306,-0.19655392 0.027885,-0.315027 0.214136,-0.43378523 0.07405,-0.0472146 0.1572116,-0.13334567 0.1848036,-0.19139942 0.04256,-0.08954518 0.063001,-0.10223642 0.1347965,-0.08368708 0.046545,0.01202683 0.186178,0.03967296 0.3102945,0.06143651 0.203519,0.03568755 0.2454815,0.03243905 0.4276155,-0.03310051 0.1684925,-0.06063198 0.212448,-0.06542292 0.265303,-0.028923 0.03484,0.02406249 0.099355,0.05338138 0.1433635,0.06515245 0.044005,0.01177205 0.1800268,0.12666246 0.3022678,0.25531125 0.234102,0.24637912 0.749556,0.70725876 0.910129,0.81376676 0.05216,0.034598 0.210323,0.1715016 0.351471,0.304229 0.141152,0.1327282 0.359086,0.3370501 0.484301,0.4540465 0.125216,0.1169992 0.243523,0.243742 0.262907,0.2816521 0.01938,0.037909 0.09511,0.1144171 0.168277,0.1700161 0.202482,0.1538607 0.351172,0.2898865 0.595844,0.5450999 0.122663,0.127946 0.234845,0.2326284 0.249295,0.2326284 0.01445,0 0.08598,0.05428 0.158966,0.1206241 0.07298,0.06634 0.147486,0.1206212 0.165565,0.1206212 0.01808,0 0.12007,0.097342 0.226649,0.2163144 0.106578,0.1189738 0.265048,0.287225 0.352154,0.3738951 0.08711,0.086669 0.235416,0.2546596 0.329573,0.3733138 0.184613,0.2326413 0.327083,0.3457553 0.43574,0.34596 0.06371,9.8e-5 0.149837,0.089477 0.264136,0.2740467 0.02613,0.042197 0.0974,0.1050607 0.158377,0.1396947 0.06097,0.03463 0.194592,0.1341315 0.296927,0.2211105 0.102338,0.086978 0.257319,0.1852355 0.344405,0.2183505 0.113953,0.04333 0.190543,0.103681 0.273226,0.2152945 0.06319,0.085297 0.134002,0.1682786 0.157364,0.1844016 0.0602,0.041545 0.790801,0.8496435 1.056256,1.16829 0.144517,0.1734776 0.246308,0.2672776 0.290418,0.2676196 0.09647,7.5e-4 0.129769,0.03223 0.205058,0.1938345 0.07124,0.1529095 0.18324,0.2192005 0.370353,0.2192005 0.08003,0 0.12978,0.032665 0.230151,0.1511455 0.07043,0.083129 0.152832,0.2033205 0.183124,0.267091 0.05678,0.119547 0.363937,0.6141546 0.457237,0.7362896 0.02896,0.03791 0.0776,0.142619 0.108089,0.2326865 0.03049,0.090068 0.07919,0.1831685 0.108225,0.206893 0.08772,0.071672 0.319645,0.393457 0.353585,0.4905906 0.01749,0.050045 0.0318,0.1662195 0.0318,0.2581675 0,0.152128 -0.01069,0.176334 -0.118781,0.268879 -0.06533,0.05593 -0.179236,0.135025 -0.253122,0.17576 -0.217095,0.119677 -0.28057,0.297349 -0.30925,0.865628 -0.01291,0.255889 -0.03641,0.502371 -0.05221,0.547735 -0.05584,0.160321 -0.296389,0.481062 -0.39111,0.521492 -0.192818,0.0823 -0.237777,0.116263 -0.404451,0.305547 -0.417415,0.474035 -0.789719,0.900819 -0.976725,1.119643 -0.208523,0.244003 -0.682211,0.683117 -0.933937,0.865771 -0.152004,0.110292 -0.628608,0.55338 -0.894031,0.831155 -0.142556,0.14919 -0.355771,0.365694 -0.810591,0.823092 -0.168826,0.169782 -0.369502,0.339956 -0.699885,0.593498 -0.139371,0.106957 -0.318326,0.257557 -0.397679,0.334668 -0.07935,0.07711 -0.26113,0.230921 -0.403949,0.341799 -0.270389,0.209917 -0.386195,0.348316 -0.386195,0.461536 0,0.107266 0.232398,0.42446 0.46103,0.62925 0.298726,0.26757 0.539702,0.530589 0.632224,0.690058 0.05808,0.100097 0.134867,0.166137 0.287062,0.246877 0.135908,0.0721 0.241997,0.158593 0.306718,0.250067 0.05442,0.07691 0.173974,0.227148 0.265681,0.333854 0.09171,0.106708 0.203341,0.27813 0.248082,0.380939 0.04474,0.102809 0.121388,0.232622 0.170328,0.288475 0.221975,0.253318 0.449533,0.462528 0.525718,0.483332 0.05288,0.01444 0.105006,0.06927 0.1431,0.150514 0.129259,0.275672 0.707705,0.914168 0.861484,0.950916 0.06213,0.01485 0.172794,0.106951 0.303094,0.252252 0.127257,0.141908 0.254972,0.248856 0.336131,0.281475 0.08471,0.03405 0.134222,0.07662 0.140326,0.120665 0.0253,0.182564 0.04677,0.224296 0.141847,0.275711 0.119655,0.06471 0.304587,0.325174 0.345589,0.486736 0.01566,0.06171 0.09043,0.184591 0.166157,0.273061 0.139988,0.163547 0.17693,0.286111 0.17693,0.587006 0,0.128255 -0.06512,0.185612 -0.211726,0.186477 -0.119226,7.5e-4 -0.147922,0.02554 -0.227899,0.197176 -0.0473,0.101501 -0.108936,0.168556 -0.202226,0.219981 -0.07381,0.04069 -0.190631,0.122318 -0.25961,0.181398 l -0.125417,0.107423 -0.508089,-5e-4 c -0.435083,-2.5e-4 -0.537672,-0.01105 -0.713978,-0.0747 -0.335802,-0.121243 -0.429401,-0.174144 -0.467011,-0.263952 -0.04351,-0.103895 -0.352439,-0.333028 -0.449016,-0.333028 -0.09195,0 -0.193597,-0.061 -0.264057,-0.158457 -0.03125,-0.04322 -0.09566,-0.09992 -0.143139,-0.125984 -0.04748,-0.02607 -0.167518,-0.0968 -0.26675,-0.157186 -0.09923,-0.06038 -0.201704,-0.109787 -0.227718,-0.109787 -0.02602,0 -0.111095,-0.06008 -0.189069,-0.133502 -0.103972,-0.09791 -0.182479,-0.140143 -0.294462,-0.158415 -0.135878,-0.02217 -0.176286,-0.05167 -0.366962,-0.267959 -0.117847,-0.133676 -0.21427,-0.263264 -0.21427,-0.287974 0,-0.02471 -0.05701,-0.162717 -0.1267,-0.306678 -0.08664,-0.178985 -0.126702,-0.305364 -0.126702,-0.399678 0,-0.198058 -0.07121,-0.324651 -0.347092,-0.616994 -0.134156,-0.142163 -0.26417,-0.29074 -0.288923,-0.330172 -0.02475,-0.03944 -0.105109,-0.118794 -0.178573,-0.17636 -0.197697,-0.154915 -0.346612,-0.303198 -0.387052,-0.385412 -0.0197,-0.04004 -0.0906,-0.103216 -0.15755,-0.140381 -0.06695,-0.03717 -0.1304,-0.09214 -0.140994,-0.122176 -0.01059,-0.03004 -0.05868,-0.07334 -0.106856,-0.09624 -0.154464,-0.07342 -0.449313,-0.332658 -0.500251,-0.439828 -0.03203,-0.0674 -0.08166,-0.110877 -0.1414,-0.123878 -0.05062,-0.01102 -0.11636,-0.04927 -0.146082,-0.085 -0.03835,-0.04611 -0.09729,-0.06497 -0.20305,-0.06497 -0.128414,0 -0.168647,0.01881 -0.291108,0.136094 -0.1313478,0.125794 -0.1550543,0.135574 -0.3132938,0.129239 -0.1346015,-0.0054 -0.2084305,0.01417 -0.3454075,0.09155 -0.095818,0.05412 -0.2098495,0.133729 -0.2534025,0.176906 -0.088555,0.08779 -0.3879625,0.290618 -0.7913596,0.536095 -0.1477945,0.08994 -0.320385,0.210715 -0.3835335,0.268399 -0.1187035,0.108429 -0.2379405,0.188669 -0.5338,0.359219 -0.244178,0.140757 -0.38722,0.267827 -0.7303046,0.648767 -0.1655035,0.183763 -0.350804,0.370367 -0.4117785,0.414677 -0.060975,0.04431 -0.207045,0.181759 -0.3245995,0.305441 -0.1983715,0.208716 -0.213741,0.235491 -0.213808,0.372496 -3.2e-5,0.08901 -0.031515,0.215122 -0.079261,0.317643 -0.043555,0.09351 -0.079188,0.194581 -0.079188,0.224595 0,0.03001 -0.089087,0.151997 -0.197971,0.27108 -0.3275341,0.358206 -0.5105322,0.577655 -0.6868547,0.823656 -0.092141,0.128553 -0.2101333,0.257703 -0.2622063,0.287001 -0.119015,0.06696 -0.4053173,0.398139 -0.468791,0.54227 -0.039551,0.08981 -0.067144,0.10938 -0.1583765,0.112348 -0.060764,0.002 -0.1960043,0.0123 -0.3005325,0.02295 -0.1045288,0.01065 -0.2545343,0.0087 -0.3333463,-0.0043 z M 9.9293857,15.75861 c 0.043555,-0.03706 0.1167773,-0.06774 0.1627193,-0.06816 0.190273,-0.0017 0.925418,-0.499581 1.074817,-0.727859 0.04079,-0.06233 0.142454,-0.140389 0.247337,-0.189911 0.118549,-0.05598 0.203776,-0.124937 0.254949,-0.20629 0.04228,-0.06721 0.1278,-0.150967 0.190051,-0.186119 0.06225,-0.03515 0.170198,-0.12855 0.239884,-0.207548 0.247426,-0.280497 0.380831,-0.412857 0.435883,-0.43247 0.03068,-0.01093 0.07737,-0.0653 0.103758,-0.120821 0.02639,-0.05552 0.06018,-0.100947 0.07508,-0.100947 0.01491,0 0.06799,-0.04502 0.11797,-0.100054 0.04998,-0.05503 0.21915,-0.192599 0.375942,-0.305712 0.347131,-0.250427 0.444962,-0.345056 1.003509,-0.970644 0.269271,-0.301593 0.327766,-0.350136 0.479874,-0.398248 0.127454,-0.04031 0.19206,-0.084 0.244526,-0.165355 0.03922,-0.06081 0.155685,-0.185644 0.258817,-0.277409 0.168959,-0.150334 0.293902,-0.32073 0.485112,-0.661598 0.03549,-0.06325 0.09962,-0.153908 0.14254,-0.201453 0.04291,-0.04754 0.110094,-0.122724 0.149293,-0.167064 0.07458,-0.08436 0.09444,-0.213626 0.03859,-0.251186 -0.01798,-0.01209 -0.06211,-0.09008 -0.09807,-0.1733125 C 15.838097,9.6754579 15.350463,9.1195554 15.198615,9.0332224 15.118965,8.9879424 15.088438,8.9374284 15.04702,8.7824159 15.00257,8.6160434 14.97269,8.5707514 14.83792,8.4654033 14.75144,8.3978053 14.68068,8.3314258 14.68068,8.3178988 c 0,-0.01353 -0.0543,-0.050663 -0.120655,-0.082519 -0.07897,-0.03791 -0.138723,-0.09914 -0.172952,-0.1772385 -0.02876,-0.065625 -0.109857,-0.1782455 -0.180208,-0.2502685 -0.07035,-0.072023 -0.127936,-0.1546395 -0.127965,-0.183592 -8.9e-5,-0.090463 -0.09396,-0.203827 -0.231791,-0.2799325 -0.07289,-0.040245 -0.172818,-0.109827 -0.222064,-0.154624 -0.04925,-0.044795 -0.116459,-0.081449 -0.149365,-0.081449 -0.03291,0 -0.103573,-0.046525 -0.157038,-0.1033895 -0.05347,-0.056866 -0.110607,-0.10339 -0.12698,-0.10339 -0.01637,0 -0.05102,-0.04265 -0.07699,-0.094776 -0.02597,-0.052125 -0.122551,-0.1614045 -0.214622,-0.2428415 -0.272663,-0.241169 -0.540758,-0.455044 -0.570401,-0.455044 -0.01521,0 -0.105649,-0.054279 -0.200968,-0.120621 -0.09532,-0.066343 -0.18625,-0.120623 -0.202069,-0.120623 -0.01582,0 -0.0569,-0.038925 -0.0913,-0.086504 -0.03439,-0.047575 -0.110264,-0.108302 -0.168596,-0.1349485 -0.110317,-0.050394 -0.501996,-0.4321115 -0.501996,-0.4892305 0,-0.01796 -0.03989,-0.058289 -0.08864,-0.089624 C 10.917221,4.9651806 10.728578,4.7649625 10.674571,4.641134 10.645496,4.5744735 10.590334,4.5069554 10.551988,4.4910911 10.513643,4.475226 10.381506,4.3519647 10.258354,4.2171737 10.135201,4.0823826 10.018996,3.9720979 10.00012,3.9720979 c -0.018875,0 -0.1492508,0.1279463 -0.2897228,0.2843244 -0.140472,0.1563774 -0.382758,0.4256116 -0.5384135,0.5982991 -0.155655,0.1726857 -0.3325475,0.3982307 -0.393095,0.5012122 -0.060547,0.102983 -0.135272,0.209832 -0.1660555,0.237443 -0.030785,0.02761 -0.1053136,0.133962 -0.1656221,0.2363356 -0.1208235,0.205099 -0.4352585,0.6122785 -0.684981,0.8870215 -0.088538,0.097407 -0.289262,0.334995 -0.4460545,0.5279716 -0.156793,0.192974 -0.420849,0.5009925 -0.5867911,0.6844815 -0.1659425,0.1834895 -0.441583,0.5080865 -0.612535,0.7213301 -0.170952,0.213243 -0.323456,0.387714 -0.338898,0.387714 -0.01544,0 -0.05023,0.04661 -0.077306,0.103577 -0.04595,0.096684 -0.149707,0.1874365 -0.41852,0.366072 -0.060683,0.04033 -0.1802511,0.15664 -0.2657066,0.2584775 -0.085455,0.1018346 -0.1821916,0.2140616 -0.2149696,0.2493916 -0.2213648,0.2386 -0.2823358,0.307916 -0.3593063,0.408484 -0.1611908,0.210612 -0.27766,0.380999 -0.27766,0.406195 0,0.03327 0.3962803,0.453267 0.4671743,0.495137 0.030507,0.01802 0.1623722,0.135002 0.2930327,0.259971 0.3349455,0.320354 0.541741,0.50154 0.6321945,0.553907 0.04283,0.0248 0.099848,0.07233 0.126701,0.105636 0.026855,0.0333 0.1505775,0.120508 0.2749425,0.193793 0.2980115,0.175608 0.5069965,0.389729 0.602952,0.617773 0.04268,0.101434 0.119819,0.219705 0.171417,0.262822 0.051598,0.04312 0.1584856,0.136552 0.2375276,0.207633 0.079042,0.07108 0.1585585,0.129237 0.176702,0.129237 0.04796,0 0.3289385,0.272567 0.733555,0.711589 0.194742,0.211304 0.420952,0.422837 0.5026885,0.470077 0.137374,0.07939 0.2400366,0.15119 0.5324071,0.372324 0.060975,0.04612 0.193388,0.168961 0.294251,0.272989 0.12089,0.124678 0.24503,0.214327 0.3642665,0.263054 0.2288235,0.09351 0.2584,0.09453 0.355091,0.01224 z"
       id="path990" /></g></svg>
