<?xml version="1.0" encoding="UTF-8" standalone="no"?>
<!-- Created with Inkscape (http://www.inkscape.org/) -->

<svg
   width="75"
   height="75"
   viewBox="0 0 19.84375 19.84375"
   version="1.1"
   id="svg739"
   inkscape:version="1.2.2 (b0a8486541, 2022-12-01)"
   sodipodi:docname="virgo.svg"
   xml:space="preserve"
   xmlns:inkscape="http://www.inkscape.org/namespaces/inkscape"
   xmlns:sodipodi="http://sodipodi.sourceforge.net/DTD/sodipodi-0.dtd"
   xmlns="http://www.w3.org/2000/svg"
   xmlns:svg="http://www.w3.org/2000/svg"><sodipodi:namedview
     id="namedview741"
     pagecolor="#000000"
     bordercolor="#999999"
     borderopacity="1"
     inkscape:showpageshadow="0"
     inkscape:pageopacity="0"
     inkscape:pagecheckerboard="0"
     inkscape:deskcolor="#d1d1d1"
     inkscape:document-units="px"
     showgrid="false"
     inkscape:zoom="5.5874298"
     inkscape:cx="22.103186"
     inkscape:cy="36.868472"
     inkscape:window-width="1280"
     inkscape:window-height="955"
     inkscape:window-x="0"
     inkscape:window-y="0"
     inkscape:window-maximized="1"
     inkscape:current-layer="layer1" /><defs
     id="defs736" /><g
     inkscape:label="Warstwa 1"
     inkscape:groupmode="layer"
     id="layer1"><path
       style="fill:#ffffff;stroke-width:0.0296129"
       d="M 11.976335,19.768685 C 11.801851,19.632778 11.43,19.564273 11.253664,19.635548 c -0.102086,0.04126 -0.172457,-0.0049 -0.152029,-0.09968 0.01178,-0.05465 -0.01126,-0.08308 -0.1223,-0.150948 -0.239497,-0.146387 -0.269551,-0.185261 -0.284446,-0.367934 -0.01083,-0.132838 -0.03061,-0.182334 -0.0977,-0.244454 -0.07526,-0.06969 -0.0808,-0.08804 -0.05265,-0.174294 0.01731,-0.05302 0.04598,-0.176246 0.06371,-0.273829 0.03017,-0.166056 0.07818,-0.261634 0.347943,-0.692678 0.04988,-0.07971 0.0907,-0.164322 0.0907,-0.188032 0,-0.02371 0.0283,-0.05879 0.06288,-0.07795 0.03458,-0.01916 0.06288,-0.05027 0.06288,-0.06913 0,-0.01886 0.04328,-0.06268 0.09619,-0.09738 0.0529,-0.0347 0.14022,-0.132345 0.194041,-0.216995 0.05382,-0.08465 0.161842,-0.229216 0.240045,-0.321258 0.0782,-0.09204 0.161417,-0.216537 0.184919,-0.276656 0.0235,-0.06012 0.0768,-0.14523 0.118448,-0.189135 0.07488,-0.07895 0.139455,-0.235007 0.141953,-0.343065 7.13e-4,-0.03068 0.02151,-0.08716 0.04622,-0.125512 0.05365,-0.08325 0.06084,-0.327629 0.01288,-0.437476 -0.07998,-0.183187 -0.08673,-0.544272 -0.02284,-1.222072 0.0014,-0.01534 -0.0067,-0.266364 -0.01806,-0.557831 -0.01162,-0.297581 -0.0069,-0.670578 0.01087,-0.850693 0.05525,-0.561429 0.04824,-0.677877 -0.09147,-1.519322 -0.03945,-0.237594 0.009,-1.8468535 0.06071,-2.0172115 0.01716,-0.056509 0.0159,-0.1224848 -0.0033,-0.1712499 -0.02301,-0.058546 -0.01911,-0.1049336 0.01487,-0.1770705 0.05541,-0.1176429 0.06296,-0.3218801 0.05797,-1.567948 -0.0023,-0.5651981 -0.01839,-1.02719 -0.03992,-1.1435546 -0.05046,-0.2727671 -0.05444,-0.427806 -0.02003,-0.7809642 0.01644,-0.1687435 0.0264,-0.3695628 0.02212,-0.4462648 -0.0043,-0.076702 -0.0073,-0.1676983 -0.0066,-0.2022139 0.0064,-0.3475985 -0.0013,-1.3802326 -0.01246,-1.6665214 -0.0078,-0.1994247 -0.01298,-0.4283937 -0.01157,-0.5088201 C 12.151038,2.2637355 12.0201,2.0481996 11.915775,2.0757157 11.769146,2.1143897 11.594141,2.2269904 11.53995,2.317527 11.50853,2.37002 11.374121,2.4924912 11.241266,2.5896844 10.981213,2.779931 10.778041,2.9902298 10.746463,3.1018426 c -0.01081,0.038205 -0.04668,0.09116 -0.07971,0.1176768 -0.03303,0.026517 -0.06005,0.063752 -0.06005,0.082743 0,0.018992 -0.01981,0.041273 -0.04402,0.049515 -0.02421,0.00824 -0.103707,0.125683 -0.176662,0.2609812 -0.07295,0.135298 -0.185349,0.2969373 -0.249768,0.3591985 -0.06442,0.062261 -0.1418042,0.1752221 -0.1719694,0.2510243 -0.030165,0.075802 -0.066275,0.1575356 -0.080243,0.1816292 -0.090783,0.1565884 -0.1864431,0.4310302 -0.2083351,0.5976991 -0.027639,0.210412 -0.028173,1.4851135 -6.239e-4,1.5676605 0.018195,0.054587 0.048376,0.7620279 0.069959,1.6398698 0.026301,1.0697036 0.036322,1.2559699 0.074489,1.3846453 0.030555,0.1030084 0.030329,0.1429351 -0.0011,0.1950343 -0.049121,0.081424 -0.043738,0.7468384 0.00717,0.8861714 0.023297,0.06376 0.02966,0.316331 0.019322,0.767019 -0.00848,0.369572 -0.00341,0.797461 0.011256,0.950865 0.041111,0.429976 0.059606,1.375287 0.028335,1.448255 -0.037636,0.08781 -0.044327,0.377906 -0.018064,0.78307 0.030622,0.472415 0.030541,0.475628 -0.016478,0.650865 -0.026079,0.0972 -0.069326,0.177007 -0.112386,0.207407 -0.038496,0.02718 -0.091988,0.116534 -0.1188688,0.198565 -0.026882,0.08203 -0.066704,0.161619 -0.088493,0.17686 -0.02179,0.01524 -0.1290162,0.03561 -0.2382811,0.04526 -0.1813409,0.01602 -0.2134027,0.01027 -0.3677252,-0.0659 -0.092985,-0.0459 -0.1969781,-0.08345 -0.2310959,-0.08345 -0.034118,0 -0.1020861,-0.01783 -0.151041,-0.03962 -0.048955,-0.02179 -0.1512113,-0.06218 -0.2272372,-0.08975 -0.17748,-0.06437 -0.2233362,-0.10677 -0.2233362,-0.206485 0,-0.05726 -0.027173,-0.09867 -0.093152,-0.141944 -0.1177761,-0.07725 -0.1261563,-0.128276 -0.1413908,-0.860996 -0.017043,-0.819659 -0.051043,-1.53198 -0.078684,-1.648446 -0.015743,-0.06633 -0.00578,-0.165825 0.029348,-0.292861 0.06623,-0.239561 0.078114,-0.426988 0.074976,-1.182549 C 7.8794134,10.524008 7.8513614,9.8465317 7.8081094,9.4928612 7.7733344,9.2085129 7.7719104,9.1446729 7.7850884,8.4608737 7.7898884,8.2116861 7.7779584,8.0198539 7.7521104,7.9307265 7.7209844,7.8233942 7.7189534,7.7200861 7.7433404,7.4844618 7.7628714,7.2957312 7.7684924,6.5559468 7.7579624,5.5601502 7.7267757,2.609171 7.720858,2.4259801 7.6531063,2.3136753 7.6172532,2.2542456 7.5974636,2.2497693 7.4159204,2.2600242 7.1509382,2.2749925 7.069442,2.3260177 6.5418705,2.8072684 6.4763555,2.8670312 6.408318,2.9623059 6.3906753,3.0189906 6.3706793,3.0832369 6.3007833,3.1704602 6.2050917,3.2505809 6.1206637,3.3212713 6.0340408,3.4179998 6.0125969,3.4655332 5.9626519,3.5762421 5.8179305,3.725465 5.6655094,3.8234152 5.5996964,3.8657089 5.5106688,3.9497515 5.4676707,4.0101769 5.3723767,4.1440934 5.2707019,4.2321645 5.1719096,4.2663678 c -0.058495,0.020252 -0.069693,0.038928 -0.052743,0.087969 0.011835,0.034242 0.018782,0.081086 0.015438,0.1040963 -0.00334,0.02301 -0.013793,0.4246491 -0.02322,0.8925304 -0.03241,1.6086489 -0.015763,3.2549466 0.034759,3.4373032 0.018928,0.06832 0.016011,0.178892 -0.00846,0.3207535 -0.048646,0.2820025 -0.071871,1.7417678 -0.032288,2.0294438 0.052359,0.380526 0.056252,0.678023 0.00991,0.757267 -0.02313,0.03955 -0.042055,0.09405 -0.042055,0.121099 0,0.02705 -0.022957,0.09779 -0.051016,0.157189 -0.042154,0.08924 -0.045353,0.137068 -0.018417,0.275349 0.033513,0.172046 0.0264,0.728578 -0.012478,0.976205 -0.026696,0.170035 -0.038792,0.359506 -0.054309,0.850693 -0.013788,0.436455 -0.041674,0.630651 -0.1029918,0.717226 -0.024064,0.03398 -0.043753,0.09125 -0.043753,0.127267 0,0.06588 -0.1056746,0.171393 -0.2515232,0.251145 -0.048692,0.02663 -0.1683281,0.04539 -0.3144039,0.04931 -0.4429921,0.01189 -0.4328997,0.01454 -0.6164289,-0.161771 l -0.1669434,-0.160376 0.01861,-0.158079 c 0.010235,-0.08694 4.1e-4,-0.281486 -0.021836,-0.432319 -0.054527,-0.369716 -0.045259,-1.228631 0.015207,-1.409259 0.05743,-0.171559 0.066645,-1.083449 0.011867,-1.174251 -0.080737,-0.13383 -0.1239368,-0.361798 -0.1374587,-0.725382 -0.00787,-0.211723 -0.030072,-0.411068 -0.049328,-0.442987 -0.020638,-0.03421 -0.032605,-0.179611 -0.02915,-0.354175 0.00584,-0.295221 0.00495,-0.4548982 -0.00381,-0.6796483 -0.00254,-0.065197 0.019551,-0.3004652 0.049093,-0.5228188 C 3.3362707,8.883342 3.3402437,8.7716334 3.3125417,8.6838628 3.2874397,8.6043268 3.2836197,8.2889421 3.2993647,7.5959432 3.3115597,7.0591911 3.3171727,6.4694149 3.3118387,6.2853307 3.2902647,5.5407907 3.3197987,4.2958873 3.3613047,4.1999233 3.3728217,4.1732973 3.3576047,4.0981952 3.3274987,4.03303 3.2809937,3.932384 3.2732717,3.8263731 3.2762057,3.3288246 3.2789757,2.8593693 3.2695757,2.7154189 3.2288607,2.6036438 3.2009217,2.526942 3.1737207,2.4492282 3.1684137,2.4309466 3.1539087,2.3809761 3.004719,2.3025894 2.9558077,2.3192399 2.9171417,2.3324027 2.8456792,2.4324978 2.6332811,2.7709932 2.4305491,3.0940839 2.27856,3.4134401 2.2416906,3.5937945 2.1812366,3.8895171 2.1434886,4.0312688 2.1042844,4.1097886 2.0269044,4.2647668 1.9675069,4.4709102 1.9274796,4.7234033 1.9024716,4.8811548 1.8559606,5.031427 1.802306,5.1278313 1.740955,5.2380629 1.716566,5.3254012 1.715644,5.4381723 1.714504,5.5781188 1.628008,5.8016537 1.5551302,5.853012 1.5442462,5.8606811 1.4737742,5.9331848 1.3985254,6.0141284 1.2349329,6.1901031 1.2040604,6.2060231 0.86675821,6.2883496 0.57131806,6.3604587 0.52420289,6.3537281 0.32367505,6.2107685 0.23998295,6.1511038 0.18730837,6.0847646 0.16301004,6.0084248 0.14312724,5.9459582 0.09611692,5.8069904 0.05854248,5.6996082 -0.01545752,5.4881257 -0.0189185,5.1921947 0.04598371,4.625783 0.06268257,4.4800491 0.07599015,4.3212959 0.07555621,4.272998 0.07511951,4.2247002 0.095868,4.140383 0.12165779,4.0856259 c 0.0257899,-0.054757 0.0468907,-0.1557237 0.0468907,-0.2243713 0,-0.074341 0.025208,-0.1627155 0.0623369,-0.2185414 0.0347874,-0.052305 0.0765861,-0.1916833 0.0945791,-0.3153744 C 0.34319769,3.2054331 0.37746439,3.0680384 0.40161269,3.0220173 0.42576089,2.9759963 0.48293599,2.8278332 0.52866813,2.6927662 0.57440023,2.5576993 0.67132454,2.35688 0.74405544,2.2465011 0.81678624,2.1361224 0.91079578,1.9767808 0.95296537,1.8924087 0.99513497,1.8080367 1.0602558,1.7013515 1.0976786,1.6553304 1.1351016,1.6093093 1.2036425,1.5088997 1.2499925,1.4321978 1.2963425,1.355496 1.3655535,1.2524068 1.403795,1.2031106 1.442036,1.1538144 1.5145656,1.0548753 1.5649709,0.98324585 1.6153759,0.91161637 1.7356357,0.80133517 1.8322143,0.73817623 1.9287933,0.67501776 2.0808225,0.55749497 2.170058,0.47701545 2.3466687,0.31773331 2.5247646,0.22808251 2.8409822,0.13928321 c 0.5211346,-0.14634352 0.780366,-0.17057229 1.116134,-0.10431852 0.3807605,0.07513093 0.4796934,0.12075961 0.7919296,0.36524527 0.3156103,0.24712715 0.310665,0.23819622 0.3745375,0.67637034 0.020002,0.1372173 0.026876,0.1464308 0.1092521,0.1464308 0.066424,0 0.1441058,-0.04843 0.3178656,-0.1981699 C 5.6771779,0.91584781 5.8372519,0.8024596 5.9064208,0.77286753 6.0348888,0.71790613 6.0746269,0.69787558 6.2710602,0.58907025 6.4635754,0.4824352 6.7953058,0.4360404 7.3683992,0.43560081 c 0.5386557,-3.9531e-4 0.5662774,0.003953 0.9274921,0.14666689 0.069169,0.027328 0.1953055,0.076203 0.2803051,0.10861004 0.2230394,0.0850377 0.5010877,0.36332886 0.7128059,0.71342856 0.099377,0.1643307 0.1539019,0.2091868 0.2542822,0.2091868 0.1210585,0 0.2822818,-0.095833 0.5342615,-0.3175718 0.1153,-0.1014621 0.224432,-0.1844765 0.242517,-0.1844765 0.01808,0 0.104382,-0.078445 0.191771,-0.17432232 0.200057,-0.21948912 0.288901,-0.29983424 0.331548,-0.29983424 0.01847,0 0.08951,-0.0512358 0.157862,-0.11385665 0.06836,-0.0626208 0.183375,-0.14485714 0.2556,-0.18274716 0.126169,-0.0661905 0.154509,-0.0690573 0.723129,-0.0731528 0.658431,-0.004744 0.769268,0.0164767 1.093166,0.20928457 0.08384,0.0499083 0.201885,0.11598501 0.262318,0.14683608 0.08601,0.0439083 0.117765,0.0836499 0.146189,0.18295692 0.01997,0.0697754 0.08381,0.1951482 0.141863,0.2786061 0.05805,0.083458 0.116275,0.1893952 0.129381,0.2354163 0.0131,0.046021 0.03804,0.1213283 0.0554,0.1673494 0.06915,0.1832476 0.167589,0.7370362 0.166091,0.9343676 -0.0034,0.453407 0.04486,0.6832935 0.136974,0.651935 0.02649,-0.00902 0.04817,-0.02676 0.04817,-0.039425 0,-0.012665 0.03115,-0.031799 0.06922,-0.042518 0.07234,-0.020368 0.377069,-0.2295937 0.550557,-0.3780083 0.05556,-0.047528 0.130543,-0.1405299 0.166635,-0.2066709 0.08291,-0.1519404 0.08737,-0.1548237 0.40832,-0.2643104 0.146984,-0.05014 0.345059,-0.1217353 0.440166,-0.1590996 0.09511,-0.037364 0.370997,-0.099463 0.613088,-0.1379981 0.427628,-0.068068 0.446881,-0.068789 0.675968,-0.025338 0.272961,0.051772 0.451523,0.098395 0.801731,0.2093339 0.138337,0.043823 0.315189,0.096439 0.393004,0.1169254 0.08915,0.023471 0.207544,0.090992 0.320089,0.1825515 0.09823,0.079917 0.232885,0.1698689 0.299225,0.199893 0.12996,0.058817 0.569576,0.4274845 0.709661,0.5951315 0.06764,0.080946 0.08584,0.1334821 0.08584,0.2477318 0,0.09601 0.02111,0.175301 0.06248,0.2346861 0.05614,0.080585 0.06457,0.1587566 0.08303,0.7703101 0.02053,0.6800003 -0.0221,1.4242557 -0.08548,1.4923643 -0.01575,0.016927 -0.03327,0.1876704 -0.03892,0.3794315 -0.0087,0.2950305 -0.02004,0.3610802 -0.07373,0.4294355 -0.0375,0.047743 -0.07886,0.1720318 -0.101124,0.3039116 -0.05754,0.3408157 -0.103293,0.5203402 -0.15993,0.6275603 -0.02836,0.053691 -0.07623,0.19803 -0.106367,0.3207526 -0.03014,0.1227228 -0.09767,0.3737469 -0.150065,0.557831 -0.0524,0.1840849 -0.10578,0.3974554 -0.11863,0.4741574 -0.01285,0.076701 -0.04669,0.1872545 -0.0752,0.2456731 -0.02851,0.058418 -0.06157,0.1713788 -0.07347,0.2510234 -0.0119,0.079645 -0.05473,0.2000208 -0.09516,0.2675024 -0.04044,0.067482 -0.07352,0.1554436 -0.07352,0.1954707 0,0.089838 -0.161808,0.5015226 -0.248134,0.6313176 -0.03499,0.05261 -0.08007,0.17428 -0.100181,0.270376 -0.03314,0.158358 -0.117247,0.356102 -0.236302,0.555561 -0.0243,0.04072 -0.04419,0.09326 -0.04419,0.116756 0,0.04606 -0.173004,0.470616 -0.229129,0.562284 -0.109442,0.17875 -0.211037,0.383968 -0.211037,0.426289 0,0.05791 -0.125659,0.232021 -0.266034,0.36862 -0.09777,0.09514 -0.362773,0.458034 -0.362773,0.496776 0,0.01067 -0.05028,0.08211 -0.111741,0.158766 -0.06146,0.07665 -0.174271,0.241106 -0.250697,0.365451 -0.07643,0.124346 -0.161585,0.242742 -0.189242,0.263104 -0.02765,0.02036 -0.07651,0.08263 -0.108569,0.138374 -0.03206,0.05574 -0.0802,0.117486 -0.106982,0.137205 -0.02678,0.01972 -0.08591,0.106739 -0.131386,0.193376 -0.144889,0.276014 -0.269475,0.490939 -0.30958,0.534058 -0.0728,0.07828 -0.238061,0.361564 -0.238061,0.40809 0,0.04779 -0.197739,0.329439 -0.252285,0.359345 -0.01687,0.0093 -0.03068,0.07965 -0.03068,0.156432 0,0.111273 -0.02899,0.189116 -0.142817,0.383489 -0.125946,0.215067 -0.140338,0.257632 -0.121832,0.360302 0.01187,0.06582 0.05686,0.15176 0.103517,0.19772 0.04539,0.04471 0.108599,0.114725 0.140459,0.155585 0.07819,0.10028 0.297697,0.238248 0.379095,0.238278 0.03631,1.4e-5 0.122229,0.05142 0.190924,0.114244 0.06869,0.06282 0.192492,0.144602 0.275103,0.18174 0.08261,0.03714 0.150203,0.08419 0.150203,0.104566 0,0.02038 0.0283,0.05976 0.06288,0.08753 0.03458,0.02777 0.06288,0.07195 0.06288,0.09818 0,0.02623 0.0283,0.07961 0.06288,0.118615 0.03458,0.039 0.06288,0.101015 0.06288,0.137801 0,0.03679 0.03537,0.109414 0.0786,0.161396 0.138491,0.166526 0.08989,0.396786 -0.108739,0.515217 -0.09293,0.05541 -0.252826,0.269092 -0.252826,0.337881 0,0.135345 -0.415081,0.274977 -0.613088,0.206239 -0.05188,-0.01801 -0.165062,-0.04294 -0.251523,-0.05541 -0.283204,-0.04083 -0.833171,-0.25275 -0.833171,-0.321045 0,-0.04902 -0.375576,-0.386854 -0.512271,-0.460793 -0.05668,-0.03066 -0.157328,-0.05458 -0.229911,-0.05464 -0.120463,-7.9e-5 -0.13807,0.01054 -0.263302,0.159098 -0.07381,0.08756 -0.159751,0.212064 -0.19097,0.276675 -0.03122,0.06461 -0.10727,0.16707 -0.169003,0.227687 -0.06173,0.06062 -0.112242,0.12734 -0.112242,0.148271 0,0.02093 -0.03845,0.105482 -0.08545,0.18789 -0.09048,0.158638 -0.160059,0.199612 -0.338991,0.199612 -0.05827,0 -0.138702,0.01073 -0.178735,0.02384 -0.04003,0.01311 -0.13234,0.03201 -0.205126,0.04199 -0.117802,0.01615 -0.144494,0.0087 -0.242994,-0.06805 z m 2.549254,-6.965101 c 0.125629,-0.109282 0.192751,-0.185699 0.361259,-0.411285 0.08074,-0.10809 0.169359,-0.213135 0.196931,-0.233435 0.02757,-0.0203 0.123278,-0.157784 0.212683,-0.305521 0.0894,-0.147738 0.202642,-0.309842 0.25164,-0.360232 0.049,-0.05039 0.0894,-0.10687 0.08978,-0.125512 3.57e-4,-0.01864 0.02837,-0.06527 0.06218,-0.103623 0.03382,-0.03835 0.0618,-0.102324 0.06218,-0.142163 3.56e-4,-0.03984 0.029,-0.101378 0.06358,-0.136753 0.03458,-0.03538 0.06288,-0.0847 0.06288,-0.109612 0,-0.02491 0.05547,-0.110786 0.123271,-0.190833 0.0678,-0.08005 0.140471,-0.192671 0.161494,-0.250273 0.02102,-0.0576 0.07295,-0.166196 0.115402,-0.241317 0.08234,-0.145715 0.253834,-0.5670649 0.281452,-0.6915096 0.0092,-0.041261 0.04347,-0.096549 0.07624,-0.1228619 0.03277,-0.026313 0.05959,-0.081605 0.05959,-0.1228706 0,-0.041266 0.0283,-0.097746 0.06288,-0.125512 0.03458,-0.027765 0.06288,-0.080318 0.06288,-0.1167852 0,-0.036466 0.02122,-0.1113606 0.04716,-0.1664325 0.02594,-0.055072 0.04716,-0.1244044 0.04716,-0.1540719 0,-0.029668 0.04383,-0.131683 0.09739,-0.2266998 0.06339,-0.1124485 0.102974,-0.2311794 0.113383,-0.3401072 0.0088,-0.092042 0.03777,-0.2238296 0.06438,-0.2928609 0.02661,-0.069032 0.0593,-0.1819929 0.07264,-0.2510241 0.03182,-0.1647161 0.06277,-0.261213 0.190063,-0.5926961 0.01915,-0.049856 0.04484,-0.1408526 0.05709,-0.202214 0.01225,-0.061361 0.03893,-0.1388143 0.05929,-0.1721171 0.04363,-0.071379 0.09208,-0.3235619 0.143763,-0.7483042 0.02053,-0.1687444 0.05252,-0.3319101 0.07108,-0.3625912 0.04193,-0.069329 0.110572,-0.4458829 0.122014,-0.6693972 0.0047,-0.092042 0.01855,-0.2928617 0.03075,-0.4462655 0.02865,-0.3603195 0.0093,-0.4022737 -0.241949,-0.5236438 C 17.52615,3.778109 17.469075,3.7661022 17.086461,3.7347027 L 16.66503,3.7001178 16.331891,3.8485534 c -0.326213,0.1453499 -0.749341,0.436429 -0.965134,0.6639375 -0.04562,0.048093 -0.127227,0.1041873 -0.181357,0.124655 -0.134353,0.050802 -0.493818,0.3594247 -0.636493,0.5464681 -0.06436,0.084372 -0.186661,0.2224351 -0.271786,0.3068077 -0.08512,0.084372 -0.167403,0.1819138 -0.182841,0.2167607 -0.02873,0.064856 0.04628,0.792422 0.09372,0.9090189 0.01334,0.032786 0.01971,0.4834702 0.01416,1.0015184 -0.0081,0.7522982 -7.13e-4,0.9814948 0.03654,1.1385647 0.02565,0.1081618 0.04004,0.2240061 0.03198,0.2574306 -0.0081,0.033425 -0.0223,0.364491 -0.03164,0.7357024 -0.0093,0.3712116 -0.03016,0.7056656 -0.04626,0.7432326 -0.0161,0.03757 -0.02357,0.07336 -0.0166,0.07954 0.0296,0.02626 0.037,0.749314 0.0078,0.765304 -0.01889,0.01036 -0.02263,0.08658 -0.0096,0.194894 0.01181,0.09784 0.0272,0.325353 0.03419,0.505594 0.007,0.18024 0.01665,0.428119 0.02145,0.550841 0.0048,0.122724 0.02001,0.238822 0.03379,0.257998 0.04261,0.05927 0.167588,0.03862 0.26169,-0.04324 z"
       id="path231" /></g></svg>
