<?xml version="1.0" encoding="UTF-8" standalone="no"?>
<!-- Created with Inkscape (http://www.inkscape.org/) -->

<svg
   width="75"
   height="100"
   viewBox="0 0 19.84375 26.458333"
   version="1.1"
   id="svg5"
   xml:space="preserve"
   inkscape:version="1.2.2 (b0a8486541, 2022-12-01)"
   sodipodi:docname="algiz.svg"
   xmlns:inkscape="http://www.inkscape.org/namespaces/inkscape"
   xmlns:sodipodi="http://sodipodi.sourceforge.net/DTD/sodipodi-0.dtd"
   xmlns="http://www.w3.org/2000/svg"
   xmlns:svg="http://www.w3.org/2000/svg"><sodipodi:namedview
     id="namedview7"
     pagecolor="#ffffff"
     bordercolor="#999999"
     borderopacity="1"
     inkscape:showpageshadow="0"
     inkscape:pageopacity="0"
     inkscape:pagecheckerboard="0"
     inkscape:deskcolor="#d1d1d1"
     inkscape:document-units="mm"
     showgrid="false"
     inkscape:zoom="0.2973261"
     inkscape:cx="1007.3115"
     inkscape:cy="-6.726621"
     inkscape:window-width="1280"
     inkscape:window-height="955"
     inkscape:window-x="0"
     inkscape:window-y="0"
     inkscape:window-maximized="1"
     inkscape:current-layer="layer1" /><defs
     id="defs2" /><g
     inkscape:label="Warstwa 1"
     inkscape:groupmode="layer"
     id="layer1"><path
       style="fill:#000000;stroke-width:0.0339907"
       d="m 8.9389892,26.438104 c -0.034583,-0.0183 -0.1650201,-0.04001 -0.2898631,-0.04824 -0.1248443,-0.0082 -0.2409648,-0.0257 -0.2580443,-0.03883 -0.020255,-0.01557 -0.023027,-0.153453 -0.00797,-0.396408 0.012695,-0.204895 0.014898,-0.560185 0.0049,-0.789535 -0.029507,-0.676618 -0.036382,-1.00996 -0.041051,-1.990227 -0.00415,-0.87109 0.00167,-1.097353 0.045449,-1.762772 0.0096,-0.14595 0.00293,-0.50419 -0.014828,-0.79609 -0.017753,-0.2919 -0.051846,-0.991322 -0.075763,-1.554273 -0.023917,-0.56295 -0.051687,-1.1259 -0.061711,-1.250999 -0.023133,-0.288641 -0.020305,-0.963041 0.00659,-1.573228 0.01149,-0.260624 0.01848,-0.533569 0.015535,-0.606544 -0.00295,-0.07297 0.00869,-0.231515 0.025855,-0.352312 0.1083543,-0.762502 0.1461883,-1.629385 0.085547,-1.960142 C 8.3189786,13.020405 8.282087,12.737802 8.267234,12.503458 8.259304,12.378359 8.227596,12.216297 8.1967688,12.143322 8.1659415,12.070348 8.1322033,11.950912 8.121795,11.87791 8.100835,11.730886 7.9187465,11.388554 7.8296712,11.328709 7.7677402,11.287099 7.6652439,11.130523 7.4837999,10.800349 7.4072117,10.660983 7.3466684,10.589051 7.3059556,10.589051 c -0.03395,0 -0.1051295,-0.06138 -0.1581772,-0.136396 C 7.0947309,10.377637 6.9530696,10.248954 6.8329758,10.166691 6.7128828,10.084428 6.5784665,9.9581561 6.5342735,9.8860866 6.4900798,9.8140171 6.4407113,9.7550511 6.4245638,9.7550511 c -0.029376,0 -0.3520174,-0.3139683 -0.4094596,-0.3984538 -0.016762,-0.024655 -0.0843,-0.084792 -0.150082,-0.133637 C 5.7992384,9.1741143 5.6637904,9.0435551 5.5640241,8.9328271 5.4610586,8.8185486 5.3535296,8.7315066 5.3153206,8.7315066 c -0.037019,0 -0.1033345,-0.046913 -0.1473653,-0.1042507 C 5.1239248,8.5699186 5.0290825,8.4608614 4.9571968,8.3849064 4.88531,8.3089514 4.7716352,8.1875369 4.704585,8.1150961 4.6375347,8.0426541 4.5535405,7.9721221 4.5179302,7.9583559 4.4823194,7.9445909 4.3961607,7.8322134 4.3264677,7.7086294 4.2567727,7.5850464 4.1596349,7.4484019 4.1106054,7.4049769 4.0615769,7.3615519 3.9910026,7.2586114 3.9537749,7.1762211 3.9165479,7.0938319 3.8611008,7.0165579 3.8305606,7.0045007 c -0.030542,-0.012058 -0.05553,-0.036445 -0.05553,-0.054197 0,-0.01775 -0.048481,-0.089103 -0.1077355,-0.15856 C 3.6080391,6.7222892 3.5226838,6.5972247 3.477616,6.5138249 3.3166308,6.2159149 3.1265122,5.9279827 3.0778347,5.9083564 3.0506127,5.8973814 2.966624,5.7934449 2.8911934,5.6773869 2.8157619,5.5613299 2.6921534,5.3843667 2.6165082,5.2841367 2.5408626,5.1839067 2.4590777,5.0528135 2.4347627,4.9928177 2.410447,4.932821 2.3249059,4.8099102 2.2446695,4.7196815 2.164434,4.6294507 2.0987854,4.5324222 2.0987854,4.5040607 c 0,-0.028361 -0.09174,-0.1507172 -0.2038683,-0.2719005 C 1.782789,4.1109762 1.632929,3.943589 1.5618956,3.8601895 1.4908622,3.776789 1.381423,3.665906 1.318696,3.613781 1.1909338,3.5076108 1.0221238,3.3031455 0.91547633,3.1253935 0.87194633,3.052839 0.81748963,3.0072345 0.77438184,3.0072345 0.72717714,3.0072345 0.66629562,2.9482433 0.58854508,2.827167 0.52494675,2.7281295 0.39195483,2.5456375 0.29300846,2.4216294 0.07738807,2.1513967 0.03347745,2.0536155 0.00835616,1.7877514 -0.00932823,1.6005999 -0.0042356,1.577147 0.07567068,1.4777558 0.12321721,1.4186155 0.22414163,1.3263808 0.29994926,1.272788 0.37575512,1.2191961 0.47892369,1.128204 0.52921135,1.0705826 0.61883116,0.967891 0.77858779,0.87646765 0.95132949,0.82901708 0.99910782,0.81589278 1.0761692,0.77023746 1.1225784,0.72755821 c 0.09425,-0.0866736 0.2950306,-0.0861082 0.6714358,0.001891 0.2259933,0.0528344 0.3139219,0.0973794 0.4383693,0.22207947 0.1241913,0.12444232 0.2773326,0.21223012 0.5064234,0.29030472 0.1089558,0.037133 0.2668343,0.1068917 0.3508421,0.1550203 0.1610555,0.09227 0.441565,0.3749803 0.441565,0.4450302 0,0.044859 0.2462763,0.379826 0.7592454,1.0326696 0.18021,0.2293507 0.3776021,0.4960802 0.4386488,0.5927325 0.061045,0.096653 0.2353811,0.3354797 0.3874103,0.5307274 0.1520296,0.195247 0.3020438,0.4147013 0.3333626,0.4876763 0.054415,0.1267932 0.2625373,0.4050162 0.6096831,0.8150459 0.161897,0.1912233 0.280889,0.3094078 0.5041286,0.5007053 0.06705,0.057456 0.2179123,0.2121077 0.3352495,0.3436692 0.1173368,0.1315628 0.2978986,0.2889663 0.4012481,0.349786 0.1033495,0.060819 0.1967335,0.1283425 0.20752,0.1500503 0.010788,0.021707 0.051159,0.03947 0.089715,0.03947 0.038558,0 0.147207,0.051177 0.2414438,0.1137275 0.2925305,0.194169 0.329027,0.159922 0.323191,-0.3032733 -0.00483,-0.3840907 0.051047,-1.6295979 0.078247,-1.7438177 0.00745,-0.031275 0.016467,-0.4577517 0.020047,-0.9477267 0.0089,-1.2188452 0.066268,-1.5187239 0.4097231,-2.1418627 0.079178,-0.143655 0.1328418,-0.2903028 0.1456583,-0.398046 0.037656,-0.31654254 0.078756,-0.42050124 0.1888708,-0.47772964 0.056505,-0.0293648 0.125089,-0.0958301 0.1524125,-0.14769825 0.073557,-0.13963629 0.2488481,-0.19328204 0.4492699,-0.13749317 0.089322,0.024864 0.1858102,0.0340352 0.2144177,0.0203798 0.055819,-0.0266435 0.1411931,-0.20433769 0.1411931,-0.29387466 0,-0.0300018 0.02526,-0.0933499 0.056134,-0.14077596 L 10.074168,-8.6306133e-7 10.299947,0.07030481 c 0.265764,0.08275774 0.297214,0.10782358 0.355444,0.28329621 0.02422,0.0729741 0.06175,0.15826984 0.08341,0.18954554 0.06389,0.0922436 0.204156,0.56422194 0.181334,0.61015164 -0.01154,0.023227 -0.0243,0.5564854 -0.02834,1.1850178 -0.0048,0.7383315 -0.0214,1.2366997 -0.04701,1.4081477 -0.02305,0.1542483 -0.03647,0.4717188 -0.03204,0.7581803 0.0042,0.2710497 -0.0065,0.6634092 -0.02379,0.8719087 -0.01727,0.2085005 -0.03996,0.6605667 -0.05043,1.0045907 -0.01047,0.3440248 -0.03183,0.6980392 -0.04748,0.7866982 -0.02028,0.1149115 -0.01529,0.255121 0.01741,0.4883063 0.02522,0.1799097 0.04586,0.4080815 0.04586,0.5070465 0,0.11181 0.01691,0.1973937 0.04466,0.2260422 0.05609,0.057907 0.250776,0.02108 0.356676,-0.067471 0.232306,-0.194251 0.368536,-0.3399728 0.420768,-0.4500885 0.03473,-0.073222 0.114696,-0.1563845 0.196174,-0.2040233 0.122008,-0.071337 0.415484,-0.3960947 0.958592,-1.0607752 0.09447,-0.11562 0.254058,-0.2798722 0.354632,-0.3650045 0.100575,-0.085131 0.210293,-0.1933682 0.243818,-0.2405257 0.03353,-0.047159 0.273533,-0.3256345 0.533351,-0.618837 0.259818,-0.2932022 0.507076,-0.5869407 0.549465,-0.6527505 0.110433,-0.1714637 0.422632,-0.486655 0.580436,-0.586004 0.0742,-0.046713 0.147379,-0.1125655 0.162628,-0.1463402 0.01525,-0.033775 0.128396,-0.1865938 0.251436,-0.3395965 0.123041,-0.1530027 0.223711,-0.2934995 0.223711,-0.3122122 0,-0.018712 0.05355,-0.078106 0.119009,-0.131985 0.06546,-0.053879 0.170607,-0.1948578 0.233675,-0.3132873 0.167015,-0.3136302 0.609234,-0.8948825 0.928826,-1.2208462 0.152817,-0.1558641 0.337582,-0.3455458 0.41059,-0.4215136 0.204517,-0.2128093 0.353458,-0.26827083 0.672649,-0.2504722 0.356639,0.019886 0.680177,0.1154612 0.936834,0.2767483 0.114481,0.071941 0.232811,0.1308031 0.262957,0.1308031 0.03015,0 0.07362,0.034908 0.09662,0.077575 0.02378,0.04412 0.10657,0.098016 0.191973,0.1249744 0.189351,0.059771 0.256296,0.1677302 0.290464,0.4684174 0.01444,0.1270509 0.04003,0.2630232 0.05687,0.30216 0.02257,0.052449 0.01555,0.1107908 -0.02668,0.2219012 -0.03151,0.082909 -0.05776,0.177799 -0.05833,0.210866 -6.5e-4,0.033068 -0.05246,0.1225355 -0.115324,0.1988177 -0.06286,0.076282 -0.142328,0.1771708 -0.176597,0.2241963 -0.03427,0.047025 -0.126212,0.140037 -0.204319,0.2066925 -0.0781,0.066657 -0.175081,0.1860704 -0.215503,0.2653642 -0.04042,0.079293 -0.159616,0.2379957 -0.26488,0.35267 -0.105263,0.1146752 -0.26886,0.3023247 -0.36355,0.417 -0.09469,0.1146752 -0.244154,0.2852657 -0.332142,0.379091 -0.08799,0.093825 -0.289679,0.32795 -0.448201,0.5202787 -0.158522,0.1923275 -0.328733,0.3757445 -0.378247,0.4075935 -0.04951,0.031848 -0.111197,0.1133975 -0.137071,0.181223 -0.02588,0.067823 -0.08677,0.1451865 -0.135318,0.1719162 -0.04855,0.026732 -0.10522,0.099492 -0.125934,0.16169 -0.02071,0.0622 -0.07704,0.1420273 -0.125179,0.1773953 -0.04814,0.035369 -0.09508,0.093941 -0.104323,0.1301592 -0.0092,0.03622 -0.08707,0.1476768 -0.172945,0.2476843 -0.327818,0.3817544 -0.366459,0.4439502 -0.453369,0.7297022 -0.04623,0.152008 -0.236134,0.401757 -0.401387,0.527883 -0.06327,0.048286 -0.134297,0.133059 -0.157847,0.1883822 -0.02355,0.055326 -0.174724,0.2703033 -0.335941,0.4777287 -0.161217,0.2074265 -0.34437,0.4718433 -0.407007,0.5875915 -0.08547,0.1579418 -0.15402,0.2349473 -0.274737,0.3086218 -0.08847,0.053993 -0.220908,0.160612 -0.294312,0.2369317 -0.0734,0.076319 -0.148193,0.1387619 -0.166199,0.1387619 -0.018,0 -0.05746,0.05056 -0.08768,0.112364 -0.0549,0.112294 -0.265338,0.342545 -0.313066,0.342545 -0.02865,0 -0.24868,0.235394 -0.555839,0.594656 -0.114688,0.134143 -0.258382,0.272725 -0.31932,0.307961 -0.162017,0.09368 -0.493914,0.495345 -0.514355,0.622476 -0.0099,0.06187 -0.06645,0.154961 -0.135091,0.222585 -0.06489,0.06393 -0.11799,0.136966 -0.11799,0.1623 0,0.02534 -0.04572,0.06663 -0.101605,0.09176 -0.06059,0.02725 -0.1413,0.11445 -0.199927,0.215997 -0.05408,0.09366 -0.126515,0.189063 -0.160973,0.212001 -0.08767,0.05836 -0.480111,0.564142 -0.526692,0.678805 -0.04978,0.122546 -0.08956,0.460354 -0.08258,0.701318 0.003,0.10425 -0.0097,0.364901 -0.02824,0.579225 -0.04414,0.51 -0.04464,0.769927 -0.0016,0.869841 0.05072,0.117889 0.04579,1.024094 -0.0066,1.20928 -0.03297,0.116564 -0.03557,0.244847 -0.01258,0.620788 0.01594,0.260625 0.03322,0.755527 0.03842,1.099779 0.0052,0.344254 0.0238,0.693965 0.04134,0.777137 0.01754,0.08317 0.03285,0.475343 0.03402,0.871492 0.0012,0.396151 0.01161,0.993218 0.0232,1.326818 0.01159,0.3336 0.02489,0.981846 0.02956,1.440545 0.0047,0.458701 0.01639,1.033671 0.02606,1.277713 l 0.01757,0.443711 -0.08563,0.08656 c -0.0471,0.04761 -0.265144,0.308533 -0.484546,0.579833 -0.219401,0.271298 -0.4456949,0.530945 -0.5028734,0.576995 -0.1844576,0.148553 -0.4664526,0.306363 -0.5915971,0.33107 -0.2616968,0.05167 -0.3375521,0.05628 -0.3981233,0.02422 z"
       id="path988" /></g></svg>
