<?xml version="1.0" encoding="UTF-8" standalone="no"?>
<!-- Created with Inkscape (http://www.inkscape.org/) -->

<svg
   width="75"
   height="100"
   viewBox="0 0 19.84375 26.458333"
   version="1.1"
   id="svg5"
   xml:space="preserve"
   inkscape:version="1.2.2 (b0a8486541, 2022-12-01)"
   sodipodi:docname="gebo.svg"
   xmlns:inkscape="http://www.inkscape.org/namespaces/inkscape"
   xmlns:sodipodi="http://sodipodi.sourceforge.net/DTD/sodipodi-0.dtd"
   xmlns="http://www.w3.org/2000/svg"
   xmlns:svg="http://www.w3.org/2000/svg"><sodipodi:namedview
     id="namedview7"
     pagecolor="#ffffff"
     bordercolor="#999999"
     borderopacity="1"
     inkscape:showpageshadow="0"
     inkscape:pageopacity="0"
     inkscape:pagecheckerboard="0"
     inkscape:deskcolor="#d1d1d1"
     inkscape:document-units="mm"
     showgrid="false"
     inkscape:zoom="0.8409652"
     inkscape:cx="149.82784"
     inkscape:cy="210.47244"
     inkscape:window-width="1280"
     inkscape:window-height="955"
     inkscape:window-x="0"
     inkscape:window-y="0"
     inkscape:window-maximized="1"
     inkscape:current-layer="layer1" /><defs
     id="defs2" /><g
     inkscape:label="Warstwa 1"
     inkscape:groupmode="layer"
     id="layer1"><path
       style="fill:#000000;stroke-width:0.0335533"
       d="m 19.01291,26.401597 c -0.04768,-0.04204 -0.112386,-0.05134 -0.265688,-0.03818 -0.171669,0.01472 -0.224674,0.0042 -0.34669,-0.06868 -0.07922,-0.04734 -0.204178,-0.102557 -0.277681,-0.122707 -0.18247,-0.05002 -0.519666,-0.345888 -0.55777,-0.489403 -0.01625,-0.06121 -0.0588,-0.129237 -0.09455,-0.151175 -0.06624,-0.04065 -0.348376,-0.492607 -0.44334,-0.710195 -0.02882,-0.06604 -0.15872,-0.248918 -0.288659,-0.40639 -0.129938,-0.157471 -0.252103,-0.328473 -0.271478,-0.380004 -0.04352,-0.115744 -0.218375,-0.401226 -0.367719,-0.600353 -0.06165,-0.0822 -0.145827,-0.199761 -0.18706,-0.261239 -0.04123,-0.06148 -0.152105,-0.176363 -0.246384,-0.255298 -0.09428,-0.07894 -0.209464,-0.207412 -0.255965,-0.285505 -0.0465,-0.07809 -0.164957,-0.237113 -0.263233,-0.35338 -0.09828,-0.116266 -0.225924,-0.286066 -0.283657,-0.377334 -0.05773,-0.09127 -0.181696,-0.228274 -0.27547,-0.304458 -0.131463,-0.106802 -0.212741,-0.217226 -0.354995,-0.482282 -0.101473,-0.189073 -0.219765,-0.391272 -0.262875,-0.449335 -0.04311,-0.05806 -0.08764,-0.148534 -0.09895,-0.201047 -0.03611,-0.167562 -0.225237,-0.465128 -0.354329,-0.557488 -0.128332,-0.09182 -0.349977,-0.38833 -0.349977,-0.468198 0,-0.02463 -0.07544,-0.154934 -0.167638,-0.289554 -0.0922,-0.134619 -0.213751,-0.321634 -0.270112,-0.415587 -0.05636,-0.09396 -0.157758,-0.212289 -0.225325,-0.262965 -0.06757,-0.05068 -0.132326,-0.12598 -0.143909,-0.167342 -0.01158,-0.04136 -0.0941,-0.16414 -0.183374,-0.272839 -0.263937,-0.321374 -0.79789,-1.115068 -1.042681,-1.549894 -0.03476,-0.06175 -0.119859,-0.178655 -0.189105,-0.259795 -0.06925,-0.08114 -0.196816,-0.248793 -0.28349,-0.37256 -0.08667,-0.123767 -0.188799,-0.256497 -0.226948,-0.294956 -0.03815,-0.03846 -0.07781,-0.113502 -0.08813,-0.166765 -0.01032,-0.05326 -0.06886,-0.151515 -0.130085,-0.218339 -0.06123,-0.06682 -0.130412,-0.172791 -0.153747,-0.235484 -0.03273,-0.08794 -0.071746,-0.122933 -0.1707504,-0.153147 -0.160393,-0.04895 -0.2380217,-0.0079 -0.2993145,0.158386 -0.024505,0.06647 -0.075435,0.139586 -0.1131735,0.162477 -0.03774,0.02289 -0.1017727,0.126586 -0.1422962,0.230433 -0.05159,0.132212 -0.1323083,0.246416 -0.2692605,0.380968 -0.1818765,0.178686 -0.5652373,0.707601 -0.5652373,0.779846 0,0.01756 -0.03278,0.07737 -0.072847,0.1329 -0.040066,0.05553 -0.113083,0.181341 -0.162261,0.279572 -0.049178,0.09823 -0.1546795,0.260691 -0.234448,0.361025 -0.255049,0.320801 -0.4371935,0.563195 -0.5606255,0.746061 -0.066112,0.09795 -0.152115,0.218278 -0.191118,0.267398 -0.039003,0.04912 -0.070914,0.100011 -0.070914,0.113088 0,0.01308 -0.049639,0.09111 -0.11031,0.173415 -0.060671,0.0823 -0.1107778,0.168212 -0.111348,0.190909 -5.25e-4,0.0227 -0.070876,0.137716 -0.1562338,0.255593 -0.085358,0.117875 -0.2828642,0.43132 -0.438903,0.696543 -0.1560385,0.265222 -0.341224,0.559422 -0.4115215,0.65378 -0.070299,0.09436 -0.1760565,0.279209 -0.2350178,0.410782 -0.07094,0.158303 -0.1933935,0.338475 -0.3620085,0.532641 -0.140143,0.16138 -0.2548045,0.309581 -0.2548045,0.329334 0,0.01975 -0.085097,0.211113 -0.1891047,0.425244 -0.1040073,0.214131 -0.1891038,0.400502 -0.1891038,0.41416 0,0.02508 -0.1949107,0.297173 -0.3545707,0.494972 -0.047671,0.05906 -0.086673,0.120299 -0.086673,0.136092 0,0.0158 -0.085097,0.137362 -0.1891048,0.270153 -0.1040082,0.132791 -0.1891045,0.261005 -0.1891045,0.284918 0,0.02391 -0.019058,0.06508 -0.042349,0.09147 -0.023292,0.0264 -0.078063,0.111936 -0.1217118,0.190083 -0.043648,0.07815 -0.1309615,0.211921 -0.1940312,0.297275 -0.063068,0.08535 -0.114668,0.169183 -0.114668,0.186285 0,0.07501 -0.6741815,0.789574 -0.8284848,0.878111 -0.090372,0.05186 -0.2210448,0.146148 -0.2903834,0.20954 -0.1613505,0.147513 -0.2453292,0.196143 -0.3387229,0.196143 -0.042706,0 -0.114806,0.04737 -0.1675381,0.110085 -0.138531,0.164745 -0.2541092,0.203257 -0.6764563,0.225412 L 0.7732019,26.064967 0.5526395,25.842802 C 0.25422429,25.542225 0.05908265,25.196475 0.01766152,24.894938 c -0.02880771,-0.20971 -0.02572832,-0.239331 0.0344686,-0.33161 0.03635646,-0.05573 0.06610224,-0.117495 0.06610224,-0.137254 0,-0.01976 0.0406535,-0.08872 0.0903405,-0.153256 0.0496879,-0.06453 0.124147,-0.192046 0.16546621,-0.283369 0.0413183,-0.09132 0.18460912,-0.300287 0.31842365,-0.464363 0.38263178,-0.469163 0.62867618,-0.787824 0.76525888,-0.991117 0.069339,-0.103205 0.1502244,-0.202688 0.1797483,-0.221076 0.046865,-0.02919 0.2422155,-0.393431 0.4109018,-0.766147 0.030169,-0.06666 0.098443,-0.157727 0.1517191,-0.202368 0.1096953,-0.09192 0.2095021,-0.259827 0.2503199,-0.421131 0.035229,-0.139214 0.1604034,-0.365137 0.3714686,-0.670451 0.091573,-0.132463 0.2581798,-0.395685 0.3702365,-0.584937 0.1120568,-0.189252 0.2371825,-0.368928 0.278056,-0.39928 0.040874,-0.03035 0.128466,-0.148771 0.1946493,-0.26315 0.066183,-0.114378 0.1599847,-0.260189 0.2084495,-0.324025 0.048464,-0.06384 0.1380377,-0.200465 0.1990527,-0.303621 0.061015,-0.103157 0.1898128,-0.300075 0.2862183,-0.437598 0.096406,-0.137523 0.239485,-0.358542 0.3179535,-0.491152 0.078468,-0.132611 0.1536907,-0.241111 0.167162,-0.241111 0.01347,0 0.1122182,-0.116537 0.2194377,-0.258971 0.1072193,-0.142434 0.2257125,-0.299157 0.2633183,-0.348271 0.037607,-0.04912 0.1315777,-0.185745 0.2088257,-0.303623 0.077249,-0.117876 0.2154853,-0.302727 0.3071903,-0.410781 0.091706,-0.108053 0.1970485,-0.276831 0.234095,-0.375062 0.037392,-0.09915 0.139672,-0.259576 0.2299098,-0.360618 0.089404,-0.10011 0.283107,-0.345788 0.4304515,-0.545951 0.1473437,-0.200164 0.3191847,-0.4317 0.3818685,-0.514526 0.062684,-0.08282 0.1392507,-0.206652 0.1701487,-0.275169 0.030898,-0.06852 0.2349013,-0.32756 0.4533418,-0.575648 0.6100135,-0.692811 0.728097,-0.883532 0.728097,-1.175984 0,-0.08183 -0.131627,-0.357394 -0.248248,-0.519717 -0.01517,-0.02112 -0.078254,-0.117562 -0.1401848,-0.21432 -0.06193,-0.09676 -0.1523325,-0.217723 -0.2008955,-0.268809 -0.048562,-0.05109 -0.1225192,-0.170615 -0.16435,-0.265618 -0.041829,-0.095 -0.151747,-0.266049 -0.2442592,-0.380098 -0.092513,-0.11405 -0.1682055,-0.226142 -0.1682055,-0.249093 0,-0.05379 -0.3517935,-0.6397967 -0.5180808,-0.863008 C 6.7157029,9.208135 6.5942691,9.0451242 6.5162634,8.940409 6.4382576,8.835693 6.2751546,8.6024755 6.1538138,8.4221492 6.0324711,8.241823 5.8480946,7.981956 5.7440871,7.8446667 5.6400798,7.7073772 5.5241166,7.526854 5.4863908,7.4435045 5.4486641,7.3601537 5.3181483,7.1728112 5.1963563,7.0271865 5.0745626,6.8815607 4.9432123,6.6925572 4.9044656,6.607178 4.8657198,6.521797 4.7905851,6.3991852 4.7374976,6.3347052 4.6270446,6.2005467 4.3620656,5.820372 4.2498303,5.6350312 4.2080446,5.566028 4.1202081,5.4426047 4.0546363,5.3607575 3.9890636,5.278911 3.8932181,5.1172085 3.8416451,5.0014189 3.7900731,4.8856304 3.7231193,4.7677447 3.6928593,4.7394509 3.6625996,4.7111562 3.5772768,4.5938154 3.5032516,4.4786914 3.4292271,4.3635692 3.3389091,4.2457592 3.3025463,4.2168919 3.2661828,4.1880259 3.2070518,4.0935727 3.1711446,4.0069982 3.1352383,3.9204224 3.0573806,3.7890844 2.9981278,3.7151352 2.8919711,3.5826477 2.5720573,3.0996624 2.4190548,2.8408902 2.3759506,2.7679887 2.3100685,2.6897709 2.2726485,2.6670747 2.2352304,2.6443772 2.1580274,2.5553402 2.1010876,2.4692123 2.0182255,2.3438743 1.9782836,2.3126055 1.9009859,2.3125623 1.7762905,2.3124898 1.6033287,2.2118364 1.5327986,2.0982969 1.4793189,2.0122073 1.4307459,1.655796 1.3899841,1.0503891 1.3692003,0.74171442 1.4016883,0.65313977 1.6215165,0.41913834 c 0.1517496,-0.161534 0.1865979,-0.18280943 0.2688891,-0.1641563 0.051999,0.0117867 0.1815685,-0.004449 0.2879328,-0.0360764 0.1392851,-0.0414181 0.266489,-0.0518475 0.4546872,-0.0372778 0.2439047,0.0188805 0.2742792,0.0304878 0.4562482,0.17434965 0.110013,0.0869744 0.246362,0.2375282 0.3129568,0.34555953 0.064903,0.10529045 0.154002,0.21260153 0.1979947,0.23846995 0.099092,0.0582642 0.4569663,0.47314563 0.487283,0.56490413 0.027385,0.082883 0.1757028,0.2784347 0.4355558,0.5742702 0.1084932,0.1235144 0.2124275,0.273882 0.2309642,0.3341502 0.038539,0.1252938 0.2459993,0.3312288 0.4136693,0.4106283 0.117786,0.055776 0.743289,0.7563712 0.8456972,0.947226 0.031083,0.057927 0.071916,0.116111 0.090741,0.129296 0.034633,0.02426 0.2697371,0.3926662 0.3400011,0.5327807 0.021,0.041879 0.2070572,0.2690333 0.4134587,0.5047858 0.233322,0.266503 0.4055725,0.496721 0.455369,0.608621 0.07144,0.1605325 0.431083,0.7073773 0.7299743,1.1099418 0.059978,0.080781 0.1695575,0.2575965 0.2435077,0.392921 0.073952,0.1353255 0.2200415,0.3606632 0.3246433,0.5007515 0.3186635,0.4267707 0.808568,1.1715542 0.9010245,1.3697947 0.032266,0.069184 0.1585462,0.2449818 0.280623,0.3906643 0.1220762,0.1456805 0.2219566,0.2827465 0.2219566,0.3045893 0,0.065024 0.181254,0.2699577 0.238763,0.2699577 0.02927,0 0.09744,-0.03144 0.151485,-0.069866 C 10.55538,9.70847 10.935953,9.2479695 11.05569,9.0280067 11.11451,8.919952 11.236559,8.7377372 11.326914,8.6230845 11.417264,8.5084317 11.530505,8.3476915 11.578553,8.2658832 11.626603,8.184076 11.707352,8.066212 11.758,8.0039645 c 0.09563,-0.1175338 0.107437,-0.1377423 0.24921,-0.4265938 0.107713,-0.219455 0.266879,-0.465057 0.528876,-0.8160787 0.112674,-0.1509615 0.247412,-0.3609613 0.299415,-0.4666673 0.052,-0.105706 0.162743,-0.290824 0.246087,-0.411374 0.08334,-0.120551 0.164713,-0.2584677 0.180821,-0.3064807 0.01611,-0.048015 0.101772,-0.1629745 0.190367,-0.255467 0.0886,-0.092493 0.197807,-0.2406748 0.242691,-0.3292926 0.04488,-0.088617 0.120246,-0.2123075 0.167473,-0.2748657 0.04723,-0.062559 0.09628,-0.1509665 0.109013,-0.196461 0.01273,-0.045495 0.106999,-0.2075765 0.209486,-0.3601823 0.102487,-0.1526047 0.205623,-0.329419 0.229192,-0.392921 0.02357,-0.063502 0.08656,-0.1626687 0.139987,-0.2203712 0.05342,-0.057702 0.09713,-0.1235253 0.09713,-0.1462745 0,-0.022747 0.02837,-0.070455 0.06303,-0.1060135 0.03467,-0.035558 0.06304,-0.090898 0.06304,-0.1229765 0,-0.032077 0.04197,-0.1139748 0.09327,-0.1819933 0.0513,-0.068019 0.09387,-0.1477835 0.0946,-0.177252 7.25e-4,-0.02947 0.05499,-0.110792 0.120561,-0.1807165 0.06929,-0.073886 0.135677,-0.1893602 0.1585,-0.2756947 0.03462,-0.1309717 0.06434,-0.164174 0.251051,-0.2804682 0.256272,-0.159626 0.322087,-0.2203744 0.322087,-0.2972917 0,-0.032261 0.05793,-0.1221953 0.128741,-0.1998554 0.07081,-0.077659 0.156237,-0.2015773 0.189845,-0.2753705 0.03361,-0.073795 0.09,-0.1541659 0.125308,-0.1786016 0.03531,-0.024437 0.114812,-0.15308405 0.176668,-0.28588233 0.06185,-0.13279927 0.157698,-0.28646535 0.212984,-0.34148007 0.165045,-0.16423568 0.588534,-0.41079992 0.758082,-0.44137203 0.481335,-0.08679411 0.477702,-0.08721353 0.899792,0.10390775 0.328362,0.14868212 0.428437,0.17854572 0.613045,0.1829437 0.162086,0.003861 0.241526,0.0231433 0.299415,0.0726791 0.07155,0.0612256 0.07792,0.087974 0.06927,0.29095838 -0.0052,0.12294403 -0.03614,0.3136067 -0.06867,0.4236959 -0.03253,0.1100892 -0.06882,0.2885693 -0.08065,0.3966222 -0.01183,0.1080538 -0.04188,0.2527211 -0.06678,0.3214815 -0.04522,0.1248803 -0.203094,0.3057525 -0.296667,0.3398945 -0.02724,0.00993 -0.09106,0.116596 -0.141829,0.2370186 -0.05077,0.1204217 -0.127764,0.2438392 -0.1711,0.2742602 -0.196429,0.1378892 -0.399833,0.4217547 -0.486595,0.6790855 -0.06314,0.1872565 -0.109708,0.270904 -0.170745,0.3066765 -0.110763,0.064916 -0.27329,0.3252632 -0.316448,0.5069115 -0.01898,0.07987 -0.06096,0.1723592 -0.09331,0.2055312 -0.03234,0.033171 -0.0837,0.1281485 -0.114132,0.211063 -0.05564,0.1515935 -0.142378,0.3708273 -0.264569,0.6686941 -0.03627,0.088407 -0.172447,0.3054077 -0.302622,0.4822217 -0.130176,0.1768153 -0.291889,0.396928 -0.35936,0.4891393 -0.06747,0.092212 -0.276781,0.3330467 -0.46513,0.5351882 -0.188349,0.2021408 -0.365328,0.4079915 -0.393286,0.457445 -0.02796,0.049454 -0.110136,0.138137 -0.182617,0.1970745 -0.08385,0.068181 -0.219348,0.256584 -0.372511,0.5179425 -0.132401,0.2259295 -0.281492,0.4670415 -0.331313,0.5358028 -0.09395,0.1296692 -0.370698,0.603297 -0.370698,0.6344187 0,0.00974 -0.09088,0.1268943 -0.201945,0.2603356 -0.11107,0.133439 -0.210584,0.2734682 -0.221144,0.3111752 -0.01056,0.037706 -0.05098,0.087835 -0.08983,0.111398 -0.03885,0.023562 -0.105155,0.099945 -0.147352,0.169739 -0.0422,0.069795 -0.191861,0.2580355 -0.332588,0.4183115 -0.140727,0.160276 -0.300936,0.379819 -0.356022,0.487873 -0.06233,0.122267 -0.19117,0.284144 -0.341163,0.428641 -0.132554,0.127699 -0.366743,0.3918 -0.520419,0.586888 l -0.279413,0.354709 v 0.223003 c 0,0.181982 0.01368,0.241579 0.07436,0.323977 0.0409,0.05553 0.0996,0.15723 0.130441,0.225991 0.03084,0.06876 0.09666,0.177821 0.146262,0.242353 0.0496,0.06453 0.09028,0.136867 0.0904,0.160742 6.6e-5,0.02388 0.11358,0.202506 0.252139,0.396961 0.138558,0.194455 0.251925,0.367973 0.251925,0.385595 0,0.01762 0.124624,0.180004 0.276941,0.360848 0.152318,0.180845 0.337116,0.421177 0.410662,0.534071 0.07355,0.112894 0.168928,0.231407 0.21196,0.263364 0.04303,0.03196 0.122367,0.132476 0.1763,0.223379 0.05393,0.0909 0.180594,0.250184 0.281471,0.353958 0.100879,0.103774 0.192909,0.224329 0.204515,0.267902 0.01161,0.04357 0.05341,0.119406 0.09289,0.168522 0.03948,0.04911 0.101998,0.157614 0.138927,0.241111 0.03693,0.0835 0.08034,0.15181 0.09648,0.15181 0.02594,0 0.163977,0.247514 0.322449,0.578167 0.02951,0.06156 0.09333,0.154767 0.141828,0.207113 0.08165,0.08813 0.303097,0.370735 0.490263,0.625666 0.04327,0.05894 0.158025,0.243789 0.255007,0.410781 0.09698,0.166993 0.248062,0.41614 0.335733,0.553664 0.08767,0.137521 0.213157,0.346484 0.278857,0.464361 0.0657,0.117876 0.237723,0.342913 0.382276,0.500083 0.144553,0.157168 0.346593,0.37813 0.448979,0.491026 0.102386,0.112896 0.252606,0.255881 0.333823,0.317744 0.18161,0.138335 0.225129,0.196739 0.38216,0.512875 0.06831,0.137522 0.174686,0.311212 0.236391,0.38598 0.0617,0.07477 0.112189,0.160117 0.112189,0.189669 0,0.02955 0.06816,0.137156 0.151474,0.239123 0.273463,0.334695 0.510391,0.747787 0.510391,0.889882 0,0.02532 0.136149,0.20669 0.302553,0.403038 0.438443,0.517343 0.502638,0.683808 0.568676,1.474653 0.01628,0.195025 0.0074,0.253302 -0.06728,0.441942 -0.06313,0.15944 -0.08125,0.250745 -0.06805,0.342948 0.0189,0.131992 0.01591,0.136632 -0.288611,0.44836 -0.08567,0.0877 -0.265288,0.204045 -0.311771,0.20195 -0.01386,-5e-4 -0.05357,-0.02614 -0.08824,-0.05671 z"
       id="path992" /></g></svg>
