<?xml version="1.0" encoding="UTF-8" standalone="no"?>
<!-- Created with Inkscape (http://www.inkscape.org/) -->

<svg
   width="220mm"
   height="270mm"
   viewBox="0 0 220 270"
   version="1.1"
   id="svg5"
   xml:space="preserve"
   inkscape:version="1.2.2 (b0a8486541, 2022-12-01)"
   sodipodi:docname="hagalaz.svg"
   xmlns:inkscape="http://www.inkscape.org/namespaces/inkscape"
   xmlns:sodipodi="http://sodipodi.sourceforge.net/DTD/sodipodi-0.dtd"
   xmlns="http://www.w3.org/2000/svg"
   xmlns:svg="http://www.w3.org/2000/svg"><sodipodi:namedview
     id="namedview7"
     pagecolor="#ffffff"
     bordercolor="#999999"
     borderopacity="1"
     inkscape:showpageshadow="0"
     inkscape:pageopacity="0"
     inkscape:pagecheckerboard="0"
     inkscape:deskcolor="#d1d1d1"
     inkscape:document-units="mm"
     showgrid="false"
     inkscape:zoom="0.074331525"
     inkscape:cx="2213.0583"
     inkscape:cy="1735.4682"
     inkscape:window-width="1280"
     inkscape:window-height="955"
     inkscape:window-x="0"
     inkscape:window-y="0"
     inkscape:window-maximized="1"
     inkscape:current-layer="layer1" /><defs
     id="defs2" /><g
     inkscape:label="Warstwa 1"
     inkscape:groupmode="layer"
     id="layer1"><path
       style="fill:#000000;stroke-width:0.334436"
       d="m 196.74172,269.19939 c -0.96649,-0.46588 -2.30463,-0.85338 -2.97365,-0.86111 -3.86437,-0.0447 -4.81814,-0.95772 -8.6082,-8.24071 -1.41102,-2.71142 -1.55773,-3.42171 -1.67059,-8.08785 -0.0562,-2.32206 -0.26052,-4.22478 -0.5076,-4.72594 -0.25508,-0.5174 -0.43466,-2.31479 -0.46855,-4.6897 -0.0369,-2.59185 -0.21827,-4.27102 -0.55449,-5.13625 -0.36877,-0.94899 -0.55828,-3.19406 -0.72395,-8.57671 -0.20643,-6.70658 -0.27774,-7.35514 -0.88918,-8.08826 -0.59435,-0.71259 -0.62685,-0.95265 -0.30685,-2.26624 0.43418,-1.78227 0.32824,-2.01274 -0.92512,-2.01274 -0.69928,0 -1.2154,-0.30914 -1.81828,-1.08906 -2.41108,-3.11917 -4.33422,-5.18973 -5.17436,-5.57102 -0.51657,-0.23445 -0.93922,-0.57486 -0.93922,-0.75648 0,-1.10165 -1.47329,-3.87835 -2.30908,-4.35191 -0.51643,-0.2926 -1.54177,-1.15356 -2.27855,-1.91324 -1.86117,-1.91898 -7.38146,-5.24371 -9.0982,-5.4796 -1.01581,-0.13957 -1.47024,-0.39516 -1.7046,-0.95874 -0.17575,-0.42263 -0.73759,-1.03901 -1.24852,-1.3697 -0.51094,-0.33069 -1.0726,-0.89528 -1.24812,-1.25464 -0.17553,-0.35936 -0.78761,-0.76124 -1.36018,-0.89307 -1.12919,-0.25999 -2.80824,-1.82191 -3.7549,-3.49295 -1.20392,-2.12518 -3.3878,-4.39341 -4.57614,-4.75293 -0.78318,-0.23694 -1.3337,-0.69038 -1.64885,-1.35812 -0.32321,-0.68483 -1.24688,-1.42711 -2.91535,-2.34284 -1.34323,-0.73723 -2.50487,-1.51924 -2.58142,-1.7378 -0.12873,-0.36758 -2.61207,-2.27756 -4.09541,-3.14985 -0.35144,-0.20667 -0.81371,-0.76507 -1.02725,-1.24088 -0.51398,-1.14528 -1.17739,-1.74186 -3.286,-2.95497 -2.01258,-1.15787 -2.12234,-1.28408 -2.54825,-2.93016 -0.22813,-0.88168 -1.73616,-2.76194 -5.51253,-6.87326 -2.85918,-3.11275 -5.84548,-6.53418 -6.63625,-7.60318 -1.68739,-2.28111 -6.06721,-6.51193 -7.66801,-7.40715 -0.61504,-0.34395 -2.15962,-1.64159 -3.43241,-2.88364 -1.31641,-1.28462 -2.969446,-2.52976 -3.834006,-2.88795 -3.61382,-1.4972 -4.5567,-2.14466 -5.84421,-4.01311 -0.90673,-1.31587 -1.57392,-1.92972 -2.26107,-2.0803 -0.93218,-0.20428 -1.60647,-0.67413 -3.88996,-2.71062 -0.56464,-0.50358 -1.60172,-1.24281 -2.30462,-1.64273 -0.70291,-0.39994 -1.90679,-1.43888 -2.67529,-2.30877 -0.87767,-0.99347 -1.95023,-1.78286 -2.88421,-2.12276 -0.81782,-0.29762 -1.98624,-0.90427 -2.59648,-1.3481 -0.61025,-0.44382 -1.78978,-1.08484 -2.62117,-1.42448 -1.50031,-0.61291 -5.48788,-3.36056 -7.84266,-5.40402 -0.67498,-0.58575 -1.65001,-1.1742 -2.16673,-1.30768 -0.51673,-0.13347 -1.58649,-0.82724 -2.37725,-1.54171 -0.79077,-0.71448 -2.15663,-1.73731 -3.03526,-2.27298 -0.87863,-0.53567 -2.53205,-1.87698 -3.67426,-2.9807 -1.14222,-1.10372 -2.25581,-2.06949 -2.47465,-2.14618 -0.48438,-0.16972 -2.5975,-1.92706 -5.45648,-4.53783 -1.17323,-1.07135 -2.88795,-2.39603 -3.81051,-2.94371 -0.92256,-0.547684 -1.67738,-1.125084 -1.67738,-1.283114 0,-0.15802 -0.61104,-0.6264 -1.35788,-1.04083 -0.74683,-0.41444 -1.89382,-1.28047 -2.54886,-1.92451 -1.86835,-1.83701 -2.25114,-1.40073 -1.99372,2.27236 0.11628,1.659334 0.25589,7.979194 0.31025,14.044164 0.14735,16.44376 0.32408,20.74121 1.32443,32.20643 0.27718,3.17688 0.5483,9.55419 0.60249,14.17181 0.0542,4.61762 0.25978,10.84011 0.45688,13.82776 0.19711,2.98765 0.3566,6.21976 0.35443,7.18245 -0.007,3.25505 0.26063,10.13932 0.47791,12.27761 0.15057,1.4817 0.0682,2.70119 -0.27188,4.0258 -0.393,1.53068 -0.45532,3.26181 -0.32044,8.90162 0.20252,8.46793 0.20112,7.77418 0.0517,25.5551 -0.0663,7.89407 -0.0487,16.63706 0.0391,19.42888 0.15713,4.99281 0.14602,5.10182 -0.67786,6.65132 -0.46068,0.86642 -1.10767,2.09043 -1.43775,2.72001 -0.58734,1.12027 -1.89804,2.02178 -6.67065,4.58812 -1.05436,0.56695 -2.34834,1.5316 -2.87551,2.14364 -2.10247,2.44098 -4.78904,2.83511 -7.23336,1.06116 -0.99267,-0.72043 -2.01442,-1.11112 -3.32965,-1.27317 -2.08743,-0.25719 -2.81374,-0.56442 -3.90157,-1.65038 -0.49366,-0.49281 -1.20955,-0.74298 -2.2364999,-0.78158 -1.36099,-0.0511 -1.68919,-0.24355 -3.31682,-1.94448 -1.11566,-1.16591 -2.20054,-2.75779 -2.83727,-4.16318 -0.56701,-1.2515 -1.42647,-2.77166 -1.90992,-3.37813 -1.10602999,-1.38747 -1.89780999,-6.23582 -1.33923999,-8.20067 0.32465,-1.14203 0.70891,-5.12376 0.85891999,-8.90028 0.2618,-6.59075 0.64458,-11.04859 1.05207,-12.25246 0.91378,-2.69962 1.12226,-36.40216 0.2349,-37.9753 -0.11886,-0.21072 0.11327,-1.04683 0.51584,-1.85803 0.70521,-1.42104 0.73194,-1.78176 0.73182,-9.87658 -6e-5,-4.62092 -0.17381,-10.37083 -0.38609,-12.77755 -0.21229,-2.40673 -0.36433,-7.44774 -0.33788,-11.20223 0.0956,-13.56982 9.1e-4,-19.47051 -0.3471,-21.70434 -0.35281,-2.26244 -1.02033,-11.88458 -1.05642,-15.22804 -0.0104,-0.96269 0.17051,-2.93183 0.40201,-4.37587 0.49249,-3.07208 0.4927,-6.99187 9e-4,-18.028604 -0.23771,-5.33516 -0.53107,-8.67654 -0.86949999,-9.90394 -0.43619,-1.58194 -0.45201,-2.13986 -0.1084,-3.82216 0.28692999,-1.40483 0.33028999,-3.13279 0.15118999,-6.02425 -0.37821999,-6.10558 -0.19002999,-13.52124 0.39999,-15.76242 0.39145,-1.48696 0.44744,-2.6031 0.25463,-5.07602 -0.13594,-1.74347 -0.26931,-5.53292 -0.29637,-8.42099 -0.0271,-2.88807 -0.20303,-6.275 -0.39104999,-7.52649 -0.25897,-1.72392 -0.23727,-3.16642 0.0896,-5.9512 0.23725,-2.02165 0.38692,-5.5661 0.3326,-7.87657 -0.0543,-2.31046 0.0323,-4.59467 0.19266,-5.07602 0.16029,-0.48134 0.39105,-1.50381 0.5128,-2.27217 l 0.22137,-1.397 2.38793,-0.008 c 2.17872,-0.008 2.56435,-0.12278 4.40191,-1.31604 2.1885099,-1.4211597 2.8597599,-1.5892597 3.1408899,-0.78654 0.30849,0.88084 2.49215,1.31979 4.40313,0.88513 2.03725,-0.46341 3.87243,-0.0883 5.56201,1.13676 1.56404,1.13406 1.98101,1.25338 5.13788,1.47022 3.39478,0.23319 5.12756,1.21226 5.90286,3.33532 0.28464,0.77945 0.51753,1.81757 0.51753,2.30691 0,0.48936 0.35708,2.25841 0.79352,3.93122 0.70004,2.68315 0.94096,3.99765 1.67362,9.13128 0.0933,0.65386 -6.4e-4,2.02229 -0.20862,3.04094 -0.31399,1.53733 -0.29372,2.16416 0.11935,3.68816 0.27369,1.00983 0.49763,2.57247 0.49763,3.47253 0,1.28864 0.33787,2.33546 1.58953,4.92496 2.09217,4.32834 2.81288,5.27739 4.01108,5.28182 2.57216,0.01 3.53168,0.31822 4.73096,1.52204 0.6695,0.67202 1.96156,1.76286 2.87125,2.42408 0.90968,0.66122 2.23799,1.65865 2.95181,2.2165 0.71382,0.55786 2.00779,1.46131 2.87551,2.00766 0.8677,0.54636 2.11164,1.51001 2.7643,2.14146 0.65267,0.63144 1.90053,1.54443 2.77302,2.02885 0.87251,0.48445 1.67498,1.03787 1.78327,1.22987 0.23154,0.41049 4.4765,4.00329 6.22111,5.26535 0.66538,0.48135 2.29196,2.05666 3.61462,3.5007 2.76403,3.01771 6.04867,6.04341 7.99633,7.36599 3.8148,2.59047 6.2689,4.12816 6.96307,4.36291 1.70817,0.57767 6.99395,4.77729 8.18834,6.50575 2.11477,3.06039 3.68063,5.02366 4.582206,5.74514 0.4812,0.38508 1.76679,1.469504 2.85686,2.409814 1.09008,0.94033 2.57892,1.96864 3.30853,2.28512 2.24452,0.97361 3.81419,2.04472 5.48008,3.7395 0.87863,0.89386 2.53204,2.29276 3.67426,3.10865 1.14222,0.81591 2.73163,2.25449 3.53204,3.19684 1.35294,1.59288 5.51633,5.15662 10.38563,8.88979 1.8035,1.3827 6.17689,5.4155 11.42822,10.53823 1.73245,1.69001 6.02411,5.24597 7.77261,6.44016 0.56382,0.38508 2.43659,2.12343 4.16172,3.86299 2.8665,2.8905 6.9262,6.63345 9.09942,8.38946 0.47657,0.38508 1.70219,1.37129 2.72359,2.19159 1.02141,0.8203 2.4322,2.20305 3.13511,3.07277 2.36355,2.92452 4.14722,4.78162 5.11201,5.32244 0.52717,0.29552 1.63867,1.15776 2.46998,1.91609 2.2458,2.04863 2.59842,1.80066 2.85046,-2.00454 0.11463,-1.73079 0.23676,-4.40714 0.27139,-5.94745 0.0346,-1.5403 0.20056,-3.6167 0.36875,-4.61421 0.20245,-1.2007 0.19226,-2.50215 -0.0302,-3.85078 -0.43084,-2.61226 -0.89387,-9.23042 -1.15895,-16.565 -0.11481,-3.17688 -0.25641,-6.24874 -0.31467,-6.82636 -0.0582,-0.57762 -0.19657,-2.31046 -0.30734,-3.85077 -0.11079,-1.54031 -0.48947,-4.20942 -0.84153,-5.93135 -0.40625,-1.98701 -0.56093,-3.58566 -0.42339,-4.37588 0.44279,-2.54388 0.15892,-8.50018 -0.5265,-11.047034 -0.36271,-1.34777 -0.77543,-3.63198 -0.91714,-5.07602 -0.1417,-1.44404 -0.36618,-3.08681 -0.49882,-3.6506 -0.13265,-0.56379 -0.26523,-2.21787 -0.29464,-3.67573 -0.0294,-1.45787 -0.22172,-4.54104 -0.42738,-6.8515 -0.20565,-2.31045 -0.45361,-7.98158 -0.55101,-12.60251 -0.0974,-4.62092 -0.26436,-8.95303 -0.371,-9.62692 -0.10665,-0.67389 -0.21866,-5.2423 -0.2489,-10.15203 -0.0303,-4.90972 -0.23854,-10.41891 -0.4629,-12.24262 -0.71803,-5.83643 -0.61179,-10.13208 0.37537,-15.17862 0.48325,-2.47042 0.87863,-5.42118 0.87863,-6.55725 0,-2.19914 1.38321,-9.3227197 2.11661,-10.9005797 0.24166,-0.51992 0.43939,-1.25926 0.43939,-1.64298 0,-1.45181 0.95381,-1.6952 6.21274,-1.58534 3.75696,0.0785 5.15752,0.23621 5.9166,0.66631 0.75899,0.43004 1.44626,0.50747 2.90226,0.32699 1.88741,-0.23397 1.91937,-0.22301 2.99566,1.02738 0.59834,0.69513 1.42443,1.9323 1.83574,2.74927 0.56315,1.11857 1.07843,1.6192 2.0865,2.0272 0.73627,0.29801 1.80486,0.93234 2.37464,1.40964 0.5698,0.4773 1.76391,1.26391 2.65357,1.74802 1.3722,0.7466797 1.76214,1.1971497 2.57046,2.9694797 l 0.95288,2.08927 0.14895,12.4336 c 0.18848,15.73347 0.1963,20.17828 0.0382,21.71045 -0.0696,0.67387 0.0589,2.48549 0.2853,4.02579 0.22645,1.54031 0.46156,6.34502 0.52248,10.67713 0.11906,8.46723 0.50899,14.1222 1.24316,18.0286 0.73569,3.91458 1.15049,9.59267 1.29144,17.67853 0.0722,4.139584 0.27692,8.235404 0.45503,9.101824 0.90788,4.4165 2.10764,16.991 2.40484,25.20503 0.10102,2.79181 0.32691,6.80885 0.502,8.92678 0.17507,2.11792 0.45668,8.26165 0.62579,13.65272 0.33912,10.81065 0.97745,19.6407 1.81617,25.12289 0.3704,2.42111 0.57493,6.01295 0.63076,11.07742 0.0648,5.87239 0.19262,7.79576 0.5908,8.88612 0.44448,1.21714 0.46075,1.92318 0.12979,5.63305 -0.25035,2.80613 -0.31107,7.3522 -0.17946,13.43366 0.17894,8.26852 0.26366,9.33117 0.84311,10.57566 0.35429,0.76092 0.64418,2.0085 0.64418,2.77239 0,2.27898 0.65497,6.81443 1.09259,7.56579 0.26587,0.4565 0.48637,2.87278 0.63364,6.94367 0.2245,6.20579 0.2207,6.25832 -0.62868,8.69378 -0.7346,2.10635 -1.24155,2.86729 -3.61193,5.42144 -1.51656,1.63414 -3.1442,3.19535 -3.61698,3.46934 -0.47277,0.274 -1.11122,0.9649 -1.41876,1.53535 -0.84722,1.57145 -1.89942,1.88761 -5.3412,1.60488 -2.31345,-0.19004 -3.37511,-0.12029 -4.69231,0.30831 -2.06216,0.67099 -1.70162,0.70128 -3.82291,-0.32125 z"
       id="path994" /></g></svg>
