<?xml version="1.0" encoding="UTF-8" standalone="no"?>
<!-- Created with Inkscape (http://www.inkscape.org/) -->

<svg
   width="220mm"
   height="270mm"
   viewBox="0 0 220 270"
   version="1.1"
   id="svg5"
   xml:space="preserve"
   inkscape:version="1.2.2 (b0a8486541, 2022-12-01)"
   sodipodi:docname="naudiz.svg"
   xmlns:inkscape="http://www.inkscape.org/namespaces/inkscape"
   xmlns:sodipodi="http://sodipodi.sourceforge.net/DTD/sodipodi-0.dtd"
   xmlns="http://www.w3.org/2000/svg"
   xmlns:svg="http://www.w3.org/2000/svg"><sodipodi:namedview
     id="namedview7"
     pagecolor="#ffffff"
     bordercolor="#999999"
     borderopacity="1"
     inkscape:showpageshadow="0"
     inkscape:pageopacity="0"
     inkscape:pagecheckerboard="0"
     inkscape:deskcolor="#d1d1d1"
     inkscape:document-units="mm"
     showgrid="false"
     inkscape:zoom="0.074331525"
     inkscape:cx="2643.5621"
     inkscape:cy="699.56859"
     inkscape:window-width="1280"
     inkscape:window-height="955"
     inkscape:window-x="0"
     inkscape:window-y="0"
     inkscape:window-maximized="1"
     inkscape:current-layer="layer1" /><defs
     id="defs2" /><g
     inkscape:label="Warstwa 1"
     inkscape:groupmode="layer"
     id="layer1"><path
       style="fill:#000000;stroke-width:0.358378"
       d="m 104.76755,269.31335 c -1.0084,-0.64144 -1.32638,-0.67987 -2.66462,-0.32203 -2.04203,0.54602 -3.546051,0.20732 -5.340321,-1.20262 -4.22326,-3.31867 -5.63813,-7.98689 -4.5752,-15.09544 1.31391,-8.78702 1.74628,-13.11196 1.87036,-18.70917 0.0825,-3.72066 0.34485,-6.80607 0.71181,-8.37098 0.68602,-2.92564 0.46485,-9.99336 -0.42849,-13.69201 -0.32473,-1.34453 -0.46241,-2.98913 -0.3438,-4.10694 0.99079,-9.33745 1.07025,-12.31949 0.43335,-16.26399 -0.45944,-2.84543 -0.56659,-4.75786 -0.38713,-6.90965 0.14046,-1.68412 0.0869,-3.90514 -0.12355,-5.11803 -0.78569,-4.52952 -0.44171,-24.16306 0.48179,-27.49864 0.27191,-0.98209 0.60383,-3.28021 0.73759,-5.10691 l 0.24321,-3.3213 -1.45364,-1.37317 c -0.79952,-0.75526 -2.39524,-1.81534 -3.54606,-2.35575 -1.15081,-0.54041 -2.80347,-1.5215 -3.67256,-2.18019 -0.86909,-0.6587 -1.77687,-1.19763 -2.01727,-1.19763 -0.88946,0 -4.71827,-2.28585 -6.06511,-3.62094 -0.76502,-0.75834 -1.54504,-1.37882 -1.73338,-1.37882 -0.5874,0 -3.43227,-2.0883 -5.24492,-3.85009 -0.9537,-0.92694 -2.92495,-2.48887 -4.38056,-3.47097 -1.45561,-0.9821 -3.39011,-2.43793 -4.29889,-3.23518 -0.90879,-0.79726 -2.25219,-1.81046 -2.98533,-2.25156 -1.35212,-0.81351 -4.601,-4.15028 -4.601,-4.72547 0,-0.29948 -1.5767,-1.44393 -4.14652,-3.00972 -0.65222,-0.3974 -2.08025,-1.56252 -3.1734,-2.58916 -1.09315,-1.02664 -2.15066,-1.86661 -2.35003,-1.86661 -0.19937,0 -1.30245,-0.77678 -2.45127,-1.72616 -2.55446,-2.11101 -4.77313,-3.52536 -6.01617,-3.83516 -0.51406,-0.12812 -1.22749,-0.60264 -1.58541,-1.054468 -0.35791,-0.45184 -1.40184,-1.17212 -2.31983,-1.60061 -0.91801,-0.4285 -2.36234,-1.38425 -3.20965,-2.12391 -0.8473,-0.73964 -2.43064,-1.79139 -3.51854,-2.33721 -1.0879,-0.54583 -2.77987,-1.70725 -3.75995,-2.58095 -0.98008,-0.8737 -2.59844,-1.99639 -3.59636,-2.49488 -0.99791,-0.49849 -2.54265,-1.57712 -3.43275,-2.39695 -0.89009,-0.81984 -2.67029,-2.19338 -3.95598,-3.05233 -3.3096096,-2.21107 -7.8283396,-6.94682 -8.3047096,-8.70355 -0.21409,-0.78953 -1.06581,-2.12188 -1.97019,-3.08199 C 0.71687937,70.572022 -6.329536e-7,69.486262 -6.329536e-7,69.089382 c 0,-1.12869 0.9983800029536,-3.65945 2.1455700329536,-5.43878 0.62421,-0.96817 1.14619,-2.37774 1.29452,-3.49579 0.23914,-1.80253 0.30078,-1.88745 1.62777,-2.24228 0.75859,-0.20284 1.58746,-0.66167 1.84196,-1.01962 1.06996,-1.50497 2.70159,-1.91974 7.6374696,-1.94153 4.63774,-0.0204 4.72082,-0.007 7.03083,1.17647 3.79322,1.94265 6.56838,3.63964 7.91197,4.83813 1.50086,1.33877 4.96073,3.64218 7.14627,4.75763 2.46415,1.25766 7.93797,4.97838 14.261,9.69365 4.49934,3.35528 5.35938,3.93557 7.35135,4.96011 1.54841,0.7964 3.31282,2.22758 8.04201,6.52323 1.22089,1.10896 2.78622,2.251 3.47852,2.53787 0.6923,0.28687 2.33953,1.58755 3.66053,2.89041 1.321,1.30286 3.42487,2.95223 4.67526,3.66527 3.42551,1.95339 5.02041,3.01711 6.40926,4.274688 0.6923,0.62687 1.69222,1.3591 2.22204,1.62718 0.52982,0.26808 2.27974,1.69272 3.8887,3.16586 3.03828,2.78181 5.49369,4.36351 6.29806,4.057 0.66348,-0.25283 0.88626,-1.34666 0.89904,-4.41413 0.006,-1.47313 0.25469,-3.80338 0.55235,-5.178308 0.35488,-1.63922 0.60132,-5.38923 0.71581,-10.89233 0.096,-4.61584 0.35869,-11.18637 0.58367,-14.60119 0.405861,-6.16022 0.24735,-12.72212 -0.41508,-17.18295 -0.1896,-1.27672 -0.34797,-6.0358 -0.35195,-10.57573 -0.004,-4.53993 -0.17233,-9.11888 -0.37411,-10.17545 -0.20179,-1.05656 -0.36723,-5.6988 -0.36766,-10.31609 -7.2e-4,-8.79679 0.25888,-11.00569 1.77321,-15.08225 0.417731,-1.1245005 0.760111,-2.3298005 0.760851,-2.6784305 0.003,-1.38296 1.41812,-2.95585 3.47042,-3.85713 1.12208,-0.49278 3.16442,-1.63146 4.53854,-2.53042 L 111.20659,1.5180512e-6 113.48858,0.56922152 c 1.25509,0.31306 2.94456,0.56920998 3.75437,0.56920998 1.96964,0 2.99927,0.59749 5.6466,3.27667 3.23707,3.27602 3.75518,4.67822 4.13347,11.1869005 0.28332,4.87459 0.55387,7.04028 1.76222,14.10645 0.21832,1.27673 0.47047,7.14251 0.56032,13.03507 0.12608,8.26924 0.29671,11.2434 0.74785,13.03508 0.83534,3.31753 1.02003,23.4968 0.25373,27.72528 -0.28955,1.5978 -0.51276,3.84769 -0.49602,4.99976 0.0507,3.486 -0.64494,16.890808 -1.04453,20.129488 -1.03486,8.38763 -0.5998,20.99551 0.75633,21.91817 0.32511,0.22118 1.61022,1.09258 2.85579,1.93641 1.24559,0.84384 3.31663,2.24927 4.60232,3.12317 1.28571,0.87391 2.96061,1.9225 3.72202,2.33022 0.76141,0.40771 2.0561,1.35119 2.87708,2.09662 0.82099,0.74542 2.05912,1.63443 2.75143,1.97557 3.02789,1.49201 5.72702,3.39938 8.10158,5.72505 2.54725,2.49482 7.22042,6.12667 10.65459,8.28044 0.99791,0.62585 2.79942,1.99186 4.00332,3.03556 3.52984,3.06012 7.09871,5.60153 9.23508,6.57634 3.50954,1.60135 5.04221,2.4446 5.93912,3.26755 0.48179,0.44206 1.72352,1.29998 2.75942,1.90651 1.0359,0.60652 2.71913,1.81172 3.7405,2.67823 1.02139,0.8665 1.98009,1.57546 2.13044,1.57546 0.15037,0 0.85296,0.50531 1.56131,1.12292 0.70837,0.61761 1.95356,1.41531 2.76711,1.77267 0.81354,0.35736 1.78213,0.98217 2.15242,1.38848 0.37029,0.40631 1.25032,1.08216 1.95564,1.5019 0.70531,0.41975 2.37614,1.62788 3.71295,2.68474 2.23436,1.76645 5.64007,3.65966 6.59852,3.66806 0.21881,0.002 2.06411,1.57366 4.10066,3.49274 3.3907,3.19515 3.72132,3.6241 3.92234,5.08903 0.12074,0.87988 0.008,2.63383 -0.25073,3.89768 -0.32208,1.57382 -0.36029,2.58661 -0.12123,3.21413 0.19197,0.50392 0.4479,2.04217 0.56874,3.41833 0.19912,2.26745 0.13875,2.61107 -0.64372,3.66426 -0.4749,0.63919 -1.52514,1.63814 -2.33388,2.21989 -1.15141,0.82826 -1.59126,1.46181 -2.0274,2.92021 -0.59726,1.99716 -1.76121,3.51424 -2.6962,3.51424 -0.31711,0 -0.92624,-0.24321 -1.3536,-0.54047 -0.51282,-0.35668 -1.54896,-0.52759 -3.04703,-0.50261 -2.66736,0.0444 -4.48767,-0.34444 -8.31015,-1.77559 -2.68046,-1.00358 -5.28832,-2.59638 -5.28832,-3.22994 0,-0.16405 -0.60688,-0.58405 -1.34862,-0.93334 -0.74176,-0.34929 -2.23874,-1.23196 -3.32664,-1.96148 -1.08789,-0.72953 -2.46914,-1.57325 -3.06942,-1.87494 -0.6003,-0.30168 -1.4767,-1.04771 -1.94758,-1.65784 -0.47087,-0.61012 -1.43625,-1.4582 -2.14528,-1.88462 -0.70903,-0.42642 -1.93649,-1.27456 -2.72769,-1.88474 -0.79119,-0.61019 -2.39325,-1.57493 -3.56012,-2.14386 -1.16687,-0.56894 -2.86615,-1.72173 -3.77617,-2.56177 -0.91003,-0.84004 -2.78744,-2.12323 -4.17204,-2.85154 -4.52634,-2.38092 -7.35985,-4.36718 -12.58723,-8.82353 -0.7912,-0.6745 -2.49048,-1.83688 -3.77617,-2.58306 -1.2857,-0.7462 -3.08963,-2.00839 -4.00876,-2.80487 -2.49511,-2.16217 -5.02682,-4.03657 -6.66427,-4.93401 -2.64178,-1.44789 -3.77925,-2.21285 -5.10274,-3.43166 -0.7188,-0.66193 -2.25819,-1.86723 -3.42087,-2.67843 -1.16269,-0.81121 -2.336,-1.6348 -2.60736,-1.83022 -0.84007,-0.60496 -1.73138,0.29239 -1.98676,2.0002 -0.12906,0.86307 -0.14555,4.703 -0.0366,8.53317 0.15962,5.61358 0.0887,7.41405 -0.36602,9.28525 -0.64671,2.66149 -1.01305,11.1325 -1.15062,26.60583 -0.10923,12.28741 -0.66554,21.9031 -1.46691,25.35589 -0.42873,1.84721 -0.57546,4.25358 -0.56203,9.21701 0.0229,8.47485 -0.38211,12.91185 -1.35086,14.79749 -0.79217,1.54193 -1.31932,1.87708 -2.95245,1.87708 -0.67643,0 -1.52735,0.42053 -2.39813,1.18516 -2.5075,2.20189 -3.72373,2.71544 -7.32226,3.0918 -4.40691,0.46091 -4.27422,0.46979 -5.60186,-0.37472 z"
       id="path986" /></g></svg>
