<?xml version="1.0" encoding="UTF-8" standalone="no"?>
<!-- Created with Inkscape (http://www.inkscape.org/) -->

<svg
   width="220mm"
   height="270mm"
   viewBox="0 0 220 270"
   version="1.1"
   id="svg5"
   xml:space="preserve"
   inkscape:version="1.2.2 (b0a8486541, 2022-12-01)"
   sodipodi:docname="oþila.svg"
   inkscape:export-filename="oþila.png"
   inkscape:export-xdpi="96"
   inkscape:export-ydpi="96"
   xmlns:inkscape="http://www.inkscape.org/namespaces/inkscape"
   xmlns:sodipodi="http://sodipodi.sourceforge.net/DTD/sodipodi-0.dtd"
   xmlns="http://www.w3.org/2000/svg"
   xmlns:svg="http://www.w3.org/2000/svg"><sodipodi:namedview
     id="namedview7"
     pagecolor="#ffffff"
     bordercolor="#999999"
     borderopacity="1"
     inkscape:showpageshadow="0"
     inkscape:pageopacity="0"
     inkscape:pagecheckerboard="0"
     inkscape:deskcolor="#d1d1d1"
     inkscape:document-units="mm"
     showgrid="false"
     inkscape:zoom="0.074331525"
     inkscape:cx="2213.0583"
     inkscape:cy="1735.4682"
     inkscape:window-width="1280"
     inkscape:window-height="955"
     inkscape:window-x="0"
     inkscape:window-y="0"
     inkscape:window-maximized="1"
     inkscape:current-layer="layer1" /><defs
     id="defs2" /><g
     inkscape:label="Warstwa 1"
     inkscape:groupmode="layer"
     id="layer1"><path
       style="fill:#000000;stroke-width:0.35143"
       d="m 35.275287,269.88617 c -0.873756,-0.13286 -2.05896,-0.57276 -2.633788,-0.97756 -0.574826,-0.40479 -1.756262,-1.0739 -2.625412,-1.48691 -2.719106,-1.2921 -5.589832,-3.20572 -6.021872,-4.01417 -0.228104,-0.42686 -1.218388,-1.57408 -2.20063,-2.54937 -0.982242,-0.9753 -2.404553,-2.79664 -3.160691,-4.0474 -0.756139,-1.25074 -1.743809,-2.8365 -2.194824,-3.5239 -0.451014,-0.6874 -0.820026,-1.58758 -0.820026,-2.00039 0,-2.07556 1.958261,-8.54002 3.083977,-10.18061 0.373026,-0.54364 0.932747,-1.38408 1.243825,-1.86765 1.104823,-1.71745 2.801274,-4.04508 3.202391,-4.39385 0.223905,-0.19468 1.019476,-1.14526 1.767932,-2.11241 0.748456,-0.96713 2.439165,-2.80627 3.757131,-4.08697 1.317966,-1.28069 2.396302,-2.50366 2.396302,-2.7177 0,-0.94239 5.431517,-5.69252 10.813814,-9.45722 0.895832,-0.62659 2.740376,-2.22621 4.098986,-3.5547 1.358609,-1.32849 2.853229,-2.66998 3.321375,-2.98108 0.468147,-0.31109 2.191081,-1.79755 3.828741,-3.30322 1.637662,-1.50568 3.388005,-2.99162 3.889647,-3.30211 0.501641,-0.31049 1.777077,-1.48583 2.834299,-2.61189 1.057221,-1.12607 2.496659,-2.45461 3.198746,-2.95237 1.786299,-1.2664 3.594475,-2.67542 6.577128,-5.12526 1.412989,-1.16058 3.083942,-2.42665 3.713224,-2.81352 0.629286,-0.38685 1.803378,-1.23019 2.609105,-1.87406 0.805721,-0.64389 2.018832,-1.32385 2.695801,-1.51106 0.676968,-0.18718 1.649022,-0.70057 2.16012,-1.14085 0.820331,-0.70666 0.899657,-0.96241 0.676653,-2.18169 -0.18956,-1.0364 -0.713785,-1.82086 -2.100035,-3.14259 -1.016078,-0.96877 -2.036994,-2.11615 -2.2687,-2.54975 -0.231708,-0.43357 -0.579316,-0.78834 -0.772458,-0.78834 -0.193145,0 -0.769215,-0.27694 -1.280155,-0.61545 -0.510942,-0.3385 -1.638245,-0.77372 -2.505119,-0.96712 -1.282276,-0.28613 -1.778767,-0.64019 -2.66295,-1.899 -0.597746,-0.851 -1.400038,-1.72144 -1.782871,-1.93428 -0.382834,-0.21286 -1.455283,-1.00186 -2.383223,-1.75334 -0.927945,-0.75147 -2.271855,-1.56355 -2.986467,-1.80459 -0.824557,-0.27812 -1.643586,-0.9354 -2.241547,-1.79887 -0.518234,-0.74834 -1.661601,-1.83539 -2.540812,-2.41567 -0.879211,-0.58029 -1.690833,-1.33288 -1.803603,-1.67242 -0.360387,-1.0851 -1.959262,-2.73336 -3.331653,-3.43454 -0.732013,-0.374 -1.685245,-1.1783 -2.118288,-1.78734 -0.433044,-0.60906 -1.434021,-1.3975 -2.224395,-1.75211 -0.831572,-0.37309 -2.81931,-2.05846 -4.71773,-4.00008 -1.804373,-1.84546 -3.445986,-3.35536 -3.64803,-3.35536 -0.202045,0 -1.054522,-0.59346 -1.894398,-1.31883 -4.24519,-3.66637 -7.026967,-5.71191 -9.043647,-6.65014 -2.553998,-1.18824 -3.821608,-2.23034 -5.101082,-4.19365 -1.273738,-1.95448 -2.213402,-2.84928 -4.770442,-4.5426 -1.16293,-0.77011 -2.44928,-1.84625 -4.308966,-3.60481 -0.664796,-0.62865 -1.282056,-1.14298 -1.37169,-1.14298 -0.431676,0 -4.0182554,-1.83959 -5.7367151,-2.9424 -2.5055596,-1.60793 -3.078397,-2.19217 -3.9447047,-4.02332 -0.4947167,-1.04571 -1.1093235,-1.69966 -1.9854195,-2.1125 -0.888496,-0.41868 -1.396953,-0.96627 -1.69605,-1.8265 -0.536379,-1.54271 -0.231119,-3.81763 0.639805,-4.76812 0.365903,-0.39931 0.665278,-1.15892 0.665278,-1.68798 0,-1.43727 0.783344,-2.6928 2.8665018,-4.59437 4.571036,-4.17256 10.0251435,-9.31199 11.5968205,-10.92773 4.845597,-4.98147 6.864529,-6.93803 7.661756,-7.42512 0.483553,-0.29543 1.638621,-1.61276 2.566818,-2.92738 0.928196,-1.31464 2.03382,-2.54822 2.456944,-2.7413 0.682903,-0.31164 3.854146,-2.99414 6.688922,-5.65805 0.551761,-0.51849 1.460786,-1.60482 2.020056,-2.41403 0.559273,-0.80924 1.530077,-1.83325 2.157343,-2.2756 2.281633,-1.60899 5.038785,-3.92058 6.583653,-5.51968 1.929084,-1.99684 4.350681,-4.04479 5.887875,-4.97944 0.63088,-0.38357 3.922213,-3.46773 7.314072,-6.85363 3.39186,-3.38594 6.31626,-6.15625 6.498666,-6.15625 0.182405,0 0.764782,-0.68397 1.294169,-1.51996 1.200962,-1.89651 8.620418,-9.25912 14.948087,-14.83356 2.634785,-2.32114 4.791089,-4.33325 4.791783,-4.47136 7.03e-4,-0.1381 0.529834,-0.61288 1.175857,-1.05506 2.2462,-1.53748 6.226462,-5.45499 6.913452,-6.80447 1.085501,-2.13228 0.922001,-3.52701 -0.567841,-4.84396 -1.418935,-1.25426 -2.218398,-2.8330895 -2.611514,-5.1573995 -0.339243,-2.00577 0.309141,-3.21475 2.374041,-4.42664 0.820962,-0.48181 1.742942,-1.36075 2.048845,-1.95317 0.471841,-0.91378 0.69847,-1.04329 1.494437,-0.854 0.516035,0.12273 2.064084,0.40485 3.440113,0.62694 2.25634,0.36418 2.72156,0.33103 4.74081,-0.33778 1.86801,-0.61873 2.35533,-0.66762 2.94131,-0.29515 0.38629,0.24555 1.10152,0.54474 1.58942,0.66486 0.48789,0.12013 1.99589,1.29255 3.35112,2.60537 2.5954,2.51422 8.31004,7.2173495 10.09025,8.3042295 0.5783,0.35306 2.33177,1.75012 3.89663,3.10456 1.56489,1.35445 3.98104,3.43949 5.36925,4.6334 1.38823,1.19394 2.69985,2.48731 2.91475,2.87417 0.2149,0.38685 1.05442,1.16759 1.86563,1.73496 2.24484,1.5701 3.8933,2.9582 6.60589,5.56257 1.35991,1.30565 2.60363,2.3739 2.76383,2.3739 0.16018,0 0.95327,0.55391 1.7624,1.23093 0.80912,0.67698 1.63512,1.2309 1.83555,1.2309 0.20042,0 1.33118,0.99335 2.51277,2.20742 1.18159,1.21409 2.93849,2.93104 3.9042,3.81548 0.96574,0.88443 2.60997,2.59872 3.65385,3.80955 2.04673,2.37403 3.62624,3.52832 4.83087,3.53041 0.70637,0.001 1.66119,0.91308 2.92838,2.79656 0.28971,0.43061 1.07985,1.07211 1.75586,1.42554 0.676,0.35341 2.15737,1.36877 3.29192,2.25636 1.13458,0.88758 2.85279,1.89027 3.81828,2.2282 1.26336,0.44219 2.11248,1.05803 3.02915,2.19701 0.70054,0.87043 1.48563,1.71723 1.74464,1.88176 0.66739,0.42396 8.76731,8.67034 11.7103,11.92203 1.60221,1.77028 2.73072,2.72748 3.21975,2.73097 1.06949,0.008 1.4387,0.32889 2.2734,1.97802 0.78979,1.56039 2.03151,2.23687 4.10596,2.23687 0.88732,0 1.43882,0.33336 2.5516,1.54239 0.7808,0.8483 1.69439,2.07482 2.03022,2.72558 0.62954,1.21994 4.03483,6.26725 5.06922,7.5136 0.32107,0.38686 0.86032,1.45538 1.19834,2.37449 0.33801,0.91912 0.87793,1.86918 1.19984,2.11128 0.97255,0.73139 3.54378,4.0151 3.92007,5.00632 0.19389,0.51069 0.35251,1.69622 0.35251,2.63452 0,1.55242 -0.11854,1.79943 -1.31688,2.74382 -0.7243,0.5708 -1.98713,1.37789 -2.80627,1.79357 -2.40685,1.22127 -3.11057,3.03436 -3.42853,8.83346 -0.1432,2.61127 -0.40366,5.12654 -0.57881,5.58946 -0.61904,1.63603 -3.28596,4.90909 -4.33609,5.32166 -2.1377,0.83984 -2.63614,1.18643 -4.48399,3.11801 -4.62772,4.83738 -8.75531,9.19257 -10.82858,11.4256 -2.31181,2.48998 -7.56341,6.971 -10.35419,8.83492 -1.68521,1.1255 -6.96914,5.64707 -9.91178,8.48167 -1.58046,1.52244 -3.9443,3.73179 -8.98671,8.3994 -1.87171,1.73257 -4.09652,3.46914 -7.75935,6.05645 -1.54515,1.09146 -3.52916,2.62829 -4.40891,3.41518 -0.87975,0.78691 -2.89505,2.35647 -4.47843,3.48795 -2.9977,2.14213 -4.2816,3.55445 -4.2816,4.70983 0,1.09461 2.57651,4.33148 5.11127,6.42129 3.31185,2.73047 5.98346,5.41449 7.00922,7.04182 0.64389,1.02146 1.49522,1.69538 3.18254,2.51931 1.50676,0.73573 2.68293,1.61839 3.40047,2.55185 0.60331,0.78486 1.92878,2.31797 2.9455,3.40687 1.0167,1.08893 2.25436,2.83823 2.75038,3.88737 0.496,1.04913 1.34579,2.37383 1.88837,2.94379 2.46095,2.58503 4.98379,4.71995 5.82843,4.93225 0.58621,0.14736 1.16416,0.70689 1.58649,1.53595 1.43305,2.81314 7.84605,9.32879 9.55094,9.70379 0.68876,0.15151 1.9157,1.0914 3.36029,2.57416 1.41085,1.44812 2.82678,2.53949 3.72656,2.87236 0.93914,0.34742 1.48806,0.78191 1.55574,1.23135 0.2805,1.863 0.51853,2.28886 1.5726,2.81354 1.32657,0.66036 3.37684,3.31829 3.83141,4.96698 0.17363,0.62977 1.00259,1.88369 1.84212,2.7865 1.55199,1.66895 1.96155,2.91967 1.96155,5.99021 0,1.30881 -0.72197,1.89411 -2.34732,1.90295 -1.32181,0.007 -1.63996,0.2606 -2.52663,2.01212 -0.52433,1.03578 -1.20773,1.72005 -2.242,2.24483 -0.81826,0.41521 -2.11345,1.2482 -2.8782,1.8511 l -1.39045,1.09621 -5.63298,-0.004 c -4.8236,-0.003 -5.96097,-0.11267 -7.9156,-0.76227 -3.72291,-1.23723 -4.76061,-1.77706 -5.17757,-2.69352 -0.48238,-1.06024 -3.90736,-3.39845 -4.97807,-3.39845 -1.01938,0 -2.14634,-0.62247 -2.9275,-1.61701 -0.34644,-0.44106 -1.06054,-1.01961 -1.58693,-1.28563 -0.52641,-0.26602 -1.8572,-0.98784 -2.95734,-1.60403 -1.10015,-0.61619 -2.23622,-1.12034 -2.52463,-1.12034 -0.28841,0 -1.23166,-0.61305 -2.09613,-1.36235 -1.1527,-0.99912 -2.02307,-1.43011 -3.26459,-1.61657 -1.50642,-0.22622 -1.95441,-0.52733 -4.06836,-2.73444 -1.30653,-1.36412 -2.37553,-2.68652 -2.37553,-2.93867 0,-0.25217 -0.63211,-1.66048 -1.40468,-3.12956 -0.96051,-1.82648 -1.40469,-3.11614 -1.40469,-4.07858 0,-2.02112 -0.78952,-3.31296 -3.84808,-6.29623 -1.48733,-1.45073 -2.92875,-2.96691 -3.20317,-3.3693 -0.27442,-0.4024 -1.16531,-1.21226 -1.97977,-1.7997 -2.1918,-1.58086 -3.84276,-3.09404 -4.2911,-3.93301 -0.21839,-0.40865 -1.00439,-1.05328 -1.7467,-1.43254 -0.74228,-0.37924 -1.44569,-0.9403 -1.56314,-1.24677 -0.11743,-0.30647 -0.65053,-0.74843 -1.18468,-0.98212 -1.71248,-0.74924 -4.98136,-3.39466 -5.54608,-4.4883 -0.35513,-0.68777 -0.90538,-1.13146 -1.56765,-1.26414 -0.56123,-0.11241 -1.29004,-0.50271 -1.61956,-0.86739 -0.42524,-0.47055 -1.07866,-0.66302 -2.25113,-0.66302 -1.42368,0 -1.86973,0.19196 -3.22741,1.38879 -1.4562,1.28369 -1.71902,1.38349 -3.47336,1.31885 -1.49228,-0.055 -2.31079,0.14466 -3.8294,0.9342 -1.0623,0.55229 -2.32652,1.36467 -2.80938,1.80527 -0.98177,0.89586 -4.301187,2.96567 -8.773496,5.47068 -1.638541,0.91777 -3.551983,2.15028 -4.252085,2.73893 -1.31602,1.10648 -2.637954,1.92531 -5.918036,3.66571 -2.707108,1.43639 -4.292961,2.7331 -8.096604,6.62046 -1.834873,1.87525 -3.889229,3.77948 -4.565233,4.23165 -0.676006,0.45215 -2.295424,1.85479 -3.598708,3.11693 -2.199266,2.12988 -2.369663,2.40311 -2.370408,3.8012 -3.52e-4,0.90828 -0.34938,2.19525 -0.878734,3.24144 -0.48286,0.95427 -0.877929,1.98564 -0.877929,2.29192 0,0.30627 -0.987671,1.55109 -2.194824,2.76629 -3.631242,3.65538 -5.660073,5.89477 -7.614893,8.40515 -1.021527,1.31183 -2.329666,2.62977 -2.906979,2.92875 -1.319474,0.68334 -4.493597,4.06289 -5.197306,5.53368 -0.438484,0.91647 -0.744404,1.11621 -1.755859,1.14648 -0.67367,0.0201 -2.173023,0.12557 -3.331889,0.23423 -1.158868,0.10864 -2.821922,0.0888 -3.69568,-0.044 z M 110.08325,160.81158 c 0.48286,-0.37825 1.29466,-0.69125 1.804,-0.69556 2.10949,-0.0178 10.25976,-5.09807 11.91608,-7.42757 0.45223,-0.63604 1.57934,-1.43263 2.74213,-1.93799 1.31431,-0.57122 2.25919,-1.27494 2.82653,-2.10512 0.4687,-0.68588 1.41687,-1.54057 2.10702,-1.89928 0.69015,-0.35873 1.88692,-1.31182 2.6595,-2.11797 2.74312,-2.86238 4.22212,-4.21307 4.83247,-4.41322 0.34011,-0.11154 0.85777,-0.66635 1.15032,-1.23293 0.29257,-0.56657 0.66716,-1.03014 0.83241,-1.03014 0.16528,0 0.75381,-0.45943 1.30788,-1.02101 0.55407,-0.56155 2.42963,-1.96542 4.16793,-3.1197 3.8485,-2.55553 4.93312,-3.52118 11.12552,-9.90511 2.9853,-3.07766 3.63381,-3.57303 5.32017,-4.06399 1.41303,-0.41138 2.12929,-0.85722 2.71096,-1.6874 0.43479,-0.62054 1.72602,-1.89444 2.86941,-2.83087 1.87318,-1.53411 3.25838,-3.27295 5.37825,-6.7514 0.39338,-0.64548 1.10449,-1.57058 1.58028,-2.05576 0.47575,-0.48519 1.22057,-1.25236 1.65516,-1.70483 0.82688,-0.86091 1.04702,-2.17999 0.42776,-2.56328 -0.1993,-0.12336 -0.68855,-0.91923 -1.08721,-1.7686 -0.81899,-1.7449 -6.22518,-7.41771 -7.90866,-8.29871 -0.88301,-0.46209 -1.22149,-0.97755 -1.68068,-2.5594 -0.49283,-1.69778 -0.82403,-2.15997 -2.31821,-3.23501 -0.9588,-0.68982 -1.74326,-1.3672 -1.74326,-1.50524 0,-0.13808 -0.60195,-0.517 -1.33765,-0.84208 -0.87554,-0.38685 -1.53796,-1.01169 -1.91745,-1.80866 -0.31887,-0.66968 -1.21794,-1.81894 -1.99789,-2.55391 -0.77997,-0.73497 -1.41838,-1.57805 -1.4187,-1.8735 -9.9e-4,-0.92314 -1.04166,-2.07999 -2.56978,-2.85662 -0.80809,-0.41069 -1.91597,-1.12075 -2.46194,-1.57789 -0.54595,-0.45713 -1.29113,-0.83116 -1.65595,-0.83116 -0.36482,0 -1.14827,-0.47478 -1.74102,-1.05506 -0.59276,-0.5803 -1.22626,-1.05506 -1.40778,-1.05506 -0.18151,0 -0.56563,-0.43522 -0.85355,-0.96716 -0.28793,-0.53191 -1.35867,-1.64708 -2.37943,-2.47812 -3.02291,-2.46105 -5.99517,-4.64358 -6.32381,-4.64358 -0.16868,0 -1.17129,-0.5539 -2.22806,-1.2309 -1.05677,-0.67701 -2.06488,-1.23092 -2.24026,-1.23092 -0.17538,0 -0.63086,-0.39723 -1.0122,-0.88274 -0.38134,-0.4855 -1.22245,-1.10519 -1.86915,-1.37711 -1.22305,-0.51425 -5.56544,-4.40956 -5.56544,-4.99244 0,-0.18328 -0.44222,-0.59482 -0.98272,-0.91458 -1.76125,-1.04193 -3.85266,-3.08509 -4.45142,-4.34872 -0.32233,-0.68025 -0.9339,-1.36925 -1.35903,-1.53114 -0.42514,-0.16189 -1.89007,-1.41974 -3.25541,-2.79524 -1.36535,-1.3755 -2.65366,-2.50092 -2.86293,-2.50092 -0.20927,0 -1.65469,1.30565 -3.21205,2.90144 -1.55736,1.59578 -4.24349,4.34323 -5.96918,6.10545 -1.725687,1.7622 -3.686828,4.06382 -4.358093,5.11471 -0.671261,1.05091 -1.49971,2.14127 -1.840996,2.42303 -0.341287,0.28176 -1.167572,1.36704 -1.836186,2.41173 -1.339524,2.09297 -4.825543,6.24811 -7.594118,9.05177 -0.981581,0.99401 -3.206939,3.41852 -4.945239,5.38778 -1.738301,1.96924 -4.665787,5.11247 -6.505524,6.98492 -1.83974,1.87245 -4.895662,5.18486 -6.790938,7.36094 -1.895279,2.17608 -3.586032,3.9565 -3.757232,3.9565 -0.171201,0 -0.556875,0.47565 -0.857057,1.05697 -0.509447,0.98663 -1.659745,1.91273 -4.639969,3.73565 -0.672768,0.41153 -1.998371,1.59846 -2.945783,2.63768 -0.947411,1.03919 -2.019891,2.18443 -2.383287,2.54496 -2.454185,2.43484 -3.130149,3.14219 -3.983489,4.16845 -1.787061,2.14923 -3.078311,3.88797 -3.078311,4.14509 0,0.3395 4.393407,4.62544 5.179382,5.05271 0.338224,0.18384 1.800157,1.37766 3.24874,2.65292 3.713409,3.26912 6.006072,5.11806 7.008897,5.65245 0.474861,0.25304 1.10697,0.73812 1.404686,1.07798 0.297714,0.33984 1.669394,1.22975 3.048179,1.9776 3.303939,1.79202 5.620876,3.97706 6.684695,6.30417 0.473196,1.03511 1.32839,2.24202 1.900435,2.68202 0.572045,0.43999 1.757067,1.39347 2.633377,2.11883 0.876315,0.72535 1.757876,1.31882 1.959024,1.31882 0.531705,0 3.646816,2.78146 8.132645,7.26154 2.159029,2.15629 4.666929,4.31492 5.573111,4.79699 1.523011,0.81019 2.661194,1.54284 5.902593,3.79944 0.676005,0.47062 2.144018,1.7242 3.262248,2.78577 1.34026,1.2723 2.71655,2.18714 4.03848,2.68438 2.53688,0.95426 2.86478,0.96466 3.93677,0.12491 z"
       id="path990" /></g></svg>
