<?xml version="1.0" encoding="UTF-8" standalone="no"?>
<!-- Created with Inkscape (http://www.inkscape.org/) -->

<svg
   width="220mm"
   height="270mm"
   viewBox="0 0 220 270"
   version="1.1"
   id="svg5"
   xml:space="preserve"
   inkscape:version="1.2.2 (b0a8486541, 2022-12-01)"
   sodipodi:docname="algiz.svg"
   xmlns:inkscape="http://www.inkscape.org/namespaces/inkscape"
   xmlns:sodipodi="http://sodipodi.sourceforge.net/DTD/sodipodi-0.dtd"
   xmlns="http://www.w3.org/2000/svg"
   xmlns:svg="http://www.w3.org/2000/svg"><sodipodi:namedview
     id="namedview7"
     pagecolor="#ffffff"
     bordercolor="#999999"
     borderopacity="1"
     inkscape:showpageshadow="0"
     inkscape:pageopacity="0"
     inkscape:pagecheckerboard="0"
     inkscape:deskcolor="#d1d1d1"
     inkscape:document-units="mm"
     showgrid="false"
     inkscape:zoom="0.074331525"
     inkscape:cx="1062.8061"
     inkscape:cy="322.87781"
     inkscape:window-width="1280"
     inkscape:window-height="955"
     inkscape:window-x="0"
     inkscape:window-y="0"
     inkscape:window-maximized="1"
     inkscape:current-layer="layer1" /><defs
     id="defs2" /><g
     inkscape:label="Warstwa 1"
     inkscape:groupmode="layer"
     id="layer1"><path
       style="fill:#000000;stroke-width:0.361542"
       d="m 99.103264,269.79359 c -0.3834,-0.1868 -1.82951,-0.40833 -3.2136,-0.49227 -1.3841,-0.084 -2.67148,-0.26227 -2.86083,-0.39626 -0.22455,-0.15889 -0.25529,-1.56595 -0.0884,-4.04524 0.14074,-2.09089 0.16517,-5.71654 0.0543,-8.05699 -0.32713,-6.90469 -0.40335,-10.30636 -0.45512,-20.30971 -0.046,-8.88924 0.0187,-11.19819 0.50388,-17.98861 0.10642,-1.48937 0.0325,-5.14512 -0.16439,-8.12388 -0.19682,-2.97876 -0.5748,-10.11617 -0.83995,-15.86092 -0.26515,-5.74475 -0.57303,-11.4895 -0.68417,-12.76611 -0.25645,-2.9455 -0.22511,-9.82756 0.0731,-16.05435 0.12737,-2.6596 0.20487,-5.44493 0.17222,-6.18962 -0.0327,-0.74469 0.0963,-2.36254 0.28664,-3.59524 1.20128,-7.78113 1.62073,-16.62743 0.94842,-20.00271 -0.60592,-3.04202 -1.01492,-5.92591 -1.17959,-8.31732 -0.0879,-1.2766 -0.43945,-2.9304 -0.78122,-3.67509 -0.34177,-0.74468 -0.71581,-1.9635 -0.8312,-2.70846 -0.23238,-1.50034 -2.25112,-4.99374 -3.23867,-5.60445 -0.6866,-0.42461 -1.82294,-2.02243 -3.83454,-5.39176 -0.8491,-1.4222 -1.52032,-2.15624 -1.97169,-2.15624 -0.37639,0 -1.16553,-0.62635 -1.75365,-1.39189 -0.58812,-0.76553 -2.15866,-2.07871 -3.49009,-2.91818 -1.33143,-0.83947 -2.82165,-2.12804 -3.3116,-2.86349 -0.48996,-0.73545 -1.03729,-1.337181 -1.21631,-1.337181 -0.32568,0 -3.90268,-3.20396 -4.53952,-4.06611 -0.18584,-0.25159 -0.9346,-0.86528 -1.6639,-1.36373 -0.72932,-0.49846 -2.23098,-1.83078 -3.33705,-2.96073 -1.14154,-1.16618 -2.33367,-2.05442 -2.75728,-2.05442 -0.41042,0 -1.14563,-0.47874 -1.63378,-1.06385 -0.48815,-0.58511 -1.53963,-1.69801 -2.3366,-2.47311 -0.79698,-0.7751 -2.05725,-2.0141 -2.80061,-2.75334 -0.74336,-0.73925 -1.67457,-1.45901 -2.06937,-1.59949 -0.3948,-0.14047 -1.35001,-1.28725 -2.12267,-2.54839 -0.77268,-1.26113 -1.84961,-2.65555 -2.39318,-3.09869 -0.54356,-0.44314 -1.32599,-1.49362 -1.73872,-2.33439 -0.41272,-0.84076 -1.02744,-1.62932 -1.36603,-1.75236 -0.3386,-0.12304 -0.61564,-0.37191 -0.61564,-0.55306 0,-0.18114 -0.53749,-0.90927 -1.19442,-1.61806 -0.65695,-0.70877 -1.60325,-1.98502 -2.1029,-2.83609 -1.78478,-3.04009 -3.89255,-5.97836 -4.43222,-6.17864 -0.3018,-0.112 -1.23295,-1.17264 -2.06922,-2.35698 -0.83628,-1.18433 -2.20668,-2.99019 -3.04533,-4.01301 -0.83865,-1.02282 -1.74537,-2.36059 -2.01494,-2.97283 -0.26958,-0.61225 -1.21794,-1.86652 -2.10749,-2.78728 -0.88954,-0.92078 -1.61736,-1.91093 -1.61736,-2.20035 0,-0.28942 -1.01709,-1.53803 -2.26021,-2.77467 -1.24312,-1.23665 -2.90456,-2.94479 -3.69208,-3.79586 -0.78752,-0.85108 -2.00083,-1.98261 -2.69626,-2.51453 -1.41645,-1.08344 -3.28798,-3.16995 -4.47034,-4.98386 -0.4826005,-0.7404 -1.0863405,-1.20578 -1.5642605,-1.20578 -0.52334,0 -1.19831,-0.60199 -2.0603,-1.83754 -0.70509,-1.01065 -2.17952,-2.87293 -3.2765,-4.1384 -2.39049995,-2.75765 -2.87731995,-3.75548 -3.15582995,-6.46855 -0.19606,-1.90983 -0.1396,-2.14916 0.74629,-3.16342 0.52712995,-0.60351 1.64603995,-1.54474 2.48648995,-2.09164 0.84043,-0.54689 1.98422,-1.47544 2.54174,-2.06345 0.99358,-1.0479399 2.76474,-1.9808899 4.6798605,-2.4651099 0.5297,-0.13393 1.38405,-0.59983 1.89857,-1.03536 1.04491,-0.88448 3.27089,-0.87871 7.44395,0.0193 2.5055,0.53916 3.48033,0.99373 4.86003,2.26626 1.37686,1.2698999 3.07468,2.1657499 5.61452,2.9624799 1.20795,0.37893 2.95829,1.0908 3.88965,1.58194 1.78556,0.94159 4.89546,3.82657 4.89546,4.54141 0,0.45777 2.73037,3.87602 8.41746,10.53811 1.99792,2.34046 4.18633,5.06236 4.86313,6.04867 0.67678,0.98632 2.60958,3.42348 4.29507,5.41593 1.68549,1.99244 3.34864,4.23191 3.69586,4.9766 0.60328,1.29389 2.91065,4.13308 6.75932,8.31732 1.79489,1.95138 3.11411,3.15742 5.58908,5.10956 0.74336,0.58632 2.41591,2.1645 3.71678,3.50705 1.30087,1.34256 3.30269,2.94882 4.44848,3.56947 1.1458,0.62064 2.18111,1.3097 2.3007,1.53122 0.11958,0.22153 0.56717,0.40278 0.99463,0.40278 0.42748,0 1.63203,0.52225 2.67679,1.16056 3.24318,1.98144 3.6478,1.63196 3.5831,-3.09482 -0.0536,-3.91954 0.56594,-16.6296 0.86749,-17.79518 0.0826,-0.31915 0.18258,-4.67123 0.22225,-9.67129 0.0987,-12.43798 0.73469,-15.49816 4.54244,-21.85712 0.87782,-1.46596 1.47277,-2.96246 1.61486,-4.06195 0.41748,-3.2302299 0.87314,-4.2910999 2.09394,-4.8750999 0.626446,-0.29966 1.386816,-0.97792 1.689736,-1.50722 0.8155,-1.42495 2.75888,-1.97239 4.98088,-1.40308 0.99028,0.25373 2.06001,0.34732 2.37717,0.20797 0.61884,-0.27189 1.56535,-2.08521 1.56535,-2.99891 0,-0.30616 0.28005,-0.95261 0.62234,-1.43657996 L 111.68856,-8.6306133e-7 114.19168,0.71744914 c 2.94642,0.84451996 3.2951,1.10030996 3.94067,2.89095996 0.26848,0.74468 0.68462,1.6151 0.92476,1.93426 0.70828,0.94132 2.26339,5.7577299 2.01038,6.2264299 -0.12796,0.23703 -0.26936,5.67878 -0.31425,12.09278 -0.0527,7.53447 -0.23719,12.62018 -0.52121,14.36976 -0.25553,1.57406 -0.40428,4.81376 -0.35524,7.73702 0.0464,2.76599 -0.0723,6.76991 -0.26374,8.89759 -0.19147,2.12769 -0.44305,6.7409 -0.55909,10.25157 -0.11604,3.51068 -0.35293,7.1233 -0.52641,8.02804 -0.22486,1.17264 -0.16945,2.60344 0.19299,4.98303 0.27964,1.83593 0.50843,4.16436 0.50843,5.17427 0,1.14099 0.18748,2.01435 0.49515,2.3067 0.62191,0.59093 2.78026,0.21512 3.95433,-0.68852 2.57549,-1.98228 4.08582,-3.46933 4.6649,-4.59303 0.38507,-0.74721 1.27158,-1.59586 2.1749,-2.082 1.35265,-0.72797 4.60631,-4.04204 10.62754,-10.82492 1.04738,-1.17987 2.81664,-2.85602 3.93167,-3.72477 1.11503,-0.86874 2.33143,-1.97327 2.70311,-2.4545 0.37168,-0.48124 3.03256,-3.32301 5.91306,-6.31506 2.8805,-2.99205 5.62176,-5.98957 6.0917,-6.66114 1.22434,-1.74974 4.68556,-4.96618 6.43507,-5.98001 0.82259,-0.47669 1.63394,-1.1487 1.803,-1.49336 0.16906,-0.34467 1.42347,-1.90414 2.78757,-3.46549 1.36411,-1.56135 2.4802,-2.99508 2.4802,-3.18604 0,-0.19096 0.59373,-0.79705 1.3194,-1.34687 0.72568,-0.54982 1.89146,-1.98847 2.59066,-3.19701 1.85163,-3.20051 6.75435,-9.13203 10.29754,-12.4584 1.69423,-1.59055 3.74265,-3.5262 4.55206,-4.30143 2.2674,-2.17166 3.91865,-2.73763 7.4574,-2.556 3.95392,0.20293 7.54086,1.17825 10.38631,2.82414 1.26921,0.73414 2.58109,1.33481 2.9153,1.33481 0.33422,0 0.81626,0.35623 1.07124,0.79163 0.26365,0.45023 1.1815,1.00023 2.12833,1.27533 2.09925,0.60995 2.84145,1.71164 3.22026,4.78007 0.16008,1.29652 0.44379,2.68408 0.63047,3.08346 0.2502,0.53523 0.17241,1.13059 -0.29581,2.26444 -0.34939,0.84606 -0.64041,1.81439 -0.64672,2.15183 -0.007,0.33745 -0.58166,1.25044 -1.27855,2.02888 -0.69689,0.77844 -1.57793,1.80798 -1.95786,2.28786 -0.37994,0.47988 -1.39927,1.42904 -2.2652,2.10924 -0.86592,0.68022 -1.94106,1.8988 -2.3892,2.70797 -0.44813,0.80916 -1.76961,2.42868 -2.93663,3.5989 -1.167,1.17023 -2.98075,3.08514 -4.03054,4.25537 -1.04979,1.17023 -2.70684,2.91106 -3.68233,3.86852 -0.97549,0.95746 -3.21155,3.34664 -4.96903,5.3093 -1.75747,1.96265 -3.64453,3.83437 -4.19348,4.15938 -0.54894,0.325 -1.23279,1.15719 -1.51965,1.84933 -0.28687,0.69212 -0.96197,1.48159 -1.50022,1.75436 -0.53826,0.27279 -1.16653,1.01529 -1.39617,1.65 -0.22963,0.63473 -0.85415,1.44935 -1.38782,1.81027 -0.53366,0.36093 -1.05413,0.95864 -1.15659,1.32824 -0.10246,0.36961 -0.96528,1.507 -1.91737,2.52755 -3.63439,3.8957 -4.0628,4.53039 -5.02633,7.44641 -0.51256,1.5512 -2.61793,4.09982 -4.45002,5.3869 -0.70141,0.49275 -1.4889,1.35783 -1.74999,1.92239 -0.2611,0.56458 -1.9371,2.75837 -3.72445,4.87509 -1.78735,2.11673 -3.81789,4.81503 -4.51233,5.99621 -0.94757,1.61175 -1.70756,2.39757 -3.0459,3.1494 -0.98081,0.55098 -2.44912,1.639001 -3.26292,2.417821 -0.81378,0.77882 -1.64296,1.41603 -1.84259,1.41603 -0.19963,0 -0.63705,0.51599 -0.97203,1.14664 -0.60868,1.14593 -2.94171,3.49558 -3.47085,3.49558 -0.31765,0 -2.75702,2.40213 -6.16237,6.0683 -1.2715,1.36889 -2.86458,2.78308 -3.54018,3.14265 -1.79622,0.95601 -5.47583,5.05486 -5.70245,6.3522 -0.1103,0.63138 -0.73666,1.58133 -1.4977,2.27142 -0.71946,0.65239 -1.30811,1.3977 -1.30811,1.65623 0,0.25853 -0.50691,0.67992 -1.12646,0.93642 -0.67169,0.27809 -1.56653,1.16794 -2.21651,2.20419 -0.59953,0.9558 -1.40262,1.92934 -1.78465,2.16342 -0.97196,0.59556 -5.3228,5.75691 -5.83923,6.92701 -0.55194,1.25055 -0.99294,4.69779 -0.91556,7.15676 0.0335,1.06384 -0.1074,3.72372 -0.31308,5.91083 -0.48941,5.20441 -0.49487,7.8569 -0.0183,8.87649 0.56235,1.20303 0.50762,10.4506 -0.0731,12.34037 -0.36549,1.1895 -0.39432,2.4986 -0.13949,6.33497 0.17667,2.65961 0.36833,7.70994 0.42592,11.22294 0.0576,3.51302 0.26383,7.08172 0.4583,7.93047 0.19447,0.84873 0.36421,4.85074 0.37721,8.89334 0.0129,4.04261 0.12874,10.13552 0.25722,13.53981 0.12849,3.4043 0.27597,10.01947 0.32774,14.70037 0.0518,4.68091 0.18177,10.54832 0.28888,13.0387 l 0.19475,4.52795 -0.94939,0.88335 c -0.52217,0.48584 -2.93955,3.14851 -5.37198,5.91703 -2.43241,2.76853 -4.94124,5.41817 -5.57516,5.88809 -2.04501,1.51594 -5.17138,3.12635 -6.55881,3.37848 -2.90133,0.52724 -3.742306,0.57433 -4.413836,0.24715 z"
       id="path988" /></g></svg>
