<?xml version="1.0" encoding="UTF-8" standalone="no"?>
<!-- Created with Inkscape (http://www.inkscape.org/) -->

<svg
   width="220mm"
   height="270mm"
   viewBox="0 0 220 270"
   version="1.1"
   id="svg5"
   xml:space="preserve"
   inkscape:version="1.2.2 (b0a8486541, 2022-12-01)"
   sodipodi:docname="gebo.svg"
   xmlns:inkscape="http://www.inkscape.org/namespaces/inkscape"
   xmlns:sodipodi="http://sodipodi.sourceforge.net/DTD/sodipodi-0.dtd"
   xmlns="http://www.w3.org/2000/svg"
   xmlns:svg="http://www.w3.org/2000/svg"><sodipodi:namedview
     id="namedview7"
     pagecolor="#ffffff"
     bordercolor="#999999"
     borderopacity="1"
     inkscape:showpageshadow="0"
     inkscape:pageopacity="0"
     inkscape:pagecheckerboard="0"
     inkscape:deskcolor="#d1d1d1"
     inkscape:document-units="mm"
     showgrid="false"
     inkscape:zoom="0.074331525"
     inkscape:cx="1984.3532"
     inkscape:cy="121.07918"
     inkscape:window-width="1280"
     inkscape:window-height="955"
     inkscape:window-x="0"
     inkscape:window-y="0"
     inkscape:window-maximized="1"
     inkscape:current-layer="layer1" /><defs
     id="defs2" /><g
     inkscape:label="Warstwa 1"
     inkscape:groupmode="layer"
     id="layer1"><path
       style="fill:#000000;stroke-width:0.356889"
       d="m 210.78877,269.42102 c -0.52866,-0.42901 -1.24599,-0.5239 -2.94558,-0.38964 -1.90323,0.15035 -2.49088,0.0432 -3.84363,-0.70083 -0.8783,-0.48308 -2.26364,-1.04656 -3.07854,-1.25219 -2.02297,-0.51046 -5.76134,-3.52968 -6.18378,-4.99422 -0.18017,-0.6246 -0.65189,-1.31882 -1.04827,-1.54271 -0.73436,-0.41479 -3.86231,-5.02692 -4.91514,-7.24734 -0.31956,-0.67395 -1.75967,-2.54014 -3.20025,-4.14709 -1.44057,-1.60695 -2.79497,-3.35198 -3.00977,-3.87784 -0.48246,-1.18114 -2.42104,-4.0944 -4.07676,-6.12644 -0.68349,-0.83886 -1.61673,-2.0385 -2.07386,-2.66587 -0.45713,-0.62737 -1.68633,-1.79974 -2.73157,-2.60524 -1.04524,-0.80552 -2.32225,-2.11659 -2.83778,-2.91351 -0.51554,-0.79691 -1.82882,-2.41967 -2.91837,-3.60614 -1.08957,-1.18646 -2.50473,-2.91923 -3.14479,-3.85059 -0.64008,-0.93136 -2.01439,-2.32947 -3.05403,-3.10691 -1.45748,-1.08989 -2.35858,-2.21673 -3.93569,-4.92156 -1.12499,-1.92943 -2.43646,-3.99282 -2.91439,-4.58534 -0.47792,-0.59252 -0.9716,-1.51574 -1.09706,-2.05162 -0.40033,-1.70993 -2.49711,-4.74651 -3.92831,-5.68902 -1.42277,-0.93694 -3.88006,-3.9628 -3.88006,-4.77783 0,-0.25139 -0.83635,-1.58106 -1.85854,-2.95482 -1.02219,-1.37375 -2.36977,-3.28218 -2.99463,-4.24095 -0.62486,-0.95879 -1.749,-2.16635 -2.49808,-2.68348 -0.74909,-0.51714 -1.46705,-1.28559 -1.59547,-1.70768 -0.12841,-0.42209 -1.04327,-1.675 -2.033,-2.78425 -2.92617,-3.27953 -8.8459,-11.37896 -11.5598,-15.81624 -0.38539,-0.63011 -1.32883,-1.82313 -2.09653,-2.65114 -0.76771,-0.82802 -2.18203,-2.53886 -3.14294,-3.80187 -0.96091,-1.26301 -2.09315,-2.61748 -2.51609,-3.00994 -0.42295,-0.39246 -0.86261,-1.15826 -0.97705,-1.70179 -0.11444,-0.54353 -0.76343,-1.54617 -1.44221,-2.22809 -0.67878,-0.68192 -1.44582,-1.76329 -1.70453,-2.40305 -0.36292,-0.89744 -0.79542,-1.2545 -1.89304,-1.56283 -1.77822,-0.4995 -2.63886,-0.0803 -3.31839,1.61629 -0.27168,0.67833 -0.83631,1.42444 -1.25471,1.65803 -0.41841,0.2336 -1.12831,1.29178 -1.57758,2.35151 -0.57196,1.34918 -1.46685,2.51461 -2.98519,3.88767 -2.016394,1.82344 -6.266564,7.22087 -6.266564,7.95812 0,0.1792 -0.36343,0.78949 -0.80762,1.3562 -0.4442,0.5667 -1.25371,1.85054 -1.79893,2.85296 -0.54522,1.00241 -1.71487,2.66028 -2.59923,3.68416 -2.82763,3.27368 -4.847,5.74725 -6.21544,7.61335 -0.73296,0.99953 -1.68644,2.22746 -2.11885,2.72872 -0.43241,0.50127 -0.7862,1.02058 -0.7862,1.15403 0,0.13343 -0.55033,0.92978 -1.22297,1.76965 -0.67264,0.83987 -1.22815,1.71656 -1.23447,1.94818 -0.006,0.23164 -0.78578,1.40535 -1.7321,2.60825 -0.94633,1.20289 -3.13601,4.40151 -4.86595,7.10803 -1.72994,2.70652 -3.78302,5.70875 -4.56238,6.67165 -0.77938,0.96288 -1.95187,2.84925 -2.60555,4.19191 -0.78649,1.61544 -2.14408,3.45405 -4.01345,5.43546 -1.55371,1.64684 -2.82492,3.15919 -2.82492,3.36076 0,0.20158 -0.94344,2.15435 -2.09653,4.3395 -1.15309,2.18515 -2.09652,4.08701 -2.09652,4.22639 0,0.25598 -2.1609,3.03257 -3.93099,5.05105 -0.52851,0.60267 -0.96091,1.22762 -0.96091,1.38878 0,0.16117 -0.94344,1.40174 -2.09653,2.75684 -1.1531,1.3551 -2.09653,2.66348 -2.09653,2.90751 0,0.24402 -0.21128,0.66409 -0.46951,0.93347 -0.25823,0.26939 -0.86545,1.14227 -1.34937,1.93974 -0.48391,0.79746 -1.45192,2.1626 -2.15115,3.03361 -0.69921,0.87103 -1.27128,1.72647 -1.27128,1.90099 0,0.76545 -7.47439,8.05739 -9.18509,8.96088 -1.00192,0.52917 -2.45064,1.49139 -3.21937,2.13829 -1.78883,1.50533 -2.71987,2.00158 -3.75529,2.00158 -0.47346,0 -1.27281,0.48346 -1.85743,1.1234 -1.53584,1.68117 -2.81721,2.07419 -7.49961,2.30026 l -4.2605203,0.2057 -2.44529,-2.26712 c -3.30836,-3.06731 -5.47182001,-6.5956 -5.93104001,-9.67269 -0.31938,-2.14004 -0.28524,-2.44231 0.38214,-3.38399 0.40307,-0.56873 0.73285001,-1.19901 0.73285001,-1.40064 0,-0.20162 0.45071,-0.9054 1.00157,-1.56394 0.55087,-0.65855 1.37637,-1.95985 1.83446,-2.89178 0.45808,-0.93193 2.04669,-3.06434 3.53024,-4.73869 4.2420903,-4.78768 6.9698903,-8.03953 8.4841303,-10.11408 0.76873,-1.05318 1.66548,-2.06838 1.9928,-2.25602 0.51957,-0.29786 2.68535,-4.01485 4.55551,-7.81832 0.33447,-0.68026 1.0914,-1.60956 1.68205,-2.06511 1.21615,-0.93797 2.32267,-2.65146 2.7752,-4.29752 0.39057,-1.42065 1.77833,-3.72613 4.11833,-6.84177 1.01524,-1.35175 2.86234,-4.03786 4.10467,-5.96912 1.24233,-1.93127 2.62955,-3.76481 3.0827,-4.07455 0.45315,-0.30975 1.42425,-1.51816 2.158,-2.68537 0.73374,-1.1672 1.77369,-2.65516 2.311,-3.30658 0.5373,-0.65142 1.53037,-2.04569 2.20682,-3.09837 0.67645,-1.05269 2.10438,-3.06219 3.17319,-4.46557 1.06882,-1.40338 2.65508,-3.65882 3.52503,-5.01207 0.86994,-1.35326 1.70391,-2.46047 1.85326,-2.46047 0.14934,0 1.24412,-1.18923 2.43282,-2.64273 1.1887,-1.4535 2.50239,-3.05282 2.91931,-3.55401 0.41693,-0.50121 1.45875,-1.89548 2.31517,-3.09839 0.85643,-1.20289 2.389,-3.08925 3.4057,-4.19191 1.01671,-1.10265 2.1846,-2.82498 2.59532,-3.8274 0.41455,-1.01176 1.54849,-2.6489 2.54892,-3.68001 0.99119,-1.02159 3.1387,-3.52867 4.77225,-5.57128 1.63354,-2.04262 3.53868,-4.40538 4.23363,-5.25059 0.69495,-0.84521 1.54382,-2.10883 1.88637,-2.80803 0.34255,-0.6992 2.60426,-3.34266 5.02603,-5.87433 6.76298,-7.06994 8.07213,-9.0162 8.07213,-12.00059 0,-0.83502 -1.4593,-3.64711 -2.75223,-5.30357 -0.1682,-0.2155 -0.86758,-1.19969 -1.55418,-2.18708 -0.68659,-0.9874 -1.68885,-2.2218 -2.22725,-2.74312 -0.53839,-0.52132 -1.35832,-1.74108 -1.82208,-2.71056 -0.46375,-0.96949 -1.68236,-2.71495 -2.70801,-3.87879 -1.02566,-1.16385 -1.86483,-2.30772 -1.86483,-2.54193 0,-0.54887 -3.9002,-6.528944 -5.74376,-8.806754 -0.78066,-0.96455 -2.12695,-2.62803 -2.99177,-3.69662 -0.86482,-1.0686 -2.67308,-3.44852 -4.01834,-5.2887 -1.34528,-1.84018 -3.38939,-4.49205 -4.54248,-5.89305 -1.15309,-1.401 -2.43873,-3.24319 -2.85698,-4.09375 -0.41826,-0.85057 -1.86524,-2.76235 -3.2155,-4.24841 -1.35028,-1.48607 -2.80651,-3.4148 -3.23608,-4.28607 -0.42956,-0.87129 -1.26255,-2.12251 -1.85111,-2.78051 -1.22455,-1.36905 -4.16227,-5.24863 -5.40658,-7.13998 -0.46326,-0.70416 -1.43707,-1.96366 -2.16404,-2.79889 -0.72698,-0.83522 -1.78958,-2.48535 -2.36135,-3.66695 -0.57176,-1.18159 -1.31405,-2.38458 -1.64953,-2.67331 -0.33548,-0.28874 -1.28142,-1.48617 -2.10211,-2.66098 -0.82068,-1.17479 -1.822,-2.37701 -2.22514,-2.67159 -0.40315,-0.29457 -1.05871,-1.25844 -1.4568,-2.14191 -0.39808,-0.88348 -1.26126,-2.22375 -1.91817,-2.97838 -1.17692,-1.352 -4.72368,-6.28073 -6.41996,-8.92143 -0.47788,-0.74394 -1.20829,-1.54213 -1.62315,-1.77374 -0.41484,-0.23162 -1.27076,-1.14022 -1.90203,-2.01913 -0.91866,-1.27904 -1.36148,-1.59813 -2.21845,-1.59857 -1.38245,-7.4e-4 -3.30001,-1.02788 -4.08195,-2.18652 -0.59291,-0.87852 -1.13142,-4.5156 -1.58333,-10.69361 -0.23042,-3.1499402 0.12976,-4.0538202 2.56691,-6.4417402 1.68239,-1.64841 2.06874,-1.86552 2.98107,-1.67517 0.57649,0.12028 2.01298,-0.0454 3.1922,-0.36815 1.5442,-0.42266 2.95446,-0.52909 5.04094,-0.38041 2.70408,0.19267 3.04083,0.31112 5.05825,1.77919 1.21967,0.88755 2.73132,2.42391 3.46963,3.52634 0.71956,1.07446 1.70736,2.16954 2.19509,2.43352 1.09859,0.5945702 5.06621,4.8283202 5.40232,5.7646902 0.30361,0.8458 1.94795,2.84135 4.82884,5.86027 1.20282,1.26043 2.3551,2.79489 2.56061,3.40991 0.42727,1.27859 2.7273,3.3801 4.58619,4.19035 1.30585,0.56918 8.24056,7.71856 9.37592,9.66618 0.34461,0.59113 0.79731,1.18488 1.00601,1.31943 0.38397,0.24756 2.99047,4.00705 3.76946,5.43688 0.23283,0.42736 2.29556,2.74541 4.58386,5.1512 2.58675,2.71959 4.49642,5.0689 5.0485,6.21081 0.79203,1.63819 4.77925,7.21859 8.09294,11.32665 0.66496,0.82435 1.87982,2.6287 2.69968,4.00965 0.81987,1.38096 2.43951,3.68047 3.59919,5.11003 3.5329,4.35508 8.964284,11.95539 9.989314,13.97838 0.35772,0.706 1.75774,2.49997 3.11116,3.98662 1.35341,1.48663 2.46075,2.88535 2.46075,3.10825 0,0.66355 2.00949,2.754844 2.64707,2.754844 0.32447,0 1.08023,-0.32083 1.67945,-0.71296 1.66785,-1.091434 5.88712,-5.790714 7.2146,-8.035374 0.65211,-1.10267 2.00523,-2.96212 3.00695,-4.13212 1.00172,-1.17 2.25714,-2.81031 2.78983,-3.64514 0.53269,-0.83482 1.42794,-2.03759 1.98946,-2.67281 1.06021,-1.1994 1.19111,-1.40562 2.76289,-4.35327 1.19417,-2.23948 2.95879,-4.74578 5.86344,-8.32786 1.24918,-1.54052 2.74296,-3.68351 3.3195,-4.76221 0.57654,-1.0787 1.80427,-2.96778 2.72828,-4.19796 0.92401,-1.23019 1.82611,-2.63759 2.00469,-3.12755 0.17857,-0.48998 1.12831,-1.66311 2.11053,-2.60697 0.98223,-0.94387 2.19301,-2.45602 2.69062,-3.36034 0.4976,-0.90431 1.33312,-2.16654 1.8567,-2.80493 0.52358,-0.6384 1.06745,-1.54057 1.20859,-2.00483 0.14114,-0.46426 1.18626,-2.11826 2.32249,-3.67556 1.13623,-1.55729 2.27966,-3.36163 2.54096,-4.00965 0.2613,-0.64802 0.95969,-1.65999 1.55198,-2.24883 0.59228,-0.58883 1.07689,-1.26054 1.07689,-1.49269 0,-0.23214 0.31448,-0.71897 0.69883,-1.08184 0.38437,-0.36286 0.69885,-0.92759 0.69885,-1.25494 0,-0.32734 0.46532,-1.16308 1.03406,-1.85719 0.56873,-0.69412 1.04071,-1.50809 1.04883,-1.80881 0.008,-0.30073 0.60961,-1.1306 1.33661,-1.84416 0.76818,-0.75399 1.5042,-1.93237 1.75723,-2.81339 0.38386,-1.33653 0.71334,-1.67535 2.7833,-2.8621 2.84119,-1.62894 3.57086,-2.24886 3.57086,-3.03378 0,-0.32921 0.64229,-1.24697 1.4273,-2.03947 0.78501,-0.79249 1.73214,-2.05704 2.10473,-2.81008 0.37259,-0.75306 0.99776,-1.57322 1.38925,-1.82258 0.39149,-0.24937 1.27288,-1.5621802 1.95865,-2.9173502 0.68577,-1.35518 1.74834,-2.9233 2.36127,-3.48471 1.82979,-1.67598 6.52485,-4.19210001 8.40457,-4.50408001 5.33637,-0.88571 5.29609,-0.88999 9.97564,1.06035001 3.64042,1.51726 4.74992,1.82201 6.79659,1.86689 1.79699,0.0394 2.67771,0.23617 3.3195,0.74167 0.79324,0.62479 0.86384,0.89775 0.76801,2.96915 -0.058,1.25461 -0.40063,3.2002702 -0.7613,4.3237002 -0.36065,1.12343 -0.76302,2.94477 -0.89413,4.04742 -0.13111,1.10266 -0.46426,2.57895 -0.74034,3.28063 -0.50138,1.27437 -2.25162,3.12012 -3.28903,3.46853 -0.30196,0.10136 -1.00953,1.18983 -1.5724,2.41871 -0.56285,1.22887 -1.41647,2.48831 -1.89692,2.79875 -2.17774,1.40712 -4.4328,4.30389 -5.39469,6.92988 -0.69997,1.9109 -1.21629,2.7645 -1.89299,3.12955 -1.22799,0.66245 -3.02986,3.31922 -3.50833,5.17289 -0.21039,0.81505 -0.67588,1.75888 -1.03444,2.09739 -0.35855,0.3385 -0.92796,1.30772 -1.26534,2.15384 -0.61684,1.54697 -1.57849,3.78419 -2.93318,6.82384 -0.40206,0.90217 -1.91184,3.1166 -3.35505,4.92094 -1.44321,1.80435 -3.23605,4.05054 -3.98408,4.99153 -0.74804,0.941 -3.06857,3.39865 -5.15672,5.46145 -2.08815,2.06279 -4.05025,4.16344 -4.36021,4.6681 -0.30996,0.50466 -1.22103,1.40965 -2.0246,2.01109 -0.92957,0.69577 -2.43183,2.61837 -4.12989,5.28546 -1.46788,2.30555 -3.12079,4.76603 -3.67314,5.46772 -1.04161,1.32324 -4.10979,6.15648 -4.10979,6.47407 0,0.0994 -1.00749,1.29492 -2.23888,2.65665 -1.23139,1.36171 -2.33466,2.79067 -2.45174,3.17546 -0.11706,0.38478 -0.56522,0.89633 -0.99589,1.136784 -0.43067,0.24044 -1.16581,1.01991 -1.63363,1.73214 -0.46782,0.71224 -2.12709,2.63318 -3.68728,4.26875 -1.56018,1.63558 -3.33636,3.87595 -3.94707,4.97861 -0.69105,1.2477 -2.11944,2.89961 -3.78234,4.37417 -1.46958,1.30313 -4.06594,3.99821 -5.76969,5.98903 l -3.09774,3.6197 v 2.27569 c 0,1.85707 0.15165,2.46525 0.82439,3.30609 0.45341,0.5667 1.10417,1.60449 1.44614,2.30618 0.34196,0.70168 1.07166,1.81461 1.62155,2.47315 0.5499,0.65854 1.00088,1.39669 1.00219,1.64032 9.9e-4,0.24363 1.25922,2.06652 2.79537,4.05088 1.53614,1.98436 2.79299,3.75506 2.79299,3.93489 0,0.17983 1.38166,1.83689 3.07034,3.68236 1.68869,1.84547 3.73747,4.29799 4.55285,5.45004 0.81537,1.15206 1.87284,2.36145 2.34992,2.68756 0.47709,0.3261 1.35664,1.35188 1.95457,2.27952 0.59792,0.92764 2.00218,2.55306 3.12056,3.61205 1.1184,1.05898 2.13871,2.28921 2.26738,2.73386 0.12867,0.44463 0.59208,1.21851 1.02981,1.71972 0.43771,0.5012 1.13082,1.60841 1.54024,2.46047 0.40941,0.85205 0.89074,1.54918 1.0696,1.54918 0.28754,0 1.81794,2.52582 3.57486,5.90004 0.32712,0.62825 1.03471,1.57935 1.57239,2.11353 0.90522,0.8993 3.36033,3.78325 5.43537,6.38475 0.47974,0.60145 1.75196,2.4878 2.82716,4.19191 1.07521,1.70411 2.75017,4.24659 3.72214,5.64998 0.97198,1.40337 2.36318,3.53578 3.09157,4.73868 0.72837,1.20289 2.63555,3.49933 4.23815,5.10321 1.60261,1.60386 3.84255,3.85871 4.97766,5.01078 1.13511,1.15208 2.80054,2.6112 3.70097,3.2425 2.01344,1.41167 2.49592,2.00766 4.23686,5.23374 0.75734,1.40338 1.93668,3.17584 2.62077,3.93882 0.68409,0.76297 1.2438,1.63395 1.2438,1.93552 0,0.30157 0.7557,1.39964 1.67934,2.44019 3.03177,3.41547 5.6585,7.63096 5.6585,9.081 0,0.25841 1.50943,2.10921 3.35429,4.11289 4.86085,5.27934 5.57256,6.97807 6.30469,15.04842 0.18055,1.99019 0.0822,2.58488 -0.74594,4.50991 -0.69994,1.62703 -0.90081,2.55879 -0.75444,3.49968 0.20953,1.34694 0.1764,1.39429 -3.19972,4.57539 -0.94981,0.89494 -2.94115,2.08223 -3.45648,2.06085 -0.15368,-0.006 -0.5939,-0.26679 -0.97826,-0.5787 z"
       id="path992" /></g></svg>
