<?xml version="1.0" encoding="UTF-8" standalone="no"?>
<!-- Created with Inkscape (http://www.inkscape.org/) -->

<svg
   width="75"
   height="75"
   viewBox="0 0 19.84375 19.84375"
   version="1.1"
   id="svg739"
   inkscape:version="1.2.2 (b0a8486541, 2022-12-01)"
   sodipodi:docname="aries.svg"
   xml:space="preserve"
   xmlns:inkscape="http://www.inkscape.org/namespaces/inkscape"
   xmlns:sodipodi="http://sodipodi.sourceforge.net/DTD/sodipodi-0.dtd"
   xmlns="http://www.w3.org/2000/svg"
   xmlns:svg="http://www.w3.org/2000/svg"><sodipodi:namedview
     id="namedview741"
     pagecolor="#000000"
     bordercolor="#999999"
     borderopacity="1"
     inkscape:showpageshadow="0"
     inkscape:pageopacity="0"
     inkscape:pagecheckerboard="0"
     inkscape:deskcolor="#d1d1d1"
     inkscape:document-units="px"
     showgrid="false"
     inkscape:zoom="5.5874298"
     inkscape:cx="31.409791"
     inkscape:cy="22.908565"
     inkscape:window-width="1280"
     inkscape:window-height="955"
     inkscape:window-x="0"
     inkscape:window-y="0"
     inkscape:window-maximized="1"
     inkscape:current-layer="layer1" /><defs
     id="defs736" /><g
     inkscape:label="Warstwa 1"
     inkscape:groupmode="layer"
     id="layer1"><path
       style="fill:#ffffff;stroke-width:0.0277651"
       d="m 9.4171098,19.81792 c -0.02384,-0.0147 -0.1199084,-0.01896 -0.2177506,-0.0097 l -0.1750895,0.01665 -0.072613,-0.109628 c -0.039937,-0.06029 -0.084479,-0.116616 -0.098981,-0.125159 -0.014503,-0.0086 -0.034696,-0.05783 -0.044873,-0.10954 -0.010177,-0.0517 -0.045887,-0.152469 -0.079356,-0.223921 -0.058879,-0.125704 -0.060724,-0.162423 -0.056925,-1.132828 0.00216,-0.551603 0.017492,-1.124891 0.034073,-1.273972 0.016581,-0.149082 0.043889,-0.423528 0.060684,-0.609881 0.016795,-0.186352 0.036286,-0.375414 0.043313,-0.420139 0.00703,-0.04473 0.01771,-0.386257 0.023737,-0.758961 0.00603,-0.372706 0.018116,-0.769127 0.02686,-0.880938 0.00875,-0.111812 0.023059,-0.453344 0.031809,-0.758962 0.00875,-0.305618 0.026944,-0.592262 0.04043,-0.636987 0.027526,-0.09129 0.055393,-0.834113 0.075247,-2.005828 0.00733,-0.432335 0.017842,-0.8897456 0.023371,-1.0164657 C 9.0783786,8.6766979 9.0815058,8.7667612 8.9892287,8.5574404 8.9184414,8.3968692 8.905153,8.3303552 8.9050054,8.1358766 8.9049248,7.9772672 8.8906722,7.879502 8.8596154,7.8236466 8.8250799,7.7615352 8.8190021,7.7039164 8.8338851,7.5796946 8.8446026,7.4902453 8.8530627,7.4048621 8.8526862,7.3899545 8.8438319,7.0392868 8.8052034,6.6697514 8.7705171,6.6038866 8.7469636,6.5591623 8.7238872,6.4859767 8.7192355,6.4412517 8.7145838,6.3965274 8.7016106,6.2623539 8.6904054,6.1430886 8.6791994,6.0238226 8.6582135,5.9119504 8.6437699,5.8944835 8.6293254,5.8770157 8.5688202,5.7672373 8.5093138,5.6505315 8.4498075,5.5338249 8.3737533,5.415102 8.3403046,5.3867022 c -0.033449,-0.0284 -0.060816,-0.066549 -0.060816,-0.084775 0,-0.018226 -0.01999,-0.048951 -0.044423,-0.068277 C 8.2106341,5.214326 8.1471661,5.1365972 8.0940262,5.0609214 8.0408861,4.9852455 7.8996605,4.8318462 7.7801915,4.7200348 7.6607225,4.6082233 7.4998702,4.4362137 7.4227422,4.33779 7.3456142,4.2393664 7.2506775,4.1450142 7.2117701,4.1281196 7.1728634,4.1112244 7.125221,4.0636778 7.1058982,4.0224604 7.0566918,3.9174964 6.945907,3.8196283 6.7640374,3.7204563 6.6783066,3.6737082 6.5922976,3.6172411 6.5729072,3.5949728 c -0.01939,-0.022267 -0.045132,-0.040486 -0.057205,-0.040486 -0.012072,0 -0.090494,-0.061222 -0.1742704,-0.1360492 C 6.1584798,3.2550304 5.977214,3.1713307 5.8206044,3.1779454 5.7573638,3.1806193 5.6064664,3.1671816 5.485277,3.1480903 5.2901956,3.1173577 5.2505586,3.1186101 5.1395489,3.1590155 c -0.089731,0.032661 -0.165296,0.040592 -0.2657405,0.027892 -0.1039919,-0.013148 -0.1640271,-0.00608 -0.2317211,0.027284 -0.050251,0.024766 -0.1578677,0.052287 -0.2391492,0.061157 -0.081281,0.00887 -0.1730281,0.032613 -0.2038825,0.052762 -0.030855,0.020149 -0.093123,0.036634 -0.1383733,0.036634 -0.1138878,0 -0.4737572,0.1654187 -0.6060745,0.2785894 -0.060252,0.051535 -0.1375582,0.102 -0.1717898,0.1121453 -0.059562,0.017653 -0.1635844,0.1208772 -0.2734549,0.2713568 -0.028208,0.038635 -0.094547,0.087474 -0.1474187,0.1085276 -0.074026,0.029478 -0.1140926,0.074608 -0.1742536,0.1962757 -0.042969,0.086898 -0.1170601,0.1928703 -0.1646477,0.2354955 -0.070037,0.062732 -0.086672,0.099747 -0.087303,0.1942603 -4.031e-4,0.064218 -0.010378,0.1259076 -0.02211,0.137088 -0.011732,0.011179 -0.02133,0.060055 -0.02133,0.1086113 0,0.048557 -0.014506,0.1481806 -0.032236,0.2213854 -0.028394,0.1172376 -0.024766,0.1522122 0.030439,0.2934547 0.034471,0.088195 0.081854,0.2112939 0.1052954,0.2735535 0.028778,0.076432 0.067387,0.1227766 0.1188741,0.1426893 0.041939,0.01622 0.1585457,0.090604 0.2591249,0.1652972 0.1082856,0.080416 0.2431544,0.1525074 0.3306734,0.1767557 0.08129,0.022523 0.1709272,0.065306 0.1991937,0.095073 0.028266,0.029768 0.1062451,0.067287 0.1732861,0.083376 0.067041,0.016089 0.1367408,0.046303 0.1548873,0.067143 0.018147,0.020839 0.082824,0.045483 0.1437256,0.054765 0.09031,0.013763 0.1538827,0.058177 0.3447034,0.2408217 0.1286837,0.1231708 0.2560759,0.2526905 0.2830929,0.2878219 0.1132783,0.1473001 0.4012672,0.4744632 0.4618498,0.5246742 0.035976,0.029816 0.074619,0.084705 0.085874,0.121976 0.011255,0.037271 0.070342,0.1681501 0.1313062,0.2908438 0.092295,0.18575 0.110813,0.2515187 0.110663,0.3930339 -1.612e-4,0.1603283 -0.005,0.172569 -0.085321,0.2161284 -0.064946,0.035222 -0.085141,0.065509 -0.085141,0.1276833 0,0.087763 -0.021226,0.1129095 -0.1627701,0.1928366 -0.055536,0.031361 -0.098457,0.081476 -0.1088927,0.1271455 -0.00947,0.04146 -0.032214,0.1241719 -0.050534,0.1838046 l -0.03331,0.108423 -0.298625,0.019255 C 4.3042147,9.4256267 4.099443,9.4418244 4.0134098,9.4510307 3.9071236,9.4624046 3.7977352,9.4530515 3.6721238,9.4218425 3.570449,9.3965822 3.433834,9.3773834 3.3685344,9.379179 3.2236559,9.383159 3.1055841,9.343169 3.0536704,9.2725308 c -0.021397,-0.029115 -0.05698,-0.052936 -0.079073,-0.052936 -0.022093,0 -0.1387652,-0.061344 -0.2592709,-0.1363196 C 2.5948204,9.0082997 2.4412529,8.9337633 2.3740652,8.9176395 2.2832682,8.8958498 2.2287038,8.859519 2.161525,8.7761243 2.0551122,8.6440252 1.6736837,8.3613598 1.4577244,8.2545595 1.3563229,8.2044122 1.0003522,7.8649048 0.95053704,7.7708292 0.92644895,7.7253381 0.88477386,7.6637224 0.857927,7.6339065 0.83108013,7.6040897 0.78641409,7.520981 0.75866913,7.4492198 0.73092498,7.377458 0.66479982,7.2645248 0.61172524,7.1982567 0.55865066,7.1319886 0.51522615,7.0712818 0.51522615,7.0633524 c 0,-0.00793 -0.0249959,-0.047465 -0.0555456,-0.087859 C 0.4291301,6.9350997 0.3692779,6.8044698 0.32667408,6.6852037 0.28407108,6.5659384 0.2151283,6.413193 0.17346772,6.3457709 0.06908008,6.1768285 0.05155758,6.1027163 0.04223724,5.7907135 0.03778708,5.6416316 0.02327086,5.3549877 0.00998649,5.1537276 -0.00329787,4.9524668 -0.00333334,4.7562979 0.00990749,4.7177966 0.02314832,4.6792944 0.05239198,4.5146272 0.07489269,4.3518685 0.14027938,3.8789075 0.14568084,3.8587713 0.21955588,3.8126379 c 0.0521257,-0.03255 0.0681463,-0.066786 0.0681463,-0.1456283 0,-0.074898 0.0194356,-0.1204753 0.0711009,-0.1667348 0.0391058,-0.035014 0.0711009,-0.084935 0.0711009,-0.1109348 0,-0.026001 0.0590412,-0.1123063 0.13120307,-0.1917915 0.0721611,-0.079485 0.14814276,-0.181926 0.16884728,-0.2276461 0.0398805,-0.088064 0.63069697,-0.6747805 0.75379707,-0.7485669 0.039957,-0.02395 0.1441376,-0.105816 0.2315122,-0.1819236 0.087374,-0.076107 0.17332,-0.1383781 0.1909908,-0.1383781 0.1020295,0 0.3787592,-0.2425021 0.5234764,-0.4587303 0.060503,-0.0904 0.2879785,-0.2677203 0.3480693,-0.2713262 0.016495,-9.912e-4 0.078456,-0.044106 0.137688,-0.095815 C 2.9747212,1.0234536 3.0892063,0.95192149 3.1699009,0.91620153 3.3006574,0.85832229 3.5031815,0.72630621 3.5677692,0.6568495 3.7205112,0.49259336 3.7507691,0.47266843 3.8713917,0.45691106 3.9913566,0.44123974 4.1918466,0.37216941 4.3546966,0.29040901 c 0.039106,-0.0196329 0.1414917,-0.0441403 0.227524,-0.0544593 0.086032,-0.010319 0.207616,-0.0463478 0.2701851,-0.0800631 0.097777,-0.0526875 0.1437336,-0.05961037 0.3270656,-0.0492691 0.1173173,0.006615 0.3703362,0.009761 0.5622638,0.006984 0.2917009,-0.004218 0.3747108,0.004133 0.5058873,0.0509133 0.1005776,0.0358651 0.2254755,0.0560997 0.3478323,0.0563525 0.1773452,3.8418e-4 0.3211901,0.0329316 0.5321929,0.12048232 0.046927,0.0194708 0.1301155,0.051243 0.1848629,0.0706039 0.1905402,0.0673815 0.397466,0.19318155 0.5608263,0.34095262 0.090425,0.0817943 0.2092012,0.17164771 0.2639495,0.19967338 0.054748,0.0280263 0.1571341,0.10788367 0.227524,0.17746027 0.070391,0.069577 0.2047717,0.197711 0.2986257,0.2847438 0.093853,0.087032 0.1797034,0.1680042 0.190778,0.1799383 0.2197185,0.2367848 0.3069311,0.3380821 0.3069311,0.3565002 0,0.01238 0.060791,0.054297 0.1350921,0.093146 0.074302,0.03885 0.2500102,0.1810608 0.3904643,0.3160242 0.1404549,0.1349636 0.2675278,0.2453889 0.2823859,0.2453889 0.014858,0 0.069187,0.04388 0.1207296,0.097512 l 0.09372,0.097512 0.08288,-0.06363 c 0.04559,-0.034997 0.10513,-0.098624 0.132324,-0.1413946 0.07082,-0.1113873 0.506115,-0.5105935 0.733193,-0.6724047 0.122073,-0.086987 0.215034,-0.1784 0.25239,-0.248188 0.03253,-0.060765 0.08954,-0.1332738 0.126703,-0.1611328 0.03716,-0.027859 0.06756,-0.068734 0.06756,-0.090835 0,-0.022659 0.06842,-0.069022 0.156897,-0.1063131 0.163323,-0.06884 0.411913,-0.2647936 0.411913,-0.32469512 0,-0.0189909 0.04339,-0.058925 0.09641,-0.0887424 0.06197,-0.0348448 0.108477,-0.0890629 0.130188,-0.15175891 0.03468,-0.10014164 0.100895,-0.12695484 0.164299,-0.0665271 0.05429,0.0517447 0.202742,-0.0245211 0.247803,-0.12730752 0.05839,-0.13318549 0.144015,-0.20187469 0.251651,-0.20187469 0.05562,0 0.13337,-0.0276723 0.190389,-0.0677649 0.05301,-0.0372698 0.129574,-0.0677641 0.170154,-0.0677641 0.04058,0 0.123989,-0.0243952 0.185352,-0.0542119 0.06136,-0.0298159 0.1417,-0.0542111 0.178526,-0.0542111 0.03683,0 0.0888,-0.0111396 0.115488,-0.02475402 0.04854,-0.0247571 0.767948,-0.09214932 0.928928,-0.0870190251 0.04693,0.001498295 0.128377,0.002758395 0.180998,0.002804495 0.05262,4.84e-5 0.181984,0.02458574 0.287471,0.05452692 0.105489,0.02994116 0.226501,0.05443855 0.268918,0.05443855 0.129371,0 0.493527,0.15945471 0.556428,0.24364542 0.04571,0.0611808 0.09148,0.0818311 0.234701,0.10587594 0.272241,0.0457085 0.377907,0.0794353 0.434025,0.13853477 0.03738,0.0393704 0.08758,0.054059 0.184719,0.054059 0.09629,0 0.147395,0.0147524 0.18376,0.0530501 0.02771,0.0291774 0.135274,0.0794746 0.239042,0.11177153 0.103768,0.0322969 0.220664,0.0863168 0.25977,0.12004358 0.03911,0.0337268 0.112311,0.0811343 0.162678,0.10534888 0.117763,0.056618 0.320811,0.2459966 0.320811,0.2992143 0,0.02257 0.03693,0.059234 0.08206,0.081479 0.04513,0.022243 0.116288,0.096109 0.158125,0.1641477 0.04184,0.068038 0.158798,0.185671 0.259916,0.2614067 0.158269,0.1185415 0.199586,0.169123 0.296935,0.3635178 0.0622,0.1241988 0.126061,0.2334601 0.141921,0.2428017 0.01586,0.00934 0.05584,0.067434 0.08885,0.1290956 0.03301,0.061661 0.09041,0.1349043 0.127576,0.1627624 0.03716,0.02786 0.06757,0.065343 0.06757,0.083297 0,0.017954 0.04799,0.093626 0.106652,0.1681593 0.09434,0.1198738 0.176296,0.2599461 0.274797,0.4696718 0.01667,0.035491 0.02645,0.092603 0.02173,0.1269141 -0.0047,0.034312 0.01314,0.1211501 0.03969,0.1929749 0.09673,0.2617002 0.06984,0.6223811 -0.0607,0.8140582 -0.02249,0.033018 -0.04095,0.1123033 -0.04104,0.1761871 -8.1e-5,0.081449 -0.03726,0.1893637 -0.124343,0.3611835 -0.06831,0.1347659 -0.138836,0.3101064 -0.156735,0.3896439 -0.0179,0.079537 -0.06324,0.1793905 -0.100771,0.2218957 -0.03753,0.042505 -0.0767,0.1140175 -0.08704,0.1589177 -0.01035,0.044899 -0.04663,0.1031305 -0.08062,0.1294013 -0.07294,0.05637 -0.209466,0.3083031 -0.235727,0.4349952 -0.01015,0.048987 -0.04287,0.1053581 -0.0727,0.1252707 -0.05865,0.039152 -0.220055,0.3748087 -0.222788,0.4633075 -0.0022,0.072666 -0.0568,0.1368421 -0.136935,0.1610829 -0.07527,0.02277 -0.261097,0.1709707 -0.261097,0.208235 0,0.046494 -0.27997,0.3617528 -0.508514,0.5726079 -0.18607,0.1716693 -0.244075,0.2100701 -0.317313,0.2100701 -0.06253,0 -0.141295,0.037455 -0.260599,0.1239275 -0.09404,0.06816 -0.19202,0.131224 -0.217738,0.1401422 -0.02572,0.00892 -0.08294,0.044632 -0.127154,0.079366 -0.04422,0.034734 -0.09372,0.063151 -0.110008,0.063151 -0.01629,0 -0.07334,0.036593 -0.12679,0.081318 -0.07874,0.065888 -0.122621,0.081271 -0.231278,0.081073 -0.114437,-2.305e-4 -0.144531,0.011689 -0.205205,0.081135 -0.102506,0.1173251 -0.426049,0.1926206 -0.838995,0.195253 -0.330988,0.00212 -0.406422,-0.016757 -0.611471,-0.1529436 -0.05475,-0.036361 -0.144558,-0.095117 -0.199576,-0.1305663 -0.124003,-0.079898 -0.263482,-0.3268372 -0.311524,-0.5515335 -0.04077,-0.1906929 -0.02707,-0.2510047 0.08451,-0.372134 0.04418,-0.047955 0.08464,-0.1224309 0.08992,-0.1654993 0.0069,-0.056707 0.03705,-0.092669 0.109138,-0.130371 0.05475,-0.028635 0.132238,-0.081433 0.1722,-0.1173297 0.03996,-0.035896 0.0859,-0.065266 0.102086,-0.065266 0.01619,0 0.04431,-0.031128 0.0625,-0.069173 0.01819,-0.038045 0.07554,-0.086087 0.127456,-0.1067595 0.05191,-0.020673 0.145732,-0.084076 0.208488,-0.1408968 0.06276,-0.05682 0.15623,-0.1277056 0.207718,-0.1575215 0.06166,-0.035706 0.106563,-0.091223 0.131546,-0.1626349 0.04228,-0.1208389 0.209981,-0.284611 0.291446,-0.284611 0.07638,0 0.135394,-0.07561 0.17983,-0.230399 0.03116,-0.108559 0.05689,-0.1436197 0.129257,-0.1761879 0.04969,-0.022362 0.116145,-0.083989 0.147671,-0.1369496 0.03153,-0.05296 0.08352,-0.118888 0.11554,-0.1465064 0.03499,-0.030176 0.05822,-0.08399 0.05822,-0.1348529 0,-0.046551 0.0201,-0.1119897 0.04467,-0.1454199 0.02457,-0.03343 0.05051,-0.1354545 0.05766,-0.2267217 0.01146,-0.1463981 0.03586,-0.21747 0.128815,-0.3750975 0.11805,-0.2001905 0.134925,-0.2939103 0.14686,-0.8155988 0.0036,-0.1579472 -0.0064,-0.2749312 -0.0256,-0.2981639 -0.01735,-0.021028 -0.03984,-0.079839 -0.04998,-0.1306906 -0.01122,-0.056284 -0.0712,-0.1471012 -0.153314,-0.2321248 -0.07419,-0.076817 -0.15716,-0.1663361 -0.184381,-0.1989296 -0.02722,-0.032594 -0.0753,-0.059262 -0.10684,-0.059262 -0.03154,0 -0.08606,-0.031706 -0.12115,-0.070458 -0.03509,-0.038753 -0.122199,-0.098789 -0.193572,-0.1334145 -0.07137,-0.034626 -0.146454,-0.082116 -0.166846,-0.105534 -0.02039,-0.023419 -0.08998,-0.05532 -0.154637,-0.070892 -0.237321,-0.057157 -0.403124,-0.1134942 -0.449015,-0.1525696 -0.03362,-0.02863 -0.102612,-0.038269 -0.241744,-0.033779 -0.107082,0.00346 -0.276796,0.00265 -0.377142,-0.00179 -0.143196,-0.00634 -0.189796,0.0015 -0.216594,0.03643 -0.03638,0.047413 -0.264935,0.1232883 -0.383072,0.1271684 -0.03911,0.00129 -0.173487,0.053809 -0.298625,0.1167221 -0.207257,0.1041963 -0.228791,0.1227267 -0.241745,0.2080268 -0.01226,0.08073 -0.02599,0.094667 -0.09954,0.1010746 -0.149171,0.012995 -0.213298,0.033303 -0.213532,0.067625 -8.1e-5,0.018351 -0.07691,0.1109363 -0.170644,0.2057441 -0.09373,0.094807 -0.170415,0.1853436 -0.170415,0.2011901 0,0.015848 -0.06321,0.098081 -0.140476,0.1827419 -0.110393,0.1209649 -0.156662,0.2026822 -0.216056,0.3815841 -0.04157,0.12521 -0.09994,0.2720068 -0.129709,0.3262149 -0.02977,0.054209 -0.05413,0.1128164 -0.05413,0.1302396 0,0.017423 -0.02799,0.088948 -0.06219,0.1589437 -0.03421,0.069996 -0.07823,0.2248462 -0.09783,0.3441122 -0.0196,0.1192652 -0.07079,0.3083277 -0.113759,0.420139 -0.07094,0.1846061 -0.07861,0.2408019 -0.08342,0.6113323 -0.0043,0.3297639 -0.01492,0.4257727 -0.05545,0.5004819 -0.02759,0.050844 -0.04999,0.1416728 -0.04978,0.2018416 1.61e-4,0.060169 -0.02303,0.1703861 -0.05165,0.2449263 -0.02862,0.074541 -0.07852,0.2331098 -0.110886,0.3523758 -0.03237,0.1192652 -0.0914,0.2795804 -0.131189,0.3562552 -0.03979,0.076675 -0.102995,0.2456146 -0.140466,0.375421 -0.03747,0.1298062 -0.07994,0.2500358 -0.09438,0.2671769 -0.01444,0.017141 -0.02141,0.2019324 -0.0155,0.4106469 0.0138,0.4876789 0.01363,0.5094271 -0.0127,1.5892103 -0.01223,0.501363 -0.01185,1.007562 8.47e-4,1.12489 0.01269,0.117328 0.01465,0.304805 0.0044,0.416617 -0.0103,0.111811 -0.02099,0.288676 -0.02377,0.393033 -0.011,0.413457 -0.07123,1.584478 -0.09202,1.788981 -0.01213,0.119266 -0.02205,0.497392 -0.02205,0.84028 0,0.498703 -0.01079,0.677663 -0.05393,0.89449 -0.02966,0.149082 -0.05744,0.356441 -0.06173,0.460799 -0.0043,0.104357 -0.02131,0.43979 -0.03782,0.745408 -0.02156,0.399058 -0.02116,0.663228 0.0014,0.937296 0.019,0.230662 0.02314,0.539967 0.01045,0.781905 l -0.021,0.400281 -0.0935,0.03724 c -0.05142,0.02048 -0.149218,0.09703 -0.21732,0.170118 -0.148897,0.159796 -0.221343,0.199294 -0.408228,0.222576 -0.1664781,0.02074 -0.4055613,0.07607 -0.4759923,0.11016 -0.065025,0.03147 -0.1957078,0.02977 -0.2492403,-0.0032 z"
       id="path895" /></g></svg>
