<?xml version="1.0" encoding="UTF-8" standalone="no"?>
<!-- Created with Inkscape (http://www.inkscape.org/) -->

<svg
   width="75"
   height="75"
   viewBox="0 0 19.84375 19.84375"
   version="1.1"
   id="svg739"
   inkscape:version="1.2.2 (b0a8486541, 2022-12-01)"
   sodipodi:docname="pisces.svg"
   xml:space="preserve"
   xmlns:inkscape="http://www.inkscape.org/namespaces/inkscape"
   xmlns:sodipodi="http://sodipodi.sourceforge.net/DTD/sodipodi-0.dtd"
   xmlns="http://www.w3.org/2000/svg"
   xmlns:svg="http://www.w3.org/2000/svg"><sodipodi:namedview
     id="namedview741"
     pagecolor="#000000"
     bordercolor="#999999"
     borderopacity="1"
     inkscape:showpageshadow="0"
     inkscape:pageopacity="0"
     inkscape:pagecheckerboard="0"
     inkscape:deskcolor="#d1d1d1"
     inkscape:document-units="px"
     showgrid="false"
     inkscape:zoom="7.901819"
     inkscape:cx="37.776112"
     inkscape:cy="38.092495"
     inkscape:window-width="1280"
     inkscape:window-height="955"
     inkscape:window-x="0"
     inkscape:window-y="0"
     inkscape:window-maximized="1"
     inkscape:current-layer="layer1" /><defs
     id="defs736" /><g
     inkscape:label="Warstwa 1"
     inkscape:groupmode="layer"
     id="layer1"><path
       style="fill:#ffffff;stroke-width:0.0251997"
       d="m 14.383927,19.816703 c -0.0152,-0.01816 -0.0628,-0.03996 -0.10569,-0.04844 -0.0429,-0.0085 -0.11192,-0.04367 -0.15341,-0.0782 -0.0415,-0.03453 -0.0956,-0.06278 -0.12025,-0.06278 -0.0246,0 -0.0654,-0.02256 -0.0907,-0.05012 -0.0252,-0.02756 -0.0737,-0.05012 -0.10772,-0.05012 -0.0917,0 -0.19122,-0.08155 -0.2975,-0.243857 -0.0521,-0.07951 -0.1475,-0.184043 -0.21208,-0.232284 -0.15021,-0.112205 -0.19314,-0.160893 -0.27065,-0.306985 -0.0347,-0.06547 -0.074,-0.119035 -0.0873,-0.119035 -0.0133,0 -0.0629,-0.05996 -0.11032,-0.133235 -0.0537,-0.08294 -0.13836,-0.167491 -0.22443,-0.223987 -0.076,-0.04991 -0.1689,-0.136558 -0.20637,-0.192544 -0.0375,-0.05598 -0.0775,-0.101793 -0.089,-0.101793 -0.0115,0 -0.0337,-0.02765 -0.0492,-0.06144 -0.0156,-0.03379 -0.0634,-0.07937 -0.10622,-0.101287 -0.0525,-0.02685 -0.0971,-0.0824 -0.13666,-0.170359 -0.0323,-0.07179 -0.11177,-0.194601 -0.17659,-0.272924 -0.0648,-0.07832 -0.11784,-0.159275 -0.11784,-0.179895 0,-0.0393 -0.045,-0.09194 -0.12754,-0.149095 -0.0433,-0.02996 -0.12256,-0.253963 -0.18799,-0.531005 -0.0178,-0.07541 -0.17088,-0.322884 -0.21723,-0.351215 -0.0136,-0.0083 -0.0247,-0.03254 -0.0247,-0.05385 0,-0.0213 -0.0281,-0.09401 -0.0624,-0.161552 -0.0343,-0.06754 -0.0861,-0.198737 -0.11507,-0.291531 -0.029,-0.09279 -0.0802,-0.19713 -0.11387,-0.231861 -0.0351,-0.03624 -0.0767,-0.127132 -0.0975,-0.213309 -0.02,-0.08259 -0.049,-0.181908 -0.0645,-0.220709 -0.0155,-0.0388 -0.0283,-0.100823 -0.0285,-0.13783 -2.1e-4,-0.03701 -0.0169,-0.09547 -0.037,-0.129934 -0.0202,-0.03445 -0.0439,-0.07957 -0.0528,-0.100239 -0.009,-0.02068 -0.0317,-0.07142 -0.0509,-0.112771 -0.0191,-0.04135 -0.0464,-0.203524 -0.0606,-0.360389 -0.0142,-0.156866 -0.0377,-0.299387 -0.0522,-0.316713 -0.0145,-0.01733 -0.0313,-0.181315 -0.0372,-0.364418 -0.008,-0.263287 -0.0211,-0.354284 -0.0603,-0.435087 -0.10703,-0.2206 -0.1534,-0.358994 -0.16861,-0.503131 -0.009,-0.08269 -0.0322,-0.205973 -0.0521,-0.273944 -0.0199,-0.06797 -0.0362,-0.167205 -0.0362,-0.220519 0,-0.05331 -0.0185,-0.132216 -0.041,-0.175335 -0.0225,-0.04312 -0.0482,-0.158149 -0.057,-0.255621 l -0.016,-0.177221 h -0.0887 c -0.0852,0 -0.0888,0.0038 -0.0914,0.09428 -0.001,0.05186 -0.0205,0.113882 -0.0422,0.13783 -0.0217,0.02395 -0.0406,0.07174 -0.042,0.106192 -0.003,0.0761 -0.0152,0.287844 -0.0221,0.381971 -0.003,0.03974 -0.036,0.09601 -0.0785,0.133421 -0.051,0.04489 -0.0785,0.09811 -0.09,0.173848 -0.009,0.06004 -0.0375,0.135532 -0.0632,0.167773 -0.0871,0.109476 -0.17886,0.292617 -0.17886,0.356882 0,0.03746 -0.0355,0.103034 -0.0856,0.158068 -0.0644,0.07075 -0.0901,0.126533 -0.10368,0.225192 -0.0133,0.09653 -0.0341,0.142832 -0.0788,0.17542 -0.0427,0.03112 -0.0684,0.08478 -0.0866,0.180636 -0.0142,0.075 -0.0423,0.161204 -0.0625,0.191564 -0.0201,0.03036 -0.0608,0.126437 -0.0905,0.213502 -0.0297,0.08707 -0.0844,0.193781 -0.12154,0.237144 -0.0372,0.04336 -0.0875,0.103008 -0.11171,0.132541 -0.0243,0.02953 -0.0597,0.0537 -0.0787,0.0537 -0.0346,0 -0.24459,0.420507 -0.24459,0.489741 0,0.02008 -0.0444,0.08048 -0.0988,0.134207 -0.0563,0.05565 -0.10641,0.133834 -0.11649,0.181685 -0.01,0.0462 -0.0394,0.121292 -0.0659,0.166874 -0.0265,0.04558 -0.0482,0.115246 -0.0482,0.154808 0,0.0508 -0.0233,0.08996 -0.0793,0.133307 l -0.0793,0.06137 0.0458,0.07661 0.0458,0.07661 -0.0805,0.07436 c -0.0443,0.0409 -0.0805,0.08743 -0.0805,0.103398 0,0.01597 -0.0554,0.08756 -0.12302,0.1591 -0.0704,0.07448 -0.14281,0.183615 -0.16933,0.255365 -0.0255,0.06892 -0.0613,0.147543 -0.0797,0.174731 -0.0184,0.02719 -0.0334,0.06993 -0.0334,0.09499 0,0.07499 -0.14146,0.253276 -0.26391,0.33262 -0.0355,0.02301 -0.0754,0.08049 -0.0885,0.127726 -0.0132,0.04723 -0.0537,0.122197 -0.0901,0.166579 -0.0364,0.04438 -0.11124,0.134856 -0.16637,0.201054 -0.12718,0.152722 -0.15011,0.196011 -0.17248,0.325574 -0.0163,0.09447 -0.0304,0.111015 -0.13676,0.160972 -0.0652,0.03063 -0.13798,0.08703 -0.16168,0.125347 -0.11014,0.178129 -0.25243,0.373429 -0.29369,0.403133 -0.025,0.01801 -0.0455,0.04766 -0.0455,0.06589 0,0.04012 -0.24463,0.264731 -0.28833,0.264731 -0.0171,0 -0.0799,0.05075 -0.1397,0.112771 -0.0598,0.06203 -0.11848,0.11277 -0.13046,0.11277 -0.012,0 -0.0721,0.03356 -0.13354,0.07458 -0.11035,0.07366 -0.26578,0.125792 -0.5623,0.188604 -0.0836,0.01771 -0.2118,0.04559 -0.28483,0.06196 -0.0952,0.02133 -0.15614,0.02234 -0.21539,0.0036 -0.0454,-0.01442 -0.16715,-0.03257 -0.27048,-0.04033 -0.22511,-0.01691 -0.35395,-0.08829 -0.47307,-0.262078 -0.043,-0.06269 -0.1228,-0.143996 -0.17739,-0.180681 -0.0897,-0.0603 -0.10063,-0.07952 -0.11367,-0.20048 -0.008,-0.07358 -0.003,-0.178886 0.01,-0.234019 0.0135,-0.05513 0.0273,-0.139709 0.0308,-0.18795 0.0114,-0.158302 0.0436,-0.287144 0.0877,-0.35084 0.0238,-0.03445 0.0512,-0.112837 0.0608,-0.174176 0.0197,-0.125916 0.0526,-0.176663 0.11451,-0.176663 0.0407,0 0.30614,-0.240476 0.30614,-0.277305 0,-0.0098 0.0428,-0.02556 0.095,-0.03501 0.12719,-0.02298 0.20906,-0.07844 0.20906,-0.141604 0,-0.03123 0.0906,-0.144568 0.22806,-0.285351 0.12543,-0.128452 0.22806,-0.248088 0.22806,-0.265857 0,-0.04147 0.24836,-0.272933 0.29285,-0.272933 0.0446,0 0.11259,-0.09819 0.11259,-0.162572 0,-0.02815 0.0238,-0.09519 0.053,-0.148975 0.0361,-0.06667 0.0482,-0.121611 0.0379,-0.172636 -0.0132,-0.06523 -5e-4,-0.08815 0.099,-0.17851 0.0628,-0.05702 0.11417,-0.112708 0.11417,-0.12376 0,-0.01105 0.0228,-0.04876 0.0507,-0.08381 0.0279,-0.03505 0.0507,-0.09023 0.0507,-0.122628 0,-0.07983 0.15671,-0.366562 0.27978,-0.51193 0.0552,-0.06518 0.10033,-0.141017 0.10033,-0.168531 0,-0.02751 0.0284,-0.06843 0.0631,-0.09092 0.0436,-0.02827 0.0683,-0.07319 0.08,-0.145519 0.0113,-0.07008 0.0441,-0.131499 0.0992,-0.18604 0.0453,-0.04478 0.0905,-0.118739 0.10048,-0.164349 0.0163,-0.07439 0.2782,-0.593102 0.39616,-0.784606 0.0255,-0.04135 0.0464,-0.0934 0.0464,-0.115654 5e-5,-0.02226 0.0212,-0.06737 0.047,-0.10024 0.0258,-0.03287 0.0669,-0.121789 0.0912,-0.197596 0.0243,-0.0758 0.0671,-0.157525 0.0951,-0.181598 0.028,-0.02407 0.0839,-0.08483 0.12422,-0.135011 0.0611,-0.07607 0.0734,-0.114636 0.0735,-0.231891 1.4e-4,-0.09819 0.0154,-0.163343 0.0505,-0.215829 0.0278,-0.04156 0.0504,-0.117573 0.0505,-0.16996 7e-5,-0.05213 0.0194,-0.136707 0.0429,-0.18795 0.0254,-0.05543 0.0441,-0.164233 0.046,-0.26859 0.002,-0.09648 0.008,-0.192335 0.0143,-0.21301 0.0197,-0.06742 -0.14188,-0.06096 -0.27184,0.01088 -0.064,0.03536 -0.11933,0.0643 -0.12299,0.0643 -0.004,0 -0.0138,-0.03665 -0.0224,-0.08145 -0.01,-0.0517 -0.0665,-0.132979 -0.15463,-0.222557 l -0.13885,-0.141112 -0.20936,-0.01725 c -0.14172,-0.01168 -0.23389,-0.0075 -0.2853,0.01275 -0.0418,0.0165 -0.17287,0.03259 -0.29133,0.03574 -0.34887,0.0093 -0.81876,0.06495 -0.88173,0.104407 -0.0424,0.02654 -0.16879,0.03954 -0.4651,0.0478 -0.22381,0.0062 -0.41539,0.0165 -0.42573,0.02282 -0.0103,0.0063 -0.0864,0.01706 -0.16909,0.02386 -0.0827,0.0068 -0.19407,0.03047 -0.24758,0.05258 -0.0535,0.02211 -0.1131,0.03421 -0.13242,0.02688 -0.0193,-0.0073 -0.16279,-0.0016 -0.31885,0.01288 -0.24295,0.02244 -0.30526,0.02022 -0.43367,-0.01541 -0.11528,-0.03199 -0.20348,-0.03789 -0.3814,-0.02549 -0.22948,0.01599 -0.32998,0.0038 -0.59886,-0.07274 -0.0767,-0.02182 -0.22372,-0.04703 -0.32679,-0.05604 -0.15519005,-0.01356 -0.20120005,-0.02833 -0.26746005,-0.08586 -0.044,-0.03821 -0.11113,-0.07721 -0.14914,-0.08664 -0.0408,-0.01014 -0.0986,-0.05956 -0.14122,-0.120742 -0.0397,-0.05697 -0.12407,-0.159541 -0.18759,-0.22793 -0.1106,-0.119097 -0.16946,-0.254996 -0.16946,-0.391261 0,-0.06265 -0.0804,-0.204961 -0.17102,-0.302561 -0.0505,-0.05446 -0.0566,-0.07551 -0.034,-0.1173868 0.0152,-0.02807 0.0276,-0.145893 0.0276,-0.261846 0,-0.174853 0.009,-0.220682 0.0507,-0.268611 0.0279,-0.03179 0.0507,-0.07164 0.0507,-0.08857 0,-0.03932 0.15114,-0.153742 0.26548,-0.200989 0.16728,-0.06913 0.52218,-0.136338 0.74248005,-0.140621 0.51837,-0.01008 1.2587,0.0084 1.30438,0.0326 0.0342,0.01811 0.0698,0.01734 0.11833,-0.0026 0.0469,-0.01919 0.1717,-0.02322 0.38413,-0.01237 0.49364,0.0252 0.96262,0.01371 1.42967,-0.03505 0.32981,-0.03442 0.62042,-0.04224 1.34304,-0.03613 0.38954,0.0033 0.46562,0.0048 0.84889,0.01748 0.16028,0.0052 0.33752,0.0043 0.39388,-0.0023 0.0938,-0.01084 0.10719,-0.02199 0.15838,-0.13235 0.0672,-0.1448 0.0748,-0.408825 0.0184,-0.639673 -0.0202,-0.08269 -0.0371,-0.18419 -0.0376,-0.225539 -5.1e-4,-0.04135 -0.0227,-0.131941 -0.0494,-0.201316 -0.0267,-0.06937 -0.0623,-0.221615 -0.0793,-0.33831 -0.017,-0.1166953 -0.0485,-0.2460048 -0.07,-0.2873535 C 6.860577,6.9855277 6.777567,6.7063842 6.766927,6.5960268 6.754827,6.470522 6.661807,6.1538495 6.593927,6.0071169 6.562027,5.9382019 6.509227,5.814155 6.476537,5.731457 6.443837,5.648759 6.390537,5.5462015 6.358157,5.5035516 6.325757,5.4609016 6.299057,5.4045166 6.298757,5.3782517 6.298537,5.3519857 6.253057,5.2402803 6.197817,5.1300164 6.142517,5.0197524 6.097117,4.9122647 6.096877,4.8911546 6.096667,4.8700446 6.044077,4.765688 5.979997,4.6592512 5.912497,4.5471481 5.857507,4.4209619 5.849207,4.3593229 5.829107,4.21044 5.660067,3.8759703 5.552757,3.7729051 c -0.0569,-0.05467 -0.0898,-0.109831 -0.0898,-0.1506512 0,-0.035821 -0.0337,-0.1023984 -0.076,-0.1500257 -0.0418,-0.047094 -0.076,-0.099936 -0.076,-0.1174273 0,-0.017491 -0.0409,-0.070664 -0.091,-0.1181629 -0.05,-0.047498 -0.11891,-0.1404565 -0.15308,-0.2065736 -0.0342,-0.066116 -0.0792,-0.1266888 -0.10003,-0.1346036 -0.0209,-0.00791 -0.0537,-0.051745 -0.073,-0.097399 -0.0193,-0.045653 -0.0688,-0.1002655 -0.11007,-0.1213604 -0.0413,-0.021095 -0.10213,-0.069771 -0.13528,-0.1081697 -0.0332,-0.038398 -0.10289,-0.098007 -0.15497,-0.1324647 -0.0593,-0.039265 -0.10538,-0.095389 -0.12332,-0.1503602 -0.0357,-0.109302 -0.0925,-0.1754197 -0.15079,-0.1754197 -0.0246,0 -0.0697,-0.040045 -0.1003,-0.08899 -0.0306,-0.048944 -0.0824,-0.1063788 -0.11525,-0.1276321 -0.0722,-0.046771 -0.15877,-0.1976171 -0.22284,-0.3882158 -0.0277,-0.082465 -0.0884,-0.1854464 -0.14571,-0.2475022 -0.054,-0.058451 -0.0982,-0.1165342 -0.0982,-0.1290734 0,-0.01254 0.0241,-0.1180161 0.0537,-0.23439125 0.0514,-0.2027173 0.0577,-0.2133487 0.14973,-0.2535076 0.0528,-0.023055 0.10838,-0.06862 0.12341,-0.1012557 0.0302,-0.065562 0.14194,-0.1186439 0.20187,-0.095904 0.0244,0.00928 0.0726,-0.02231 0.13207,-0.086687 0.0515,-0.055706 0.11706,-0.1012813 0.14572,-0.1012813 0.0287,0 0.059,-0.010976 0.0674,-0.02439 0.0206,-0.033038 0.15474,-0.092087 0.28403,-0.1250756 0.0584,-0.014908 0.15229,-0.0475 0.20859,-0.072429 0.086,-0.038063 0.12954,-0.041723 0.272,-0.022848 0.0933,0.012363 0.20127,0.038655 0.23994,0.058429 0.0387,0.019774 0.0976,0.035953 0.13098,0.035953 0.0334,0 0.0824,0.023754 0.10896,0.052786 0.0266,0.029033 0.0909,0.074287 0.14292,0.1005625 0.0521,0.026277 0.11182,0.07369 0.13281,0.105363 0.021,0.031672 0.0831,0.082575 0.13806,0.1131145 0.10508,0.058406 0.22997,0.1877281 0.22997,0.2381311 0,0.034174 0.22725,0.2149634 0.34642,0.2756141 0.0442,0.022491 0.10504,0.0751671 0.13521,0.11705785 0.0302,0.041891 0.0694,0.073073 0.0873,0.069293 0.034,-0.00721 0.23842,0.2041666 0.28899,0.2988415 0.0287,0.053799 0.0838,0.091098 0.25031,0.16968 0.0771,0.036378 0.18411,0.1927283 0.18419,0.2691427 2e-5,0.017777 0.046,0.08307 0.10223,0.1450928 0.0562,0.062024 0.13834,0.1847901 0.18253,0.2728146 0.0614,0.1223797 0.1,0.1681654 0.16385,0.1945512 0.0538,0.022212 0.0835,0.051825 0.0835,0.083112 0,0.084757 0.0573,0.1848653 0.18253,0.3188574 0.0668,0.071535 0.12155,0.1461047 0.12155,0.1657088 0,0.019604 0.0342,0.078215 0.076,0.1302461 0.0418,0.052031 0.076,0.1049467 0.076,0.1175907 0,0.012643 0.0231,0.073117 0.0513,0.1343847 0.0282,0.061267 0.0576,0.1480458 0.0654,0.1928402 0.008,0.044795 0.0245,0.1039982 0.0371,0.1315643 0.0127,0.027565 0.0389,0.1192975 0.0584,0.2038479 0.0194,0.084551 0.0779,0.2255003 0.12984,0.3132221 0.0892,0.1504307 0.24077,0.5754138 0.24077,0.6748827 0,0.025058 0.0107,0.052076 0.0237,0.060042 0.0423,0.025876 0.18434,0.2990361 0.20896,0.4019643 0.0132,0.055132 0.034,0.1622634 0.0462,0.2380698 0.0122,0.075807 0.04,0.1931881 0.0617,0.2608478 0.0217,0.06766 0.0395,0.1551722 0.0395,0.194472 0,0.041186 0.0376,0.1243128 0.0887,0.1962401 0.0488,0.068633 0.0887,0.1374844 0.0887,0.1530046 0,0.028032 0.0246,0.1110938 0.12534,0.423375 0.0289,0.089589 0.0524,0.1814187 0.0523,0.2040636 -1.5e-4,0.022647 0.0168,0.047666 0.0378,0.055599 0.029,0.011026 0.038,0.058165 0.038,0.2000291 0,0.244257 0.0209,0.342328 0.0729,0.341845 0.0823,-7.68e-4 0.10575,-0.04266 0.12022,-0.214431 0.0119,-0.141145 0.0402,-0.2263061 0.15151,-0.455348 0.0753,-0.1549526 0.13688,-0.2980689 0.13688,-0.3180359 0,-0.019967 0.0104,-0.042648 0.0231,-0.050401 0.0127,-0.00775 0.0367,-0.095817 0.0535,-0.195694 0.0167,-0.099878 0.0456,-0.1986503 0.0641,-0.2194943 0.0185,-0.020844 0.0326,-0.074667 0.0313,-0.119608 -0.001,-0.051608 0.0178,-0.1028657 0.0522,-0.1391369 0.0336,-0.03534 0.0546,-0.089918 0.0546,-0.1419067 0,-0.051024 0.0208,-0.1064129 0.0526,-0.1398635 0.0608,-0.063957 0.26366,-0.4903019 0.32104,-0.6745863 0.0215,-0.068915 0.0888,-0.1894177 0.14966,-0.2677838 0.0608,-0.078366 0.14036,-0.2009999 0.17669,-0.2725196 0.0363,-0.071519 0.10312,-0.1709184 0.14845,-0.2208861 0.0453,-0.049968 0.0906,-0.116952 0.10067,-0.1488541 0.05,-0.1587753 0.2386,-0.4237725 0.4472,-0.6283182 0.15728,-0.1542141 0.23002,-0.2447336 0.24124,-0.3002033 0.0104,-0.051215 0.0516,-0.1072734 0.11622,-0.1578635 0.0993,-0.077747 0.20624,-0.2199564 0.26565,-0.3531372 0.0548,-0.1227477 0.16159,-0.2405464 0.23202,-0.2558433 0.039,-0.00848 0.10661,-0.06181 0.15661,-0.1235945 0.0484,-0.059773 0.1307,-0.1390939 0.18297,-0.1762671 0.0523,-0.037174 0.095,-0.079111 0.095,-0.093192 0,-0.014082 0.0663,-0.095109 0.14738,-0.1800597 0.0869,-0.091119 0.16053,-0.1955613 0.17945,-0.2546961 0.0406,-0.1269126 0.0969,-0.1937548 0.19001,-0.2255399 0.0404,-0.013783 0.086,-0.047614 0.10136,-0.07518 0.0713,-0.1278538 0.20039,-0.2881897 0.23196,-0.2881897 0.0192,0 0.0461,-0.020652 0.0598,-0.045893 0.0358,-0.066199 0.29914,-0.197389 0.43643,-0.217434 0.0869,-0.012691 0.12567,-0.032447 0.1493,-0.076115 0.0207,-0.038327 0.0684,-0.067363 0.13601,-0.082933 0.0572,-0.013177 0.13831,-0.035814 0.18012,-0.050306 0.24528,-0.085009 0.45873,-0.1344233 0.58782,-0.1360799 0.21294,-0.00274 0.61108,0.1446369 0.67425,0.2495751 0.0257,0.042609 0.18263,0.1085853 0.25836,0.1085853 0.0377,0 0.0957,0.044794 0.17036,0.1315646 0.16808,0.19538095 0.18044,0.22632575 0.14574,0.36490385 -0.0162,0.064626 -0.0379,0.1851631 -0.0483,0.2678613 -0.0247,0.1968924 -0.038,0.2219632 -0.14382,0.2718818 -0.066,0.031108 -0.10211,0.072915 -0.13896,0.1607407 -0.0904,0.2153427 -0.11084,0.2433488 -0.18756,0.2564912 -0.0523,0.00895 -0.0783,0.030711 -0.0886,0.074119 -0.0157,0.065557 -0.1309,0.1461598 -0.40048,0.2800822 -0.0877,0.043575 -0.17077,0.1000865 -0.18457,0.1255793 -0.0138,0.025494 -0.0711,0.069548 -0.12724,0.097898 -0.0562,0.028352 -0.12452,0.088997 -0.15183,0.1347685 -0.0341,0.057226 -0.0953,0.1034708 -0.19573,0.1480543 -0.17367,0.077072 -0.26274,0.1683007 -0.3848,0.3941138 -0.0209,0.038672 -0.0769,0.096426 -0.12452,0.1283415 -0.0476,0.031916 -0.12519,0.1144131 -0.17247,0.1833282 -0.0473,0.068915 -0.16515,0.2073393 -0.26193,0.3076096 -0.0968,0.1002702 -0.17596,0.1968575 -0.17596,0.2146386 0,0.017781 -0.0562,0.087593 -0.12493,0.1551356 -0.0873,0.085868 -0.13422,0.1569865 -0.15582,0.2364413 -0.017,0.062499 -0.0536,0.138585 -0.0813,0.16908 -0.0598,0.065716 -0.0989,0.1305195 -0.17103,0.2828645 -0.0293,0.062024 -0.0678,0.1296854 -0.0854,0.1503598 -0.0176,0.020675 -0.0472,0.077059 -0.0657,0.1253 -0.0185,0.048241 -0.0489,0.1055134 -0.0675,0.1272732 -0.0201,0.023546 -0.0338,0.1013419 -0.0338,0.1921561 0,0.1583918 -0.0657,0.3280352 -0.19156,0.4950205 -0.0312,0.041349 -0.0623,0.1259264 -0.0692,0.1879499 -0.0185,0.1672419 -0.0635,0.3191518 -0.1106,0.373593 -0.0571,0.065927 -0.16838,0.3693452 -0.19848,0.5410959 -0.01,0.05513 -0.0264,0.111517 -0.0373,0.1253 -0.0317,0.04029 -0.0558,0.274304 -0.0684,0.66409 -0.013,0.40123 -0.0129,0.378251 -0.003,0.588911 l 0.007,0.15036 0.41812,-0.01253 c 0.22996,-0.0069 0.64047,-0.0095 0.91224,-0.0057 0.27177,0.0038 0.77351,0.01048 1.11496,0.01493 0.34147,0.0045 0.67215,0.02028 0.73487,0.03519 0.0627,0.01489 0.17675,0.02285 0.2534,0.01766 0.0767,-0.0051 0.25911,-0.01085 0.40544,-0.01259 0.14634,-0.0018 0.30809,-0.01382 0.35943,-0.02685 0.0513,-0.01302 0.39914,-0.02796 0.77288,-0.03317 0.37373,-0.0052 0.69858,-0.01713 0.72188,-0.02646 0.0233,-0.0093 0.0648,-0.0051 0.0922,0.0094 0.0389,0.02059 0.0741,0.01359 0.16036,-0.03185 0.12696,-0.0669 0.0807,-0.07875 0.60802,0.155783 0.18492,0.08225 0.2753,0.176977 0.33888,0.355223 0.0215,0.06039 0.0588,0.131302 0.0829,0.157574 0.0359,0.03924 0.0437,0.09797 0.0437,0.328875 0,0.2685178 -0.003,0.2860748 -0.0739,0.3920258 -0.0407,0.06101 -0.0995,0.139111 -0.13068,0.173568 -0.0312,0.03445 -0.0926,0.10425 -0.1364,0.155095 -0.0438,0.05084 -0.12182,0.10588 -0.17339,0.122301 -0.0516,0.01642 -0.10738,0.04053 -0.12404,0.05357 -0.0166,0.01304 -0.11358,0.02167 -0.21539,0.01917 -0.10181,-0.0025 -0.25353,0.0065 -0.33715,0.02005 -0.0978,0.01581 -0.2515,0.01614 -0.43079,9.23e-4 -0.20558,-0.01745 -0.30319,-0.01574 -0.3719,0.0065 -0.0512,0.01659 -0.11966,0.02223 -0.15204,0.01253 -0.0578,-0.01731 -0.55649,-0.04823 -0.78107,-0.04844 -0.30173,-2.84e-4 -0.9787,0.04145 -1.03684,0.0639 -0.036,0.01391 -0.19659,0.02998 -0.35687,0.03572 -0.16028,0.0057 -0.41685,0.01607 -0.57015,0.02296 -0.77008,0.03459 -1.36971,0.05614 -1.38105,0.04963 -0.007,-0.0041 -0.0868,0.0082 -0.17737,0.02708 -0.0906,0.0189 -0.22743,0.03522 -0.30409,0.03627 -0.0767,0.0011 -0.19068,0.02249 -0.2534,0.04764 -0.11174,0.0448 -0.11395,0.0479 -0.11052,0.155225 0.002,0.06023 0.0151,0.171534 0.0292,0.247341 0.0977,0.523531 0.11081,0.686478 0.0799,0.98987 -0.005,0.04475 0.0476,0.304744 0.0884,0.440543 0.0219,0.07282 0.0398,0.195764 0.0398,0.273203 0,0.07744 0.012,0.152621 0.0266,0.167069 0.0146,0.01445 0.0481,0.10974 0.0744,0.211758 0.069,0.267254 0.12214,0.424898 0.16532,0.490077 0.0219,0.03312 0.0378,0.114962 0.0378,0.195273 0,0.108432 0.0219,0.185062 0.10136,0.355225 0.0557,0.119334 0.10136,0.242204 0.10136,0.273047 0,0.03084 0.0164,0.06951 0.0364,0.08593 0.02,0.01642 0.0942,0.14758 0.16494,0.291464 0.0741,0.150774 0.17141,0.30527 0.2297,0.364665 0.0669,0.06821 0.10113,0.125796 0.10113,0.170298 0,0.04355 0.0303,0.09629 0.0861,0.149724 0.0473,0.04536 0.12235,0.160347 0.1667,0.255516 0.0461,0.09884 0.0966,0.173033 0.11773,0.173033 0.0204,0 0.0602,0.02135 0.0886,0.04744 0.0481,0.0443 0.0774,0.09071 0.18747,0.297132 0.0239,0.0448 0.0527,0.08145 0.0639,0.08145 0.0113,0 0.0346,0.04229 0.0518,0.09398 0.0403,0.120967 0.114,0.218954 0.19067,0.253501 0.0334,0.01504 0.0607,0.042 0.0607,0.05991 0,0.04014 0.0777,0.108072 0.14932,0.130556 0.0294,0.0092 0.0534,0.03773 0.0534,0.06337 0,0.06132 0.11678,0.15049 0.19709,0.15049 0.0457,0 0.11219,0.05015 0.23656,0.178364 0.0951,0.0981 0.17943,0.19843 0.1873,0.222955 0.008,0.02453 0.0533,0.08553 0.10107,0.135566 0.13095,0.13731 0.19786,0.26652 0.23457,0.452985 0.0136,0.06892 0.0456,0.178328 0.0712,0.243142 0.0438,0.110958 0.044,0.120589 0.004,0.164863 -0.0237,0.02586 -0.043,0.08667 -0.043,0.135139 0,0.09324 -0.0523,0.159299 -0.13858,0.174937 -0.0367,0.0066 -0.0635,0.05249 -0.10137,0.172992 -0.0627,0.19978 -0.14625,0.319321 -0.23685,0.338942 -0.0374,0.0081 -0.11362,0.03208 -0.16937,0.0533 -0.0557,0.02121 -0.13858,0.03751 -0.18406,0.0362 -0.0455,-0.0013 -0.11391,0.01021 -0.15205,0.02557 -0.10651,0.04292 -0.80632,0.05092 -0.84098,0.0096 z"
       id="path554" /></g></svg>
