<?xml version="1.0" encoding="UTF-8" standalone="no"?>
<!-- Created with Inkscape (http://www.inkscape.org/) -->

<svg
   width="75"
   height="75"
   viewBox="0 0 19.84375 19.84375"
   version="1.1"
   id="svg739"
   inkscape:version="1.2.2 (b0a8486541, 2022-12-01)"
   sodipodi:docname="saggitarius.svg"
   xml:space="preserve"
   xmlns:inkscape="http://www.inkscape.org/namespaces/inkscape"
   xmlns:sodipodi="http://sodipodi.sourceforge.net/DTD/sodipodi-0.dtd"
   xmlns="http://www.w3.org/2000/svg"
   xmlns:svg="http://www.w3.org/2000/svg"><sodipodi:namedview
     id="namedview741"
     pagecolor="#000000"
     bordercolor="#999999"
     borderopacity="1"
     inkscape:showpageshadow="0"
     inkscape:pageopacity="0"
     inkscape:pagecheckerboard="0"
     inkscape:deskcolor="#d1d1d1"
     inkscape:document-units="px"
     showgrid="false"
     inkscape:zoom="0.98772738"
     inkscape:cx="-10.630464"
     inkscape:cy="185.27379"
     inkscape:window-width="1280"
     inkscape:window-height="955"
     inkscape:window-x="0"
     inkscape:window-y="0"
     inkscape:window-maximized="1"
     inkscape:current-layer="layer1" /><defs
     id="defs736" /><g
     inkscape:label="Warstwa 1"
     inkscape:groupmode="layer"
     id="layer1"><path
       style="fill:#ffffff;stroke-width:0.0277922"
       d="m 0.85402417,19.818682 c -0.0339424,-0.02146 -0.23757364,-0.0882 -0.62664294,-0.205394 -0.0867537,-0.02613 -0.12312127,-0.05874 -0.17611156,-0.157897 -0.05670621,-0.106112 -0.06224185,-0.137829 -0.03669481,-0.210246 0.016547,-0.04691 0.0300861,-0.117764 0.0300861,-0.157466 0,-0.08792 0.17455754,-0.438577 0.25409856,-0.510446 0.0733959,-0.06632 0.13530267,-0.185464 0.13530267,-0.260409 0,-0.129247 0.14168195,-0.310096 0.38885013,-0.496343 0.15897559,-0.119793 0.20138348,-0.154039 0.24810878,-0.20036 0.08974,-0.08896 0.2695733,-0.298968 0.3643607,-0.42549 0.053543,-0.07147 0.1395919,-0.176244 0.1912203,-0.232835 0.051629,-0.05659 0.1137992,-0.134133 0.1381572,-0.172317 0.024358,-0.03818 0.1200407,-0.169396 0.2126282,-0.291584 0.092587,-0.122188 0.1902906,-0.256525 0.217118,-0.298527 0.026827,-0.042 0.060711,-0.07637 0.075296,-0.07637 0.035616,0 0.2959485,-0.257007 0.4415869,-0.435946 0.064622,-0.0794 0.1391463,-0.151221 0.1656095,-0.159607 0.026462,-0.0084 0.061922,-0.05177 0.078797,-0.0964 0.019016,-0.0503 0.072606,-0.10251 0.1409471,-0.137319 0.060646,-0.03089 0.1312761,-0.08818 0.1569556,-0.127308 0.02568,-0.03913 0.092603,-0.09296 0.148718,-0.119622 0.070206,-0.03336 0.1092424,-0.07446 0.1251586,-0.131787 0.01448,-0.05215 0.081756,-0.130047 0.1798788,-0.208274 0.086211,-0.06873 0.1775906,-0.144665 0.2030659,-0.168741 0.025475,-0.02408 0.066768,-0.05161 0.091762,-0.06119 0.024994,-0.0096 0.073607,-0.06031 0.1080289,-0.11273 0.03442,-0.05243 0.1047538,-0.117995 0.1562957,-0.145707 0.051542,-0.02771 0.1356977,-0.113491 0.1870133,-0.190617 0.1014494,-0.152479 0.2981677,-0.361768 0.4841844,-0.515125 0.1844564,-0.152071 0.198672,-0.168537 0.2147333,-0.248717 0.017481,-0.08727 0.1629588,-0.255313 0.2690837,-0.310829 0.079223,-0.04144 0.2951534,-0.288173 0.4459805,-0.509596 0.05202,-0.07637 0.1399529,-0.181915 0.195407,-0.23455 0.055455,-0.05263 0.1008266,-0.111751 0.1008266,-0.131369 0,-0.01962 0.062582,-0.08232 0.1390722,-0.139329 0.07649,-0.05701 0.1390722,-0.111857 0.1390722,-0.121876 0,-0.01002 0.050066,-0.08099 0.1112576,-0.157724 0.061192,-0.07673 0.1112576,-0.150914 0.1112576,-0.164852 0,-0.06072 0.1470828,-0.216417 0.2296096,-0.243049 0.054591,-0.01762 0.1073808,-0.06205 0.1335925,-0.112437 0.023835,-0.04582 0.1479722,-0.18953 0.2758588,-0.319355 0.1278874,-0.129824 0.2750726,-0.302365 0.3270774,-0.383425 0.052005,-0.08106 0.1156169,-0.154726 0.1413579,-0.163703 0.059642,-0.0208 0.1310998,-0.105065 0.2012923,-0.237372 0.030386,-0.057276 0.069062,-0.1041374 0.085944,-0.1041374 0.016883,0 0.082341,-0.058557 0.1454609,-0.1301246 0.093073,-0.1055308 0.1158385,-0.1530843 0.12045,-0.2515966 0.00519,-0.1108765 -0.0063,-0.1340416 -0.131705,-0.2655965 C 8.1178683,9.2037218 8.004086,9.0576379 7.9405834,8.9583612 7.8770814,8.859083 7.7639346,8.7278705 7.6891463,8.6667767 7.6143583,8.605683 7.5315765,8.531859 7.5051866,8.5027239 7.3567453,8.3388411 7.1411227,8.132087 7.0735155,8.0888079 7.0307635,8.06144 6.9840505,8.008237 6.9697094,7.9705783 6.9553694,7.9329197 6.9143704,7.8909993 6.8786024,7.877422 6.8428349,7.8638446 6.7768984,7.8070307 6.7320779,7.7511683 6.6254122,7.6182248 6.5421458,7.5311056 6.356379,7.3580856 6.2723163,7.2797906 6.1735129,7.1719824 6.1368149,7.1185117 6.1001177,7.065041 6.00044,6.9797591 5.9153089,6.9289962 5.7331224,6.8203602 5.6839143,6.7764935 5.6320775,6.6765068 5.5900772,6.5954936 5.4115531,6.4434451 5.3269605,6.4166394 5.297707,6.4073695 5.27377,6.3850067 5.2737684,6.366944 5.2737613,6.3122489 4.7684885,5.8091965 4.6270872,5.7231044 4.5544214,5.6788625 4.4949683,5.6321263 4.4949683,5.6192466 4.4949683,5.5743379 4.2788694,5.3055742 4.1301885,5.1655677 3.8793651,4.9293776 3.7017571,4.7298004 3.6255267,4.5984829 3.4807738,4.3491223 3.3587658,3.8891171 3.4113587,3.791004 3.4720567,3.6777707 3.6127958,3.6054253 3.7967909,3.592877 3.9442064,3.5828234 3.9837246,3.5691731 4.0269256,3.513385 4.1319766,3.3777273 4.2272857,3.2932964 4.2753711,3.2932964 c 0.027102,0 0.1470512,0.03034 0.2665551,0.067422 0.1195031,0.037082 0.2644729,0.075186 0.3221528,0.084675 0.069678,0.011463 0.1334364,0.048591 0.1899834,0.110632 0.04681,0.051359 0.1153945,0.1009684 0.1524094,0.1102438 0.037016,0.00928 0.0673,0.034798 0.0673,0.056718 0,0.021919 0.054428,0.081346 0.1209515,0.1320593 0.066523,0.050713 0.1697843,0.1401837 0.2294693,0.198824 0.174794,0.1717354 0.8727333,0.7667715 0.8993739,0.7667715 0.013411,0 0.055561,0.053116 0.093667,0.1180349 0.038106,0.064919 0.1397605,0.1805115 0.2258984,0.2568719 0.086139,0.07636 0.2595427,0.2342348 0.3853439,0.3508324 0.1258004,0.1165973 0.2837014,0.2395975 0.3508907,0.2733333 0.1437737,0.072189 0.3890168,0.2936036 0.4224522,0.3814046 0.012881,0.033825 0.070843,0.093567 0.1288044,0.1327594 0.2626318,0.1775861 0.5488459,0.4083259 0.6289239,0.5070255 0.027882,0.034365 0.068317,0.062482 0.089858,0.062482 0.021539,0 0.085886,0.062482 0.14299,0.1388496 0.057105,0.076367 0.1196419,0.1388496 0.1389705,0.1388496 0.019329,0 0.055304,0.03072 0.079945,0.068266 0.02464,0.037546 0.1329728,0.1402864 0.2407384,0.2283121 0.1077664,0.088026 0.2447453,0.2260083 0.3043979,0.3066283 0.1129355,0.1526307 0.1596253,0.175107 0.2179628,0.1049269 0.019045,-0.02291 0.062332,-0.041655 0.096194,-0.041655 0.03664,0 0.102007,-0.044975 0.161446,-0.1110797 0.05493,-0.061094 0.112989,-0.1110797 0.129013,-0.1110797 0.01602,0 0.04997,-0.040614 0.07543,-0.090252 0.06111,-0.1191438 0.197727,-0.2758312 0.279216,-0.3202411 0.03593,-0.01958 0.06532,-0.049641 0.06532,-0.066804 0,-0.017162 0.03442,-0.075925 0.07649,-0.1305849 0.04207,-0.054659 0.0892,-0.1242238 0.104742,-0.1545874 0.01554,-0.030364 0.08293,-0.091873 0.149767,-0.136687 0.06683,-0.044814 0.127397,-0.1039361 0.134586,-0.1313822 0.0072,-0.027446 0.04152,-0.068511 0.07629,-0.091256 0.03477,-0.022744 0.07166,-0.074953 0.08198,-0.1160186 0.0219,-0.087131 0.240104,-0.3678498 0.332978,-0.4283827 0.101121,-0.065908 0.340574,-0.3401882 0.363657,-0.4165489 0.01154,-0.038184 0.05397,-0.1018018 0.09428,-0.1413733 0.108229,-0.1062364 0.309661,-0.3514545 0.310114,-0.3775241 2.36e-4,-0.012439 0.05028,-0.077846 0.111257,-0.1453505 0.06098,-0.067504 0.110865,-0.1333781 0.110865,-0.1463873 0,-0.013009 0.03442,-0.038016 0.07649,-0.055572 0.09267,-0.038668 0.748267,-0.6667502 0.948978,-0.9091433 0.05153,-0.062227 0.142271,-0.1404037 0.201654,-0.1737259 0.05938,-0.033322 0.107971,-0.072159 0.107971,-0.086304 0,-0.014145 0.131423,-0.1604235 0.292051,-0.3250634 0.160628,-0.1646398 0.292052,-0.3129654 0.292052,-0.3296126 0,-0.016647 0.04694,-0.054898 0.104304,-0.085001 0.118141,-0.061994 0.248825,-0.2108606 0.337571,-0.3845391 0.04695,-0.091888 0.05504,-0.1376698 0.03671,-0.2078058 l -0.02351,-0.089954 -0.401379,-0.00215 c -0.220759,-0.00118 -0.476478,0.00929 -0.568266,0.023262 -0.261401,0.0398 -0.935452,0.041163 -1.362907,0.00276 C 12.555583,2.089932 12.255187,2.072813 12.102208,2.071134 11.231811,2.061584 10.786235,2.043089 10.436088,2.001987 10.081009,1.9603051 9.4871473,1.9564934 9.0877841,1.9933321 9.0250861,1.9991155 8.9872619,1.9881501 8.9739759,1.9603396 8.8919179,1.7885712 8.7955857,1.4367411 8.7779515,1.2444054 8.7615935,1.0659882 8.7362945,0.97439674 8.6650807,0.83577295 8.5773987,0.66509129 8.5754517,0.65472178 8.6215437,0.60387238 8.6480807,0.57459562 8.6819257,0.50855052 8.6967557,0.45710522 8.7365697,0.31898131 8.827886,0.26953781 9.2475373,0.1588817 l 0.3791862,-0.09998668 0.6953615,-0.005707 c 0.382448,-0.0031409 0.814267,-0.01894976 0.959597,-0.03513731 0.145331,-0.01618833 0.408177,-0.02271247 0.584103,-0.01449905 0.175926,0.00821343 0.445031,0.01983534 0.59801,0.02582656 0.15298,0.0059904 0.390568,0.02498821 0.527974,0.04221562 0.137407,0.01722741 0.594259,0.03648574 1.015227,0.04279656 0.420968,0.006313 0.856691,0.0252826 0.968273,0.0421589 0.183683,0.0277811 0.645123,0.0193937 0.697088,-0.0126704 0.03941,-0.0243168 0.572308,-0.04718351 1.297375,-0.05567166 0.625365,-0.0073208 0.749508,-0.0016846 0.917876,0.0416827 0.107085,0.0275812 0.283932,0.0508281 0.392994,0.0516602 0.255324,0.001944 0.453977,0.0895463 0.719583,0.31730867 l 0.1947,0.16696066 0.0055,0.31832023 c 0.003,0.1750756 0.02004,0.4069846 0.03784,0.5153522 0.0178,0.1083675 0.03655,0.3469894 0.04167,0.530271 0.0051,0.1832814 0.02378,0.3894731 0.04146,0.4582037 0.01769,0.068731 0.03628,0.1829159 0.04133,0.2537452 0.005,0.070829 0.02213,0.1770493 0.03797,0.2360443 0.01584,0.058995 0.04151,0.2197667 0.05704,0.3572703 0.01637,0.1449452 0.05183,0.2962041 0.08438,0.3599385 0.06196,0.1213357 0.06952,0.1982756 0.02975,0.3027191 -0.02077,0.054534 -0.01437,0.084556 0.03004,0.1409241 0.03104,0.039395 0.05091,0.087128 0.04416,0.1060728 -0.0067,0.018945 0.01102,0.080809 0.03949,0.1374766 0.02847,0.056667 0.05177,0.1205881 0.05177,0.1420471 0,0.021459 0.02575,0.071693 0.05721,0.1116309 0.05394,0.068466 0.0563,0.097638 0.04135,0.5105461 -0.0087,0.2408625 -0.01525,0.4566762 -0.01451,0.4795864 0.0066,0.2062583 -0.0086,0.478295 -0.0319,0.5692662 -0.01566,0.061103 -0.04009,0.2173169 -0.05429,0.3471412 -0.04475,0.4090102 -0.05601,0.4845089 -0.08076,0.5415135 -0.01326,0.030547 -0.0317,0.1401179 -0.04097,0.2434909 -0.0093,0.1033732 -0.03068,0.2182405 -0.04757,0.2552606 -0.02338,0.051236 -0.02106,0.099194 0.0097,0.2008279 0.0396,0.1307331 0.04602,0.3838725 0.01306,0.5149717 -0.0091,0.03629 -0.0043,0.1340109 0.01076,0.2171582 0.01504,0.083147 0.04633,0.3182612 0.06953,0.5224759 0.0232,0.2042139 0.05223,0.3916609 0.06452,0.4165484 0.03737,0.075693 -0.01286,0.4227222 -0.09014,0.6227385 -0.0401,0.103791 -0.0733,0.210011 -0.07379,0.236045 -0.0023,0.123663 -0.06644,0.15128 -0.436297,0.187881 -0.427529,0.04231 -0.565106,0.02073 -0.777281,-0.121942 -0.08165,-0.0549 -0.148445,-0.108298 -0.148445,-0.118669 0,-0.01037 -0.04946,-0.07862 -0.109918,-0.151657 -0.06046,-0.07304 -0.103185,-0.1436811 -0.09496,-0.156975 0.0082,-0.013294 -2.37e-4,-0.042451 -0.01881,-0.064794 -0.02238,-0.026928 -0.0277,-0.086291 -0.01577,-0.1760833 0.01043,-0.078533 0.005,-0.1689002 -0.01281,-0.2150329 -0.01695,-0.043765 -0.04157,-0.1670472 -0.05472,-0.2739619 -0.01315,-0.1069138 -0.0422,-0.3068573 -0.06455,-0.4443184 -0.02236,-0.1374611 -0.04949,-0.4186312 -0.06029,-0.6248233 -0.0297,-0.5666453 -0.03284,-0.5992455 -0.068,-0.7056118 -0.03688,-0.1115826 -0.0541,-0.6810643 -0.0212,-0.7013639 0.02648,-0.016339 0.0068,-0.2523211 -0.04717,-0.5646886 -0.0763,-0.4418983 -0.09083,-0.6139019 -0.06119,-0.7247531 0.02003,-0.074922 0.01913,-0.1458545 -0.003,-0.2393206 -0.04074,-0.1717739 -0.02718,-0.9605189 0.01891,-1.0999561 0.0231,-0.06988 0.02531,-0.1152471 0.0067,-0.1378113 -0.0343,-0.041644 -0.02343,-0.4238257 0.02479,-0.8710043 l 0.03639,-0.3375081 -0.0763,-0.099868 c -0.04196,-0.054927 -0.09413,-0.099868 -0.115929,-0.099868 -0.103536,0 -0.345758,0.2260582 -0.389433,0.3634461 -0.0093,0.029206 -0.02795,0.053103 -0.04148,0.053103 -0.03632,0 -0.667018,0.6272715 -0.667018,0.6633918 0,0.016971 -0.01406,0.030856 -0.03124,0.030856 -0.0369,0 -0.376877,0.2382351 -0.390507,0.273646 -0.0052,0.013403 -0.142916,0.1666309 -0.306126,0.3405072 -0.16321,0.1738767 -0.335728,0.3661251 -0.383374,0.4272189 -0.08412,0.1078598 -0.63672,0.6525932 -0.66202,0.6525932 -0.0069,0 -0.06357,0.046862 -0.125877,0.1041372 -0.236273,0.2171991 -0.380851,0.3748979 -0.478849,0.5223012 -0.05574,0.08384 -0.152231,0.1990021 -0.214427,0.2559154 -0.06219,0.056913 -0.130457,0.14438 -0.151695,0.1943709 -0.02124,0.049991 -0.113424,0.1655832 -0.204859,0.2568718 -0.09144,0.091289 -0.166245,0.1803376 -0.166245,0.1978865 0,0.017549 -0.04262,0.073228 -0.0947,0.1237322 -0.05208,0.050504 -0.128814,0.1614407 -0.170509,0.2465264 -0.04169,0.085086 -0.111729,0.1998268 -0.15563,0.2549801 -0.0439,0.055154 -0.07982,0.1092039 -0.07982,0.1201119 0,0.010908 -0.03755,0.059062 -0.08344,0.1070083 -0.04589,0.047947 -0.08344,0.098564 -0.08344,0.1124815 0,0.013919 -0.03658,0.038038 -0.08129,0.053598 -0.04471,0.015561 -0.09611,0.057397 -0.114236,0.092969 -0.01812,0.035573 -0.06878,0.1021664 -0.112568,0.1479865 -0.230793,0.2414853 -0.308314,0.3281482 -0.34903,0.3901897 -0.02467,0.037583 -0.09721,0.091458 -0.161203,0.1197213 -0.115617,0.051061 -0.294251,0.2412569 -0.294253,0.313298 0,0.020712 -0.0448,0.073344 -0.09955,0.1169582 -0.109384,0.087138 -0.206146,0.2279836 -0.206308,0.3002986 -1.58e-4,0.068019 0.264772,0.3458652 0.443267,0.464889 0.13591,0.090627 0.153857,0.1133057 0.148178,0.1872527 -0.0053,0.06851 0.02133,0.112557 0.14318,0.237161 0.0823,0.08416 0.16973,0.191804 0.194279,0.239204 0.02455,0.0474 0.0769,0.108607 0.116328,0.136019 0.122639,0.08526 0.314172,0.282082 0.359311,0.369232 0.02372,0.0458 0.05598,0.08327 0.07168,0.08327 0.0157,0 0.04129,0.03649 0.05686,0.08108 0.01557,0.0446 0.04621,0.08794 0.06809,0.09632 0.02188,0.0084 0.03978,0.03252 0.03978,0.05365 0,0.119142 0.436637,0.640102 0.885945,1.057039 0.05128,0.04758 0.339157,0.331438 0.639731,0.630787 0.300574,0.299349 0.586553,0.564898 0.635509,0.590108 0.04896,0.02521 0.199716,0.155184 0.335023,0.288828 0.305586,0.301831 0.582325,0.555262 0.666358,0.610234 0.03515,0.02299 0.06391,0.06451 0.06391,0.09226 0,0.02775 0.03913,0.07827 0.08695,0.112269 0.09573,0.06805 0.171467,0.216139 0.219108,0.428379 0.01708,0.07611 0.05378,0.163387 0.08154,0.193941 0.124272,0.136757 0.146298,0.3265 0.07157,0.616537 -0.03573,0.138682 -0.06758,0.186718 -0.22947,0.346107 -0.103388,0.101792 -0.201732,0.208012 -0.21854,0.236045 -0.03824,0.06377 -0.114329,0.101416 -0.350356,0.173341 -0.171155,0.05216 -0.195624,0.05343 -0.302503,0.01578 -0.06396,-0.02253 -0.143394,-0.04096 -0.176529,-0.04096 -0.03313,0 -0.106688,-0.04374 -0.163453,-0.09719 -0.05677,-0.05346 -0.113018,-0.09719 -0.125005,-0.09719 -0.02792,0 -0.331944,-0.36234 -0.423107,-0.504264 -0.03824,-0.05954 -0.116474,-0.13959 -0.17384,-0.17789 -0.05737,-0.0383 -0.104308,-0.07967 -0.104308,-0.09195 0,-0.01227 -0.03104,-0.03643 -0.06897,-0.05369 -0.03793,-0.01725 -0.114206,-0.09424 -0.169497,-0.171077 -0.05529,-0.07684 -0.118438,-0.139703 -0.140328,-0.139703 -0.02189,0 -0.05058,-0.02812 -0.06377,-0.06248 -0.01318,-0.03436 -0.08085,-0.118716 -0.150378,-0.187447 -0.257662,-0.25471 -0.389866,-0.376137 -0.46016,-0.422649 -0.112233,-0.07426 -0.33893,-0.304959 -0.382865,-0.389621 -0.0218,-0.042 -0.05529,-0.07637 -0.07444,-0.07637 -0.04773,0 -0.185652,-0.131328 -0.269721,-0.256826 -0.03824,-0.05709 -0.07892,-0.103889 -0.0904,-0.103994 -0.01147,-7.8e-5 -0.02086,-0.01352 -0.02086,-0.02982 0,-0.0163 -0.04068,-0.07014 -0.0904,-0.119653 -0.04972,-0.04951 -0.134205,-0.14332 -0.187747,-0.208467 -0.150582,-0.183215 -0.309462,-0.336298 -0.426555,-0.41099 -0.06727,-0.04291 -0.126282,-0.112279 -0.159715,-0.187738 -0.03305,-0.07461 -0.129085,-0.188186 -0.254967,-0.301562 -0.111068,-0.100032 -0.23946,-0.23408 -0.285316,-0.297884 -0.04586,-0.0638 -0.106164,-0.136584 -0.134016,-0.161734 -0.266644,-0.240771 -0.276011,-0.24854 -0.38816,-0.321904 -0.04167,-0.02726 -0.07577,-0.06564 -0.07577,-0.08528 0,-0.01965 -0.04381,-0.06152 -0.09735,-0.09306 -0.05354,-0.03154 -0.09735,-0.07356 -0.09735,-0.09337 0,-0.01981 -0.05592,-0.09209 -0.124254,-0.160614 -0.069923,-0.07011 -0.1246541,-0.151297 -0.1251658,-0.185663 -9.776e-4,-0.06575 -0.1300295,-0.179225 -0.2598809,-0.228515 -0.060365,-0.02291 -0.096384,-0.02005 -0.159809,0.01269 -0.045034,0.02325 -0.08188,0.05509 -0.08188,0.07075 0,0.01566 -0.043356,0.04656 -0.096347,0.06867 -0.052991,0.02211 -0.1105283,0.06833 -0.1278606,0.10272 -0.017332,0.03439 -0.08655,0.118762 -0.1538153,0.187493 -0.2696245,0.275493 -0.4119609,0.435707 -0.4810889,0.541513 -0.039915,0.06109 -0.089453,0.128803 -0.1100837,0.150465 -0.020631,0.02166 -0.098687,0.13413 -0.1734568,0.249929 -0.074771,0.1158 -0.175119,0.235538 -0.2229962,0.266084 -0.047877,0.03055 -0.1147591,0.113965 -0.1486254,0.185374 -0.039826,0.08397 -0.124296,0.182062 -0.239141,0.277699 -0.3283168,0.273403 -0.7255575,0.713862 -0.9182957,1.018201 -0.059575,0.09407 -0.1230243,0.171037 -0.1409992,0.171037 -0.017976,0 -0.1489269,0.12184 -0.2910031,0.270756 -0.1420769,0.148916 -0.2747564,0.285176 -0.2948443,0.3028 -0.3049585,0.267541 -0.9126781,0.938959 -0.9126781,1.008339 0,0.05109 -0.1961001,0.231031 -0.4033085,0.370069 -0.2110892,0.141641 -0.6278193,0.523847 -0.6782219,0.622033 -0.017171,0.03345 -0.08751,0.101179 -0.1563083,0.150507 -0.073487,0.05269 -0.1601307,0.151682 -0.210039,0.239972 -0.098303,0.173906 -0.2856819,0.386001 -0.3625335,0.410353 -0.029135,0.0092 -0.083929,0.06907 -0.1217628,0.132966 -0.037834,0.0639 -0.1187565,0.164199 -0.1798275,0.222888 -0.061071,0.05869 -0.1186595,0.130682 -0.1279733,0.159982 -0.00931,0.0293 -0.056727,0.07362 -0.1053609,0.09848 -0.048634,0.02486 -0.1182952,0.07471 -0.1548016,0.110775 -0.036506,0.03606 -0.082003,0.06557 -0.1011049,0.06557 -0.019101,0 -0.055232,0.03124 -0.080291,0.06943 -0.025059,0.03818 -0.061284,0.06942 -0.0805,0.06942 -0.019216,0 -0.1186574,0.09685 -0.2209804,0.215217 -0.2932077,0.339188 -0.3439538,0.403664 -0.3930512,0.499388 -0.025327,0.04938 -0.083175,0.10895 -0.1285512,0.132377 -0.045376,0.02343 -0.1015294,0.07933 -0.1247857,0.124233 -0.023256,0.0449 -0.1003669,0.125916 -0.1713571,0.180035 -0.105038,0.08007 -0.1529302,0.09832 -0.257192,0.09797 -0.0704652,-2.36e-4 -0.14565802,-0.01151 -0.16709493,-0.02506 z"
       id="path627" /></g></svg>
