<?xml version="1.0" encoding="UTF-8" standalone="no"?>
<!-- Created with Inkscape (http://www.inkscape.org/) -->

<svg
   width="75"
   height="75"
   viewBox="0 0 19.84375 19.84375"
   version="1.1"
   id="svg739"
   inkscape:version="1.2.2 (b0a8486541, 2022-12-01)"
   sodipodi:docname="taurus.svg"
   xml:space="preserve"
   xmlns:inkscape="http://www.inkscape.org/namespaces/inkscape"
   xmlns:sodipodi="http://sodipodi.sourceforge.net/DTD/sodipodi-0.dtd"
   xmlns="http://www.w3.org/2000/svg"
   xmlns:svg="http://www.w3.org/2000/svg"><sodipodi:namedview
     id="namedview741"
     pagecolor="#000000"
     bordercolor="#999999"
     borderopacity="1"
     inkscape:showpageshadow="0"
     inkscape:pageopacity="0"
     inkscape:pagecheckerboard="0"
     inkscape:deskcolor="#d1d1d1"
     inkscape:document-units="px"
     showgrid="false"
     inkscape:zoom="2.7937149"
     inkscape:cx="-3.4004902"
     inkscape:cy="26.130082"
     inkscape:window-width="1280"
     inkscape:window-height="955"
     inkscape:window-x="0"
     inkscape:window-y="0"
     inkscape:window-maximized="1"
     inkscape:current-layer="layer1" /><defs
     id="defs736" /><g
     inkscape:label="Warstwa 1"
     inkscape:groupmode="layer"
     id="layer1"><path
       style="fill:#ffffff;stroke-width:0.0313388"
       d="m 10.330424,19.823214 c -0.0429,-0.01567 -0.20442,-0.03864 -0.3588302,-0.05103 -0.15442,-0.01239 -0.36994,-0.04948 -0.47894,-0.08241 -0.30211,-0.09128 -0.5188,-0.123255 -1.02394,-0.151089 -0.40223,-0.02216 -0.49586,-0.03756 -0.71927,-0.118307 -0.14126,-0.05105 -0.27855,-0.09283 -0.30508,-0.09283 -0.0265,0 -0.17106,-0.06216 -0.32118,-0.138135 -0.15012,-0.07597 -0.37205,-0.183031 -0.49316,-0.237906 -0.13622,-0.06172 -0.26011,-0.145121 -0.32482,-0.218675 -0.0575,-0.0654 -0.1258,-0.118901 -0.1517,-0.118901 -0.0259,0 -0.0878,-0.05215 -0.1376,-0.115895 -0.0498,-0.06374 -0.12281,-0.13399 -0.16228,-0.156105 -0.0395,-0.02211 -0.17324,-0.124033 -0.29727,-0.226486 -0.12403,-0.102455 -0.29572,-0.242947 -0.38153,-0.312208 -0.0858,-0.06926 -0.17825,-0.161277 -0.20544,-0.204482 -0.0272,-0.0432 -0.15021,-0.171284 -0.27338,-0.28462 -0.12317,-0.113337 -0.26635,-0.263757 -0.31818,-0.334268 -0.0518,-0.07051 -0.15197,-0.184594 -0.22255,-0.253521 -0.14563,-0.142229 -0.24025,-0.320972 -0.21213,-0.400733 0.0196,-0.05561 -0.0511,-0.148738 -0.28298,-0.372879 -0.0972,-0.0939 -0.12784,-0.151646 -0.14578,-0.274341 -0.0154,-0.105266 -0.0537,-0.190526 -0.11881,-0.264261 -0.0529,-0.05987 -0.0961,-0.132238 -0.0961,-0.160816 0,-0.02858 -0.0351,-0.07267 -0.078,-0.09798 -0.0573,-0.03379 -0.0837,-0.08437 -0.0993,-0.190333 -0.0117,-0.07937 -0.0423,-0.171398 -0.0681,-0.204507 -0.0685,-0.08809 -0.17894,-0.377357 -0.25423,-0.666136 -0.0809,-0.310292 -0.0922,-0.441412 -0.1461,-1.692194 -0.0184,-0.426096 -0.0123,-0.467875 0.10189,-0.701396 0.024,-0.04906 0.061,-0.18674 0.0823,-0.305952 0.0256,-0.143481 0.064,-0.243993 0.11348,-0.297341 0.0412,-0.04432 0.10638,-0.136549 0.14493,-0.204942 0.0386,-0.06839 0.0852,-0.13274 0.10361,-0.142992 0.0184,-0.01025 0.0335,-0.05717 0.0335,-0.104257 0,-0.08567 0.24648,-0.411641 0.53964,-0.7136917 0.0714,-0.07359 0.15388,-0.180784 0.18322,-0.238206 0.0293,-0.05742 0.0946,-0.157773 0.14497,-0.223005 0.0504,-0.06523 0.17344,-0.232335 0.27345,-0.371342 0.10001,-0.139006 0.27431,-0.341877 0.38733,-0.450822 0.11301,-0.108946 0.33925,-0.334009 0.50275,-0.50014 0.1635,-0.166131 0.42362,-0.397456 0.57803,-0.514057 0.15442,-0.1166 0.4071,-0.321058 0.56152,-0.454352 0.15441,-0.133294 0.3142,-0.258197 0.35507,-0.277563 0.0603,-0.02856 0.0743,-0.06051 0.0743,-0.169153 0,-0.199826 -0.10121,-0.354352 -0.27826,-0.424855 -0.0939,-0.03738 -0.16572,-0.09187 -0.20015,-0.151817 -0.0296,-0.05143 -0.12209,-0.132537 -0.20566,-0.180245 -0.15529,-0.08866 -0.57108,-0.45733 -0.57108,-0.506371 0,-0.01494 -0.0575,-0.05983 -0.12773,-0.09975 -0.19952,-0.113383 -1.29257,-1.107036 -1.29257,-1.175031 0,-0.10657 -0.0703,-0.200183 -0.2675,-0.35649 -0.10721,-0.08495 -0.19492,-0.178343 -0.19492,-0.207543 0,-0.0292 -0.0371,-0.09197 -0.0825,-0.139483 -0.0454,-0.04752 -0.0825,-0.104148 -0.0826,-0.125848 -3e-5,-0.0217 -0.0461,-0.0809 -0.10236,-0.131562 -0.0563,-0.05066 -0.13789,-0.139946 -0.18136,-0.198417 -0.0435,-0.05847 -0.10861,-0.139762 -0.14475,-0.180646 -0.0443,-0.05007 -0.0815,-0.170418 -0.11421,-0.368653 -0.0267,-0.161875 -0.0641,-0.30839 -0.0832,-0.325588 -0.0191,-0.0172 -0.0347,-0.06041 -0.0347,-0.09603 0,-0.03562 -0.021,-0.110088 -0.0468,-0.165492 -0.12725,-0.274172 -0.18091,-1.17366205 -0.08,-1.34137805 0.0674,-0.112074 0.39624,-0.356533 0.61134,-0.454506 0.37675,-0.171593 0.92614,-0.123568 1.16547,0.101879 0.33106,0.311853 0.50787,0.517119 0.6361,0.738476 0.19366,0.33431505 0.36562,0.59893305 0.59329,0.91298705 0.10582,0.145967 0.19239,0.297069 0.19239,0.335782 0,0.04112 0.0585,0.128582 0.14077,0.210349 0.22184,0.220585 0.40228,0.425947 0.50178,0.571107 0.13026,0.190041 0.34451,0.384806 0.486,0.441813 0.0666,0.02684 0.22037,0.148886 0.34169,0.271215 0.12793,0.128997 0.29124,0.257207 0.38883,0.305246 0.0925,0.04556 0.19263,0.102687 0.22242,0.126958 0.0298,0.02427 0.0647,0.04413 0.0775,0.04413 0.0129,0 0.11933,0.06621 0.23661,0.147133 0.2026,0.139784 0.73324,0.38808 0.82939,0.38808 0.0247,0 0.0778,0.02951 0.11782,0.06558 0.0423,0.03809 0.13579,0.07401 0.22296,0.08569 0.0825,0.01106 0.26359,0.03557 0.40231,0.05446 0.3555802,0.04844 0.7980602,0.05105 1.0690002,0.0063 0.36415,-0.06013 0.44143,-0.0842 0.92485,-0.288137 0.0908,-0.03832 0.31203,-0.116918 0.49156,-0.174664 0.36765,-0.118263 0.45893,-0.17358 0.81184,-0.492019 0.24017,-0.216713 0.53723,-0.597393 0.59805,-0.766392 0.0161,-0.04489 0.0603,-0.170919 0.098,-0.280069 0.0378,-0.10915 0.0897,-0.214177 0.11542,-0.233393 0.0257,-0.01922 0.0843,-0.103856 0.13021,-0.188088 0.0459,-0.08423 0.13542,-0.226741 0.19896,-0.316687 0.0635,-0.08995 0.11558,-0.189493 0.11566,-0.221218 9e-5,-0.05752 0.18938,-0.366551 0.36824,-0.601329 0.0519,-0.06809 0.0943,-0.155014 0.0943,-0.193169 0,-0.118243 0.16428,-0.52045705 0.26237,-0.64234405 0.10893,-0.135365 0.2342,-0.194809 0.55793,-0.264751 0.22398,-0.04839 0.24746,-0.04823 0.49192,0.0033 0.23967,0.05055 0.26821,0.06524 0.42984,0.221163 0.0952,0.09186 0.18242,0.193774 0.19376,0.226481 0.0113,0.03271 0.057,0.103178 0.10147,0.156599 0.1886,0.22659905 0.28111,0.57579305 0.21122,0.79726605 -0.0202,0.06411 -0.0519,0.256306 -0.0704,0.427106 -0.0185,0.170799 -0.0491,0.327271 -0.0679,0.347715 -0.0188,0.02044 -0.0549,0.125849 -0.0801,0.234234 -0.0252,0.108386 -0.0747,0.239591 -0.11007,0.291567 -0.0353,0.05198 -0.0819,0.154714 -0.10339,0.228305 -0.0215,0.07359 -0.0582,0.153874 -0.0815,0.178405 -0.0233,0.02453 -0.0719,0.105737 -0.10803,0.180459 -0.0361,0.07472 -0.13083,0.196109 -0.21051,0.269748 -0.26063,0.240865 -0.63898,0.660628 -0.78681,0.872957 -0.25595,0.367597 -0.30592,0.428991 -0.36228,0.445095 -0.0304,0.0087 -0.1117,0.07654 -0.18064,0.150782 -0.0689,0.07424 -0.18727,0.169539 -0.26297,0.211773 -0.0757,0.04223 -0.17312,0.11641 -0.2165,0.164834 -0.0434,0.04842 -0.18855,0.134906 -0.32259,0.192183 -0.18193,0.07774 -0.28336,0.145579 -0.40007,0.267587 -0.0901,0.09421 -0.24215,0.206743 -0.35889,0.265649 -0.1114,0.05621 -0.26747,0.152582 -0.34682,0.214157 -0.20736,0.160912 -0.31084,0.213924 -0.41756,0.213924 -0.14279,0 -0.21298,0.06212 -0.21789,0.192834 -0.004,0.109506 0.003,0.117398 0.17739,0.197627 0.0999,0.04596 0.2401,0.0985 0.31152,0.116756 0.0714,0.01825 0.17546,0.06394 0.23121,0.101528 0.0557,0.03759 0.18682,0.111287 0.29128,0.163779 0.10446,0.05249 0.18993,0.106851 0.18993,0.120797 0,0.01395 0.177,0.15951 0.39333,0.323475 0.21633,0.163966 0.39841,0.311367 0.40462,0.327559 0.006,0.01619 0.12383,0.133612 0.26139,0.260933 0.13756,0.127322 0.29259,0.285015 0.34453,0.35043 0.19538,0.246098 0.7031,0.700155 0.9002,0.80506 0.0773,0.04116 0.19624,0.124973 0.26424,0.186263 0.15069,0.1357967 0.51225,0.5523967 0.5405,0.6227607 0.0662,0.16487 0.0951,0.274624 0.0951,0.360765 0,0.05356 0.0205,0.166342 0.0456,0.250628 0.13928,0.468213 0.14196,0.667797 0.0147,1.089869 -0.0385,0.127625 -0.0659,0.305668 -0.064,0.416276 0.002,0.1063 -0.0128,0.333766 -0.0323,0.505479 -0.0281,0.246842 -0.0522,0.334331 -0.11531,0.417875 -0.0439,0.05812 -0.0798,0.127173 -0.0798,0.153458 0,0.100405 -0.1439,0.380268 -0.21801,0.423977 -0.049,0.02888 -0.0969,0.105719 -0.13011,0.208544 -0.0289,0.08955 -0.067,0.170836 -0.0846,0.180641 -0.0176,0.0098 -0.0305,0.06692 -0.0287,0.126919 0.005,0.156605 -0.0472,0.423803 -0.0993,0.510239 -0.0246,0.04074 -0.11468,0.149839 -0.20029,0.242441 -0.0939,0.101567 -0.17821,0.232936 -0.21251,0.331104 -0.0324,0.09275 -0.11899,0.230916 -0.20132,0.321274 -0.0795,0.0872 -0.19165,0.239375 -0.24931,0.338175 -0.0577,0.0988 -0.17526,0.266607 -0.26132,0.372906 -0.0861,0.1063 -0.16745,0.240103 -0.18087,0.29734 -0.0361,0.154099 -0.1277,0.299257 -0.26206,0.415448 -0.0657,0.05678 -0.2302,0.250797 -0.36564,0.431144 -0.25972,0.345824 -0.87438,0.971516 -1.0512,1.070067 -0.0575,0.03205 -0.11669,0.07593 -0.13152,0.0975 -0.0403,0.05864 -0.22916,0.159452 -0.70269,0.375075 -0.34212,0.155784 -0.49171,0.205929 -0.75672,0.25366 -0.36712,0.06612 -1.0562,0.0972 -1.17707,0.05309 z m 0.35578,-2.911661 c 0.0521,-0.0205 0.13922,-0.06297 0.19372,-0.09438 0.372,-0.214384 0.43908,-0.256257 0.47775,-0.298195 0.0238,-0.02585 0.0924,-0.06797 0.15244,-0.09361 0.06,-0.02564 0.13496,-0.08226 0.16654,-0.125821 0.0316,-0.04356 0.27398,-0.273753 0.53867,-0.511532 0.55816,-0.501397 0.76932,-0.719699 0.85122,-0.879999 0.0323,-0.0632 0.1367,-0.193913 0.23201,-0.290473 0.0953,-0.09656 0.20173,-0.230364 0.23649,-0.297341 0.21146,-0.40742 0.36372,-0.805157 0.42795,-1.117867 0.0185,-0.08995 0.059,-0.270358 0.0901,-0.400916 0.0311,-0.130559 0.0602,-0.324573 0.0646,-0.431144 0.004,-0.10657 0.0191,-0.237489 0.0326,-0.29093 0.0192,-0.07581 0.004,-0.137893 -0.0701,-0.282474 -0.0888,-0.173732 -0.0952,-0.212158 -0.10216,-0.615161 -0.004,-0.236421 -0.0238,-0.465501 -0.0439,-0.509069 -0.0408,-0.08863 -0.41447,-0.388413 -0.968,-0.7765617 -0.20277,-0.142185 -0.44298,-0.310712 -0.53382,-0.374504 -0.25657,-0.180191 -0.7483,-0.415128 -1.08308,-0.517471 -0.31861,-0.0974 -0.38105,-0.102762 -1.8152402,-0.155917 -0.19525,-0.0072 -0.36736,-0.02004 -0.38247,-0.02844 -0.0423,-0.02354 -0.33788,0.06462 -0.46767,0.139476 -0.0638,0.03682 -0.20328,0.105799 -0.30986,0.153283 -0.10657,0.04748 -0.28494,0.166441 -0.39636,0.264348 -0.11142,0.09791 -0.27197,0.21929 -0.35678,0.26974 -0.22708,0.135087 -0.4711,0.318668 -0.54267,0.4082517 -0.0346,0.04326 -0.1684,0.210514 -0.29743,0.371676 -0.18549,0.231682 -0.6407,0.986539 -0.6407,1.062445 0,0.0088 -0.0466,0.08675 -0.10364,0.173323 -0.16765,0.254644 -0.31911,0.625327 -0.35781,0.875663 -0.0198,0.128282 -0.0514,0.28676 -0.0703,0.352175 -0.0188,0.06542 -0.0498,0.172457 -0.0689,0.237873 -0.0744,0.254605 -0.0146,0.615196 0.13295,0.801654 0.0523,0.06606 0.10579,0.173024 0.11897,0.237706 0.0132,0.06468 0.0599,0.156028 0.10377,0.202987 0.0439,0.04696 0.0798,0.103453 0.0798,0.125542 0,0.02209 0.0348,0.0648 0.0773,0.09492 0.0425,0.03012 0.0968,0.08795 0.12051,0.128528 0.0601,0.102755 0.18039,0.235816 0.4236,0.468727 0.11471,0.109848 0.23162,0.238841 0.2598,0.28665 0.10255,0.173988 0.35742,0.370567 0.62023,0.478384 0.14059,0.05767 0.32476,0.148006 0.40927,0.200735 0.28509,0.177878 0.50659,0.288703 0.64319,0.321817 0.0747,0.01812 0.19583,0.05736 0.26909,0.08722 0.69154,0.281808 1.06769,0.378317 1.4919002,0.382782 0.17739,0.0019 0.34073,-0.01218 0.39636,-0.0341 z"
       id="path259" /></g></svg>
